<?xml version="1.0" encoding="utf-8"?>
<!-- Generator: Adobe Illustrator 28.3.0, SVG Export Plug-In . SVG Version: 6.00 Build 0)  -->
<svg version="1.1" id="Calque_1" xmlns="http://www.w3.org/2000/svg" xmlns:xlink="http://www.w3.org/1999/xlink" x="0px" y="0px"
	 viewBox="0 0 799.9 173" style="enable-background:new 0 0 799.9 173;" xml:space="preserve">
<path d="M781.9,173c-254.6,0-509.3,0-763.9,0c-8.9-3.1-14.9-9.1-18-18c0-45.7,0-91.3,0-137C3.1,9.1,9.1,3.1,18,0
	c254.6,0,509.3,0,763.9,0c8.9,3.1,14.9,9.1,18,18c0,45.7,0,91.3,0,137C796.8,163.9,790.8,169.9,781.9,173z M4,132
	c0,5.4,0.2,10,0,14.7c-0.7,13.5,8.9,22.5,22.5,22.5c249-0.2,497.9-0.1,746.9-0.1c1.2,0,2.3,0.1,3.5,0c6.2-0.7,11.4-2.9,15.2-8.4
	c6.3-9,2.7-18.8,3.9-28.7c-37.2,0-73.6,0-109.9,0c0-1.8,0-3.1,0-4.9c36.6,0,73,0,109.4,0c0-10.9,0-21.3,0-31.7c-40,0-79.6,0-119.4,0
	c-0.1,1.9-0.3,3.7-0.4,5.4c-5.1,0-9.9,0-14.6,0c-0.1-2-0.3-3.6-0.4-5.4c-1.6,0-3,0-4.5,0c0,20.1,0,40,0,60.3c-4.7,0-9.4,0-14.5,0
	c0-20.2,0-40.2,0-60.2c-14.8,0-29.2,0-43.6,0c-0.2,2-0.3,3.6-0.4,5.3c-5,0-9.8,0-14.6,0c-0.1-1.9-0.2-3.6-0.4-5.4
	c-76.9,0-153.6,0-230.6,0c0,2.9,0,5.5,0,8.3c1.2,0.3,2.4,0.6,3.6,0.8c0,2.9,0,5.5,0,8.2c-0.5-0.1-1.1-0.3-1.6-0.4
	c-0.7,1.6-2,3.2-2,4.8c-0.2,8.5-0.2,17,0,25.5c0.1,1.9,1.5,3.8,2.3,5.7c0.4-0.1,0.9-0.3,1.3-0.4c0,2.6,0,5.2,0,8.2
	c-2.9,0-5.5,0-8.1,0c-1,0-2,0.2-3-0.1c-5.4-1.3-8-3.2-7.7-8.8c0.4-9.8,0.2-19.7,0-29.5c0-1.9-1.5-3.8-2.3-5.7
	c-0.5,0.1-0.9,0.3-1.4,0.4c0-2.6,0-5.2,0-7.8c6.8-1.3,2.7-6,3.6-9.1c-41.6,0-82.6,0-124,0c0,20.3,0,40.3,0,60.6
	c-4.2,0-8,0.2-11.7-0.1c-1.1-0.1-2.9-1.9-2.9-2.9c0-19,0.1-37.9,0.2-56.9c0-0.2-0.1-0.5-0.3-1c-1.3,0.1-2.6,0.3-3.9,0.4
	c-0.1,2.1-0.2,3.7-0.3,5.3c-5.2,0-9.9,0-14.6,0c-0.2-2-0.3-3.6-0.4-5.4c-58.3,0-116.3,0-174.4,0c0,10.7,0,21.1,0,31.8
	c36.3,0,72.2,0,108.3,0c0,1.7,0,3.1,0,4.9C76.5,132,40.5,132,4,132z M600.2,4c-1.9,0-3.8,0-5.8,0C405.1,4,215.8,4,26.5,4
	c-1.2,0-2.3-0.1-3.5,0c-6.2,0.7-11.3,2.9-15.3,8.4c-5.4,7.4-3.2,15.4-3.8,23.7c36.7,0,72.8,0,109.2,0c-0.2,1.9-0.3,3.3-0.5,5
	c-36.3,0-72.2,0-108,0c0,11.4,0,22.3,0,33.1c264,0,527.4,0,791,0c0-11.2,0-22.1,0-33.5c-36.7,0-73.1,0-109.4,0c0-1.8,0-3.1,0-4.9
	c36.6,0,73,0,109.7,0c0-3.8,0-7.1,0-10.4c0-13.3-8.1-21.5-21.3-21.5c-44.7,0-89.3,0-134,0c-1.8,0-3.5,0-5,0c0,21.9,0,43.3,0,64.6
	c-5.1,0-9.8,0-14.8,0c0-21.7,0-43,0-64.3c-2.1,0-3.8,0-6.1,0c0,21.7,0,43.1,0,64.4c-5.2,0-9.8,0-14.5,0
	C600.2,47.2,600.2,25.9,600.2,4z M4.2,90.6c264.1,0,527.8,0,791.4,0c0-4.3,0-8.2,0-12.4c-263.9,0-527.6,0-791.4,0
	C4.2,82.5,4.2,86.4,4.2,90.6z"/>
<path d="M175,155.8c-5.2,0-9.8,0-15,0c0-12,0.1-23.7-0.1-35.5c0-2.5,1.8-6.9-2.2-7c-4.7-0.1-2.5,4.6-2.6,7.1
	c-0.2,11.6-0.1,23.3-0.1,35.2c-5,0-9.7,0-15,0c0-11.5,0-23,0-34.4c0-1.5,0.3-3.1-0.1-4.5c-0.4-1.3-1.5-2.5-2.3-3.7
	c-0.9,1.3-2.5,2.6-2.5,3.9c-0.2,11-0.1,22-0.1,33c0,1.8,0,3.6,0,5.7c-5,0-9.8,0-14.7,0c0-17.1,0-34,0-50.9c8.2-2.1,14.1-1.1,14.9,2
	c3.2-1.2,6.4-3.5,9.6-3.5c3.2,0,6.5,2.1,10.7,3.6c3.3-2.5,8.2-5.9,13.8-2.7c2.5,1.4,5.3,4.7,5.4,7.2C175.2,126,175,140.6,175,155.8z
	"/>
<path d="M455.3,107.5c4.4-6.3,10.3-2,15-3.9c0.3,1.2,0.6,2,0.6,2.8c0,16.1,0.1,32.3,0,48.4c0,5.9-3.3,10.9-9.1,11.5
	c-6.1,0.7-12.5,0.3-18.5-0.9c-2.5-0.5-4.9-4.1-6.3-6.7c-1-1.8-0.3-4.6-0.3-6.9c2,0.1,4,0.2,6.1,0.1c2.6,0,5.1-0.2,7.4-0.3
	c0.8,2.4,1.7,5,2.6,7.6c4.6-4.2,2.3-8.9,3.2-13c-2.7,1.3-5.2,3.1-7.9,3.6c-8.6,1.5-12.2-1.8-12.2-10.7c0-8,0.1-16,0-24
	c-0.1-4.7,0.3-9,5.3-11.1c5.4-2.3,10.1-0.9,14,3.4C455.4,107.7,455.7,107.7,455.3,107.5z M455.9,113.4c-0.4-0.3-0.8-0.6-1.2-0.9
	c-1.3,1.1-3.5,2.2-3.6,3.4c-0.3,7.4-0.2,14.9-0.1,22.3c0,0.9,1.4,1.8,2.2,2.7c0.9-0.9,2.6-1.8,2.6-2.8
	C456,129.9,455.9,121.6,455.9,113.4z"/>
<path d="M237.7,106.7c1.7-1.1,3-2.6,4.3-2.6c14.4,0,11.7-2,11.9,11.1c0.1,12-0.1,24,0.1,35.9c0.1,3.7-1.1,5.3-4.8,4.9
	c-2.3-0.2-4.7,0.2-7-0.1c-1.4-0.2-2.7-1.4-4.7-2.5c-1.3,0.6-3.7,2.1-6.4,3c-7.2,2.4-12.1-1.2-12.1-8.7c0-11.8,0-23.6,0-35.5
	c0-6.5,5.7-10.7,12-8.6C233.5,104.4,235.9,105.8,237.7,106.7z M234,146.5c0.4,0.3,0.8,0.6,1.2,0.9c1.2-1.2,3.5-2.3,3.6-3.5
	c0.3-9.3,0.3-18.6,0.1-27.9c0-1-1.6-2.1-2.5-3.1c-0.8,1.1-2.2,2.1-2.2,3.2C233.9,126.3,234,136.4,234,146.5z"/>
<path d="M621.3,107.6c1.8-4.2,4.4-4.7,15.4-3.1c0,16.9,0,33.8,0,50.7c-8.1,2.1-14.1,1.1-15.1-2.1c-2.4,1.2-4.7,2.9-7.2,3.5
	c-7,1.7-12.8-3.7-12.5-9.4c0.4-10.8,0.3-21.6,0-32.4c-0.1-4.5,0.6-8.4,4.8-10.6c4.7-2.4,9.2-1,13.2,2.1
	C620.3,106.7,620.8,107.2,621.3,107.6z M616.9,130c0,4.5-0.2,9,0.1,13.4c0.1,1.2,1.5,2.4,2.4,3.6c0.8-1.2,2.4-2.3,2.4-3.5
	c0.2-8.9,0.2-17.9,0-26.8c0-1.2-1.5-2.4-2.4-3.5c-0.8,1.2-2.3,2.3-2.4,3.5C616.8,121,616.9,125.5,616.9,130z"/>
<path d="M378.7,107.3c0.2-0.9,0.4-2,0.6-2.9c4.7,0,9.2,0,14,0c0,17.1,0,33.9,0,50.7c-7,2.4-13.7,1.3-14.5-2.2
	c-2.6,1.2-5.1,2.7-7.8,3.6c-5.9,2-11.5-0.7-11.9-6.8c-0.9-12.7-1.2-25.5-0.6-38.1c0.3-7,6.7-9.9,13.7-7.5
	C374.3,104.8,376.4,106.1,378.7,107.3z M378.9,130C378.9,130,378.9,130,378.9,130c0-4.5,0.2-9-0.2-13.5c-0.1-1.3-2-2.4-3-3.6
	c-0.7,1.3-1.9,2.6-2,4c-0.1,8.6,0,17.3,0.2,25.9c0,1.4,1.1,2.7,1.6,4.1c1.1-1.3,3-2.5,3.2-4C379.2,138.7,378.9,134.4,378.9,130z"/>
<path d="M416.9,155.7c0-12.6,0.1-24.8-0.1-36.9c0-1.9-1.5-5.4-2.3-5.4c-3.9,0-2.6,3.4-2.6,5.6c-0.1,12.1-0.1,24.3-0.1,36.7
	c-5,0-9.7,0-14.7,0c0-17,0-33.9,0-50.9c7.7-2.1,14.1-1.1,15.1,3c4.7-4.5,9.9-6.9,15.8-2.9c1.7,1.1,3.6,3.4,3.6,5.2
	c0.3,15.1,0.2,30.2,0.2,45.7C426.9,155.7,422.2,155.7,416.9,155.7z"/>
<path d="M257.3,104.1c5,0,9.6,0,14.3,0c0.2,1.1,0.3,2,0.5,3.2c1.2-0.8,2.3-1.7,3.5-2.4c3.9-2.5,8.2-2.6,12.1-0.4
	c3.3,1.9,4.3,5.4,4.3,9.4c-0.2,13.8-0.1,27.6-0.1,41.8c-4.9,0-9.6,0-15,0c0-9.2,0-18.5,0-27.7c0-3.3,0.3-6.7-0.1-10
	c-0.2-1.7-1.7-3.3-2.5-4.9c-0.8,1.6-2.2,3.1-2.2,4.7c-0.2,12.5-0.1,24.9-0.1,37.8c-4.9,0-9.6,0-14.6,0
	C257.3,138.7,257.3,121.7,257.3,104.1z"/>
<path d="M528.6,104c0.2,1.3,0.4,2.3,0.7,3.7c4.6-3.7,9.4-6.5,14.9-3.6c2,1,4.5,3.6,4.5,5.6c0.4,15.3,0.2,30.5,0.2,46.3
	c-4.2,0-8,0-11.8,0c-3.2,0-3.2-2.1-3.2-4.4c0-10.8,0-21.6,0-32.5c0-1.8,0-3.6,0-5.8c-4.7-1-5,1.9-5,5c0,11.2,0,22.3,0,33.5
	c0,1.2,0,2.3,0,4.2c-4.3,0-8.3,0.2-12.4-0.2c-1-0.1-2.5-2.2-2.5-3.3c-0.2-15-0.2-30,0-44.9c0-1.2,2.1-3.2,3.5-3.4
	C521.1,103.7,524.8,104,528.6,104z"/>
<path d="M331,129.8c0,4,0,8,0,12c0,9.2-3.3,13.8-12,14.9c-5.1,0.6-10.6,0.1-15.6-1.2c-5.1-1.3-7.1-6.2-7.3-11.2
	c-0.3-9.6-0.4-19.3,0-28.9c0.3-5.4,2.9-11.2,9.9-11.4c5.8-0.2,11.7-0.4,17.4,0.4c4.2,0.5,7.4,6.2,7.5,11.5
	C331.1,120.5,331,125.2,331,129.8z M311,129c0,5.2-0.2,10.3,0.1,15.4c0.1,1.2,1.6,2.3,2.5,3.5c0.8-1.2,2.3-2.3,2.3-3.5
	c0.2-10,0.2-19.9,0-29.9c0-1.2-1.5-2.4-2.4-3.6c-0.8,1.2-2.3,2.3-2.4,3.5C310.8,119.4,311,124.2,311,129z"/>
<path d="M495.1,147.5c0-3.9,0-7.8,0-11.9c5,0,9.5,0,13.9,0c2.7,8.8,1,17-5.2,19.1c-5.5,1.8-11.9,1.9-17.8,1.7
	c-7-0.2-10.7-5.3-10.9-11.6c-0.3-10.9,0.3-21.8,0.9-32.7c0.3-4.6,3.4-7.7,8-8c5.8-0.4,11.7-0.6,17.5,0.1c4.9,0.5,8.4,5.6,8.4,10.7
	c0,5.5,0,11,0,17c-6.6,0-13,0-20,0c0,4.5,0.1,8.4,0,12.3C489.8,147.6,491.5,148.5,495.1,147.5z M494.9,123.7c0-3.5,0.3-6.5-0.1-9.4
	c-0.2-1.2-1.7-2.2-2.6-3.3c-0.8,1.1-2.1,2.1-2.2,3.2c-0.3,3.1-0.1,6.2-0.1,9.5C491.7,123.7,493.1,123.7,494.9,123.7z"/>
<path d="M553,104.1c8.9,0,17.6,0,26.9,0c0.7,15.5-8.6,28.1-11.8,42.8c3.8,0,7.6,0,11.5,0c0,3.1,0,5.7,0,8.6c-9,0-18,0-27.8,0
	c-0.6-15.4,8.8-28,11.8-42.7c-3.6,0-7,0-10.7,0C553,109.9,553,107.3,553,104.1z"/>
<path d="M179.3,104.2c4.8,0,9.4,0,14.4,0c0,17,0,34.1,0,51.4c-4.7,0-9.4,0-14.4,0C179.3,138.5,179.3,121.5,179.3,104.2z"/>
<path d="M597.6,155.8c-5,0-9.5,0-14.4,0c0-17.1,0-34,0-51.4c4.6,0,9.3,0,14.4,0C597.6,121.3,597.6,138.3,597.6,155.8z"/>
<path d="M661.2,155.7c0-17.1,0-34,0-51.3c4.7,0,9.4,0,14.4,0c0,16.9,0,34,0,51.3C670.8,155.7,666.1,155.7,661.2,155.7z"/>
<path d="M776.7,142c5.4-0.1,11.1,5.1,11.2,10.3c0.1,5.2-5.5,11.3-10.7,11.6c-4.7,0.2-11-5.7-11.3-10.6
	C765.7,147.9,771.2,142.1,776.7,142z M776.8,161c5.4,0,9.2-3.4,9-8.2c-0.1-4.6-4.4-8.9-8.9-8.8c-5,0.1-9.3,4.5-9.1,9.2
	C768.1,158,771.5,161,776.8,161z"/>
<path d="M120.3,17.8C125.6,19,131.1,16,136,20c6.8-5,14-4.6,17.5,0.5c4.5-1.2,8.5-3,12.6-3.3c5.9-0.5,8.7,2.5,8.8,8.6
	c0.2,12.5,0,25,0,37.5c0,1.7,0,3.3,0,5.4c-4.9,0-9.6,0-15,0c0-6,0-12.1,0-18.2c0-6.7,0.2-13.3-0.1-20c-0.1-1.5-1.8-2.9-2.7-4.3
	c-0.7,1.4-2,2.9-2,4.3c-0.2,12.6-0.1,25.3-0.1,38.2c-5,0-9.8,0-15,0c0-11.4,0-22.7,0-34c0-1.3,0.3-2.8-0.1-4
	c-0.5-1.6-1.5-3.1-2.3-4.6c-0.9,1.5-2.5,3-2.5,4.5c-0.2,11-0.1,22-0.1,33c0,1.6,0,3.3,0,5.1c-5.1,0-9.7,0-14.6,0
	C120.3,52,120.3,35.3,120.3,17.8z"/>
<path d="M237.9,20.4c4.7-4.8,10.4-1.2,15.7-2.6c0,17.3,0,34,0,51.3c-5.3-1.1-11.1,2.1-15.9-2.4c-2.2,1-4.7,2.9-7.4,3.2
	c-8.5,0.9-11.4-2-11.4-10.4c0-10.8,0-21.6,0-32.5c0-8.9,5.8-12.7,14.1-9.3C234.8,18.4,236.4,19.5,237.9,20.4z M236.8,25.8
	c-0.7,0.1-1.4,0.2-2.1,0.4c0,11.2,0,22.4,0,33.7c3,0.7,4.3-0.5,4.3-3.9c-0.1-8.3,0.1-16.6-0.1-24.8
	C238.8,29.3,237.5,27.6,236.8,25.8z"/>
<path d="M581.1,19.6c6.2-2.7,11.4-1.1,16.6-1.6c0,17.1,0,33.7,0,50.9c-5.1-0.3-10.3,1.3-15.8-1.3c-2.9,0.7-6.8,2.2-10.7,2.3
	c-5.7,0.1-8.2-3-8.2-8.7c0-11.3,0-22.6,0-34c0-3.8,0.1-8,4.3-9c3.9-0.9,8.2-0.1,12.4,0.2C580.5,18.4,581.3,19.8,581.1,19.6z
	 M582.9,43c0-4.5,0.2-9-0.1-13.4c-0.1-1.2-1.6-2.4-2.4-3.5c-0.8,1.2-2.4,2.3-2.4,3.5c-0.2,8.9-0.2,17.9,0,26.8
	c0,1.2,1.6,2.4,2.4,3.5c0.8-1.2,2.3-2.3,2.4-3.5C583.1,52,582.9,47.5,582.9,43z"/>
<path d="M272.6,21c3.6-5,8.7-4.7,13-3.7c2.5,0.6,6,4.1,6.1,6.4c0.6,14.9,0.3,29.8,0.3,45c-5.1,0-9.7,0-15,0c0-3.7,0-7.5,0-11.3
	c0-9.2,0.1-18.3-0.1-27.5c0-1.4-1.6-2.7-2.4-4c-0.8,1.4-2.3,2.7-2.3,4.1c-0.2,11-0.1,22-0.1,32.9c0,1.8,0,3.6,0,5.6
	c-5,0-9.6,0-14.6,0c0-16.6,0-33.3,0-50C264.4,17,270.8,17.7,272.6,21z"/>
<path d="M506.6,19.4c4-3.1,9.1-0.5,14.3-1.6c0,17,0,33.5,0,50.3c-4.8,2.3-13,1.4-14.4-1.1c-3.8,1.1-7.4,2.7-11,3
	c-6,0.4-8.8-3.5-8.8-9.5c0.1-11.6-0.3-23.2-0.6-34.7c-0.1-4.5,3.2-8.9,7.9-8.6C498.3,17.4,502.5,18.6,506.6,19.4z M502.6,59.8
	c4,0.8,4.3-1.9,4.3-4.7c0.1-8,0.2-16-0.1-23.9c-0.1-1.9-1.5-3.7-2.3-5.5c-0.6,0.2-1.3,0.3-1.9,0.5C502.6,37.2,502.6,48.3,502.6,59.8
	z"/>
<path d="M295,43.4c0-3.7,0-7.3,0-11c0-11.1,3-15,14-16.3c4.3-0.5,8.9,0.2,13.1,1.5c5.8,1.8,7.9,6.8,8,12.6c0.1,8.7,0.1,17.3,0,26
	c-0.1,7.1-2.8,11.2-9.7,12.8c-6.4,1.5-13,2.2-19.2-1.2c-3.9-2.1-6-5.5-6-10C294.9,53.1,295,48.3,295,43.4z M315,43
	c0-5,0.2-10-0.1-14.9c-0.1-1.3-1.6-2.5-2.5-3.7c-0.8,1.2-2.2,2.4-2.2,3.6c-0.2,10-0.2,19.9,0,29.9c0,1.3,1.7,2.5,2.6,3.8
	c0.8-1.2,2.2-2.4,2.2-3.7C315.1,53,315,48,315,43z"/>
<path d="M675.9,45.1c-7,0-13.2,0-20.1,0c1.1,5.9-2.1,12,2.5,16.8c0.6,0,1.3,0.1,1.9,0.1c0.4-4.2,0.7-8.3,1.1-12.7
	c4.6,0,9.2,0,14.4,0c0,3.9,0.5,8.1-0.1,12.1c-0.7,4.7-4.8,7.4-8.9,8c-5.5,0.9-11.3,1-16.7-0.1c-6.3-1.3-9-6.4-9.1-14
	c-0.1-7.7,0-15.3,0-23c0-12,8.5-18.7,20.2-16.2c1.4,0.3,2.8,0.7,4.3,0.9c6.9,1,10.5,5.1,10.5,12C675.9,34.1,675.9,39.2,675.9,45.1z
	 M655.1,36.7c2.4,0.1,3.9,0.2,5.6,0.3c0-4.2,0-8,0-12.3C652.4,26.2,657.7,32.5,655.1,36.7z"/>
<path d="M390.6,49c1.4,0,3.1-0.3,4.7,0.1c3.2,0.8,7.9-2.7,9.5,2.3c2,6.3-1,14.5-5.8,16.6c-7.8,3.4-16.2,3.7-23.8-0.1
	c-2.6-1.3-4.8-5.6-5-8.7c-0.6-10.3-0.3-20.6-0.2-30.9c0-4.8,2.8-9.1,7.8-10.5c7.2-2.1,14.1-2.3,20.9,1.3c3.6,1.9,5.9,4.9,6.2,8.8
	c0.4,5.6,0.1,11.2,0.1,17.2c-6.7,0-13,0-19.9,0c0.4,5.9-1.1,11.5,1.1,17.4C392.7,59.3,388.6,53.7,390.6,49z M385.3,24.6
	c0,4.7,0,8.5,0,12.5c1.7-0.2,3.1-0.3,5.3-0.6C388.3,32.5,393.3,26.4,385.3,24.6z"/>
<path d="M346.9,48c-3.2-1.8-6.5-3.3-9.6-5.3c-5-3.2-6.8-9.4-5.2-16.7c1.1-5.1,4.7-8.4,11-9c5.1-0.5,10.4-0.6,15.5,0.1
	c7,0.9,12.2,14.5,7.8,19.8c-0.6,0.7-2,1-3.1,1c-3.3,0.1-6.7,0-10.6,0c2.3,1.1,4.3,2.2,6.5,3c5.9,2.2,8.8,6,7.8,12.5
	c-0.2,1-0.1,2,0,3c0.6,7.4-0.7,10.9-10.1,12.8c-5.6,1.2-11.8,0.5-17.6-0.5c-5-0.9-7.6-4.7-7.4-10.2c0.2-3.3,0-6.6,0-10.7
	c5.2,0,10.1,0,15.1,0c0,3.8-0.1,7.6,0,11.4c0,0.9,0.9,2.1,1.8,2.5c0.6,0.3,2-0.2,2.5-0.8C354,57.8,351.1,49.6,346.9,48z M351.9,37.1
	c0-3.5,0.2-6.5-0.1-9.4c-0.1-1-1.5-1.8-2.2-2.7c-0.9,0.8-2.4,1.5-2.5,2.4C346.7,31.2,346.4,35.2,351.9,37.1z"/>
<path d="M562.2,18.3c-3.6,16.9-7.1,33.6-10.7,50.5c-5.9,0-11.8,0-18.5,0c-3.5-16.6-7-33.3-10.7-50.5c5.5,0,10.1,0,15.1,0
	c1.5,8.5,3.1,17,4.6,25.6c0.2,0,0.4,0.1,0.7,0.1c1.5-8.5,3-17,4.5-25.7C552,18.3,556.7,18.3,562.2,18.3z"/>
<path d="M446.9,17.6c8.6-0.6,16.5-1.5,24.4-1.5c6.4,0,11.9,4.7,11.7,11.2c-0.4,11.7-0.1,11.7-11.6,11.6c-1.3,0-2.6,0-4.4,0
	c0-4.7,0-9.1,0-13.6c-3.1-0.6-4.5-0.6-4.4,3c0.3,12.5,0.1,24.9,0.3,37.4c0,2.9-0.9,4.3-4,4.2c-14.7-0.3-11.8,1.9-12-11.6
	C446.8,44.8,446.9,31.2,446.9,17.6z"/>
<path d="M409.2,17c6.7,0,13.1,0.1,19.6,0c1.9,0,3.9-1,5.7-0.6c8.1,1.7,9.4,3.5,9.4,12.1c0,3.3,0,6.6,0,10.2c-5.1,0-9.8,0-15,0
	c0-2.6,0.3-5.1-0.1-7.5c-0.4-2.1-1.5-5.9-2.3-5.9c-3.9,0-2.5,3.4-2.6,5.6c-0.1,11.5-0.1,23-0.1,34.4c0,1.3,0,2.6,0,4.3
	c-5,0-9.7,0-14.7,0C409.2,52.2,409.2,34.8,409.2,17z"/>
<path d="M212.7,5c0,21.7,0,42.6,0,63.8c-4.8,0-9.4,0-14.3,0c-0.1-1.1-0.4-2.2-0.4-3.3c0-18.5,0.1-37-0.1-55.4c0-4,1.2-5.4,5.2-5.1
	C206.2,5.2,209.3,5,212.7,5z"/>
<path d="M179.3,18.2c5,0,9.6,0,14.4,0c0,16.8,0,33.4,0,50.4c-4.6,0-9.3,0-14.4,0C179.3,52,179.3,35.3,179.3,18.2z"/>
<path d="M179.2,14.6c0-3.2,0-6.1,0-9.3c4.9,0,9.6,0,14.6,0c0,3.1,0,6,0,9.3C189.1,14.6,184.4,14.6,179.2,14.6z"/>
<path d="M773.4,147c2,0,4.1-0.5,5.8,0.2c1.2,0.4,1.8,2.4,2.7,3.7c-3.6,2.4-1.6,5.1-0.8,8.3c-1.8-1.9-3.7-3.8-5.8-6.1
	c-0.4,2.3-0.6,4.1-0.9,5.8c-0.3,0-0.7-0.1-1-0.1C773.4,155,773.4,151.2,773.4,147z"/>
</svg>
