<?xml version="1.0" encoding="utf-8"?>
<!-- Generator: Adobe Illustrator 28.3.0, SVG Export Plug-In . SVG Version: 6.00 Build 0)  -->
<svg version="1.1" id="Calque_1" xmlns="http://www.w3.org/2000/svg" xmlns:xlink="http://www.w3.org/1999/xlink" x="0px" y="0px"
	 viewBox="0 0 711.1 356.2" style="enable-background:new 0 0 711.1 356.2;" xml:space="preserve">
<g>
	<path d="M442.7,134.5c0-6,0-11.9,0-17.9c0.3,0.1,0.6,0.2,0.9,0.3c2.3-4.1,3.3-11.6-0.9-16c0-5.2,0-11.4,0-17.2
		c-4.8-3-1.3-7.6-2.9-11.1c-0.9-0.2-1.9-0.4-2.3-0.5c-1.9-2.9,2-7.2-3.2-8.8c0-1.4,0-2.9,0-4.5c-4.3,0-1.7-3.4-3.1-4.8
		c-1.8-2.3-5.6-4.4-4.7-8.3c-2.9-2.3-5.5-4.5-8.5-6.9c0-1.3,0-3,0-3.7c-2.4-2.4-4.2-4.2-6.5-6.6c-6.1,0.9-7.8-8.7-14-7.9
		c-5.6-10.1-8.8-2.3-9.9-8.4c-1.6,0-3,0-4.7,0c0.2-6.3-8.2,1.2-8.3-5.2c-2.7,0-5.3,0-6.8,0c-4-4.6-8.8-1.2-12.3-3
		c-0.1-0.9-0.3-1.8-0.4-2.7c-15.2,0-30.2,0-45.3,0c-0.1,1.1-0.2,2-0.3,3.1c-3.6,1-10.9-2.5-11.2,2.6c-3.6,0-7,0-10.4,0
		c-0.3,0.9-0.6,1.8-0.8,2.4c-2.2,0.5-5.2-1.2-5.1,2.8c-1.6,0-3,0-4.5,0c-0.3,0.9-0.6,1.8-0.8,2.3c-2.3,1-5.7-1.5-5.8,2.8
		c-1.7,0.1-3.2,0.2-4.7,0.3c0.2,0.2,0.3,0.4,0.5,0.7c-2.2,2.5-4.5,5-6.9,7.8c-1.3,0-2.9,0-3.8,0c-5,5.2-9.5,10-14.1,14.7
		c-0.2-0.2-0.5-0.4-0.7-0.6c0,1.4,0,2.8,0,3.8c-1.8,1.5-3.4,2.8-5.2,4.4c0,1.2,0,2.8,0,4.6c-0.9,0.3-1.8,0.6-2.7,0.9
		c0,1.6,0,3,0,4.4c-0.9,0.2-1.7,0.4-2.5,0.6c0,1.6,0,3,0,4.4c-0.9,0.3-1.8,0.6-2.7,0.9c0,1.8,0,3.4,0,5.1c-1.1,0.2-2.1,0.4-3.2,0.6
		c0,2.5,0,4.7,0,7c-0.3-0.1-0.6-0.2-1-0.4c-3.3,4.7,0.1,10.7-3.3,15.4c-0.3-0.1-0.6-0.2-0.8-0.3c0,9.7,0,19.3,0,29
		c0.3-0.1,0.6-0.2,1-0.2c4.5,4.7-2.3,15.5,4.3,17.4c0,2.6,0,5,0,7.3c1.2,0.2,2.1,0.3,3.2,0.5c0,2.8,0,5.3,0,8.1
		c5.6-0.1-0.2,5.8,5.2,5.7c0,1.9,0,3.6,0,4.6c1.9,1.7,3.3,3,5.2,4.6c-0.7,4,2.4,5.9,5.3,7.3c-0.1,0.1-0.3,0.2-0.4,0.3
		c5.9,6,11.8,12,18,18.2c1.2,0,2.7,0,3.4,0c1.7,2.2,3,3.9,4.4,5.8c1.6,0.6,4.9-1.5,4.8,2.7c1.9,0,3.5,0,5.1,0c1.4,4.9,5.6,1.3,8.2,3
		c-0.6,5.7,8.9-1.6,8.9,4.8c2.5,0,4.9,0,7.4,0c0.1,1.1,0.2,2,0.3,3.2c7.7,0.7,15.8-1.8,22.8,1.6c-0.1,0.3-0.2,0.6-0.3,0.9
		c4,0,8,0,12,0c2-5.4,14.5-1.4,19.8-2.5c0.2-1.2,0.4-2.2,0.6-3.3c3.3,0,6.5,0,9.9,0c0-6.5,8.8,1.4,9-5.2c2.5,0,4.8,0,7.2,0
		c0.2-0.9,0.3-1.6,0.5-2.6c1.8,0,3.6,0,4.7,0c1.7-2,3-3.5,4.5-5.3c1.1,0,2.5,0,3.3,0c1.7-2.2,3-3.9,4.4-5.8c1.4,0,3,0,4,0
		c4.4-4.6,8.4-8.7,12.4-12.8c-0.1-0.1-0.3-0.3-0.4-0.4c1.7-1.3,3.3-2.5,5.5-4.2c0-0.8,0-2.3,0-3.3c1.9-1.7,3.5-3,5.3-4.5
		c0-1.3,0-2.9,0-4.6c0.9-0.2,1.7-0.4,2.5-0.6c0-1.6,0-3,0-4.5c0.9-0.3,1.8-0.6,2.7-0.9c0-1.6,0-3,0-4.5c0.9-0.2,1.7-0.4,2.6-0.6
		c0-2.7,0-5.3,0-8c1.1-0.1,2.1-0.2,2.4-0.3C441.6,140,437.6,135.7,442.7,134.5z M383.5,124.4c-2.4,2.4,1.8,6.9-3.4,8.5
		c0,1.3,0,2.7,0,3.7c-1.8,1.6-3.4,2.9-5.2,4.4c0,1,0,2.4,0,4c-3.8,0.4-4.4,4.1-6.6,6.2c-1.2,0-2.6,0-3.6,0c-1.6,1.8-2.9,3.4-4.4,5.2
		c-1.2,0-2.9,0-4.7,0c0,6.3-8.6-1-8.3,5.2c-10,0-19.6,0-29.5,0c0.2-6.4-9,1.4-8.2-5.1c-2,0-3.6,0-5.4,0c-0.2-0.9-0.4-1.6-0.6-2.5
		c-1.5,0-2.9,0-3.9,0c-2.5-2.8-4.7-5.3-7.7-8.5c0.1,0-0.7-0.1-1.8-0.2c0-1.6,0-3.1,0-4c-1.9-1.6-3.3-2.9-5.2-4.6c0-0.8,0-2.3,0-3.9
		c-6.7-0.4,1.2-8.9-5.3-9c1.5-10.6-3.1-24.2,2.2-33.1c1.7-2.4-1.7-6.5,3-8.6c0-1.1,0-2.6,0-3.2c3.7-4.7,8.1-6,11.2-11.2
		c2.9-2.9,4.9-7,9.8-6.3c0.8-2.5,0.8-2.5,6-2.7c0-6.1,8.7,1.1,8.3-5c8.2,0,16.1,0,24.3,0c0,6.2,8.7-1.2,8.3,5.1c1.9,0,3.5,0,5.3,0
		c0.2,0.9,0.4,1.6,0.6,2.5c1.5,0,2.9,0,3.5,0c5,5.2,9.6,9.9,14.2,14.6c0.2-0.2,0.5-0.4,0.7-0.6c0.1,1.5,0.2,3,0.2,4.7
		c5.2,0-0.5,6,5,6.4c0,2.3,0,4.7,0,7.1c0.4-0.1,0.7-0.2,1.1-0.3C386.2,100.4,386.9,117.8,383.5,124.4z"/>
	<path d="M148.8,208c0.3-0.9,0.6-1.8,1-2.7c2.5,0,4.7,0,6.4,0c5.3-8.9,9-2.1,9.7-7.6c1.7-0.1,3.2-0.2,4.7-0.2
		c-0.2-0.2-0.3-0.4-0.5-0.7c4.6-6.4,11.8-10.8,16.8-16.4c0.8-3,3.2-4,5.3-5.6c0.1-1.4,0.1-2.9,0.2-3.5c2.3-1.7,3.9-3,5.9-4.5
		c0-1.4,0-3.1,0-4.9c5.3-0.2-0.1-5.9,5.1-5.7c0-1.6,0-3,0-4.5c5.9-0.9-0.9-7.8,5.3-9.5c0-2.3,0-4.6,0-7c1.1-0.1,2.1-0.3,3.1-0.4
		c0.4-5.9-1.4-11.8,1.7-17c0.2,0.1,0.5,0.2,0.7,0.3c0-5.2,0-10.3,0-15.5c-37.2,0-74.2,0-111.1,0c0,11.7,0,23.2,0,35
		c16.3,0,32.5,0,48.6,0c0.2,0.3,0.3,0.6,0.5,0.9c-0.9,0.8-1.8,1.6-3,2.8c0,0.8,0,2.2,0,3.6c-0.2-0.1-0.4-0.2-0.6-0.3
		c-0.9,1.2-1.8,2.5-2.7,3.7c-0.1-0.1-0.1-0.2-0.2-0.3c-1.9,1.8-3.8,3.6-5.7,5.4c-1.6,1-4.7-0.7-4.8,3.2c-1.6,0-3,0-4.4,0
		c-1.6,5.3-6.1,1-8.5,3.4c-5.8,3.2-25,2.8-31.2,0.1c0.1-0.3,0.2-0.7,0.3-1c-2.4,0-4.7,0-7.1,0c-0.3-4.6-4-1.5-5.3-2.6
		c-4.7-6.9-11.3-11.1-16.4-17.4c-0.2,0.2-0.5,0.4-0.7,0.5c0-1.4,0-2.8,0-4.3c-0.9-0.2-1.7-0.4-2.6-0.6c0-2.8,0-5.3,0-7.9
		c-0.4,0.1-0.8,0.2-1.2,0.3c-2.4-11.2-2.7-25.4,0.2-36.6c0.3,0.1,0.7,0.2,1,0.3c0-2.5,0-5,0-7.6c0.9-0.3,1.8-0.6,2.7-0.9
		c0-1.6,0-3,0-4.5c1.1-0.2,2.1-0.4,3.2-0.6C65,70,73,66.8,76.7,61.3c1.1,0,2.7,0,4.5,0c0.2-0.9,0.4-1.6,0.6-2.4
		c2.1-0.6,5.2,1.2,5.3-2.8c2.5,0,4.8,0,7,0c-0.1-0.3-0.2-0.7-0.2-1c7.8-2.6,18.6-2.8,26.4,0.1c2.1,2.3,6.2-1.5,7.4,3.5
		c1.6,0,3.4,0,5,0c0.6,2.4,0.6,2.4,4.8,2.8c3.9,4.3,6.8,8.2,11.9,11.8c-0.8,4.6,4,6.5,6,9.3c18.7,0,37.5,0,56.4,0c0-2.6,0-5,0-7.4
		c-1.1-0.1-2-0.2-2.6-0.2c-1.8-2.9,1.9-7.3-3.1-8.9c0-2.2,0-4.5,0-6.8c-0.9-0.3-1.8-0.6-2.4-0.9c-0.5-2.2,1.2-5.2-2.8-5.1
		c0-1.9,0-3.5,0-4.6c-2.8-2.5-5.3-4.8-7.8-7c-0.2,0.2-0.4,0.3-0.6,0.5c0.3-7.2-7.8-10.4-11.5-15.9c-1.1,0-2.8,0-3.9,0
		c-2.6-2.9-4.9-5.4-7.6-8.5c-0.5,0-1.9,0-3.4,0c-0.3-0.9-0.6-1.8-0.8-2.4c-2.3-0.9-5.6,1.5-5.8-2.9c-1.6,0-3,0-4.4,0
		c-0.3-0.9-0.6-1.8-0.8-2.3c-2.2-0.7-5.3,1.2-5.1-2.9c-3.6,0-7,0-10.3,0c0.1-0.3,0.2-0.7,0.3-1c-3.5-2.3-7.5-1.5-11.5-1.6
		c-0.3-1.2-0.5-2.2-0.6-3.1c-14.3,0-28.4,0-42.5,0c-0.2,1.1-0.3,2-0.5,3.1c-3.6,0-7.1,0-10.6,0c0.1,6.2-8.2-1.2-8.3,5.2
		c-1.9,0-3.6,0-5.5,0c0.1,5.5-5.8-0.2-5.6,5.1c-1.6,0-3,0-4.5,0c-0.3,0.9-0.6,1.8-0.9,2.7c-1.8,0-3.4,0-4.4,0
		c-1.6,2.2-2.9,3.9-4.4,5.9c-1.3,0-2.7,0-4.1,0c0.1,0.2,0.3,0.4,0.4,0.6c-1.9,1.8-3.8,3.5-5.8,5.3c-0.1-0.1-0.2-0.2-0.3-0.3
		C27.4,33,21,36,21.4,41.5c-1.8,1.5-3.4,2.8-5.1,4.3c-0.1,1.2-0.1,2.6-0.2,4.2c-1.1,0.1-2,0.3-2.9,0.4c0.2,0.2,0.3,0.4,0.5,0.6
		c-1.6,2-4,3.5-3.3,7.3c-0.9,0.3-1.8,0.6-2.4,0.8c-0.7,2.1,1.2,5.2-2.9,5.1c0,2.7,0,5.2,0,8.2C0,70.8,4.4,80.6,0.9,83.7
		c-0.3-0.1-0.6-0.2-0.9-0.3c0,17.1,0,34.1,0,51.4c6-0.4-0.8,8.2,4.7,8.3c1.8,2.8-2,7.1,3.1,8.7c0,1.4,0,2.9,0,4.3
		c2.4,0.6,2.4,0.6,2.8,5.3c0.7,0.2,1.5,0.3,2.5,0.6c0,1.9,0,3.6,0,4.5c2.2,1.7,3.9,3,5.9,4.5c0,1.1,0,2.6,0,3.5
		c8,6.1,13.7,17.6,23,19.9c1.7,2.3,3,3.9,4.5,5.8c1.4,0,3,0,4.8,0c0.2,0.9,0.4,1.6,0.6,2.4c2.1,0.6,5.2-1.2,5.3,2.8c1.6,0,3,0,4.4,0
		c1.6,5.2,6.1,1,8.6,3c1.6,5.6,8.9-1.4,8.5,5.4c7.3,0,14.3,0,21.4,0c0,0.4,0,0.7-0.1,1.1c4.1,2.3,11.2,2.9,16.2-1.2
		c4.6,0,10.7,0,16.8,0c0.1-1.1,0.2-2.1,0.3-2.7c3.6-1.8,8.3,1.8,11.3-3.1C145.5,208,147.2,208,148.8,208z"/>
	<path d="M483.1,157.8c1.5,1.5,2.5,2.5,3.8,3.7c6.5,0,13.7,0,21.1,0c0-24.3,0-48.5,0-73c9.1,0,17.8,0,26.4,0c0-7.6,0-14.8,0-22.2
		c-8.9,0-17.6,0-26.7,0c1.4-3.7-2-8.1,2.9-11.3c0-1.3,0-3,0-4.7c0.2,0.1,0.4,0.3,0.6,0.4c1.8-1.8,3.5-3.7,5.6-5.8
		c3.7,0,7.9,0,12.2,0c0.3,0.9,0.6,1.7,0.9,2.6c1.6,0,3,0,4.7,0c-0.7,3.2,1.3,2.5,3.2,2.4c0-1.7,0-3.2,0-4.8c1-0.2,1.8-0.4,2.7-0.6
		c0-1.6,0-3.1,0-4.6c4.5-0.4,1.5-4,2.6-5.5c1-0.7,1.8-1.2,2.5-1.8c0.1-0.1-0.2-1-0.5-1.3c-0.9-0.8-2-1.6-3.6-2.8c-1-0.2-4,1.5-4-2.5
		c-3.6,0-7,0-10.3,0c0.1-0.3,0.2-0.6,0.3-0.9c-1.1-0.6-2.4-1.7-3.4-1.6c-3.9,0.5-8.5-1.9-12.6,2.5c-1.3,0-3.6,0-6,0
		c-0.2,0.9-0.4,1.6-0.6,2.6c-1.8,0-3.5,0-4.5,0c-3.9,4.3-7.4,8.1-10.9,11.9c-0.2-0.1-0.4-0.3-0.6-0.4c0,1.5,0,3,0,4.5
		c-1.2,0.2-2.2,0.5-3.2,0.7c0,2.7,0.2,5.2-0.1,7.7c-0.1,1.3-1,2.5-1.5,3.7c-0.4-0.1-0.7-0.2-1.1-0.3c0,3.2,0,6.4,0,9.9
		c-5.4,0-10.6,0-16,0c0,7.7,0,14.9,0,22.3c5.4,0,10.6,0,16,0C483.1,112.2,483.1,135.5,483.1,157.8z"/>
	<path d="M643.6,89.9c0,15.8,0,31.5,0.1,47.3c0,1.2,1,2.5,1.5,3.7c0.4-0.1,0.7-0.2,1.1-0.3c0,1.5,0,3,0,4.5c4.7,0.3,1.4,4.3,2.9,6
		c0.2-0.2,0.4-0.4,0.6-0.6c2.8,2.7,5.6,5.4,9,8.7c1.4,0,3.8,0,6.1,0c-0.1,0.4-0.2,0.8-0.3,1.2c1,0.5,2.1,1.3,3.2,1.3
		c6.4,0.1,12.8,0.1,19.2,0c1.3,0,2.5-1,3.7-1.5c-0.1-0.3-0.2-0.6-0.3-0.9c1.5-0.1,3-0.1,4.3-0.2c0.4-0.9,0.6-1.8,1.1-2.4
		c0.5-0.6,1.3-1,1.9-1.5c-0.8-0.6-1.6-1.3-2.6-2.2c0-2.1,0-4.6,0-7c-5.2-1.3-1-5.9-3.1-8.2c-1.5,0-3,0-4.4,0
		c0.1,0.3,0.2,0.6,0.3,0.9c-1,0.5-1.9,1.4-2.9,1.5c-3.7,0.2-7.4,0.1-10.1,0.1c-2.5-2.4-4.4-4.2-6.3-6.1c0-15.8,0-31.9,0-48.1
		c8,0,15.8,0,23.7,0c0-6.5,0-12.8,0-19.6c-8.1,0-15.9,0-24.1,0c0-9.1,0-17.8,0-26.6c-4.6,0-8.8,0-13,0c0.1,0.3,0.2,0.6,0.3,0.9
		c-1.2,0.5-2.4,1.4-3.7,1.5c-2.6,0.2-5.3,0.1-8.2,0.1c0,8.3,0,16.1,0,24.2c-5.5,0-10.7,0-15.9,0c0,6.7,0,13,0,19.6
		c5.4,0,10.6,0,16.1,0C643.6,87.6,643.6,88.8,643.6,89.9z"/>
	<path d="M570.7,161.6c8,0,15.7,0,23.7,0c0-31.8,0-63.4,0-94.9c-8,0-15.8,0-23.7,0C570.7,98.4,570.7,129.9,570.7,161.6z"/>
	<path d="M605.9,189.3c0,7.1,0,14,0,21.1c35.3,0,70.3,0,105.2,0c0-7.2,0-14.2,0-21.1C675.9,189.3,641,189.3,605.9,189.3z"/>
	<path d="M238.6,327.7c0-1.8,0-3.4,0-4.2c-2.3-2.3-4.2-4.2-6.4-6.5c-0.8,0-2.1,0-2.9,0c-3.5-4.5-8.2-1.4-10.7-2.4
		c-4-4.8-8.6-1.5-11.7-2.9c-2.1-2.4-3.9-4.5-6.1-7c0-2.4,0-5.5,0-9.3c2.9,1.3,2.4-1.2,2.9-2.4c1.7-0.1,3.2-0.2,4.7-0.2
		c0.2-1.1,0.3-2,0.4-3c4.5,0,8.8,0,13.2,0c0.2,1.1,0.4,2.1,0.7,3.2c1.8,0,3.5,0,4.3,0c1.5,1.4,2.4,2.4,3.9,3.8c0,1.6,0,3.9,0,6.3
		c2.7,0,5.1,0,7.7,0c-0.3-2.3,1.4-5.2-2.6-5.4c0-1.6,0-3,0-3.4c-2.3-2.8-4.1-5-6.1-7.4c-1.3,0-2.9,0-4.6,0c-0.2-0.9-0.4-1.7-0.6-2.4
		c-6.3,0-12.3,0-18.5,0c0,4.2-3.4,1.7-4.8,2.9c-1.8,2.1-3.7,4.2-5.9,6.9c0,0.7,0,2.1,0,3.5c-1.1,0.2-2.1,0.4-3,0.6c0,2.6,0,5,0,7.3
		c1.1,0.2,2,0.3,3.1,0.5c0,1.9,0,3.6,0,5.3c0.2-0.1,0.4-0.2,0.6-0.3c0.9,1,1.8,2,2.9,3.3c1,0,2.4,0,3.9,0c0.2,0.9,0.4,1.7,0.6,2.5
		c2.7,0,5.2,0,8.1,0c-0.8,3.1,1.2,2.6,3,2.6c1.5,0,3.1-0.2,4.6,0.1c1.3,0.2,2.5,1,3.7,1.6c-0.1,0.4-0.2,0.7-0.3,1.1
		c1.7,0,3.4,0,5.1,0c0.2,1.1,0.3,2.1,0.5,3.3c1.7,0,3.3,0,4.8,0c0,3.6,0,6.8,0,8.7c-2.5,2.9-4.2,4.9-6.4,7.4c-0.9,0-2.5,0-4.1,0
		c0.1,0.3,0.2,0.5,0.3,0.8c-1,0.6-2.2,1.8-3.1,1.6c-2.9-0.6-7,2.4-8.8-2.6c-2.5,0-5.1,0-6.4,0c-2.6-2.7-4.4-4.7-6.9-7.3
		c0-1.4,0-3.8,0-6.2c-2.8,0-5.4,0-8,0c-0.2,0.2-0.4,0.5-0.6,0.7c0.9,0.9,1.8,1.7,3,2.9c0,1.8,0,4.1,0,6.4c1.1,0.2,2.1,0.4,3.3,0.6
		c0,1.9,0,3.6,0,5.5c1.7,0,3.2,0,4.8,0c0.2,1,0.4,1.8,0.6,2.7c1.6,0,3.1,0,4.6,0c-0.1,0.4-0.2,0.8-0.3,1.2c1,0.5,2.1,1.3,3.1,1.3
		c4.5,0.1,8.9,0.2,13.4,0c1.3-0.1,2.5-1,3.7-1.5c-0.1-0.4-0.2-0.7-0.3-1.1c2.6,0,5.2,0,6.7,0c2.5-2.4,4.3-4.2,6.5-6.3
		c0-1,0-2.6,0-4.2c0.3,0.1,0.6,0.2,0.9,0.3c0.6-1.1,1.6-2.3,1.6-3.4C241,331.2,242.8,328,238.6,327.7z"/>
	<path d="M616.1,309.6c-0.2,0.1-0.4,0.2-0.5,0.4c-1.8-2.2-3.6-4.3-5.6-6.7c-1.1,0-2.5,0-4,0c-0.2-0.9-0.4-1.7-0.6-2.4
		c-4.5,0-8.9,0-13.1,0c-0.6,2.2-0.6,2.2-4.8,3.3c-1.3,0.9-2.5,1.7-4,2.8c0,1.2,0,2.8,0,4.6c-0.9,0.2-1.6,0.4-2.3,0.5
		c-0.9,2,1.3,5.3-2.8,5.3c0,5.3,0,10.4,0,15.5c0.3-0.1,0.6-0.2,1-0.3c0.5,1.2,1.3,2.4,1.5,3.7c0.3,1.7,0.1,3.4,0.1,4.5
		c2.5,2.1,4.6,3.9,6.6,5.6c-0.1,0.2-0.2,0.4-0.3,0.6c1.5,0,3,0,4.5,0c0.5,1.3,1.3,2.4,2.2,2.5c4.7,0.2,9.3,0.1,13.3,0.1
		c3.5-3.7,6.6-7,9.7-10.3c-0.2-0.2-0.4-0.4-0.6-0.6c1-0.2,2-0.4,2.8-0.6c0-1.7,0-3.2,0-4.9c-1.5,0-2.8,0-4.1,0c-1.4,0-2.7,0-4.1,0
		c-0.1,2-0.2,3.5-0.2,5c-0.2-0.1-0.4-0.3-0.6-0.4c-1.7,2.1-3.4,4.2-5.3,6.5c-3,0-6.4,0-9.9,0c-0.3-0.9-0.6-1.7-0.9-2.6
		c-1.6,0-3,0-3.7,0c-1.3-1.6-2.2-2.8-3.6-4.6c0-2.3,0-5.4,0-9.2c11,0,21.7,0,32.4,0c0-4.7,0-9,0-13.3c-1.1-0.2-2.1-0.4-3.2-0.7
		C616.1,312.4,616.1,311,616.1,309.6z M613.5,322c-8.9,0-17.6,0-27.1,0c1.5-2.7-1.9-6.4,2.9-8.2c0-1.2,0-2.7,0-4.5
		c1.8,0,3.3,0,5.1,0c0.2-1.2,0.3-2.1,0.4-3.2c2.6,0,5.2,0,8,0c0.2,0.9,0.4,1.9,0.6,3c1.5,0,3,0,4.8,0c0,1.9,0.4,3.5,2.8,2.6
		c0,1.9,0,3.3,0,4.9C614.9,316.9,613.3,319.7,613.5,322z"/>
	<path d="M339,338.1c-0.2-0.1-0.4-0.2-0.6-0.4c-1.7,2.1-3.5,4.2-5.5,6.6c-2.1,0-4.7,0.2-7.3-0.1c-1.3-0.1-2.5-1-3.7-1.6
		c0.1-0.3,0.2-0.6,0.3-0.8c-1.5-0.1-3-0.2-4.5-0.2c0.2-0.2,0.3-0.4,0.5-0.6c-0.9-1.1-1.8-2.2-2.7-3.3c-0.2,0.1-0.4,0.2-0.5,0.3
		c0-1.4,0-2.8,0-4.3c-0.9-0.3-1.8-0.6-2.4-0.8c0-1.8,0-3.2,0-5c11.8,0,23.3,0,35,0c0-2.7,0.2-5.2-0.1-7.5c-0.2-1.5-1-2.9-1.5-4.3
		c-0.3,0.1-0.6,0.2-0.9,0.2c-0.5-1.9,1.2-4.9-2.8-4.8c0-2,0-3.7,0-4.4c-1.7-1.4-2.9-2.3-4-3.2c0.1-0.2,0.2-0.4,0.4-0.7
		c-1.5,0-3,0-4.5,0c0.1-0.3,0.2-0.7,0.3-1c-1-0.5-2-1.6-2.8-1.5c-4,0.5-8.6-1.7-12.1,1.4c0.1,0.3,0.1,0.7,0.2,1
		c-1.5,0.1-3,0.1-3.8,0.2c-2.2,2.5-3.9,4.6-6.1,7.1c0,0.7-0.1,2.2-0.2,3.7c-1.1,0.1-2,0.2-3,0.4c0,7.2,0,14.1,0,21.1
		c1.1,0.2,2.1,0.4,3.2,0.6c0,1.8,0,3.4,0,4.2c2.3,2.4,4.2,4.3,6.3,6.5c0.7,0,2,0,2.6,0c1.6,1.3,2.4,2.5,3.2,2.5
		c3.9,0.2,7.8,0.1,11.8,0.1c0-4.4,3.4-1.8,4.6-3.2c2.2-1.8,4.3-3.6,6.7-5.5c0-1.3,0-3,0-3.8c1.2-1.2,2-2.1,3.4-3.5
		c-3.8,0-6.5,0-9.4,0C339,335.2,339,336.7,339,338.1z M314.8,318.5c0-1.5,0-3.8,0-5.5c1.5-1.4,2.4-2.3,3.9-3.7c0.5,0,2-0.1,3.7-0.2
		c0.1-0.9,0.3-1.8,0.5-3c2.6,0,5.2,0,8.1,0c0.1,0.9,0.2,1.8,0.3,2.9c1.6,0.1,3.1,0.1,4.8,0.2c0.3,1.4,0.2,3.6,2.8,2.5
		c0,3.7,0,6.9,0,10.3c-8.9,0-17.6,0-27.5,0C312.8,320.6,313.6,319.7,314.8,318.5z"/>
	<path d="M475.3,333.5c0,1.7,0,3.2,0,4.7c-0.3-0.1-0.6-0.3-0.8-0.4c-0.8,1.2-1.6,2.4-2,2.9c-1.6,1.3-2.7,2.2-4.4,3.5
		c-2.3,0-5.5,0-8.8,0c-0.3-4.7-4.3-1.2-5.5-3.3c-0.9-1.1-1.9-2.2-3.3-3.8c0-1.4,0-3.7,0-5c-1.3-1.5-2-2.4-3.3-4c12.6,0,24,0,36,0
		c0-2.9,0.2-5.7-0.1-8.4c-0.1-1.2-1-2.3-1.6-3.4c-0.3,0.1-0.7,0.2-1,0.3c0-2.4,0-4.7,0-5.9c-2.4-2.9-4.1-5-6.1-7.4
		c-1.2,0-2.9,0-4.6,0c0.1-0.3,0.2-0.7,0.3-1c-1-0.5-2-1.6-2.8-1.5c-3.8,0.6-8.3-2-12.2,2.6c-0.8,0-2.5,0-3.3,0
		c-1.5,1.5-2.4,2.3-4.1,3.9c-0.5,1,2.2,4.6-2.4,4.8c0,1.6,0,3,0,4.4c-0.3-0.1-0.7-0.2-1-0.3c-0.5,1.2-1.4,2.5-1.5,3.7
		c-0.2,3.5-0.2,7,0,10.4c0.1,1.3,1.1,2.5,1.6,3.7c0.3-0.1,0.6-0.2,1-0.3c0,2.5,0,5,0,6.6c2.3,2.4,4.2,4.3,6.3,6.6c1.1,0,2.7,0,4.4,0
		c0.2,0.9,0.4,1.7,0.5,2.4c4.3,0,8.4,0,12.5,0c0.4-4.4,4-1.5,5.4-3c1.9-1.8,3.8-3.7,6-5.8c0-1.1,0-2.7,0-3.5c1.2-1.3,2-2.1,3.4-3.5
		C480.4,333.5,477.9,333.5,475.3,333.5z M450.5,318.1c0-1.2,0-3.5,0-5.3c1.3-1.2,2.3-2.1,3.3-3c-0.1-0.2-0.2-0.4-0.3-0.6
		c1.7,0,3.4,0,5.3,0c0.2-1.1,0.3-2,0.5-3.1c2.3,0,4.7,0,7.3,0c0.2,0.8,0.4,1.8,0.6,3c1.7,0,3.4,0,5.4,0c0.1,1.8,0.3,3.6,2.7,2.7
		c0,3.7,0,6.9,0,10.2c-9,0-17.9,0-27.8,0C448.5,320.6,449.2,319.7,450.5,318.1z"/>
	<path d="M574.6,284.5c-14.4,0-29.6,0-43.8,0c-1.5,1.2-2.5,1.7-3.1,2.6c-0.4,0.6-0.5,1.8-0.1,2.4c0.7,1.1,1.8,1.9,3.2,3.2
		c4.4,0,9.6,0,14.7,0c0.5-3,0.5-3,3-2.6c0,18.9,0,37.8,0,56.8c2.9,0,5.5,0,8.3,0c0-17.9,0-35.7,0-54c6.6,0,12.7,0,18.9,0
		c-0.2-0.3-0.4-0.6-0.5-0.9c0.8-0.8,1.6-1.6,2.4-2.4c0.3-0.3,0.8-0.8,0.8-1.1c-0.1-0.5-0.5-1-0.9-1.4
		C576.7,286.3,575.8,285.6,574.6,284.5z"/>
	<path d="M130.4,336.3c-0.1,1.9-0.2,3.6-0.2,5.1c-2.2,1.2-5.8-1.5-6.1,2.9c-3.3,0-6.4,0-8.5,0c-2-1.5-3.2-2.4-4.5-3.3
		c0.1-0.1,0.2-0.1,0.3-0.2c-1.8-1.9-3.6-3.8-5.7-6c0-1.7,0-4.2,0-6.8c10.9,0,21.5,0,32.2,0c0-5.4,0-10.6,0-14.8
		c-3.1-3.5-5.8-6.5-8.9-9.9c-1,0-2.7,0-4.4,0c0.1-0.3,0.2-0.7,0.3-1c-1-0.5-2-1.6-2.8-1.4c-2.9,0.7-6.9-2.3-8.8,2.6
		c-1.6,0-3.3,0-4.2,0c-3.1,3.5-5.8,6.4-9,10c0,2.2,0,5.4,0,8.6c-0.9,0.2-1.7,0.4-2.5,0.6c0,1.8,0,3.4,0,5c0.3-0.1,0.6-0.2,0.9-0.3
		c0.5,1.2,1.3,2.4,1.5,3.7c0.3,1.5-0.2,3.1,0.1,4.5c0.2,1.3,1,2.5,1.6,3.7c0.4-0.1,0.7-0.2,1.1-0.3c0,1.7,0,3.4,0,5.3
		c1.7,0,3.2,0,4.8,0c0.2,1,0.4,1.8,0.6,2.7c1.9,0,3.6,0,5.3,0c-0.1,0.3-0.2,0.7-0.3,1c0.9,0.5,2,1.6,2.8,1.4
		c3.8-0.6,8.3,1.9,12.3-2.6c0.7,0,2.5,0,3.2,0c1.5-1.5,2.4-2.3,4.1-3.9c0.5-1-2.1-4.6,2.3-4.8c0-1.6,0-3,0-4.8c-1.8,0-3.3,0-5.2,0
		C134.2,336.3,131.6,335.6,130.4,336.3z M105.8,315.1c2.6-2.3,5.1-4.5,7.6-6.8c0.2,0.2,0.4,0.3,0.6,0.5c0.1-0.9,0.2-1.8,0.3-2.8
		c3.5,0,6.7,0,9.3,0c1.6,2.1,2.8,3.7,4.1,5.4c0.1-0.1,0.2-0.2,0.3-0.2c1.5,1.2,3.1,2.5,5,4c0,2,0,4.3,0,6.8c-9,0-18,0-27.1,0
		C105.8,319.6,105.8,317.3,105.8,315.1z"/>
	<path d="M707.2,313.6c-0.3,0.1-0.7,0.2-1,0.3c0-2.5,0-5,0-8c-2.4,0.8-2.7-0.8-2.8-2.7c-2,0-3.7,0-5.4,0c-0.5-1.3-1.3-2.4-2.2-2.5
		c-3.6-0.2-7.1-0.1-10.3-0.1c-1.7,1.9-3,3.5-4.5,4.9c-1.3,1.3-2.8,2.5-4.2,3.7c-0.2-0.2-0.5-0.4-0.7-0.6c0-8,0-16,0-24.2
		c-1.7,0-3.2,0-4.9,0c0,21.8,0,43.4,0,64.9c1.7,0,3.2,0,5,0c0-1.2,0-2.3,0-3.3c0-8.6-0.1-17.2,0.1-25.8c0-1.5,1-2.9,1.6-4.3
		c0.4,0.1,0.7,0.2,1.1,0.2c0-1.4,0-2.8,0-3.2c1.5-1.6,2.4-2.6,3.7-4c1.2,0,2.9,0,4.5,0c0.2-1.2,0.3-2.1,0.5-2.9c2.6,0,5,0,7.3,0
		c-0.2,0.3-0.4,0.5-0.6,0.8c2.1,2,4.1,4,6.8,6.5c0,10.4,0,21.8,0,33.2c1.3,0.6,1.9,1.7,2.7,2.4c0.5,0.4,1.8,0.5,2.3,0.1
		c1-0.7,1.6-1.9,2.8-3.5c0-8.9,0.1-18.6-0.1-28.2C708.7,316.1,707.7,314.8,707.2,313.6z"/>
	<path d="M387.9,307.2c-1.5-1.7-2.5-2.7-3.7-4c-0.9,0-2.3,0-3.7,0c-0.9-2.9-3.2-3.3-11.4-2.3c0,4.1-3.3,1.5-4.2,2
		c-1.3,1.4-1.9,2.1-2.6,2.9c-0.6-0.8-1.3-1.6-2-2.5c-2.3,0-4.7,0-7.6,0c0,14.6,0,28.9,0,43c1.8,1.3,3.4,2.5,5,3.6
		c0.1-0.4,0.1-0.7,0.2-1.1c0.9-0.9,1.9-1.7,3.2-3c0-10.8,0-22.3,0-32.8c1.5-1.7,2.5-2.7,3.7-4.1c0.9,0,2.4,0,3.9,0
		c0.2-1.2,0.3-2.1,0.5-2.9c2.8,0,5.4,0,8.1,0c0.1,1.1,0.2,2,0.3,3c1.8,0.1,3.3,0.2,5.1,0.3c0,2.6,0,5,0,7.3c0.4-0.1,0.8-0.2,1.1-0.3
		c0.5,1,1.2,2.1,1.4,3.1c0.2,1.9,0.1,3.9,0.1,5.9c0,8,0,16,0,24c0.3,0.2,0.6,0.3,1,0.5c0.6-0.7,1-1.5,1.7-2c0.9-0.6,2.1-1,3-1.5
		c0-11.5,0-23,0-34.5c-1.1-0.1-2-0.3-3.1-0.4C387.9,309.6,387.9,307.9,387.9,307.2z"/>
	<path d="M279.8,330.8c0,1.6,0,3.1,0,4.7c-1,0.2-1.7,0.4-2.8,0.7c0,1.9,0,3.6,0,5.5c-2,0-3.6,0-4.8,0c-3,4.9-7.5,1.4-9.8,2.3
		c-1.9-1.4-3.1-2.2-4-2.8c-1-1.3-1.8-2.4-2.7-3.6c-1.1-1.6,0.6-4.7-3.3-4.8c0-4.6-0.1-8.9,0.1-13.2c0-1.2,1-2.3,1.5-3.4
		c0.3,0.1,0.7,0.2,1,0.3c0-1.5,0-3,0-5c3.1,1.5,2.2-1.4,3.2-2.6c1.7,0,3.4,0,5.1,0c0.1-1.1,0.2-1.9,0.3-2.9c2.7,0,5.1,0,7.5,0
		c0.1,1.1,0.2,2,0.4,3.2c2,0,3.8,0,5.7,0c0,1.8,0,3.3,0,4.8c0.2-0.1,0.4-0.2,0.7-0.3c0.9,1,1.8,2,2.6,2.9c1.4,0,2.9,0,4.3,0
		c0-1.7,0-3.2,0-4.7c-2.2-0.6-2.2-0.6-2.6-5.1c-1.4-1.4-2.3-2.4-3.6-3.8c-1,0-2.6,0-4.2,0c0.1-0.3,0.2-0.7,0.3-1
		c-1.2-0.5-2.6-1.7-3.7-1.5c-3.6,0.7-8-2.3-11.1,2.5c-1.1,0-2.8,0-3.8,0c-3,3.3-5.6,6.3-9.4,10.6c-0.9,1.7,2.9,6.4-2,9.2
		c0,1.3,0,2.9,0,4.2c4.8,2.9,1.3,7.6,2.3,9.8c3.5,3.8,6.2,6.8,9.1,10c1.1,0,2.8,0,4.4,0c-0.1,0.3-0.2,0.6-0.3,0.9
		c1,0.6,2.2,1.7,3.1,1.6c3.8-0.6,8.3,2.1,12-2.6c0.9,0,2.5,0,3.3,0c1.5-1.4,2.4-2.4,3.8-3.7c0-0.9,0-2.6,0-4.1
		c2.9-1,3.4-2.9,2.2-8.2C283,330.8,281.5,330.8,279.8,330.8z"/>
	<path d="M434.2,311.4c0-1.8,0-3.4,0-4.3c-1.4-1.4-2.4-2.4-3.9-3.9c-0.6,0-2.1,0-3.6,0c0.1-0.4,0.2-0.8,0.3-1.1
		c-1-0.5-2.2-1.5-3.1-1.3c-3.9,0.7-8.5-2.1-12.4,2.6c-0.8,0-2.2,0-4.2,0c1.4,3.7-1.8,2-3,2.9c0.2,0.2,0.4,0.4,0.6,0.6
		c-1.9,2-3.7,3.9-6,6.4c0,3.5,0,7.7,0,11.6c-1,0.7-1.8,1.3-2.5,1.8c0.8,0.8,1.5,1.5,2.6,2.7c0,2.6,0,5.7,0,8.3
		c3.2,3.3,6.2,6.2,9.4,9.4c1,0,2.4,0,3.9,0c0.3,0.9,0.6,1.8,0.8,2.5c4.5,0,8.7,0,13,0c0.2-0.9,0.4-1.6,0.6-2.4
		c1.7-0.1,3.2-0.2,3.7-0.2c1.5-1.5,2.5-2.4,3.7-3.5c0.4-4.6,0.4-4.6,2.6-5.2c0-2.6,0-4.9,0-7.3c-1.8,0-3.3,0-5.1,0
		c0,1.7,0,3.2,0,4.8c-4.8,0.3-1.3,4.3-3,5.9c-1.8,0.8-5.2-1.4-5.1,2.7c-3.6,0-7,0-9.9,0c-2.1-2.4-3.9-4.5-6.3-7.3c0-0.6,0-2.1,0-3.5
		c-1.1-0.2-2.1-0.3-2.9-0.5c0-5.4,0-10.6,0-15.9c1-0.1,2-0.2,3.1-0.3c0-1.7,0-3.2,0-3.8c1.5-1.6,2.5-2.6,3.7-3.8
		c1-0.1,2.4-0.1,4-0.2c0.1-1.1,0.3-2,0.4-3c2.8,0,5.4,0,8,0c0.2,1.1,0.4,2.1,0.6,3c1.7,0.1,3.2,0.2,4.9,0.2c0,1.7,0,3.2,0,3.7
		c1.5,1.6,2.5,2.6,3.5,3.7c1.2,0,2.7,0,4.3,0C436.6,314.5,438.2,311.7,434.2,311.4z"/>
	<path d="M657.3,330.9c0,1.6,0,3,0,4.6c-0.9,0.3-1.8,0.6-2.8,0.9c0,1.8,0,3.5,0,5.4c-2,0-3.7,0-5.4,0c0.1,0.4,0.2,0.7,0.3,1.1
		c-1,0.5-2.1,1.4-3.1,1.3c-2.1-0.2-5.3,1.8-5.7-2.6c-1.5,0-3,0-4.7,0c-0.1-1.1-0.2-2-0.3-3c-1.1-0.1-2-0.2-2.9-0.3
		c-0.7-2.1,1.2-5.3-2.8-5.4c0-5.3,0-10.4,0-15.6c0.9-0.3,1.7-0.6,2.6-0.9c0-1.6,0-3,0-4.8c2.6,1.1,3.2-0.6,3.6-2.6
		c1.7,0,3.2,0,4.6,0c0.2-1.1,0.3-2.1,0.5-2.9c2.6,0,4.9,0,7.4,0c0.1,1.1,0.2,2,0.3,3.2c2,0,3.8,0,5.8,0c0,1.8,0,3.3,0,5.3
		c3-1.4,2.2,1.4,2.9,2.2c1.8,0,3.3,0,4.8,0c0-2.6,0-4.9,0-6.2c-2.3-2.8-4-4.8-6.1-7.3c-1,0-2.5,0-4,0c0.1-0.3,0.2-0.6,0.3-1
		c-1-0.5-2-1.6-2.8-1.5c-4,0.7-8.7-2-12.8,2.6c-0.8,0-2.5,0-3.6,0c-2.2,2.5-3.9,4.6-6.2,7.2c0,0.5,0,1.9,0,3.5
		c-0.9,0.2-1.6,0.4-2.6,0.6c0,6.3-0.1,12.3,0.1,18.3c0,1.3,1,2.5,1.5,3.7c0.4-0.1,0.7-0.2,1.1-0.3c0,1.7,0,3.4,0,5.1
		c0.2-0.1,0.4-0.3,0.6-0.4c1.8,1.8,3.5,3.7,5.7,5.9c1,0,2.6,0,4.6,0c-0.6,2.8,1.3,2.9,3.1,2.6c3.8-0.7,8.3,1.8,12.2-2.6
		c0.4,0,1.8,0,2.5,0c1.4-1.4,2.4-2.4,3.9-3.9c0-0.9,0-2.6,0-4.2c2.9-0.8,3.3-2.4,2.1-7.9C660.5,330.9,658.9,330.9,657.3,330.9z"/>
	<path d="M87.2,289.5c2.3,0,4.7,0,8,0c-1.7-2-2.9-3.4-4.3-5c-1.9,0-4.2,0-5.5,0c-2.7,2.4-4.8,4.2-7.7,6.9c-0.9,1.5,2.9,5.7-2.1,7.3
		c-0.1,1.5-0.2,3.1-0.3,4.6c-1.8,0.1-3.3,0.2-4.8,0.2c0,2,0,3.8,0,5.8c2.6,0,4.9,0,7.3,0c0.2,0.3,0.4,0.5,0.6,0.8
		c-0.9,0.9-1.8,1.7-2.7,2.6c0,11.3,0,22.7,0,34.1c2.9,0,5.5,0,8.4,0c0-12.6,0-25,0-37.7c2.7,0,5.1,0,7.4,0c0-2.1,0-3.9,0-5.9
		c-2.6,0-5,0-7.4,0c0-3.5,0-6.7,0-10.3C87.8,294.2,86.1,290.8,87.2,289.5z"/>
	<path d="M587.9,53.4c3.3-3.5,6.1-6.4,9.2-9.7c0-1.6,0-3.9,0-6.3c-4.4-0.4-1.5-4-3-5.4c-1.8-1.9-3.7-3.8-5.6-5.9
		c-3.9,0-8.1,0-11.5,0c-2.4,2.3-4.3,4.1-6.3,6.1c0,4.8,0,9.8,0,14c2.4,2.6,4.2,4.6,6.5,7.1C580.4,53.4,584.8,53.4,587.9,53.4z"/>
	<path d="M10.2,284.5c-1.8,0-3.3,0-4.9,0c0,20.8,0,41.5,0,62.2c13.5,0,26.8,0,40.1,0c0-1.7,0-3.2,0-4.9c-11.6,0-23.1,0-35.2,0
		C10.2,322.4,10.2,303.5,10.2,284.5z"/>
	<path d="M486.4,352.3c-1.4,1.8-2.5,3.4-3.7,4.9c0.3,0.2,0.6,0.4,0.9,0.7c15.2,0,30.5,0,46.7,0c-1.7-2.2-2.9-3.9-4.1-5.5
		C512.8,352.3,499.4,352.3,486.4,352.3z"/>
	<path d="M146.9,352.3c0.1,0.3,0.3,0.5,0.4,0.8c-1.2,0.8-2.4,1.6-3.8,2.5c0,0.4,0,1.2,0,2.2c15.6,0,30.8,0,47.1,0
		c-1.7-2.2-2.9-3.9-4.1-5.5C173.3,352.3,160.1,352.3,146.9,352.3z"/>
	<path d="M54.3,346.8c1.7,0,3.2,0,4.8,0c0-14.5,0-28.9,0-43.4c-1.6,0-3.1,0-4.8,0C54.3,318.1,54.3,332.4,54.3,346.8z"/>
	<path d="M293.6,346.8c1.7,0,3.2,0,4.8,0c0-14.5,0-28.9,0-43.4c-1.6,0-3.1,0-4.8,0C293.6,318.1,293.6,332.5,293.6,346.8z"/>
	<path d="M298.4,284.6c-1.8,0-3.3,0-4.8,0c0,3.7,0,7.1,0,10.7c1.6,0,3.1,0,4.8,0C298.4,291.6,298.4,288,298.4,284.6z"/>
	<path d="M54.3,284.5c0,3.8,0,7.3,0,10.8c1.7,0,3.2,0,4.8,0c0-3.6,0-7.2,0-10.8C57.4,284.5,56,284.5,54.3,284.5z"/>
</g>
</svg>
