<?xml version="1.0" encoding="utf-8"?>
<!-- Generator: Adobe Illustrator 28.3.0, SVG Export Plug-In . SVG Version: 6.00 Build 0)  -->
<svg version="1.1" id="Calque_1" xmlns="http://www.w3.org/2000/svg" xmlns:xlink="http://www.w3.org/1999/xlink" x="0px" y="0px"
	 viewBox="0 0 705.4 237.2" style="enable-background:new 0 0 705.4 237.2;" xml:space="preserve">
<path d="M270.1,37.7c-3.9,0.6-5,3.2-6.1,5.8c-0.6,1.6-1.4,3.1-2.4,4.5c-3.5,5.5-7.5,10.8-10.7,16.5c-2.3,4.2-8.7,8.6-13.5,8.5
	c-2.7-0.1-5.3,0.1-8,0.1c-2.8,0-4.7-0.8-4.6-4.1c0-0.9-0.5-1.9-1-2.7c-2.5-3.7-6.2-6.9-7.5-11c-1.2-3.8-3.9-6-6-8.8
	c-1.1-1.4-1.3-3.5-2.2-5c-2.9-5.1-6-10.2-9.1-15.2c-0.5-0.9-1-1.8-1.7-2.4c-3.7-3.4-5.3-7.8-7.2-12.3c-0.9-2.1-3-3.6-4.5-5.5
	c-0.8-1-1.3-2.1-1.9-3.2c1.1-0.3,2.3-0.9,3.4-0.9c7.3-0.1,14.6,0,21.9,0c2,0,3.5,0.1,3.6,2.7c0,1.1,0.4,2.3,1,3.2
	c2.6,3.8,5.5,7.4,8,11.2c2.7,4.3,5.1,8.8,7.7,13.3c2.3,4,4.5,8,6.6,11.7c4-6.3,7.7-11.8,11.2-17.5c2.6-4.3,4.7-8.8,7.3-13.1
	c0.7-1.3,2.2-2.1,3.1-3.3c1.1-1.6,2.7-3.4,2.7-5.1c0.1-3,1.6-2.9,3.6-2.9c9.4,0,18.7-0.1,28.1-0.2c2.4,0,4,0.6,4.1,3.3
	c0,0.8,0,1.5,0,2.3c0,34.5,0,69.1,0,103.6c0,6.4-3.7,9.9-10.1,9.6c-4.3-0.2-8.6-0.3-12.9-0.3c-2.8,0-3.6-1.5-3.5-3.8
	c0.1-4.6,0.5-9.1,0.5-13.7c-0.1-19-0.2-38-0.3-57C269.7,43.4,269.9,40.8,270.1,37.7z"/>
<path d="M2.6,2.6c2.4,0,4.9,0,7.4,0c21.5,0,43.1,0,64.6,0c0.1,0,0.3,0,0.4,0c7.7-0.1,7.7-0.1,7.7,7.7c0,4.6-0.2,9.2,0.1,13.8
	c0.1,3-0.8,4-3.9,3.9c-15.4-0.2-30.8,0-46.2-0.1c-3.3,0-4.5,0.8-4.3,4.3c0.3,5.7,0.2,11.5-0.1,17.2c-0.1,2.9,0.8,3.9,3.6,3.8
	C44,53,56.2,53.2,68.5,53c3.7-0.1,4.6,1.3,4.4,4.7c-0.2,3.7,0.1,7.3,0.3,11c0.1,2.7-0.8,4.3-3.9,4.3c-11.3-0.1-22.7,0-34,0
	c-6.9,0-6.9-0.1-6.9,7.1c0,12.1-0.1,24.2,0.1,36.3c0,3.2-1,4.3-4.1,4.2c-6.1-0.2-12.2-0.1-18.2,0c-2.4,0-3.8-0.5-3.8-3.4
	C2.3,79.3,2.3,41.5,2.4,3.6C2.4,3.5,2.4,3.4,2.6,2.6z"/>
<path d="M120.5,27.9c0,8.1,0,15.6,0,23.1c0,2.4,1.9,2.2,3.5,2.2c12.2,0,24.5,0.1,36.7-0.1c3.5-0.1,4.9,0.8,4.6,4.5
	c-0.3,3.9-0.2,7.9,0,11.8c0.1,2.6-0.8,3.7-3.5,3.7c-12.7-0.2-25.4-0.3-38.2-0.5c-2.6-0.1-2.8,1.2-2.8,3.3c0.1,12.1,0,24.2,0,36.3
	c0,5.3-4.1,8.9-9.4,8.7c-5.3-0.2-10.6,0-16.6,0c0-2,0-3.4,0-4.9c0-36.6,0-73.1-0.1-109.7c0-3.4,0.7-4.2,4.4-3.9
	c6.4,0.6,13,0.2,19.5,0.2c16.1,0,32.1,0.1,48.2,0.1c0.3,0,0.5,0,0.8,0c7.3-0.1,7.3-0.1,7.3,7.1c0,4.7,0.1,9.4,0.3,14.1
	c0.2,3.2-1,4.2-4.2,4.1c-15.3-0.2-30.6-0.1-45.9-0.1C123.9,27.9,122.7,27.9,120.5,27.9z"/>
<path d="M385.6,213c-2.4,5.5-3.1,11.2-7.8,14.8c-1.1,0.9-3,1.1-4.5,0.9c-0.6-0.1-1.1-1.9-1.6-3c-1.4-3.2-2.8-6.5-4.2-9.7
	c-1-2.3-2.1-4.5-3.2-6.8c-0.4-0.1-0.8-0.1-1.2-0.2c-0.3,1.4-0.9,2.9-0.9,4.3c0,6.5,0.2,13,0.2,19.4c0,0.8-1.4,2.1-2.2,2.2
	c-7.1,1-7.7,0.5-7.6-6.5c0-11.2,0-22.4,0.1-33.6c0-1.6,0.7-4.5,1.3-4.6c2.5-0.3,5.7-0.5,7.6,0.7c4.1,2.6,5.1,7.6,7.2,11.8
	c1.9,3.8,4,7.6,6.1,11.2c0.4,0.6,1.6,0.7,2.5,1.1c0.4-1,1.4-2.2,1.1-2.8c-1.6-3.4,0.1-5.4,2.4-7.5c3.7-3.4,5.6-7.9,7-12.7
	c0.3-0.9,1.2-1.6,2.1-2.1c0.6-0.3,1.5-0.1,2.3-0.1c5.5,0,5.5,0,5.5,5.4c0,12-0.2,24,0.1,35.9c0.1,5.6-3.7,3.4-6.3,3.8
	c-3.1,0.5-4-1.1-3.9-4c0.3-5.1,0.5-10.1,0.6-15.2C388.3,214,387.8,212.3,385.6,213z"/>
<path d="M489.6,7c0-1.7-0.1-3.3,0-5c0.1-3,1.7-4,4.5-3.2c2.7,0.8,5.6,5.7,5.6,8.6c-0.2,8.5-0.2,17-0.2,25.5c0,3.5,0.2,7,0,10.5
	c-0.1,1.4-0.9,3.6-1.8,3.8c-1.4,0.4-3.9-0.1-4.6-1.1c-2.5-3.5-4.4-3-6.8,0c-0.5,0.7-1.7,1.2-2.6,1.2c-3.4,0.1-6.9,0.1-10.3-0.3
	c-1.1-0.1-2.1-1.4-3.2-2c-7.2-4.1-6.8-10.8-6.3-17.7c0.1-0.8,0.1-1.5,0-2.3c-0.5-5.9,1.6-8.6,7.5-10.2c2.5-0.7,4.8-2.5,7.3-2.9
	c1.5-0.2,3.4,1.2,5,2c1.2,0.5,2.7,1.8,3.4,1.5c1.1-0.5,1.9-2.1,2.2-3.4C489.9,10.4,489.6,8.6,489.6,7C489.6,7,489.6,7,489.6,7z
	 M489.6,31.1c0-0.8-0.1-1.5,0-2.3c0.7-3.7-2.2-5.8-4.5-6.7c-2.3-0.8-5.7,0-8,1.2c-5.1,2.6-3.2,7.9-2.7,11.8c0.4,2.6,2.6,5.7,6.6,5.7
	C486.4,41,489.6,37.5,489.6,31.1z"/>
<path d="M352.6,97.9c0-6,0-12,0-18c0-4,3.7-7.7,7.5-7.7c5.8,0,11.7,0,17.5,0c2.7,0,6.7,3.6,7.1,6.2c0.4,2.6-0.1,4.1-3.3,3.9
	c-5.2-0.2-10.4,0-15.6-0.3c-3.3-0.2-3.5,1.6-3.3,4.1c0.2,2.3-1,5.5,3.4,5.2c2.7-0.2,5.5-0.5,8,0.1c2.5,0.6,4.9,2.1,7.2,3.5
	c0.4,0.2,0.3,2.2-0.2,2.8c-2.1,2.4-4.3,4.1-8.1,3.7c-10.2-1.1-10.6-0.8-10.1,9.2c0.2,4.1-1.3,6.7-4.1,8.9c-1,0.8-2.8,1.3-3.9,0.9
	c-1-0.4-2-2.1-2-3.3C352.5,110.7,352.6,104.3,352.6,97.9z"/>
<path d="M666.9,31.3c0.9-3.1,0.8-5.4,3.3-7.8c1.5-1.4,1.2-5.2,3.8-6.8c1.1-0.7,2.4-1.2,3.7-1.7c0.9-0.4,2-0.5,2.6-1.1
	c3-2.8,6.8-2.1,10.4-0.5c4.6,2,7.8,5.1,11.2,8.4c1.8,1.7,2.7,10,1.2,11.8c-0.6,0.7-1.7,1.1-2.6,1.1c-3.6,0.1-7.2,0.2-10.8,0
	c-2.9-0.1-5.8-0.6-8.7-0.6c-1,0-2,0.6-3,1c0.4,0.8,0.6,1.9,1.2,2.5c4.1,4.3,10.8,4.6,15.3,0.6c2-1.8,3.8-1.3,5.3,0.3
	c1.5,1.7,1.1,3.3-0.5,5c-2.5,2.7-5.1,4.5-9.2,3.6c-2.3-0.5-4.9,0.2-7.2-0.2c-2.1-0.3-4-1.6-6.1-2c-4.1-0.6-6.1-2.8-6.9-6.9
	C669.4,35.7,667.9,33.5,666.9,31.3z M677.7,26.3c0.1,0.4,0.1,0.9,0.2,1.3c4.8,0,9.6,0.1,14.3-0.2c0.5,0,1.5-4,0.9-4.5
	c-2.1-1.8-4.8-2.9-7.4-4.1c-0.3-0.1-1,0.2-1.3,0.5C682.1,21.6,679.9,23.9,677.7,26.3z"/>
<path d="M420.8,84.5c3.7,0.9,7.4-0.4,9.9,3.4c0.3,0.5,1.7,0.3,2.5,0.4c0.7,0.2,1.9,0.4,2,0.6c0.6,4.7,5.8,8.1,3.7,13.3
	c-0.5,1.2-2.4,2.5-3.7,2.5c-6.4,0.1-12.8-0.4-19.2-0.3c-1,0-2.6,1.8-2.9,3c-0.2,0.8,1.7,1.9,2.6,2.9c0.1,0.1,0.3,0,0.4,0
	c5.4,5,10.3-1.6,15.4-0.6c1.4,0.3,2.8,0.7,4.2,1.1c-0.6,1.2-1.2,2.4-1.9,3.5c-0.7,0.9-1.7,1.5-2.4,2.4c-2.2,3-5.1,3.6-8.8,3.7
	c-5.7,0.2-10.1-1-13.4-5.8c-0.1-0.2-0.3-0.4-0.5-0.5c-7.1-3.8-5.7-10.5-5.6-16.7c0-0.9,0.8-1.7,1.3-2.6c0.8-1.5,1.7-3,2.5-4.5
	c0.3-0.6,0.5-1.7,0.9-1.9C412.2,87.1,416.5,85.8,420.8,84.5z M413.1,96.7c4.4,3.3,11.2-2.7,14.2,4c3.4-3,3.4-3.1-1.1-7.4
	C422.1,89.5,418.1,90.4,413.1,96.7z"/>
<path d="M420.1,28.5c-0.3,4.5,1,8-2.8,10.4c-1.2,0.8-1.1,3.4-2,4.9c-2,3.1-4.8,4.1-8.7,3.3c-2.9-0.6-6.1-0.1-9.1-0.1
	c-6.7,0-7.8-0.8-9.6-7.4c-0.2-0.6-0.5-1.2-1-1.5c-2.7-1.8-2-4.7-2.7-7.3c-1.8-7.3,2.9-11.2,7.3-14.3c3.2-2.3,7-5.1,11.6-4.8
	c0.5,0,1.1,0,1.5,0.2c5.3,3,11.4,5.1,14.7,10.6C420.5,24.3,419.9,27.3,420.1,28.5z M410,30.5c0-0.2,0-0.7,0.1-1.2c0.8-3.8-2-6-4.5-7
	c-2.5-1.1-5.6-1.1-8.5,1.1c-3.5,2.7-2.2,5.9-2.6,9.1c-0.4,4.1,2.8,8.2,6.9,8.4C406.9,41.1,410,37.4,410,30.5z"/>
<path d="M536,235.1c-2,0-4.1,0-6.1,0c-4.5,0-7.6-2.9-9-7c-1.3-3.8-3-7.4-2.2-11.5c0.3-1.4,0.9-2.7,1.4-4c0.5-1.2,1-2.3,1.6-3.4
	c0.8-1.5,1.3-3.4,2.5-4.3c3-2.1,6.3-3.7,9.5-5.3c1.2-0.6,3.1-0.9,4.1-0.3c5.5,3.3,11.7,5.6,15.5,11.2c0.4,0.7,0.5,1.6,0.5,2.5
	c0.1,1.9-0.2,3.8,0.1,5.7c0.8,5.9-0.7,10.7-5.9,14c-1.6,1-3.4,1.9-5.2,2.2C540.6,235.4,538.2,235.1,536,235.1z M543.9,220.2
	c0-1.3,0-2.5,0-3.8c0.1-3.8-2.8-5.6-5.5-6.9c-2.5-1.2-4.8-0.1-7.2,1.7c-4.2,3.2-3.6,7.5-3,11.3c0.4,2.2,3.5,5.1,5.8,5.7
	C542.4,230.1,543.9,228.7,543.9,220.2z"/>
<path d="M352.6,2.6c2.2,0,4,0,5.9,0c7.7-0.2,15.5-0.3,23.2-0.5c2.3-0.1,4.2,1.7,3.8,4c-0.3,2.1-5.5,6.5-7.7,6.5
	c-3.9-0.1-7.8-0.4-11.8-0.7c-2.1-0.1-3.3,0.5-3.5,2.9c-0.5,6.3-0.2,6.7,6.1,6.6c2.1,0,4.3-0.2,6.4-0.3c2.9-0.2,3.7,1.5,3.7,4.1
	c0,2.7-1.3,3-3.6,2.9c-12.5-0.6-12.5-0.5-12.5,11.9c0,0.3,0,0.5,0,0.8c0,7.1,0,7-7.1,6.4c-2-0.2-3-0.8-3-3
	C352.6,30.5,352.6,16.9,352.6,2.6z"/>
<path d="M465.8,231.2c-1.9,4.4-5.1,4.1-8.2,3.9c-2.5-0.1-5.1,0-7.6,0c-4.5,0-8.6-3.9-8.5-8.5c0-1.5,1-2.9,1.7-4.3
	c0.3-0.6,1.2-1,1.6-1.6c3.7-5.4,8.9-6.3,14.9-5.5c1.4,0.2,3.2-0.4,4.4-1.2c0.5-0.3,0.3-3-0.3-3.4c-1.3-0.8-3.1-1-4.8-1.2
	c-1.1-0.1-2.3,0.6-3.3,0.3c-3.2-0.9-5.7-0.5-7.9,2.4c-1.4,1.8-3.2,0.8-3.2-1.4c0-2.5,0.5-5,0.8-7.7c6.7,0,13.2-0.3,19.6,0.2
	c1.7,0.1,3.3,2.3,5,3.6c3.4,2.5,5,5.7,4.4,10.1c-0.5,3.6-0.5,7.3-0.4,11c0,1,1.2,2,1.7,3c0.6,1,1.7,2.6,1.4,3
	c-1.3,1.6-2.9,3.1-4.7,4.2c-0.3,0.2-1.9-1.2-2.7-2C468.5,234.8,467.5,233.3,465.8,231.2z M457.5,228.4c2.4-0.8,7,1.6,6.5-3.1
	c-0.2-2.2-4-5.8-6.1-5.7c-2.2,0-5.8,3.4-6.2,5.8C450.9,229.6,455.2,227.8,457.5,228.4z"/>
<path d="M607.5,47c-0.5,0-1-0.1-1.5,0c-7,1.8-10.1-3.7-14-7.6c-0.6-0.6-0.6-1.9-0.6-2.8c-0.1-3.6-0.2-7.1,0.1-10.7
	c0.1-1.7,1.3-3.2,2-4.8c0-0.1,0.3-0.1,0.3-0.2c-0.1-4.6,3.5-5.3,6.6-7.3c4.2-2.8,8.2-2.2,11.9-1.4c3.4,0.7,6.5,3.6,9.5,5.9
	c1.1,0.8,1.6,2.4,2.3,3.7c0.4,0.7,0.5,1.7,1,2.3c3.1,3.4,2.7,7,0.3,10.9c-1.9,3-3.1,6.3-5.8,8.8c-2.6,2.4-4.9,4.2-8.6,3.2
	C609.8,46.7,608.6,47,607.5,47z M618.1,29.3c-1.1-1.8-1.9-3.2-2.7-4.6c-2.7-4.2-6.9-2.7-10.6-3c-2.2-0.2-3.2,0.6-3.5,2.9
	c-0.1,1.3-0.8,3-1.8,3.8c-2.5,1.8-2,3.5-0.4,5.3c1.9,2,3.8,4.1,5.9,5.9c3.3,2.9,7.6,1.6,8.6-2.4c0.3-1.1,1.3-2.1,1.9-3.2
	C616.3,32.5,617.1,31.1,618.1,29.3z"/>
<path d="M472.1,96.3c-2.2-3-3.7-5-5.1-6.9c6.4-3.2,12.4-5.2,18.9-4.2c1.4,0.2,2.8,0.8,4,1.5c7.5,4.5,7,11.8,6.5,19.1
	c-0.1,1.4,0.6,3,1.1,4.4c0.7,2,2,4,2.2,6c0.1,1.3-1,3.7-2.1,4c-1.4,0.4-3.8-0.3-4.8-1.4c-2.1-2.6-3.7-3.1-5.9-0.3
	c-1.8,2.3-10.4,2.6-12.7,0.7c-0.8-0.6-1.5-1.4-2.3-1.9c-1.5-0.8-4.4-1.6-4.4-2.1c0.3-4-2.1-8.5,1.9-11.8c0.6-0.5,1.3-0.9,1.7-1.5
	c2.9-4.4,6.9-5.4,11.9-4.3c1.8,0.4,3.9-0.2,3.4-2.7c-0.3-1.4-2.1-3.6-2.8-3.5C479.7,92.4,474.7,89.8,472.1,96.3z M477.6,113.1
	c6,1.6,6.5,1.6,10.2-2.2c1.1-1.1,1.9-3.3,1.6-4.7c-0.2-0.8-2.7-1.7-4.2-1.7C476.7,104.2,476.7,104.3,477.6,113.1z"/>
<path d="M458.4,34.5c0,2.8-0.2,5.6,0,8.4c0.3,3.3-1,4.8-4.3,4.4c-1.1-0.1-2.3-0.2-3.4-0.3c-2.4,0-3-1.5-3-3.5
	c0.2-3.9,0.1-7.9,0.7-11.7c0.6-4.2-1.2-7-4-9.5c-0.8-0.7-2.7-1.2-3.2-0.8c-2.5,2-5.6,3.7-5.2,8c0.5,4.8,0,9.7,0.2,14.5
	c0.1,2.4-1.1,3.2-3.1,3.3c-1.4,0-2.8-0.3-4.2-0.2c-2.7,0.1-3.4-1.5-3.4-3.9c0-8.2,0-16.5,0.1-24.7c0-1.2,1.1-3.2,1.8-3.3
	c1.7-0.2,4.3,0.1,5,1.2c2.3,3.2,4,2.9,6.2,0.3c0.4-0.5,0.9-1.3,1.4-1.3c4.6-0.1,9.2-0.2,13.8-0.1c0.3,0,0.9,0.7,1,1.1
	c1,4.7,5.2,8.5,3.6,14c-0.4,1.3-0.1,2.8-0.1,4.2C458.3,34.5,458.3,34.5,458.4,34.5z"/>
<path d="M504.9,20.2c3.4-5.3,8.4-6.2,14.2-5.1c0.7,0.1,1.6,0.6,2.2,0.4c3.6-1.3,5.6,0,8.5,2.5c3.8,3.4,5.4,6.7,5.1,11.7
	c-0.3,4.3-1.3,8.9,2.5,12.8c1.7,1.8-0.1,4.8-2.8,4.6c-2.8-0.2-5.6-1.3-9-2.2c-3.7,4.6-10.1,2.3-15.2,1.5c-3.1-0.5-5.5-5.7-8.2-8.8
	c-0.1-0.2-0.2-0.5-0.1-0.7c0.3-2.4,9.1-9.8,11.6-9.9c2.7,0,5.3-0.1,8,0c1.9,0.1,3.6-0.4,3-2.6c-0.3-1.1-1.6-2.1-2.7-2.7
	c-1.7-0.9-3.5-1.5-5.5-2.4C511.5,22.7,507.7,23,504.9,20.2z M519.9,42.1c2.9-2.2,5.4-4.1,7.8-6c-1.6-1.5-2.9-3.4-4.8-4.2
	c-1.6-0.7-3.8-0.4-5.6-0.1c-2.8,0.5-5.6,3.8-4.5,4.9C514.7,38.6,517,40,519.9,42.1z"/>
<path d="M491.4,204.8c2.5-0.6,4.9-1.5,7.5-1.7c3.3-0.3,6.6,0.1,9.9-0.1c3.6-0.3,4,1.7,3.6,4.5c-0.1,0.8-0.5,2-0.2,2.4
	c5.3,6.6,2.3,14.5,3.4,21.7c0.4,2.6-0.8,3.8-3.5,3.5c-1.1-0.1-2.3-0.1-3.4,0c-2.8,0.2-3.4-1.4-3.4-3.8c0.1-5.1,0.7-10.2,0.1-15.2
	c-0.3-2.4-2.7-5-4.8-6.6c-2.1-1.7-3.5,1-4.9,2.3c-1.2,1.2-2.3,2.5-3.5,3.5c-2.2,1.8-3.1,3.8-2.3,6.7c0.3,1.1,0,2.5-0.2,3.8
	c-0.3,2.3-0.1,4.2,2.2,5.6c0.8,0.5,0.9,2,1.4,3.1c-1,0.4-2,1-3,1.1c-1.4,0.1-3,0.2-4.1-0.5c-1.4-0.8-3.2-2.4-3.2-3.6
	c-0.1-8,0.2-16,0.6-24c0.1-1.7,1-3.3,1.6-4.9c1.6,0.7,3.1,1.4,4.7,2.2c0.7,0.3,1.2,0.9,1.8,1.3C491.5,205.6,491.4,205.2,491.4,204.8
	z"/>
<path d="M662.4,18.6c0,10,0.1,17.1-0.1,24.2c0,1.4-0.7,3.5-1.7,4.1c-1.1,0.7-3.3,0.5-4.4-0.2c-0.7-0.5-0.6-2.5-0.7-3.9
	c-0.1-5,0.8-10.1-0.3-14.8c-0.6-2.6-4.1-4.7-6.3-6.9c-0.1-0.1-0.5,0-0.7,0.1c-2.2,0.5-8.8,9.2-8.7,11.6c0.2,3.5,0.5,7.1,0.7,10.6
	c0.2,2.5-1.1,4.3-3.6,4.3c-2.2,0-4.1-0.8-4-3.8c0.2-8.1,0-16.2,0.1-24.3c0-1.5,0.9-4.2,1.7-4.3c1.5-0.3,3.7,0.5,4.8,1.7
	c1.7,1.7,2.3,0.8,3.7-0.2c1.4-0.9,3.3-1.3,5-1.4c2.5-0.2,5.1,0.5,7.6,0.1C662.4,14.5,662.6,14.6,662.4,18.6z"/>
<path d="M555.1,47c-3.7,0-7.4,0.1-11.1-0.1c-1.2-0.1-2.8-0.9-3.2-1.8c-0.4-1,0-2.8,0.7-3.7c2-2.4,4.6-4.4,6.6-6.9
	c2.8-3.5,5.3-7.2,7.7-10.8c0.3-0.4,0.1-1.8-0.3-2c-0.8-0.4-1.9-0.7-2.7-0.5c-4.3,1.1-8.3,0.9-11.3-2.8c-0.6-0.7-0.9-1.6-1.3-2.5
	c0.9-0.4,1.7-1.1,2.6-1.1c5.9,0,11.9,0.1,17.8,0.2c1.9,0,3.8-0.4,5.6-0.2c1.2,0.1,3.3,0.8,3.3,1.4c0.2,1.6-0.1,3.6-1,4.8
	c-1.9,2.4-4.5,4.2-6.4,6.5c-2.9,3.3-5.6,6.8-8,10.5c-1.1,1.7,0.2,2.9,2.1,2.8c3-0.2,6-0.5,8.9-0.7c2.5-0.2,4.6-0.1,4.7,3.3
	c0.1,3.3-1.4,3.8-4.2,3.6C562.2,46.9,558.6,47,555.1,47C555.1,47,555.1,47,555.1,47z"/>
<path d="M432.6,208.3c0,5.6-0.1,11.2,0.1,16.7c0.1,1.1,1.7,2.2,2.7,3.1c1.1,1,3.3,1.6,3.4,2.6c0.2,1.4-1,3-1.7,4.4
	c-0.3,0.7-1,1.2-1.4,1.7c-2.1,2.5-4.1,2.6-6.3,0.2c-1.7-1.8-3.7-3.5-5.2-5.5c-1-1.4-1.8-3.3-1.8-5.1c-0.2-10.8,0-21.6-0.1-32.4
	c0-3.1,0.9-4.3,4.1-4.3c6.6,0.1,6.6,0,6.6,6.5c0,3.9,0,7.9,0,11.8C432.8,208.3,432.7,208.3,432.6,208.3z"/>
<path d="M444.5,106.9c0-6.2-0.1-12.4,0.1-18.6c0-1.1,0.9-2.8,1.9-3.2c1.1-0.5,3-0.3,4,0.5c4.2,3.2,4.1,3.3,8.4-0.1
	c0.9-0.7,2.6-1.1,3.4-0.7c1,0.5,1.6,2,2.1,3.2c0.3,0.6,0,1.5,0,2.3c0,5.2-0.2,5.6-5.3,4.9c-3.4-0.5-4.5,0.1-4,3.9
	c0.5,4.9,0.8,10.1-0.1,14.8c-0.5,2.7-3.6,5.2-6.1,7c-1.1,0.8-3.7-0.1-3.7-2.8c0.1-3.7,0-7.4,0-11.1
	C444.9,106.9,444.7,106.9,444.5,106.9z"/>
<path d="M585.9,31.2c0,4.1-0.1,8.1,0,12.2c0.1,3.1-1.5,4-4.1,4c-1.1,0-2.3-0.3-3.4-0.3c-2.5,0.1-3.3-1.1-3.2-3.5
	c0.1-8.4,0.1-16.7,0-25.1c0-2.8,1-4,3.8-3.7c1,0.1,2,0,3-0.1c2.7-0.1,4,1.1,3.9,3.9C585.9,22.8,585.9,27,585.9,31.2z"/>
<path d="M397.8,103.2c0,4.7,0.1,9.4,0,14.1c0,3.1-2.1,4.6-4.7,3c-2.6-1.6-5.3-3.4-5.3-7.3c0.1-7.2-0.2-14.5-0.3-21.7
	c0-3.3,5.7-7.3,8.6-5.9c0.9,0.4,1.6,2.1,1.7,3.3C397.9,93.6,397.8,98.4,397.8,103.2z"/>
<path d="M416.9,219.1c0,4.1-0.2,8.2,0.1,12.2c0.2,3.1-1.1,4.2-4,3.8c-1-0.1-2-0.1-3.1,0c-2.9,0.2-3.4-1.7-3.4-3.9
	c0.1-8.2,0.3-16.5,0.2-24.7c0-2.8,0.5-4.3,3.6-4.4c5.4-0.1,6.4,0.4,6.5,3.9C416.9,210.5,416.9,214.8,416.9,219.1z"/>
<path d="M387.6,76.9c2.4-2.8,4.7-6.2,8.5-4.3c1.3,0.7,1.4,4.4,1.5,6.7c0,0.9-1.4,2.6-2.3,2.7C391.4,82.4,389.5,79.7,387.6,76.9z"/>
<path d="M580.4,10.1c-1.6-0.8-3.7-1.1-4.8-2.4c-1.8-2.2-0.1-5.1,2.9-5.4c0.9-0.1,1.8,0,2.6-0.2c2.6-0.4,4.6,0.1,4.8,3.2
	c0.2,3-1.4,4.1-4.1,4.1c-0.4,0-0.8,0-1.1,0C580.6,9.7,580.5,9.9,580.4,10.1z"/>
<path d="M411.6,196.9c-1,0-2.2,0.3-3-0.1c-1-0.5-2.2-1.7-2.2-2.6c-0.1-1.2,0.7-3.3,1.3-3.5c2.7-0.5,5.5-0.6,8.2-0.2
	c0.5,0.1,1,2.9,0.9,4.4c-0.1,0.7-1.5,1.6-2.5,2C413.5,197.2,412.5,196.9,411.6,196.9C411.6,196.9,411.6,196.9,411.6,196.9z"/>
</svg>
