<?xml version="1.0" encoding="utf-8"?>
<!-- Generator: Adobe Illustrator 28.3.0, SVG Export Plug-In . SVG Version: 6.00 Build 0)  -->
<svg version="1.1" id="Calque_1" xmlns="http://www.w3.org/2000/svg" xmlns:xlink="http://www.w3.org/1999/xlink" x="0px" y="0px"
	 viewBox="0 0 809.3 109.4" style="enable-background:new 0 0 809.3 109.4;" xml:space="preserve">
<path d="M18.2,109.4c0-12,0-24,0-36.1c36.1,0,72.1,0,108.2,0c0.1,0.5,0.2,1,0.2,1.4c0,11,0,22,0,33c0,0.6-0.1,1.1-0.2,1.7
	C90.3,109.4,54.2,109.4,18.2,109.4z"/>
<path d="M0.1,63.8c5.6-5.5,11.1-11,16.7-16.5c0.7-0.7,2-1.2,2.9-1.2C60.7,46,101.6,46,142.5,46c0.5,0,1,0,1.8,0
	c-0.3,0.5-0.4,0.8-0.6,1c-5.2,5.2-10.5,10.4-15.7,15.7c-1,1.1-2.1,1.5-3.6,1.5c-40.6,0-81.1,0-121.7,0c-0.9,0-1.7,0-2.6,0.1
	C0.1,64.1,0.1,63.9,0.1,63.8z"/>
<path d="M408.1,0c3,1,6,1.7,8.8,3.1c11.1,5.4,16.8,16.9,14.9,29.7c-1.7,11.4-11.3,20.9-22.9,22.8c-12.9,2.1-24.6-2.9-30.6-13.2
	c-9.9-16.8-0.2-38.2,19.1-41.9c0.5-0.1,1.1-0.3,1.6-0.5C402.1,0,405.1,0,408.1,0z M403.4,45c9.1,0,16.2-7.2,16.3-16.7
	c0.1-9.5-6.9-17.1-15.9-17.1c-9.6-0.1-16.7,6.9-16.7,16.6C387,37.4,394.1,44.9,403.4,45z"/>
<path d="M667.1,0c2,0.6,4,1,5.9,1.7c12.1,4.3,19.4,15.7,18.3,28.5c-1.1,12.9-10.3,23.1-22.9,25.3c-12.7,2.2-24.7-2.8-30.7-12.9
	c-9.1-15.2-2.4-37.7,19-42.1c0.5-0.1,0.9-0.3,1.3-0.5C661.1,0,664.1,0,667.1,0z M678.9,28.2c0.2-9.1-6.8-16.8-15.5-17.1
	c-10-0.4-16.8,7.2-17,15.8c-0.3,10.3,6.4,17.8,16,18C671.6,45.2,678.7,38,678.9,28.2z"/>
<path d="M808,31c-1.1,3.4-1.8,7-3.4,10.1c-4.9,9-13,13.4-23,13.9c-7.7,0.4-15.5,0.1-23.4,0.1c0-18,0-36,0-54c0,0,0.2-0.2,0.3-0.2
	c8.7,0.1,17.4-0.3,26,0.5c12.2,1.1,21.2,10.2,23.2,22.2c0.1,0.3,0.3,0.6,0.4,0.9C808,26.7,808,28.9,808,31z M770,44.3
	c3.5,0,6.7,0.1,9.9,0c8.1-0.3,14-5.5,15.2-12.9c1.3-8.7-2.4-15.8-9.7-18.5c-5-1.8-10.2-1-15.4-1.1C770,22.7,770,33.3,770,44.3z"/>
<path d="M221.6,109.4c-0.1-2-0.2-4-0.2-6c0-6.2,0-12.5,0-18.7c0-0.8,0-1.5,0-2.6c2.6,0,5-0.1,7.4,0.1c0.5,0,1.1,0.9,1.4,1.6
	c2,4.8,3.8,9.6,5.9,14.8c1.6-3.9,3-7.5,4.4-11.1c2.1-5.4,2.1-5.4,7.9-5.4c0.8,0,1.5,0,2.5,0c0,9.3,0,18.3,0,27.4c-2,0-4,0-6,0
	c0-5.6,0-11.1,0-16.7c-0.2,0-0.3,0-0.5-0.1c-2.3,5.6-4.6,11.2-6.8,16.8c-0.9,0-1.7,0-2.6,0c-2.4-5.6-4.8-11.2-7.2-16.8
	c-0.2,0.1-0.3,0.1-0.5,0.2c0,5.6,0,11.1,0,16.7C225.3,109.4,223.4,109.4,221.6,109.4z"/>
<path d="M190.1,109.4c0-9,0-17.9,0-26.8c3.9-1.1,5.4-0.6,7.7,2.4c2.9,3.8,5.8,7.6,8.7,11.5c0.4,0.5,0.9,1,1.6,1.9c0-5.6,0-10.7,0-16
	c2.1,0,3.9,0,6.1,0c0,9,0,18.1,0,27.1c-1.7,0-3.4,0-5.2,0c-4.2-5.6-8.4-11.1-12.5-16.7c-0.5,4.6-0.4,8.9-0.5,13.3
	c0,1.1-0.2,2.2-0.3,3.4C193.8,109.4,192,109.4,190.1,109.4z"/>
<path d="M162.5,109.4c0-9,0-17.9,0-27c6.8,0,13.5,0,20.3,0c0,1.6,0,3.3,0,5.2c-4.7,0-9.4,0-14.2,0c0,1.9,0,3.5,0,5.4
	c4.1,0,8.2,0,12.5,0c0,1.9,0,3.5,0,5.4c-4.1,0-8.2,0-12.4,0c-0.2,3.9-0.4,7.5-0.6,11.1C166.3,109.4,164.4,109.4,162.5,109.4z"/>
<path d="M328.4,109.4c-0.3-0.1-0.6-0.3-1-0.4c-7.1-1.5-11.3-7.4-10.7-14.9c0.6-6.8,6.4-12,13.4-12.1c6.8,0,12.5,4.9,13.3,11.6
	c0.9,7.4-3.4,13.7-10.4,15.3c-0.4,0.1-0.8,0.3-1.2,0.4C330.7,109.4,329.6,109.4,328.4,109.4z M330.1,106.4c5.8,0,10.3-4.6,10.3-10.7
	c0-6-4.5-10.8-10.2-10.8c-5.8,0-10.3,4.7-10.3,10.7C319.9,101.7,324.4,106.4,330.1,106.4z"/>
<path d="M271.1,109.4c-0.4-0.1-0.7-0.3-1.1-0.4c-6.1-1.4-10-6.2-10.1-12.5c-0.2-6.8,3.3-12.2,9.3-13.8c4.9-1.3,9.5-0.6,13.6,2.9
	c-0.6,0.8-1.2,1.5-1.7,2c-2-0.8-3.7-1.9-5.6-2.4c-4.4-1.1-8.4,0.5-10.7,4.1c-2.5,3.8-2.5,9.2,0.1,13c2.2,3.3,6.4,4.8,10.7,3.9
	c4.9-1,5.9-2.7,5-8.8c-2.4,0-4.9,0-7.6,0c0-1-0.1-1.7-0.1-2.8c1.9,0,3.6,0,5.4,0c1.7,0,3.4,0,5.4,0c0,3.5,0,6.8-0.1,10.1
	c0,0.5-0.7,1.1-1.2,1.4c-2.4,1.1-4.9,2.1-7.4,3.2C273.7,109.4,272.4,109.4,271.1,109.4z"/>
<path d="M126.4,1c0,12,0,23.9,0,36c-36.1,0-72,0-108.1,0c0-12,0-23.9,0-36C54.3,1,90.3,1,126.4,1z"/>
<path d="M586.9,20.9c0,11.8,0,22.9,0,34.1c-3.9,0-7.7,0-11.6,0c0-17.9,0-35.9,0-54.2c3.4,0,6.8-0.1,10.2,0.1c0.8,0,1.6,1.1,2.1,1.8
	c7.3,9.6,14.6,19.2,21.9,28.8c0.5,0.6,1,1.2,1.8,2.2c0-11.2,0-21.9,0-32.7c4.1,0,7.9,0,11.9,0c0,18,0,35.9,0,54.1
	c-3.2,0-6.3,0.1-9.5-0.1c-0.8-0.1-1.6-1.1-2.1-1.8c-7.7-10-15.3-20.1-23-30.1C588.2,22.5,587.8,22,586.9,20.9z"/>
<path d="M702.1,1.2c9.9,0,19.6-0.5,29.3,0.1c8.9,0.6,14.3,6.3,15.6,14.6c1.3,8.6-2.4,15.5-10.2,19.4c-0.3,0.2-0.6,0.4-1,0.6
	c4.3,6.3,8.6,12.6,13.1,19.2c-4.8,0-9.2,0-13.6-0.1c-0.5,0-1.1-0.8-1.4-1.4c-3.2-4.8-6.4-9.5-9.6-14.3c-0.8-1.2-1.6-1.6-3-1.6
	c-2.4,0.1-4.7,0-7.3,0c0,5.8,0,11.4,0,17.2c-4.1,0-7.9,0-11.9,0C702.1,37.1,702.1,19.1,702.1,1.2z M714.1,27.1c4.6,0,9,0.2,13.5,0
	c4.5-0.2,7.4-3.3,7.5-7.3c0.1-4.2-2.3-7.3-7-7.7c-4.6-0.4-9.3-0.1-14-0.1C714.1,16.9,714.1,21.9,714.1,27.1z"/>
<path d="M312.1,55.1c-4.7,0-9,0.1-13.3-0.1c-0.6,0-1.3-0.7-1.7-1.3c-3.3-4.8-6.5-9.6-9.7-14.5c-0.7-1.1-1.5-1.5-2.8-1.5
	c-2.4,0.1-4.8,0-7.4,0c0,5.8,0,11.4,0,17.1c-4,0-7.9,0-12,0c0-17.9,0-35.9,0-54c0.7,0,1.3-0.1,1.9-0.1c7.7,0,15.4,0,23,0
	c4,0,7.9,0.7,11.4,2.5c5.6,2.9,8.3,7.7,8.7,13.9c0.4,7-1.7,12.9-7.9,16.8c-1,0.6-2.1,1.2-3.4,1.9C303.2,42.2,307.5,48.5,312.1,55.1z
	 M277.2,27.1c4.2,0,8.1,0,12.1,0c0.4,0,0.7,0,1.1,0c4.4-0.3,7.5-3,7.8-6.8c0.3-4.1-1.8-7.6-5.7-8c-5-0.5-10.1-0.1-15.2-0.1
	C277.2,17,277.2,21.9,277.2,27.1z"/>
<path d="M368,55.1c-4.7,0-9,0.1-13.3-0.1c-0.6,0-1.3-0.8-1.7-1.3c-3.2-4.7-6.5-9.5-9.6-14.3c-0.8-1.2-1.7-1.7-3.1-1.6
	c-2.3,0.1-4.6,0-7.1,0c0,5.7,0,11.4,0,17.1c-4.1,0-8,0-12,0c0-18,0-35.9,0-54c0.5,0,1.1-0.1,1.6-0.1c7.9,0,15.8,0,23.7,0
	c3.8,0,7.6,0.7,11,2.5c6.2,3.2,8.8,8.6,8.9,15.3c0.1,6.8-2.5,12.3-8.6,15.7c-0.4,0.2-0.9,0.5-1.3,0.7c-0.4,0.2-0.9,0.5-1.5,0.8
	C359.2,42.2,363.4,48.5,368,55.1z M333.2,11.9c0,5.1,0,10.1,0,15.2c4.5,0,8.9,0.2,13.3,0c4.6-0.2,7.6-3.3,7.7-7.4
	c0.1-4.2-2.4-7.2-7.1-7.6C342.5,11.6,337.9,11.9,333.2,11.9z"/>
<path d="M225.3,11.5c0,3.8,0,7.2,0,10.9c8.4,0,16.8,0,25.3,0c0,3.6,0,7,0,10.7c-8.4,0-16.7,0-25.2,0c0,3.8,0,7.4,0,11.3
	c9.7,0,19.3,0,29.1,0c0,3.6,0,7.1,0,10.6c-13.6,0-27.3,0-41,0c0-17.9,0-35.9,0-54c13.5,0,27,0,40.6,0c0,3.5,0,6.9,0,10.5
	C244.6,11.5,235.1,11.5,225.3,11.5z"/>
<path d="M523.4,55c0-18,0-35.9,0-54c13.5,0,27.1,0,40.7,0c0,3.4,0,6.9,0,10.5c-9.5,0-19,0-28.6,0c0,3.7,0,7.1,0,10.9
	c8.3,0,16.6,0,25.1,0c0,3.6,0,7.1,0,10.7c-8.3,0-16.6,0-25.2,0c0,3.8,0,7.4,0,11.3c9.6,0,19.2,0,29,0c0,3.7,0,7.1,0,10.6
	C550.8,55,537.1,55,523.4,55z"/>
<path d="M174.6,34c0,7.1,0,14,0,21c-4.1,0-7.9,0-11.9,0c0-18,0-36,0-54c13.7,0,27.3,0,41.1,0c0,3.5,0,7.1,0,10.9
	c-9.6,0-19.3,0-29.1,0c0,3.9,0,7.5,0,11.4c8.5,0,17,0,25.6,0c0,3.7,0,7.1,0,10.8C191.8,34,183.3,34,174.6,34z"/>
<path d="M489.1,0.9c-7.4,18.4-14.7,36.5-22,54.7c-3.2,0-6.3,0-9.4,0c-0.6,0-1.4-0.5-1.6-1C449,37,442,19.3,434.9,1.7
	c-0.1-0.2,0-0.4,0-0.8c4.1,0,8.2-0.1,12.2,0.1c0.5,0,1.2,1.1,1.4,1.8c4.2,11.3,8.4,22.6,12.6,33.9c0.2,0.5,0.4,1.1,0.8,2.1
	c0.4-1,0.7-1.7,1-2.4c4.1-11.2,8.3-22.3,12.4-33.5c0.5-1.4,1.1-2,2.7-2C481.6,1,485.2,0.9,489.1,0.9z"/>
<path d="M509.7,1c0,18.1,0,36,0,54c-3.9,0-7.8,0-11.8,0c0-17.9,0-35.9,0-54C501.8,1,505.7,1,509.7,1z"/>
<path d="M291,82.7c4.5,0,9-0.2,13.4,0.1c3.9,0.2,6.8,3.1,7.1,6.6c0.4,4.1-1.4,6.9-5.5,8.4c-0.4,0.1-0.8,0.3-1.4,0.5
	c2.6,3.5,5.1,6.8,7.7,10.2c-2.1,0.6-3.6,0.6-4.9-1.4c-1.6-2.5-3.4-4.8-5.3-7.1c-0.6-0.7-1.7-1.2-2.6-1.3c-1.8-0.2-3.7-0.1-5.7-0.1
	c0,3.4,0,6.6,0,10c-1,0-1.8,0-2.9,0C291,100.1,291,91.5,291,82.7z M294.1,85.6c0,3.4,0,6.8,0,10.1c3.3,0,6.5,0.2,9.6-0.1
	c3-0.2,4.9-2.4,4.9-5c0-2.6-1.6-4.6-4.7-4.9C300.7,85.4,297.4,85.6,294.1,85.6z"/>
<path d="M381.4,99.5c0,3.2,0,6.1,0,9.1c-1,0-1.9,0-3,0c0-8.5,0-17.1,0-25.6c4.4,0,8.8-0.5,13.2,0.1c4.6,0.6,6.7,4.2,6.3,9
	c-0.4,4-3.8,7.1-8.4,7.4C386.8,99.7,384.3,99.5,381.4,99.5z M381.5,97c3-0.2,6-0.2,8.8-0.6c2.7-0.4,4.4-2.6,4.5-5
	c0.1-2.7-1-4.9-3.6-5.4c-3.2-0.6-6.4-0.6-9.7-0.8C381.5,89.4,381.5,93,381.5,97z"/>
<path d="M368.1,82.4c1.1,0,1.9,0,2.8,0c0.1,0.4,0.2,0.8,0.2,1.2c0,5,0.1,9.9,0,14.9c-0.1,5.5-3.2,9.3-8.2,10.3
	c-5.5,1.1-10.5-1.1-12.5-5.6c-0.3-0.7-0.7-1.3-0.7-2c-0.1-6.2,0-12.4,0-18.8c0.7,0,1.5,0,2.6,0c0,1.5,0,3,0,4.5
	c0.1,4.3,0,8.6,0.4,12.9c0.4,4,3.3,6.2,7.4,6.3c4.1,0.1,6.9-2,7.7-6c0.4-1.9,0.3-3.8,0.3-5.8C368.1,90.5,368.1,86.6,368.1,82.4z"/>
</svg>
