<?xml version="1.0" encoding="utf-8"?>
<!-- Generator: Adobe Illustrator 28.3.0, SVG Export Plug-In . SVG Version: 6.00 Build 0)  -->
<svg version="1.1" id="Calque_1" xmlns="http://www.w3.org/2000/svg" xmlns:xlink="http://www.w3.org/1999/xlink" x="0px" y="0px"
	 viewBox="0 0 849.4 224.2" style="enable-background:new 0 0 849.4 224.2;" xml:space="preserve">
<g>
	<path d="M32.4,95.1c3-7.7,7.5-14.4,13.2-20.2c3.4-3.4,7.2-6.4,11.3-8.8c8.6-5.1,17.8-8.1,27.7-8.4c3.4-0.1,6.8-0.2,10.2,0.3
		c1.8,0.3,3.7,0.5,5.5,0.9c8.3,1.9,15.9,5.3,22.7,10.4c0.7,0.5,1.4,1,2.3,1.6c-0.1-0.4-0.1-0.6-0.2-0.7c-0.7-0.7-1.3-1.5-2-2.1
		c-1.6-1.4-3.2-2.9-4.9-4.2c-8.5-6.9-18.1-11.6-28.6-14.4c-2.6-0.7-5.2-1.2-7.8-1.5c-2.1-0.3-4.2-0.6-6.4-0.7
		c-1.3,0-2.5-0.2-3.8-0.2c-0.6,0-1.3,0-1.9,0c-1.1,0.1-2.2,0.1-3.3,0.2c-0.8,0-1.5,0-2.3,0.1c-2.9,0.4-5.8,0.7-8.7,1.3
		c-7.1,1.5-13.9,3.9-20.3,7.4C23.6,62.3,14.3,70.9,7.2,81.8c-0.6,1-1.2,2-1.5,3.1c-0.2,0.8-0.4,1.6-0.6,2.3
		c-0.1,0.4-0.4,0.5-0.7,0.7c0,1.3,0,2.5,0,3.8C5,91.9,5,92.4,5.2,92.9c2,8.5,10.3,12.8,18,10.6C27.6,102.2,30.8,99.4,32.4,95.1z"/>
	<path d="M99,24.2c1.6,1.8,3.7,3,5.9,3.8c2.1,0.8,4.1,1.6,6.1,2.6c7,3.6,13.2,8.4,18.3,14.4c4.8,5.7,8.6,12.1,11,19.2
		c1.2,3.6,2.1,7.2,2.6,10.9c0.4,2.9,0.7,5.7,0.6,8.6c0,1.6-0.2,3.1-0.3,4.7c-0.2,2.6-0.6,5.2-1.2,7.7c-1,4.5-2.5,8.9-4.6,13.1
		c-1.7,3.4-3.8,6.6-5.9,9.8c-0.2,0.3-0.6,0.7-0.8,1.5c0.6-0.6,1-0.9,1.3-1.2c2.3-2.3,4.4-4.8,6.3-7.4c6.2-8.2,10.5-17.3,13-27.2
		c0.7-2.7,1.2-5.5,1.5-8.3c0.4-3.3,0.7-6.7,0.6-10c0-1.9-0.1-3.7-0.3-5.5c-0.2-2-0.4-4-0.7-6c-0.8-5.1-2.1-10.1-4-14.9
		c-2.1-5.5-4.9-10.8-8.2-15.6c-2.1-3.1-4.4-5.9-6.9-8.7c-1.9-2.1-4-4.1-6.1-5.9c-3.2-2.8-6.7-5.3-10.4-7.5c-1.2-0.7-2.4-1.3-3.8-1.6
		c-0.4-0.1-0.7-0.2-0.9-0.5c-1.7,0-3.5,0-5.2,0c-0.2,0.1-0.3,0.4-0.5,0.4c-0.5,0.2-1.1,0.3-1.7,0.5c-4,1.5-6.9,4.1-8.6,8.1
		c-1.1,2.6-1.2,5.4-0.7,8.2C95.9,19.9,97.1,22.2,99,24.2z"/>
	<path d="M553.3,203.4c0-1.5-0.4-3-1.1-4.3c-0.9-1.9-2.4-3.2-4.4-3.6c-1.7-0.4-3.5-0.4-5.1,0.5c-0.8,0.4-1.4,0.9-2.2,1.4
		c-0.2,0.1-0.5,0.2-0.7,0.4c-0.5-2.3-0.8-2.1-2.6-2.1c-2.1,0-2.2,0.1-2.2,2.1c0,0.2,0,0.5,0,0.7c0,7.2,0,14.4,0,21.5
		c0,0.4,0,0.8,0,1.2c-0.1,0.7,0.3,1.2,0.9,1.6c1.3,0,2.5,0,3.8,0c0.5-0.5,0.7-1.1,0.7-1.9c0-1.9,0-3.7,0-5.6c0-0.4-0.1-0.8,0.2-1.1
		c0.5-0.1,0.7,0.3,1,0.5c3.6,2.5,8.8,0.9,10.6-3c0.7-1.5,1.2-3.1,1.1-4.9C553.3,205.7,553.3,204.6,553.3,203.4z M547.8,206.8
		c-0.2,0.8-0.3,1.6-0.7,2.3c-0.2,0.6-0.7,1.1-1.1,1.5c-0.8,0.7-1.7,0.9-2.7,0.4c-1.1-0.5-1.9-1.3-2.6-2.2c-0.2-0.3-0.2-0.6-0.2-1
		c0-0.8,0-1.5,0-2.3c0,0,0,0,0,0c0-0.6,0-1.3,0-1.9c-0.1-0.8,0.3-1.3,0.7-1.9c0.6-0.7,1.4-1.3,2.2-1.6c1.2-0.5,2.3-0.3,3.2,0.7
		c0.3,0.3,0.5,0.6,0.6,1C547.7,203.5,548.2,205.1,547.8,206.8z"/>
	<path d="M845.4,201.6c-0.6-3.1-2.5-5-5.4-5.9c-1.5-0.5-3.1-0.4-4.6-0.4c-1.6,0-3.1,0.4-4.5,1.2c-2.9,1.6-4.2,4.2-4.5,7.4
		c-0.1,1.1,0,2.3,0,3.5c0,1.5,0.4,2.9,1,4.2c0.9,1.9,2.4,3.1,4.3,3.8c2.1,0.7,4.2,0.8,6.5,0.5c4-0.6,6.9-3.7,7.3-7.3
		c0-0.3,0.1-0.7,0.2-1c0-1.4,0-2.8,0-4.2C845.6,202.8,845.5,202.2,845.4,201.6z M839.8,208.8c-1,2.9-3.5,3.1-5.6,2.4
		c-0.9-0.3-1.5-1.1-1.8-2c-0.6-1.7-0.9-3.4-0.5-5.1c0.2-0.9,0.3-1.8,0.8-2.6c0.9-1.4,2.1-1.9,3.7-1.9c1.5,0.1,2.6,0.8,3.3,2.2
		c0.5,1.2,0.7,2.4,0.7,3.4C840.3,206.6,840.2,207.7,839.8,208.8z"/>
	<path d="M130.5,99.6c0-16.7-12-29.6-28-29.5c-15.6,0-27.8,12.4-27.9,27.8c0,7.6,2.7,14.3,8.1,19.7c5.4,5.5,12.2,8.3,19.8,8.3
		c7.5,0,14-2.6,19.4-7.9C127.6,112.4,130.3,105.7,130.5,99.6z"/>
	<path d="M225.6,124c0,1.7,0.5,1.8,1.7,2.1c0.2,0.1,0.5,0.1,0.7,0.1c2,0,3.9,0,5.9,0c0.5,0,0.9-0.2,1.3-0.3c0.7-0.2,1.1-0.7,1.2-1.3
		c0.1-0.5,0.1-1,0.1-1.6c0-13.4,0-26.9,0-40.3c0-0.5,0-0.9,0-1.4c0-0.2,0.1-0.4,0.5-0.4c0.1,0.2,0.2,0.5,0.3,0.7
		c3.9,11.2,7.7,22.4,11.6,33.7c1,2.8,2,5.7,2.9,8.5c0.5,1.4,1.4,2.3,2.9,2.4c2.3,0.1,4.6,0.1,6.9,0c1.1,0,1.9-0.7,2.3-1.8
		c0.4-1.1,0.8-2.2,1.2-3.3c2.7-7.6,5.4-15.3,8.1-22.9c1.9-5.4,3.8-10.8,5.7-16.2c0.2-0.5,0.4-1,0.6-1.6c0.1,0,0.3,0.1,0.4,0.1
		c0,0.5,0,1,0,1.5c0,3,0,6,0,9c0,10.8,0,21.5,0,32.3c0,2,0.5,2.5,2.5,2.8c0.1,0,0.2,0,0.3,0c1.9,0,3.7,0,5.6,0
		c0.5,0,0.9-0.2,1.4-0.3c0.8-0.2,1.2-0.8,1.2-1.7c0-0.3,0-0.7,0-1c0-16.2,0-32.3,0-48.5c0-0.4,0-0.8,0-1.2c-0.1-2.2-1.6-3.6-3.8-3.7
		c-0.6,0-1.3,0-1.9,0c-2.6,0-5.2,0-7.8,0c-2.2,0-3.9,1.1-5,3c-0.4,0.7-0.8,1.6-1.1,2.4c-0.3,0.7-0.5,1.5-0.8,2.3
		c-2.6,6.9-5.2,13.9-7.8,20.8c-1.2,3.3-2.5,6.6-3.7,9.9c-0.1,0.3-0.3,0.6-0.5,1c-0.5-0.6-0.6-1.1-0.8-1.7
		c-3.9-10.8-7.8-21.6-11.7-32.3c-0.3-0.8-0.6-1.5-1-2.2c-0.5-1-1.3-1.6-2.2-2.2c-1-0.6-2.1-0.9-3.3-0.9c-3.4,0-6.7,0-10.1-0.1
		c-1.7,0-3.7,1.5-3.7,3.6c0,0.9,0,1.7,0,2.6c0,11.6,0,23.2,0,34.7C225.6,115.2,225.6,119.6,225.6,124z"/>
	<path d="M36.1,41c1.8,3,4.3,5.1,7.6,6.3c3.5,1.3,7,1.4,10.5-0.2c1.9-0.9,3.8-1.7,5.8-2.3c3.6-1.3,7.3-2.1,11.1-2.6
		c2.4-0.3,4.7-0.6,7.1-0.6c2,0,3.9,0.1,5.9,0.3c2.2,0.2,4.4,0.5,6.5,0.9c4.8,1,9.4,2.4,13.8,4.5c8.7,4.1,16,10,21.8,17.6
		c4.3,5.6,7.5,11.8,9.6,18.6c0.9,2.9,1.5,5.9,2,8.9c0.1,0.4,0.2,0.8,0.3,1.3c0.1,0,0.2,0,0.3-0.1c0-0.1,0.1-0.1,0.1-0.2
		c0.2-4-0.2-8-0.8-11.9c-0.5-3.4-1.3-6.7-2.3-9.9c-3.1-10.1-8-19.1-14.8-27.1c-6.1-7.1-13.1-12.9-21.3-17.4
		c-4.9-2.7-10.1-4.8-15.6-6.4c-3.5-1-6.9-1.7-10.5-2.1c-2.3-0.3-4.6-0.7-6.9-0.6c-3.6,0-7.2-0.1-10.8,0.3c-3.2,0.4-6.4,0.7-9.6,1.5
		c-5.5,1.3-9.2,4.7-10.9,10.1c-0.6,1.7-0.6,3.5-0.5,5.3C34.5,37.3,35,39.2,36.1,41z"/>
	<path d="M101.9,168.5c-2.3-0.8-4.6-1.7-6.7-2.8c-7-3.6-13.2-8.3-18.3-14.4c-4.6-5.4-8.2-11.5-10.6-18.2c-1.4-3.8-2.4-7.6-2.9-11.6
		c-0.2-1.7-0.4-3.3-0.7-5c0-0.3,0-0.7,0-1c0.1-2.7-0.1-5.4,0.3-8.1c0.3-1.8,0.4-3.5,0.7-5.3c0.8-4.6,2.3-9.1,4.2-13.4
		c1.7-3.9,3.9-7.5,6.3-11c0.2-0.3,0.3-0.5,0.5-0.8c-0.1-0.1-0.1-0.1-0.2-0.2c-0.2,0.2-0.4,0.3-0.6,0.5c-1.8,1.8-3.4,3.6-5,5.6
		c-5.8,7.4-10.1,15.5-12.8,24.5c-1.9,6.2-3.1,12.4-3.2,18.9c0,0.5-0.1,1-0.1,1.5c0,1.1,0,2.2,0,3.3c0,0.5,0.2,1,0.2,1.5
		c-0.1,3.1,0.3,6.1,0.8,9.1c0.6,4.1,1.6,8,3,11.9c3.6,10.7,9.5,19.9,17.2,28c3.5,3.6,7.4,6.9,11.5,9.8c1.8,1.3,3.6,2.5,5.6,3.5
		c3.2,1.4,6.5,1.9,9.9,1c5.3-1.5,8.6-4.9,10.1-10c0.8-2.8,0.8-5.7-0.2-8.5C109.3,173,106.2,170.1,101.9,168.5z"/>
	<path d="M158.2,147.8c-2.4-0.1-4.7,0.4-6.9,1.5c-2.9,1.4-6,2.4-9.1,3.3c-3.7,1-7.6,1.7-11.4,1.9c-3.2,0.2-6.4,0.2-9.5-0.2
		c-3.1-0.3-6.1-0.8-9-1.6c-8.8-2.2-16.7-6.3-23.6-12.1c-4.7-4-8.8-8.6-12-13.8c-3.8-6.2-6.5-12.8-7.9-19.9c-0.2-1.3-0.5-2.6-0.8-3.9
		c-0.1,0-0.2,0-0.3-0.1c-0.1,0.3-0.2,0.6-0.2,0.9c0.1,1.1,0.2,2.2,0.2,3.3c0,2.7,0.4,5.4,0.8,8.1c0.6,3.9,1.6,7.7,2.9,11.4
		c3.7,11.1,9.8,20.8,18,29.2c2.9,3,6.1,5.7,9.5,8.1c7.5,5.4,15.7,9.4,24.6,11.7c3.1,0.8,6.3,1.5,9.5,1.8c2.5,0.2,4.9,0.5,7.4,0.6
		c2.9,0.1,5.8,0,8.7-0.2c3.1-0.3,6.1-0.7,9.1-1.2c2.1-0.4,4.2-0.9,6.1-1.9c4.9-2.6,7.3-6.9,7.7-12.3c0.1-1.6-0.2-3.1-0.7-4.6
		C169.5,152.2,164.7,148.1,158.2,147.8z"/>
	<path d="M156,54.8c1.9,5.4,3,10.9,3.3,16.6c0.1,1.4,0.2,2.9,0.2,4.3c0,1.3-0.2,2.7-0.3,4c0,0.3,0,0.7-0.1,1
		c-0.5,3.8-1.2,7.5-2.4,11.2c-3.2,10.5-9.1,19.3-17.2,26.7c-4.3,3.9-9.1,7-14.3,9.4c-4.4,2.1-9,3.6-13.8,4.5
		c-1.2,0.2-2.5,0.5-3.7,0.8c0,0.1,0,0.1,0,0.2c0.2,0,0.4,0,0.6,0.1c2.8,0.2,5.7-0.1,8.5-0.4c2.6-0.3,5.1-0.8,7.7-1.4
		c7.2-1.6,13.9-4.3,20.3-7.9c8.2-4.7,15.3-10.7,21.3-18.1c7-8.6,11.8-18.2,14.5-28.9c0.6-2.5,1.1-4.9,1.5-7.5
		c0.3-2.3,0.7-4.6,0.7-6.9c0-1.2,0-2.3,0.2-3.5c0.1-0.6,0-1.3-0.1-1.9c0-0.3-0.1-0.7-0.1-1c0.1-3-0.2-6-0.7-9
		c-0.4-2.5-0.8-5-1.5-7.5c-0.8-2.8-2.2-5.2-4.5-7.1c-3.8-3.1-8.2-4.1-13-2.9c-3.9,1-6.9,3.3-8.9,6.8c-2.3,4.2-2.4,8.6-0.5,13
		C154.5,51.1,155.3,52.9,156,54.8z"/>
	<path d="M49.3,141.7c-1.4-3.9-2.4-8-2.9-12.1c-0.3-2.6-0.6-5.3-0.6-7.9c0-1.2,0.2-2.4,0.3-3.6c0.1-1.6,0.2-3.2,0.5-4.8
		c0.8-5,2.2-9.9,4.2-14.6c3.6-8.4,9-15.6,16-21.5c5-4.3,10.6-7.6,16.8-10c3.8-1.5,7.7-2.6,11.7-3.2c1.1-0.2,2.2-0.4,3.3-0.6
		c0-0.1,0-0.2,0-0.2c-0.5-0.1-1-0.2-1.5-0.2c-2.1,0-4.2,0.1-6.2,0.3c-2.7,0.3-5.3,0.6-7.9,1.1c-6.5,1.2-12.8,3.3-18.7,6.2
		c-9.9,4.8-18.3,11.5-25.3,20c-5.1,6.2-9.1,13.1-12,20.6c-2.3,6-3.8,12.1-4.5,18.5c-0.3,2.8-0.5,5.5-0.5,8.3c0,1.4,0.2,2.9,0.2,4.3
		c0,2.7,0.4,5.4,0.8,8.1c0.3,1.9,0.7,3.9,1.2,5.8c2.2,7.1,9.5,11.2,16.9,9.6c3.1-0.7,5.7-2.3,7.7-4.7c3.6-4.4,4.5-9.3,2.3-14.6
		C50.5,144.7,49.9,143.2,49.3,141.7z"/>
	<path d="M191,90.5c-2.5-0.7-5-0.8-7.5-0.2c-4.3,0.9-7.5,3.2-9.2,7.4c-0.4,1-0.8,2.1-1.2,3.1c-1.1,3.2-2.6,6.3-4.3,9.3
		c-3,5.1-6.8,9.7-11.3,13.6c-4.7,4.1-9.8,7.3-15.5,9.8c-4.6,2-9.5,3.4-14.4,4.2c-2.3,0.4-4.7,0.6-7.1,0.8c-3.8,0.2-7.5,0-11.2-0.6
		c-3.3-0.5-6.6-1.2-9.8-2.3c-5.4-1.7-10.5-4.2-15.2-7.5c-0.9-0.6-1.7-1.1-2.6-1.7c0,0-0.1,0-0.3,0.1c0.2,0.3,0.4,0.5,0.6,0.8
		c2.7,2.8,5.8,5.2,8.9,7.4c6.4,4.5,13.4,8,21,10.3c4.5,1.4,9.2,2.4,13.9,2.9c2.7,0.3,5.4,0.4,8.1,0.5c1.4,0.1,2.9-0.1,4.3-0.2
		c1.6-0.1,3.2-0.2,4.8-0.4c3.2-0.4,6.4-0.9,9.5-1.7c7.4-1.8,14.3-4.7,20.8-8.6c3.6-2.2,7.1-4.7,10.3-7.4c3.6-3.1,6.9-6.5,9.9-10.3
		c2.3-2.9,4.4-5.8,6.2-9c0.9-1.6,1.4-3.4,1.6-5.3C201.9,98.9,197.9,92.5,191,90.5z"/>
	<path d="M463.9,71.7c-0.1-1.1-0.7-1.8-1.8-2c-0.2-0.1-0.5-0.1-0.7-0.1c-1.9,0-3.7,0-5.6,0c-0.2,0-0.5,0-0.7,0.1
		c-1.3,0.3-1.7,0.9-1.8,2.2c0,0.4,0,0.8,0,1.2c0,8.5,0,17,0,25.5c0,3.2,0.1,6.4,0.2,9.5c0,0.2-0.2,0.4-0.3,0.7
		c-0.3-0.5-0.5-0.8-0.7-1.2c-1-2-1.9-4.1-2.9-6.1c-4.3-8.3-8.7-16.6-13.1-24.9c-0.6-1.2-1.3-2.5-2-3.7c-1.3-2.2-3.2-3.3-5.8-3.2
		c-2.1,0-4.3,0-6.4,0c-0.6,0-1.2,0-1.7,0.1c-1.6,0.2-2.8,1.5-3,3.1c0,0.4,0,0.8,0,1.2c0,3.2,0,6.4,0,9.6c0,13.2,0,26.4,0,39.6
		c0,0.5,0,0.9,0.1,1.4c0,0.5,0.3,0.9,0.8,1c0.5,0.2,1.1,0.4,1.7,0.4c1.8,0,3.6,0,5.4,0c0.2,0,0.5,0,0.7-0.1c1.3-0.3,1.7-0.9,1.8-2.2
		c0-0.4,0-0.8,0-1.2c0-6.4,0-12.7,0-19.1c0-6.1-0.1-12.2-0.1-18.2c0-0.2,0.1-0.4,0.1-0.6c0.1,0,0.2,0,0.3-0.1
		c0.2,0.4,0.4,0.8,0.6,1.2c1.3,2.6,2.5,5.2,3.8,7.8c4.8,9.2,9.7,18.3,14.6,27.5c0.5,0.9,1.1,1.8,1.7,2.6c1,1.2,2.2,2.1,3.8,2.1
		c2.5,0.1,5.1,0.1,7.6,0c1.5,0,2.5-1,3.1-2.4c0.4-0.9,0.4-1.8,0.4-2.7c0-16,0-32,0-48C463.9,72.5,463.9,72.1,463.9,71.7z"/>
	<path d="M476,114.1c0.9,2.3,2.2,4.3,3.9,6.1c2.6,2.8,5.8,4.6,9.4,5.7c3.2,1,6.6,1.3,9.9,1.2c2.9,0.1,5.8-0.1,8.5-0.8
		c6.1-1.5,10.9-4.7,14.3-10c2.8-4.4,4.1-9.3,4.5-14.4c0.2-2.3,0.4-4.7,0.1-7.1c-0.2-1.5-0.2-3.1-0.4-4.7c-0.4-2.6-1-5.1-1.9-7.5
		c-1.6-4.1-4.1-7.5-7.8-9.9c-3.6-2.4-7.7-3.4-12-3.7c-1.7-0.1-3.4-0.1-5-0.1c-2.4,0-4.9,0.2-7.2,0.8c-3.9,1-7.5,2.8-10.5,5.5
		c-2.7,2.5-4.7,5.6-6,9c-1.7,4.3-2.2,8.7-2.4,13.2c-0.1,3.1,0.2,6.1,0.6,9.2C474.4,109.1,475,111.6,476,114.1z M485.7,94.5
		c0.1-2.9,0.6-5.8,1.9-8.4c1.8-3.9,4.7-6.6,8.9-7.6c0.1,0,0.1,0,0.2,0c2.5-0.3,5-0.4,7.4,0.1c4,0.9,6.8,3.3,8.4,7.1
		c0.9,2,1.4,4.1,1.5,6.2c0.2,2,0.3,3.9,0.5,5.9c0,3.2-0.4,6.4-1.2,9.4c-0.8,2.8-2.1,5.4-4.4,7.3c-2,1.8-4.4,2.8-7.1,2.9
		c-1.6,0.1-3.1,0.1-4.7,0c-3.7-0.4-6.6-2-8.6-5.2c-1.5-2.3-2.1-4.8-2.5-7.5C485.5,101.4,485.5,98,485.7,94.5z"/>
	<path d="M360.2,126.2c0.2,0,0.5,0.1,0.7,0.1c2.1,0,4.2,0,6.3,0c0.3,0,0.6,0,0.9-0.1c1-0.2,1.7-0.7,2.1-1.7c0.2-0.7,0.4-1.3,0.7-2
		c0.9-2.8,1.8-5.6,2.7-8.4c0.2-0.7,0.6-1.1,1.4-1.1c0.2,0,0.5,0,0.7,0c5.9,0,11.7,0,17.6,0c0.5,0,0.9,0.1,1.4,0.1
		c0.4,1.2,0.8,2.4,1.2,3.6c0.8,2.5,1.7,5.1,2.5,7.6c0.4,1.1,1.1,1.8,2.3,1.8c2.7,0,5.4,0,8.2,0c0.1,0,0.2,0,0.3,0
		c1.3-0.2,1.8-1,1.5-2.2c-0.2-0.8-0.4-1.7-0.7-2.5c-2.4-7-4.8-14-7.3-21c-3.2-9.3-6.4-18.6-9.7-27.9c-0.9-2.6-1.5-3.1-4.3-3.1
		c-2.7,0-5.3,0-8,0c-0.5,0-0.9,0-1.4,0.1c-1.1,0.2-1.9,0.7-2.4,1.8c-0.1,0.3-0.2,0.5-0.3,0.8c-1.1,3.2-2.2,6.5-3.3,9.7
		c-3.7,10.7-7.4,21.4-11.1,32.2c-1,2.8-2,5.7-2.9,8.6c-0.2,0.6-0.3,1.4-0.3,2C358.9,125.6,359.4,126,360.2,126.2z M377.8,99.6
		c0.4-1.6,1-3.1,1.5-4.6c0.5-1.5,1-3,1.4-4.4c0.5-1.5,1-3.1,1.5-4.6c0.5-1.5,0.9-3.1,1.6-4.5c0.5,0.2,0.6,0.6,0.7,1
		c0.8,2.5,1.7,5,2.5,7.6c1.4,4.2,2.7,8.3,4.1,12.5c0.2,0.5,0.3,1.1,0.5,1.8c-1.6,0.3-8.4,0.4-14.2,0.3c-0.3,0-0.7-0.1-1.1-0.2
		C376.7,102.6,377.4,101.2,377.8,99.6z"/>
	<path d="M329.4,125.9c0.5,0.1,1,0,1.6,0c7.8,0,15.6,0,23.5,0c0.4,0,0.8,0,1.2,0c1-0.1,1.5-0.4,1.7-1.4c0.5-2.2,0.5-4.4,0-6.5
		c-0.2-0.9-0.7-1.3-1.8-1.3c-0.5,0-0.9,0-1.4,0c-4.6,0-9.2,0-13.7,0c-0.6,0-1.3,0.2-1.9-0.2c-0.3-0.7-0.2-1.4-0.2-2
		c0-13.7,0-27.4,0-41.2c0-0.6,0-1.2-0.1-1.7c-0.1-0.8-0.5-1.4-1.3-1.6c-0.6-0.1-1.1-0.3-1.7-0.3c-2,0-3.9,0-5.9,0
		c-0.6,0-1.1,0.2-1.7,0.4c-0.6,0.2-0.9,0.6-1,1.3c0,0.5,0,1,0,1.6c0,16.4,0,32.8,0,49.2c0,0.5,0,0.9,0,1.4
		C326.9,124.8,327.9,125.8,329.4,125.9z"/>
	<path d="M303.1,97.9c0,7.9,0,15.7,0,23.6c0,1,0,2,0,2.9c0,0.7,0.4,1.2,1.1,1.4c0.4,0.1,0.8,0.3,1.2,0.3c2.3,0,4.5,0.2,6.8,0
		c2-0.2,2.6-0.7,2.6-2.9c0-0.2,0-0.3,0-0.5c0-16.6,0-33.2,0-49.8c0-0.4,0-0.8,0-1.2c-0.1-1-0.5-1.8-1.6-2c-0.5-0.1-1-0.3-1.5-0.3
		c-1.9,0-3.8,0-5.7,0c-0.4,0-0.8,0.1-1.2,0.2c-1.2,0.4-1.5,0.7-1.6,2c0,0.9,0,1.7,0,2.6C303.1,82.2,303.1,90,303.1,97.9
		C303.1,97.9,303.1,97.9,303.1,97.9z"/>
	<path d="M299.4,28.1c-1.2,0-2.4,0-3.6,0c-1,0-1.5,0.5-1.8,1.3c-0.3,0.9-0.6,1.9-0.9,2.8c-1.9,6.1-3.8,12.1-5.7,18.2
		c-0.1,0.4-0.3,0.8-0.5,1.3c-0.1,0-0.2,0-0.3,0c-0.1-0.3-0.2-0.6-0.3-0.9c-2.1-6.5-4.1-13-6.2-19.5c-0.2-0.7-0.5-1.4-0.7-2.1
		c-0.2-0.6-0.6-1-1.3-1c-1.6,0-3.1,0-4.7,0c-0.6,0-1,0.7-1,1.2c0,0.2,0.1,0.4,0.2,0.7c0.6,1.9,1.2,3.8,1.9,5.8c2.4,7,4.7,14,7.1,21
		c0.1,0.4,0.3,0.8,0.4,1.1c0.3,0.8,0.8,1.2,1.7,1.2c1.9,0,3.7,0,5.6,0c0.8,0,1.3-0.4,1.6-1.1c0.1-0.3,0.2-0.6,0.4-1
		c0.8-2.2,1.5-4.5,2.3-6.7c2.1-6.3,4.3-12.7,6.4-19c0.2-0.6,0.4-1.2,0.6-1.8C300.7,28.6,300.3,28.1,299.4,28.1z"/>
	<path d="M252.7,58.5c0.5,0.2,1,0.4,1.4,0.6c1.8,0.6,3.6,0.9,5.1,0.8c1.8,0,3.3,0.1,4.8-0.4c3.5-1.1,6.1-3.2,7-7
		c0.3-1,0.2-2.1,0.2-3.1c0.1-2.2-0.8-4-2.3-5.6c-1.2-1.3-2.7-2.1-4.3-2.9c-1.3-0.6-2.5-1.1-3.8-1.8c-0.7-0.4-1.4-0.9-1.9-1.4
		c-0.5-0.5-0.8-1.1-0.8-1.8c-0.1-1.7,1-3,2.8-3.2c1.8-0.2,3.6,0,5.2,0.8c0.6,0.3,1.1,0.6,1.7,0.9c1,0.4,1.6,0,1.7-1
		c0-0.8-0.1-1.5,0-2.3c0.2-1.4-0.6-2.2-1.7-2.7c-1.4-0.6-2.9-1.1-4.5-1.1c-0.9,0-1.9,0-2.8,0c-2,0-3.8,0.6-5.4,1.7
		c-1.6,1-2.7,2.6-3.3,4.4c-1.3,4.3,0.1,8.6,4,10.8c1.2,0.7,2.5,1.4,3.9,2c1.3,0.6,2.5,1.1,3.6,2.1c1.3,1.2,1.6,2.7,0.8,4.2
		c-0.6,1.2-1.7,1.9-3,2.1c-2.2,0.2-4.4,0-6.4-1c-0.5-0.2-0.9-0.5-1.4-0.7c-0.3-0.1-0.5-0.3-0.8-0.4c-0.8-0.2-1.4,0.1-1.5,1
		c-0.1,0.8,0,1.6-0.1,2.4C250.9,57.1,251.5,58,252.7,58.5z"/>
	<path d="M340.3,160.3c-0.6-1.6-1.8-2.7-3.4-3.2c-2.5-0.8-4.8-0.4-6.9,1.2c-0.5,0.4-1,0.9-1.7,1.2c-0.3-0.3-0.6-0.6-0.9-0.9
		c-0.8-1-1.9-1.6-3.1-1.8c-2.1-0.4-4-0.1-5.8,1.2c-0.5,0.4-0.9,0.9-1.7,1c-0.1-0.2-0.1-0.4-0.2-0.7c-0.3-1.1-0.4-1.3-1.5-1.3
		c-0.6,0-1.3,0-1.9,0c-0.8,0.1-1.2,0.4-1.2,1.2c0,0.6,0,1.3,0,1.9c0,4.9,0,9.8,0,14.8c0,0.6-0.2,1.2,0.4,1.7
		c1.5,0.5,3.1,0.6,4.7-0.2c0.1-0.4,0.1-0.6,0.2-0.9c0-0.5,0-0.9,0-1.4c0-3,0-5.9,0-8.9c0-0.5,0-1.1,0.3-1.5c0.6-0.9,1.4-1.7,2.5-2.1
		c1-0.4,1.9-0.3,2.7,0.5c0.3,0.3,0.5,0.8,0.7,1.2c0.3,0.8,0.4,1.6,0.4,2.4c0,2.9,0,5.8,0,8.7c0,0.3,0,0.7,0,1c0,0.9,0.2,1.1,1,1.4
		c1.1,0.3,2.2,0.3,3.3,0c0.8-0.2,1-0.5,1.1-1.3c0-0.4,0-0.8,0-1.2c0-3,0-6,0-9c0-0.5,0-1,0.2-1.3c0.7-0.8,1.4-1.5,2.3-2.1
		c1.2-0.8,2.1-0.5,3,0.5c0.3,0.3,0.4,0.7,0.6,1c0.3,0.8,0.4,1.6,0.4,2.4c0,3.1,0,6.1,0,9.2c0,0.5-0.1,1,0.2,1.5
		c1.3,0.6,2.7,0.7,3.9,0.4c1-0.3,1.2-0.5,1.2-1.6c0-3.9,0-7.8,0-11.6C341,162.5,340.7,161.4,340.3,160.3z"/>
	<path d="M265.2,172.6c-0.1-0.2-0.4-0.4-0.7-0.4c-0.2,0-0.4,0.1-0.7,0.2c-2.3,0.5-2.9-0.2-3.2-2.4c0-0.1,0-0.1,0-0.2
		c0-2.4,0-4.9,0-7.3c0-0.3,0.1-0.7,0.2-0.9c1.9-0.3,6-0.3,7.2,0.1c0,0.5,0.1,1.1,0.1,1.7c0,2.5,0,5.1,0,7.6c0,1.2,0.2,2.3,0.7,3.4
		c0.4,0.9,1,1.6,1.8,2c2.1,1,4.2,1.1,6.4,0.3c0.7-0.2,1.1-0.8,1.1-1.6c0-0.6,0-1.3,0-1.9c0-0.9-0.4-1.1-1.3-0.8
		c-0.2,0-0.3,0.1-0.5,0.2c-1.8,0.3-2.7-0.4-2.9-2.2c0-0.2,0-0.3,0-0.5c0-2.4,0-4.9,0-7.3c0-0.3,0.1-0.5,0.1-0.9
		c0.6,0,1.1-0.1,1.6-0.1c0.6,0,1.3,0,1.9,0c0.6,0,1-0.4,1-1c0-0.8,0-1.6,0-2.4c0-0.5-0.4-0.8-0.9-0.8c-0.8,0-1.6,0-2.4,0
		c-0.4,0-0.8-0.1-1.2-0.2c-0.3-1.8,0.1-3.5-0.3-5.2c-1.3-0.8-2.7-0.6-4-0.4c-1,0.2-1.2,0.4-1.2,1.4c0,1,0,2.1,0,3.1
		c0,0.4-0.1,0.8-0.2,1.2c-1.2,0-2.4,0.1-3.6,0c-1.2,0-2.4,0.2-3.6-0.2c0-0.4-0.1-0.7-0.1-1.1c0-0.8,0-1.5,0-2.3
		c0-0.8-0.3-1.2-1.1-1.3c-1-0.1-2-0.1-2.9,0c-0.8,0.1-1.2,0.5-1.2,1.4c0,0.8,0,1.6,0,2.4c0,0.3-0.1,0.6-0.2,1
		c-0.3,0-0.5,0.1-0.8,0.1c-0.3,0-0.6,0-0.9,0c-0.5,0.1-0.9,0.3-0.9,0.8c-0.1,0.8-0.1,1.6,0,2.4c0,0.6,0.4,0.9,1.1,0.9
		c0.5,0.1,1,0.1,1.7,0.1c0,0.7,0.1,1.1,0.1,1.6c0,2.5,0,5.1,0,7.6c0,1.1,0.2,2.1,0.5,3.1c0.3,1.1,1,2.1,2.1,2.6c2.1,1,4.2,1,6.4,0.2
		c0.3-0.1,0.7-0.5,0.8-0.8C265.6,174.7,265.6,173.6,265.2,172.6z"/>
	<path d="M226.4,50.5c1.6,5.9,6.3,9.4,12,9.3c1,0,2,0,3,0c2.1-0.1,4.1-0.7,5.9-1.9c0.4-0.2,0.8-0.6,1-0.9c0.8-1.5,0.8-3,0.2-4.5
		c-0.1-0.4-0.5-0.6-0.8-0.5c-0.5,0.1-1,0.3-1.4,0.6c-2,1.3-4.2,1.8-6.6,1.6c-1.7-0.1-3.1-0.8-4.3-1.9c-1.2-1.1-1.8-2.6-2.2-4.1
		c-0.6-2.3-0.5-4.7-0.3-7.1c0.2-1.8,0.8-3.5,1.8-5c1.3-1.7,2.9-2.7,5.1-2.8c2.2-0.1,4.2,0.5,6,1.7c0.4,0.3,0.7,0.6,1.2,0.8
		c0.7,0.3,1.3,0,1.4-0.7c0.2-1.1,0.3-2.1,0.1-3.2c-0.2-1.1-0.7-1.8-1.5-2.4c-1.7-1.1-3.5-1.7-5.6-1.7c-1,0-2.1,0-3.1,0
		c-0.5,0-1,0-1.6,0.1c-4.6,1-7.9,3.6-9.7,8.1c-1.1,2.7-1.6,5.4-1.4,8.4C225.5,46.3,225.8,48.5,226.4,50.5z"/>
	<path d="M365,187.1c-1-0.1-2-0.1-2.9,0c-0.8,0.1-1.2,0.6-1.3,1.4c0,0.4,0,0.8,0,1.2c0,1.9,0,3.7,0,5.6c0,0.5,0,1-0.1,1.8
		c-0.5-0.3-0.8-0.4-1-0.5c-1.3-1-2.8-1.3-4.4-1.2c-2,0.1-3.6,0.8-4.9,2.2c-1.2,1.2-1.8,2.7-2.2,4.3c-0.5,1.8-0.4,3.6-0.4,5.3
		c0,1.5,0.4,3,0.9,4.4c1.4,3.7,5.4,5.1,8.3,4.3c1.2-0.3,2.3-0.8,3.2-1.6c0.3-0.2,0.6-0.4,1.1-0.6c0.1,0.4,0.2,0.7,0.3,1
		c0.1,0.5,0.5,0.8,0.9,0.9c1,0.3,1.9,0.3,2.9,0c0.5-0.2,0.8-0.5,0.8-1c0-0.5,0-0.9,0-1.4c0-7.7,0-15.5,0-23.2c0-0.4,0-0.8,0-1.2
		C366.2,187.7,365.8,187.2,365,187.1z M360.8,206.8c0,0.9,0.1,1.7-0.6,2.4c-1,1-1.9,1.8-3.3,2c-0.9,0.1-1.6-0.3-2.2-0.9
		c-0.4-0.4-0.7-0.9-0.9-1.5c-0.8-2.2-0.9-4.4,0-6.6c0.1-0.2,0.1-0.3,0.2-0.5c1-2.1,3.2-2.5,4.9-1.2c0.5,0.4,0.9,0.9,1.4,1.3
		c0.4,0.3,0.5,0.8,0.5,1.2c0,0.8,0,1.6,0,2.4c0,0,0,0,0,0C360.8,206,360.8,206.4,360.8,206.8z"/>
	<path d="M435.8,173.6c0.8-1.6,1.4-3.3,1.3-5.1c0-1.2,0-2.3,0-3.5c0-1.5-0.4-3-1-4.4c-1-2.1-2.6-3.5-4.8-3.8
		c-2.3-0.4-4.5,0.1-6.4,1.6c-0.3,0.3-0.7,0.5-1.2,0.9c-0.1-0.4-0.2-0.6-0.2-0.8c-0.3-1.2-0.5-1.4-1.7-1.5c-0.2,0-0.5,0-0.7,0
		c-2.1-0.1-2.2,0.3-2.1,2.2c0,7.6,0,15.2,0,22.8c0,0.3,0,0.7,0,1c0,0.5,0.3,0.9,0.8,1c1.1,0.3,2.3,0.3,3.4,0c0.7-0.1,1-0.6,1-1.4
		c0-0.4,0-0.8,0-1.2c0-1.7,0-3.5,0-5.2c0-0.3,0-0.6,0.4-0.7c0.2,0.2,0.5,0.4,0.8,0.6C429,178.6,434,177.2,435.8,173.6z M431,170.5
		c-0.4,1-1.1,1.7-2.2,2.1c-0.5,0.2-0.9,0.1-1.3,0c-1.2-0.4-2.1-1.2-2.8-2.2c-0.2-0.3-0.3-0.7-0.4-1.1c-0.1-0.7,0-1.5,0-2.3
		c0,0,0,0,0,0c0-0.4,0.1-0.8,0-1.2c-0.3-1.8,0.7-2.8,2-3.7c2.2-1.4,3.9-0.9,4.8,1.5C432,165.9,432,168.2,431,170.5z"/>
	<path d="M446,176.8c2.1,0.6,4.2,0.8,6.3,0.3c3.6-0.7,5.9-2.7,7-6.2c0.8-2.7,0.8-5.5,0.1-8.2c-0.9-3.1-2.8-5-6-5.8
		c-1.7-0.4-3.4-0.4-5-0.2c-4.3,0.6-6.7,3.1-7.7,6.6c-0.4,1.3-0.3,2.5-0.4,4.2c-0.1,1.3,0,3,0.7,4.6C441.9,174.4,443.6,176,446,176.8
		z M446.2,164c0.9-2.9,3.8-3.6,5.8-2.6c0.9,0.5,1.5,1.3,1.8,2.2c0.4,1.1,0.5,2.2,0.5,3.4c0,1.1-0.1,2.2-0.5,3.2
		c-0.6,1.7-1.7,2.7-3.8,2.7c-2.2,0-3.2-0.9-3.8-2.6C445.6,168.2,445.6,166.1,446.2,164z"/>
	<path d="M699.5,195.7c-1.8-0.5-3.6-0.5-5.3-0.3c-4.1,0.6-6.6,2.9-7.6,6.6c-0.3,1.3-0.3,2.5-0.3,3.6c0,0.6,0,1.1,0,1.5
		c-0.1,1.4,0.3,2.8,0.9,4c0.9,2.1,2.5,3.5,4.6,4.1c2.2,0.7,4.4,0.8,6.7,0.3c2.8-0.6,4.9-2,6.2-4.6c0.9-1.7,1.1-3.5,1.2-5.3
		c0-1.2-0.1-2.4-0.3-3.6C704.8,198.8,702.9,196.6,699.5,195.7z M699.7,209c-0.9,2.2-3.4,3.2-5.6,2.2c-1.1-0.5-1.6-1.5-2-2.5
		c-0.6-2-0.6-4,0-6c1-3.2,4-3.6,5.9-2.6c0.6,0.3,1.1,0.8,1.4,1.5c0.6,1.2,0.8,2.5,0.8,3.8C700.2,206.6,700.1,207.8,699.7,209z"/>
	<path d="M329.5,195.9c-2.7-0.9-5.4-0.9-8.2-0.1c-2.8,0.9-4.6,2.8-5.5,5.6c-0.5,1.4-0.6,2.8-0.5,4.1c0,0.7,0,1.3,0,1.8
		c0,1.4,0.3,2.6,0.9,3.9c0.8,1.9,2.2,3.3,4.1,4c2.7,1,5.5,1.1,8.3,0.2c3.5-1.1,5.3-3.7,6-7.2c0.4-1.9,0.4-3.9,0-5.8
		C334,199.3,332.5,197,329.5,195.9z M328.7,209c-0.9,2.2-3.4,3.2-5.6,2.1c-1.1-0.5-1.6-1.5-1.9-2.5c-0.6-2-0.6-4,0-6
		c0.9-3.2,4-3.6,5.9-2.7c0.8,0.4,1.3,1,1.6,1.7c0.6,1.2,0.7,2.5,0.7,3.9C329.3,206.8,329.2,208,328.7,209z"/>
	<path d="M515,195.7c-1.1-0.2-2.2-0.3-3.2-0.5c-1.2,0-2.4,0.2-3.6,0.5c-3.9,1.2-6,4.2-6.3,8c-0.1,1.1,0,2.2,0,3.3
		c0,1.2,0.2,2.4,0.6,3.6c1,2.7,3,4.3,5.8,5c1.9,0.4,3.7,0.4,5.7,0.1c4.2-0.8,6.5-3.7,7.2-7.3c0.4-2.1,0.4-4.1,0-6.2
		C520.5,199,518.3,196.3,515,195.7z M515.3,209c-0.9,2.2-3.4,3.2-5.6,2.2c-0.8-0.4-1.4-1-1.7-1.9c-0.6-1.6-0.9-3.2-0.6-4.9
		c0.2-1,0.3-1.9,0.8-2.8c0.8-1.4,2.1-2,3.6-1.9c1.5,0.1,2.6,0.7,3.3,2.1c0.6,1.2,0.7,2.5,0.7,3.9C515.8,206.8,515.7,207.9,515.3,209
		z"/>
	<path d="M666.3,195.6c-1.5-0.4-3.1-0.4-4.6-0.3c-4.3,0.3-7.2,2.8-8.2,6.3c-0.4,1.4-0.5,2.7-0.4,4.2c-0.1,1.6,0,3.1,0.6,4.7
		c1,2.7,2.8,4.3,5.5,5c1.9,0.5,3.8,0.5,5.8,0.2c4.6-0.8,6.8-4.3,7.3-7.7c0.3-1.9,0.3-3.8,0-5.7C671.7,199,669.6,196.5,666.3,195.6z
		 M666.3,209.3c-0.6,1.3-1.6,2.1-3.1,2.1c-0.4,0-0.8,0-1.2,0c-1.3-0.1-2.2-0.7-2.7-1.8c-0.8-1.6-1.1-3.4-0.8-5.2
		c0.2-0.9,0.3-1.9,0.8-2.8c0.9-1.4,2.1-2.1,3.7-2c1.6,0.1,2.7,0.8,3.3,2.3c0.5,1.2,0.7,2.4,0.6,3.7
		C667.1,206.9,666.8,208.2,666.3,209.3z"/>
	<path d="M405,156.6c0,0,0,0.1,0,0.1c-0.5,0-1,0-1.6,0c-3.4,0.4-6.1,1.9-7.5,5c-0.6,1.3-1,2.6-0.9,4c0,0.9,0,1.9,0,2.8
		c0,1.2,0.3,2.4,0.7,3.6c0.9,2.3,2.5,3.9,4.8,4.6c2.5,0.8,5,0.8,7.5,0.1c2.1-0.6,3.7-1.8,4.9-3.6c1.2-1.8,1.4-3.9,1.6-5.9
		c0.1-1.4-0.1-2.8-0.4-4.1c-0.7-3.3-2.7-5.5-6-6.2C407.1,156.8,406.1,156.7,405,156.6z M408.9,166.9c0.1,1.1-0.1,2.2-0.5,3.3
		c-1,2.7-3.1,3-5.5,2.4c-0.9-0.2-1.4-1-1.8-1.8c-0.7-1.6-1-3.3-0.7-5.1c0.2-1,0.3-2,0.9-3c0.8-1.2,1.9-1.8,3.3-1.9
		c1.5,0,2.7,0.5,3.4,1.9C408.8,164.1,409,165.5,408.9,166.9z"/>
	<path d="M282,200.1c-0.6-2.3-1.9-3.9-4.3-4.5c-2.3-0.6-4.5-0.2-6.4,1.1c-0.5,0.3-0.9,0.7-1.6,1.2c-0.1-0.5-0.1-0.7-0.2-0.9
		c-0.2-1-0.4-1.2-1.4-1.2c-0.7,0-1.5,0-2.3,0c-0.6,0-0.9,0.4-1,1c0,0.2,0,0.5,0,0.7c0,5.5,0,11,0,16.5c0,0.4,0.1,0.8,0.1,1.2
		c1.7,0.8,3.4,0.8,4.9,0c0.4-0.7,0.3-1.3,0.3-1.8c0-2.5,0-5.1,0-7.6c0-0.8,0-1.6,0-2.4c0-0.3,0.1-0.7,0.3-0.9
		c0.7-0.9,1.5-1.6,2.5-2.1c0.7-0.3,1.3-0.3,2,0c0.8,0.3,1.3,1,1.5,1.8c0.3,0.9,0.4,1.8,0.4,2.7c0,2.9,0,5.8,0,8.7
		c0,0.6-0.1,1.2,0.2,1.7c1.2,0.5,2.2,0.7,3.4,0.5c1.5-0.2,1.7-0.5,1.7-2c0-3.2,0-6.5,0-9.7C282.5,202.6,282.3,201.3,282,200.1z"/>
	<path d="M536.7,176.8c0.5-0.2,0.8-0.5,0.8-1c0-0.4,0-0.8,0-1.2c0-3.2,0-6.4,0-9.6c0-1.2-0.2-2.4-0.4-3.6c-0.6-2.8-2.9-4.6-5.7-4.7
		c-2-0.1-3.8,0.4-5.3,1.7c-0.3,0.3-0.7,0.5-1.2,0.7c-0.1-0.3-0.2-0.4-0.2-0.6c-0.3-1.2-0.5-1.3-1.6-1.4c-0.5,0-0.9,0-1.4,0
		c-1.5,0-1.6,0.2-1.7,1.8c0,0.1,0,0.2,0,0.3c0,5.2,0,10.4,0,15.6c0,0.3,0,0.6,0,0.9c0.1,0.8,0.2,1,1,1.2c0.8,0.1,1.7,0.2,2.6,0.1
		c1.8-0.2,1.8-0.7,1.8-2c0-2.8,0-5.6,0-8.3c0-0.7,0-1.4,0-2.1c0-0.3,0.1-0.7,0.3-0.9c0.7-0.8,1.4-1.5,2.4-2c0.7-0.4,1.4-0.4,2.2,0
		c0.8,0.4,1.3,1,1.5,1.8c0.2,0.8,0.4,1.7,0.4,2.6c0,2.9,0,5.8,0,8.7c0,0.6,0,1.1,0.1,1.6C533.8,177.1,535.4,177.3,536.7,176.8z"/>
	<path d="M569,195.6c-1.1-0.3-2.2-0.3-3.3-0.3c-2.6,0-4.8,0.9-6.6,2.9c-1,1.1-1.5,2.3-1.9,3.7c-0.5,1.7-0.4,3.5-0.4,5.3
		c0,1.2,0.3,2.4,0.7,3.6c1,2.6,2.9,4.1,5.5,4.8c2.6,0.6,5.2,0.5,7.7-0.1c0.7-0.2,1.4-0.4,2.1-0.7c0.5-0.2,0.9-0.6,0.9-1.2
		c0.1-0.7,0.1-1.5,0-2.2c0-0.4-0.4-0.7-0.9-0.7c-0.6,0.1-1.1,0.2-1.7,0.4c-1.7,0.6-3.5,0.8-5.3,0.6c-2.4-0.2-3.7-1.9-3.7-4.4
		c0.5-0.4,1.1-0.3,1.7-0.3c2.7,0,5.3,0,8,0c0.5,0,0.9,0,1.4-0.1c0.7-0.1,1.2-0.6,1.3-1.3c0.2-2.1,0.2-4.2-0.8-6.1
		C572.9,197.6,571.4,196.2,569,195.6z M569.4,203.3c-1.5,0.3-5.7,0.3-7,0c0.1-0.9,0.2-1.8,0.8-2.6c0.9-1.3,2.4-1.8,4-1.4
		c1.3,0.3,2.2,1.4,2.3,2.9C569.5,202.6,569.4,203,569.4,203.3z"/>
	<path d="M803.8,195.7c-1.8-0.5-3.7-0.5-5.5-0.3c-1.5,0.1-2.9,0.6-4.3,1.2c-1.7,0.8-1.9,2.9-1.1,4.1c0.2,0.3,0.5,0.5,0.9,0.4
		c0.7-0.2,1.3-0.5,1.9-0.8c1.4-0.7,3-1,4.5-0.9c2.2,0.1,3.2,1.7,2.5,3.9c-0.4,0-0.8,0.1-1.2,0.1c-1.5,0.1-3,0.2-4.5,0.4
		c-1.1,0.2-2.3,0.5-3.2,1.2c-1.4,1-2.3,2.2-2.3,4.1c0,0.5,0,1,0,1.6c0,1.4,0.6,2.6,1.6,3.5c1.7,1.5,3.8,1.9,6,1.6
		c1.5-0.2,2.9-0.9,4.2-1.9c0.8,1.5,1,1.6,2.5,1.6c0.1,0,0.2,0,0.3,0c1.6-0.1,2-0.4,2-2.1c0-3.4,0-6.7,0-10.1c0-1-0.1-2.1-0.2-3.1
		C807.7,197.8,806.2,196.4,803.8,195.7z M801.5,211.3c-1,0.6-2,1.1-3.3,0.6c-0.9-0.4-1.4-1.1-1.5-2c-0.1-0.8,0.3-1.5,1-1.9
		c0.6-0.3,1.3-0.6,1.9-0.7c1.1-0.1,2.2-0.3,3.3,0.2c0,0.4,0.1,0.8,0.1,1.2C803.3,209.9,802.5,210.7,801.5,211.3z"/>
	<path d="M508.7,176.3c0.5-0.3,0.9-0.6,1.3-0.8c0.1,0.1,0.3,0.1,0.3,0.2c0.2,1,0.9,1.3,1.8,1.3c0.3,0,0.6,0,0.9,0
		c1.6-0.1,2-0.5,2-2.1c0-3.2,0-6.5,0-9.7c0-1.2-0.1-2.3-0.3-3.4c-0.4-2.6-1.9-4-4.3-4.7c-1.9-0.5-3.8-0.5-5.7-0.3
		c-1.4,0.2-2.7,0.6-4,1.2c-1.7,0.8-2,2.6-1.4,4c0.3,0.6,0.6,0.8,1.2,0.6c0.5-0.2,1.1-0.4,1.6-0.7c1.5-0.8,3.1-1,4.7-0.9
		c2.1,0.1,3.2,1.8,2.5,4c-0.2,0-0.5,0.1-0.8,0.1c-1.5,0.1-3,0.2-4.5,0.4c-1.2,0.1-2.4,0.5-3.4,1.2c-1.5,1-2.5,2.3-2.4,4.2
		c0,0.5,0,0.9,0,1.4c-0.1,2.1,1,3.6,2.8,4.4C503.6,177.8,506.2,177.7,508.7,176.3z M503.4,171.2c0.1-1,0.5-1.8,1.5-2.2
		c0.5-0.2,1.1-0.4,1.6-0.5c0.4-0.1,0.9,0,1.4,0c0.5,0,1,0,1.5,0.1c0.4,0.8,0.3,1.6,0.2,2.4c0,0.2-0.2,0.4-0.3,0.6
		c-0.7,0.8-1.5,1.4-2.5,1.7c-0.6,0.2-1.1,0.2-1.7,0C504,172.9,503.3,172.1,503.4,171.2z"/>
	<path d="M761.9,203.9c0-1.2-0.1-2.4-0.3-3.6c-0.4-2.4-1.8-3.8-4-4.5c-2-0.6-4-0.6-6-0.3c-1.4,0.2-2.7,0.5-4,1.2
		c-1.5,0.8-2,2-1.4,3.6c0.3,0.9,0.7,1.1,1.6,0.8c0.6-0.2,1.2-0.5,1.7-0.8c1.5-0.7,3.1-0.9,4.7-0.7c0.8,0.1,1.5,0.4,1.8,1.1
		c0.4,0.9,0.9,1.8,0.3,2.8c-0.3,0-0.5,0.1-0.7,0.1c-1.6-0.1-3.1,0.1-4.7,0.4c-1,0.2-2,0.5-3,0.9c-1.8,0.9-2.9,2.4-2.8,4.6
		c0,0.5,0,1,0,1.6c0,0.9,0.3,1.7,0.9,2.4c0.7,0.9,1.6,1.6,2.8,2c2.5,0.8,4.9,0.7,7.2-0.7c0.3-0.2,0.7-0.4,1-0.6
		c0.8,1.4,1,1.5,2.5,1.5c0.4,0,0.8,0,1.2-0.1c0.8-0.2,1.2-0.6,1.2-1.4c0-0.4,0-0.8,0-1.2C761.9,209.9,761.9,206.9,761.9,203.9z
		 M755,211.3c-1,0.7-2,1-3.3,0.5c-0.9-0.4-1.3-1-1.4-1.8c-0.1-0.9,0.2-1.6,1-2.1c0.5-0.3,1.2-0.6,1.8-0.7c1.1-0.2,2.2-0.2,3.4,0
		c0,0.6,0,1,0.1,1.4C756.8,209.9,756,210.7,755,211.3z"/>
	<path d="M297,164.9c0-1-0.1-2-0.2-2.9c-0.2-2.5-2.2-4.4-4.6-4.9c-1.4-0.3-2.9-0.3-4.3-0.3c-1.8,0-3.4,0.5-5,1.3
		c-1.6,0.8-2.1,2.1-1.5,3.8c0.3,0.8,0.7,1,1.4,0.7c0.6-0.2,1.2-0.5,1.7-0.8c1.6-0.8,3.2-0.9,4.9-0.7c0.6,0.1,1.1,0.3,1.5,0.8
		c0.7,0.9,1,1.9,0.6,3.1c-0.3,0-0.5,0.1-0.7,0.1c-1.5,0.1-3,0.2-4.5,0.3c-1.3,0.1-2.5,0.5-3.6,1.2c-1.5,1-2.5,2.2-2.4,4.1
		c0,0.5,0,1,0,1.6c-0.1,1.4,0.5,2.5,1.5,3.4c1.7,1.6,3.8,1.9,6,1.7c1.6-0.1,3-0.9,4.3-1.9c0.7,1.5,1,1.6,2.3,1.6c0.3,0,0.7,0,1,0
		c1.1-0.2,1.6-0.6,1.5-1.7c0-0.3,0-0.7,0-1C297,171.1,297,168,297,164.9z M291.7,170.9c0,0.2-0.1,0.4-0.3,0.6c-0.8,1-1.8,1.6-3,1.9
		c-1,0.2-2.3-0.4-2.7-1.3c-0.6-1.3,0-2.7,1.4-3.2c1.4-0.5,2.9-0.5,4.4-0.3C291.8,169.4,291.7,170.2,291.7,170.9z"/>
	<path d="M359.6,176.7c2.2-0.6,2.6-0.9,2.5-3.6c0-0.1,0-0.1,0-0.2c-0.1-0.5-0.4-0.9-0.9-0.8c-0.6,0.1-1.1,0.2-1.7,0.4
		c-1.7,0.6-3.4,0.8-5.1,0.7c-1.4-0.1-2.6-0.7-3.3-1.9c-0.4-0.8-0.6-1.6-0.7-2.7c0.8,0,1.3-0.1,1.9-0.1c2.7,0,5.3,0,8,0
		c0.4,0,0.8,0,1.2,0c0.8-0.1,1.3-0.6,1.4-1.3c0.1-2,0.2-3.9-0.7-5.8c-0.8-1.9-2.1-3.3-4.1-4c-1.9-0.7-4-0.8-6-0.4
		c-1.9,0.3-3.5,1.2-4.8,2.6c-1,1.1-1.5,2.4-2,3.8c-0.5,1.7-0.4,3.5-0.4,5.3c0,1.1,0.2,2.2,0.6,3.2c1,2.9,3.1,4.5,6,5.2
		C354.3,177.6,356.9,177.4,359.6,176.7z M350.8,163c0.9-2.1,2.5-2.7,4.5-2.2c1.7,0.4,2.4,1.9,2.2,4c-1.4,0.4-5.8,0.3-7.1-0.1
		C350.5,164.1,350.5,163.5,350.8,163z"/>
	<path d="M558.2,175c0-0.2,0-0.3,0-0.5c0-3.4,0-6.7,0-10.1c0-0.9-0.1-1.7-0.2-2.6c-0.3-2.6-1.9-4.1-4.4-4.8c-1.5-0.4-3-0.4-4.5-0.3
		c-1.8,0-3.4,0.5-5,1.2c-1.6,0.8-2.2,2.2-1.5,3.9c0.3,0.7,0.7,0.9,1.3,0.7c0.7-0.2,1.3-0.5,1.9-0.8c1.6-0.8,3.2-0.8,4.9-0.7
		c0.7,0.1,1.4,0.5,1.7,1.1c0.4,0.8,0.8,1.7,0.4,2.7c-0.3,0.1-0.7,0.1-1,0.2c-1.5,0.1-3,0.2-4.5,0.4c-1.2,0.1-2.4,0.5-3.4,1.2
		c-1.5,1-2.5,2.4-2.4,4.3c0,0.5,0,1,0,1.6c0,1,0.4,1.8,0.9,2.6c0.8,1.1,2,1.8,3.3,2.1c2.4,0.6,4.7,0.3,6.8-1.1
		c0.3-0.2,0.6-0.3,0.9-0.5c0.7,1.4,0.9,1.6,2.4,1.6c0.2,0,0.3,0,0.5,0C557.8,176.9,558.2,176.5,558.2,175z M552.9,170.8
		c0,0.3-0.2,0.6-0.3,0.8c-0.7,0.9-1.7,1.6-2.8,1.8c-0.4,0.1-0.8,0.1-1.2,0c-1.2-0.3-1.9-1.1-1.9-2.1c0-1,0.6-1.9,1.8-2.3
		c1.4-0.5,2.9-0.5,4.4-0.2C553,169.4,553,170.1,552.9,170.8z"/>
	<path d="M255.8,195.9c-1.9-0.7-3.9-0.7-5.8-0.5c-1.8,0.3-3.4,1.1-4.7,2.4c-1.1,1.2-1.8,2.6-2.2,4.1c-0.5,1.7-0.4,3.4-0.4,5.2
		c0,1.3,0.3,2.5,0.7,3.7c1,2.7,3,4.1,5.7,4.8c2.8,0.6,5.5,0.4,8.2-0.3c2.3-0.6,2.6-1,2.4-3.6c0-0.8-0.5-1.1-1.3-1
		c-0.5,0.1-1,0.3-1.5,0.4c-1.5,0.5-3,0.7-4.6,0.6c-2.6-0.1-4.2-1.7-4.2-4.4c0.5-0.4,1.1-0.2,1.7-0.2c2.7,0,5.3,0,8,0
		c0.5,0,0.9,0,1.4,0c0.8-0.1,1.3-0.6,1.4-1.4c0.1-1.8,0.2-3.6-0.5-5.3C259.4,198.3,258,196.7,255.8,195.9z M255.3,203.3
		c-0.3,0.1-0.6,0.3-0.9,0.3c-1.9,0-3.7,0-5.6,0c-0.2,0-0.3-0.1-0.6-0.2c0.1-1,0.3-1.9,0.8-2.7c1.1-1.4,2.3-1.7,4-1.3
		c1.4,0.3,2.2,1.5,2.3,3.1C255.4,202.7,255.3,202.9,255.3,203.3z"/>
	<path d="M420.3,195.8c-2.3-0.7-4.6-0.7-6.8-0.1c-1.1,0.3-2.1,0.9-3,1.7c-1.4,1.2-2.2,2.8-2.7,4.6c-0.5,1.7-0.3,3.4-0.4,5.2
		c0,1.3,0.3,2.5,0.8,3.7c1,2.6,3,4,5.6,4.7c2.8,0.7,5.6,0.4,8.4-0.4c2.1-0.6,2.4-1,2.3-3.2c0-0.2,0-0.3,0-0.5
		c-0.1-0.6-0.5-0.9-1.1-0.9c-0.5,0.1-1,0.2-1.5,0.4c-1.7,0.6-3.4,0.8-5.1,0.7c-2.2-0.2-3.9-1.5-3.9-4.4c0.5-0.4,1.1-0.2,1.7-0.2
		c2.7,0,5.3,0,8,0c0.5,0,0.9,0,1.4-0.1c0.7-0.1,1.2-0.6,1.3-1.2c0.1-2.1,0.2-4.2-0.7-6.1C423.7,197.8,422.3,196.4,420.3,195.8z
		 M419.9,203.3c-1.3,0.3-5.5,0.3-6.9,0c0.1-1.2,0.3-2.2,1.2-3.1c1.1-1.1,2.8-1.4,4.2-0.7C419.7,200.3,420.3,201.6,419.9,203.3z"/>
	<path d="M726.8,199.6c-0.5-2.2-2.5-4.1-5.5-4.3c-2.1-0.1-4,0.4-5.6,1.8c-0.3,0.2-0.6,0.4-1.1,0.6c-0.1-0.4-0.1-0.6-0.2-0.8
		c-0.2-1-0.4-1.2-1.4-1.2c-0.8,0-1.5,0-2.3,0c-0.6,0-0.9,0.4-1,1c0,0.2,0,0.5,0,0.7c0,5.5,0,11,0,16.5c0,0.4,0.1,0.8,0.1,1.2
		c1.7,0.7,3.4,0.8,5.1-0.1c0-0.6,0.1-1.1,0.1-1.6c0-1.7,0-3.4,0-5c0-1.6,0-3.1,0-4.7c0-0.5,0-1,0.4-1.5c0.7-0.8,1.5-1.6,2.6-2
		c1.1-0.4,2.3-0.1,2.9,0.8c0.3,0.4,0.5,0.8,0.6,1.2c0.2,0.8,0.3,1.6,0.3,2.4c0,2.9,0,5.8,0,8.7c0,0.6-0.1,1.2,0.2,1.7
		c1.2,0.6,2.1,0.7,3.3,0.6c1.5-0.2,1.8-0.5,1.8-2c0-3.6,0-7.2,0-10.8C727.2,201.8,727,200.7,726.8,199.6z"/>
	<path d="M650.3,195.7c-1-0.1-2.1-0.1-3.1,0c-0.6,0-1.1,0.4-1.3,1c-0.2,0.7-0.5,1.4-0.7,2.1c-0.9,3.1-1.9,6.2-2.8,9.3
		c-0.1,0.3-0.1,0.6-0.6,0.7c-0.2-0.3-0.4-0.6-0.5-1c-0.5-1.7-1-3.3-1.5-5c-0.6-1.9-1.2-3.8-1.8-5.6c-0.4-1.3-0.7-1.5-2.1-1.6
		c-0.7,0-1.4,0-2.1,0c-1.3,0.1-1.7,0.6-1.4,1.9c0.1,0.3,0.2,0.6,0.3,0.8c0.3,0.8,0.5,1.5,0.8,2.3c1.4,4.3,2.9,8.7,4.3,13
		c0.4,1.2,1.2,1.8,2.4,1.9c1.2,0,2.3,0,3.5,0c1.2,0,1.9-0.6,2.2-1.8c0.5-1.7,1.1-3.4,1.7-5.1c1.2-3.5,2.3-7,3.4-10.5
		c0.1-0.4,0.2-0.9,0.3-1.3C651.2,196.2,650.8,195.8,650.3,195.7z"/>
	<path d="M460.5,195.7c-0.4,0-0.8,0-1.2,0c-2.6,0-2.6,0-3.3,2.5c-0.6,1.9-1.1,3.8-1.7,5.6c-0.5,1.7-1,3.3-1.6,5
		c-0.7-0.2-0.7-0.7-0.8-1c-0.5-1.7-1-3.4-1.6-5.1c-0.6-1.8-1.1-3.6-1.7-5.5c-0.4-1.2-0.7-1.5-2-1.6c-0.8,0-1.5,0-2.3,0
		c-1.3,0-1.7,0.5-1.5,1.7c0,0.3,0.2,0.6,0.2,0.8c0.3,0.8,0.5,1.6,0.8,2.5c1.4,4.3,2.9,8.5,4.2,12.8c0.4,1.4,1.2,2,2.6,2
		c1,0,2,0,2.9,0c0.4,0,0.8-0.1,1.2-0.2c0.5-0.1,0.9-0.4,1.1-1c0.1-0.3,0.2-0.5,0.3-0.8c1.6-4.8,3.2-9.7,4.8-14.5
		c0.2-0.6,0.4-1.2,0.5-1.8C462,196.3,461.6,195.8,460.5,195.7z"/>
	<path d="M486.7,211.1c-1.5,0-3,0-4.5,0c-0.4,0-0.9-0.1-1.5-0.1c0.2-0.4,0.3-0.8,0.5-1c1.2-1.9,2.4-3.7,3.6-5.5
		c0.8-1.2,1.6-2.3,2.2-3.5c0.8-1.3,1.1-2.8,0.6-4.3c-0.1-0.4-0.4-0.7-0.8-0.8c-0.2,0-0.5-0.1-0.7-0.1c-3.3,0-6.6,0-9.9,0
		c-1.1,0-1.3,0.2-1.6,1.4c-0.1,0.3-0.1,0.7,0,1c0,1.5,0.6,2.1,2.1,2.1c1.3,0,2.5,0,3.8,0c0.3,0,0.6,0,0.8,0.4
		c-0.1,0.2-0.2,0.4-0.4,0.7c-1.7,2.7-3.5,5.4-5.3,8.2c-0.3,0.5-0.7,1-0.9,1.5c-0.6,1.4-0.9,2.8,0.1,4.3c0.6,0,1.2,0.1,1.7,0.1
		c3.2,0,6.4,0,9.5,0c0.3,0,0.7,0,1,0c0.7,0,1.1-0.3,1.2-1c0.1-0.6,0.1-1.3,0-1.9C488.1,211.4,487.7,211.1,486.7,211.1z"/>
	<path d="M821.6,211.3c-1,0.2-1.8-0.2-2.1-1.1c-0.2-0.6-0.3-1.2-0.3-1.9c0-2.3,0-4.6,0-6.9c0-0.3,0.1-0.7,0.1-0.9
		c0.2-0.1,0.3-0.2,0.4-0.2c0.7,0,1.4,0,2.1-0.1c1.7,0,2-0.3,2.2-2c0-0.4-0.1-0.9-0.2-1.4c-0.2-1-0.4-1.1-1.4-1.2c-1,0-2,0-3.2,0
		c0-0.7-0.1-1.2-0.1-1.7c0-0.6,0-1.3,0-1.9c0-0.4-0.2-0.8-0.6-0.9c-0.8-0.1-1.7-0.4-2.6-0.3c-2.1,0.3-2.1,0.3-2.2,2.5
		c0,0.7,0.2,1.5-0.2,2.2c-0.3,0-0.5,0.1-0.7,0.1c-0.3,0-0.6,0-0.9,0c-0.6,0.1-1,0.4-1,1c-0.1,0.7-0.1,1.4,0,2.1
		c0,0.8,0.5,1.2,1.3,1.4c0.4,0.1,0.9,0.1,1.3,0.1c0.3,0.6,0.2,1.2,0.2,1.8c0,2.4,0,4.9,0,7.3c0,1,0.1,2,0.4,2.9
		c0.4,1.5,1.3,2.6,2.8,3.1c1,0.4,2.1,0.6,3.2,0.5c0.7,0,1.4-0.2,2-0.3c0.6-0.1,1.2-0.3,1.4-0.9c0.4-1.2,0.7-2.5-0.2-3.6
		C822.8,210.8,822.2,211.2,821.6,211.3z"/>
	<path d="M293.8,200.3c0.6,0,1.1-0.1,1.6-0.1c0.5,0,1,0,1.6,0c0.6,0,1.1-0.4,1.2-1c0.1-0.6,0.3-1.2,0.2-1.9c-0.4-1.5-0.4-1.6-2-1.6
		c-0.6,0-1.2,0-1.7,0c-0.3,0-0.6-0.1-1.1-0.2c0-0.6,0-1.2,0-1.8c0-0.5,0-1,0-1.6c0-0.7-0.3-0.9-0.9-1.1c-1.1-0.3-2.3-0.3-3.4,0
		c-0.6,0.2-0.9,0.4-1,1c-0.1,0.8,0,1.6-0.1,2.4c0,0.4-0.2,0.7-0.2,1.1c-0.6,0-1,0-1.5,0.1c-0.7,0.1-1,0.4-1.1,1.1
		c-0.1,0.6-0.1,1.3,0,1.9c0,0.9,0.4,1.3,1.4,1.5c0.4,0.1,0.8,0.1,1.4,0.1c0,0.7,0.1,1.3,0.1,1.9c0,2.4,0,4.9,0,7.3
		c0,1,0.1,2,0.4,2.9c0.5,1.8,1.8,2.9,3.7,3.3c0.3,0.1,0.7,0.1,1,0.2c1.3,0.3,2.5-0.1,3.7-0.4c0.4-0.1,0.8-0.4,0.9-0.7
		c0.2-0.6,0.4-1.4,0.4-2c-0.1-0.6,0-1.4-0.8-1.8c-0.5,0.1-1.1,0.3-1.6,0.4c-0.9,0.2-1.7-0.3-2-1.2c-0.2-0.5-0.3-1.1-0.3-1.7
		c0-2.4,0-4.7,0-7.1C293.5,201,293.7,200.7,293.8,200.3z"/>
	<path d="M401.3,204.4c-1-0.5-2-0.8-3-1.3c-0.7-0.3-1.4-0.7-1.9-1.1c-0.7-0.5-0.7-1.3-0.1-2c0.4-0.5,0.9-0.7,1.5-0.8
		c0.9-0.1,1.7-0.1,2.6,0.3c0.6,0.3,1.3,0.5,1.9,0.8c0.3,0.1,0.7,0.1,1.1,0.1c0.4-1,0.2-1.9,0.2-2.8c0-0.7-0.3-1.1-0.9-1.4
		c-0.4-0.2-0.9-0.4-1.3-0.5c-1.3-0.5-2.7-0.4-4.1-0.4c-1.4,0-2.6,0.5-3.8,1.1c-3.3,1.7-3.6,6.7-1.1,8.9c0.9,0.8,1.9,1.3,2.9,1.8
		c0.7,0.3,1.4,0.5,2.1,0.8c0.6,0.3,1.1,0.6,1.6,1.1c0.6,0.6,0.5,1.6-0.2,2.2c-0.5,0.4-1,0.6-1.6,0.6c-1.3,0.1-2.5-0.1-3.7-0.6
		c-0.5-0.2-0.9-0.5-1.4-0.7c-0.8-0.4-1.3-0.1-1.4,0.9c0,0.5,0,0.9,0,1.4c-0.1,1.1,0.4,1.9,1.5,2.3c0.9,0.3,1.9,0.5,2.8,0.7
		c2.2,0.5,4.4,0,6.4-0.9c3.3-1.5,3.7-5.3,2.7-7.9C403.6,205.8,402.6,205,401.3,204.4z"/>
	<path d="M494.8,176.7c0.3-0.1,0.7-0.5,0.8-0.8c0.4-1.2,0.6-2.4-0.3-3.7c-0.5,0.1-1,0.2-1.5,0.4c-1.2,0.3-2-0.1-2.4-1.3
		c-0.2-0.6-0.3-1.2-0.3-1.9c0-2.2,0-4.4,0-6.6c0-0.3,0.1-0.7,0.1-1c0.9-0.3,1.8-0.2,2.6-0.2c1.6,0,1.9-0.3,2.1-1.9
		c0-0.3,0-0.6,0-0.9c-0.3-1.4-0.3-1.8-2-1.8c-0.3,0-0.7,0-1,0c-0.6,0-1.2,0.1-1.8-0.3c0-0.4-0.1-0.8-0.1-1.3c0-0.7,0-1.4,0-2.1
		c0-0.6-0.3-0.9-0.8-0.9c-0.8-0.1-1.6-0.4-2.4-0.2c-2,0.4-2,0.3-2.1,2.4c0,0.7,0.1,1.5-0.2,2.3c-0.4,0-0.9,0.1-1.3,0.1
		c-0.9,0.1-1.2,0.4-1.3,1.3c0,0.6,0,1.2,0,1.7c0.1,0.9,0.5,1.3,1.4,1.4c0.4,0.1,0.9,0.1,1.4,0.2c0,0.7,0.1,1.2,0.1,1.8
		c0,2.4,0,4.7,0,7.1c0,1,0.2,2,0.4,2.9c0.4,1.6,1.4,2.7,2.9,3.2c1.1,0.4,2.4,0.6,3.6,0.4C493.4,177.2,494.1,177,494.8,176.7z"/>
	<path d="M372.9,161.9c0.7-0.4,1.3-0.3,1.9-0.3c0.5,0,1,0,1.6,0c0.4,0,0.8-0.2,1-0.6c0.2-0.6,0.5-1.3,0.4-2
		c-0.4-1.5-0.2-1.9-2.1-1.9c-0.5,0-1,0-1.6,0c-0.3,0-0.7-0.1-0.9-0.1c-0.1-0.2-0.2-0.3-0.2-0.4c0-0.6-0.1-1.2-0.1-1.7
		c0-2.4,0-2.2-2.6-2.6c-0.2,0-0.5,0-0.7,0.1c-1.6,0.4-2.1-0.2-2.1,2.4c0,0.7,0.2,1.5-0.2,2.3c-0.5,0-1,0.1-1.5,0.1
		c-0.7,0.1-1.1,0.4-1.1,1.1c-0.1,0.6-0.1,1.3,0,1.9c0,0.9,0.5,1.3,1.4,1.5c0.4,0.1,0.9,0.1,1.4,0.2c0,0.7,0.1,1.2,0.1,1.8
		c0,2.4,0,4.9,0,7.3c0,1,0.2,2,0.4,2.9c0.4,1.4,1.3,2.5,2.7,3c1.8,0.7,3.7,0.7,5.6,0.1c0.4-0.1,0.8-0.3,1-0.7c0.3-0.6,0.5-1.3,0.5-2
		c0-0.7-0.1-1.4-0.7-1.9c-0.5,0.1-1,0.2-1.5,0.3c-1.2,0.3-2-0.1-2.4-1.4c-0.2-0.5-0.3-1.1-0.3-1.7c0-2.1,0-4.3,0-6.4
		C372.9,162.8,372.9,162.4,372.9,161.9z"/>
	<path d="M740.9,211.1c-0.2,0.1-0.3,0.1-0.5,0.2c-0.9,0.1-1.7-0.2-2-1c-0.2-0.6-0.4-1.2-0.4-1.8c0-2.4,0-4.7,0-7.1
		c0-0.3,0.1-0.6,0.2-1c0.6,0,1.1-0.1,1.6-0.1c0.5,0,0.9,0,1.4,0c1-0.1,1.3-0.3,1.5-1.3c0.1-0.5,0.2-1,0.1-1.5
		c-0.2-1.4-0.4-1.6-1.9-1.6c-0.6,0-1.2,0-1.7,0c-0.3,0-0.7-0.1-1.1-0.2c0-0.7-0.1-1.2-0.1-1.8c0-0.6,0-1.2,0-1.7
		c0-0.6-0.3-0.8-0.8-1c-1.2-0.3-2.4-0.3-3.6,0c-0.5,0.1-0.8,0.5-0.8,1c0,0.8,0,1.6,0,2.4c0,0.4-0.1,0.8-0.2,1.1
		c-0.3,0-0.6,0.1-0.8,0.1c-0.2,0-0.5,0-0.7,0c-0.7,0.1-1.1,0.4-1.1,1.1c-0.1,0.7-0.1,1.4,0,2.1c0,0.7,0.4,1.1,1.2,1.3
		c0.5,0.1,0.9,0.1,1.3,0.1c0.5,0.5,0.3,1,0.3,1.5c0,2.5,0,5,0,7.5c0,1.1,0.2,2.1,0.4,3.1c0.4,1.3,1.2,2.4,2.5,2.9
		c1.2,0.5,2.4,0.7,3.7,0.6c0.7-0.1,1.4-0.2,2-0.4c0.5-0.1,1-0.4,1.2-0.9c0.2-0.7,0.4-1.4,0.3-2C742.7,211.2,742.8,210.6,740.9,211.1
		z"/>
	<path d="M240.2,210.5c-0.1-0.4-0.3-0.7-0.6-1.3c-0.6,0.4-1.1,0.7-1.5,0.9c-0.7,0.4-1.3,0.8-2,1c-2.2,0.8-4.3-0.2-5-2.4
		c-0.7-2.1-0.6-4.2,0-6.3c0.6-1.8,2.5-3.1,4.5-2.5c0.7,0.2,1.4,0.6,2.1,0.9c0.4,0.2,0.7,0.4,1.1,0.6c0.4,0.2,0.8,0,1-0.4
		c0.5-1,0.4-2,0.2-3c-0.2-0.9-0.9-1.3-1.6-1.7c-2-1-4.1-1.1-6.3-0.7c-2.1,0.4-3.8,1.5-5,3.2c-1.1,1.5-1.8,3.3-1.8,5.2
		c-0.1,1.3,0,2.5,0,3.8c0,1.4,0.4,2.6,0.9,3.8c0.9,2,2.4,3.4,4.6,4c2.5,0.7,4.9,0.5,7.3-0.4c1.5-0.6,2.3-1.7,2.2-3.3
		C240.2,211.3,240.2,210.9,240.2,210.5z"/>
	<path d="M226.2,172.8c1,2,2.5,3.5,4.7,4.1c1.3,0.4,2.7,0.5,4.1,0.3c1.3-0.2,2.6-0.5,3.8-1.1c0.7-0.4,1.3-1,1.4-1.9
		c0.1-0.8,0.1-1.6,0-2.4c0-0.4-0.3-0.7-0.5-1c-0.7-0.1-1.1,0.4-1.5,0.6c-0.7,0.4-1.4,0.8-2.2,1.1c-1.6,0.7-3.9,0.1-4.8-2.2
		c-0.8-2.3-0.8-4.5,0-6.8c0.7-2,2.4-2.8,4.4-2.2c0.8,0.2,1.5,0.7,2.2,1c0.4,0.2,0.7,0.4,1.1,0.4c0.2,0,0.6-0.1,0.7-0.3
		c0.6-0.9,0.5-1.9,0.3-2.8c-0.2-0.9-0.6-1.4-1.4-1.8c-2-1.1-4.2-1.2-6.4-0.9c-1.7,0.3-3.2,1.1-4.4,2.3c-1.6,1.7-2.4,3.8-2.6,6.1
		c-0.1,1.2,0,2.4,0,3.6C225.2,170.3,225.6,171.6,226.2,172.8z"/>
	<path d="M468.1,176.9c0.9-0.2,1.1-0.5,1.2-1.4c0-0.3,0-0.7,0-1c0-7.8,0-15.6,0-23.4c0-0.4,0-0.8,0-1.2c-0.1-0.8-0.4-1.2-1.2-1.3
		c-0.7-0.1-1.4-0.1-2.1-0.1c-1.9,0-2.1,0.2-2.1,2.1c0,8,0,16.1,0,24.1c0,0.6,0,1.1,0.1,1.8C465.5,177.1,466.9,177.2,468.1,176.9z"/>
	<path d="M680.5,187.1c-0.6-0.1-1.3,0-1.9,0c-1.9,0-2.1,0.2-2.1,2.1c0,8.1,0,16.2,0,24.3c0,0.5,0.1,1,0.1,1.6c1.7,0.9,3.4,0.8,5.2,0
		c0-0.7,0.1-1.2,0.1-1.7c0-8,0-16,0-23.9c0-0.3,0-0.6,0-0.9C681.9,187.6,681.5,187.2,680.5,187.1z"/>
	<path d="M618.4,187.1c-0.8-0.1-1.6-0.1-2.4,0c-1.3,0.1-1.5,0.3-1.6,1.6c0,1.4,0,2.8,0,4.2c0,6.8,0,13.6,0,20.5
		c0,0.6-0.1,1.3,0.3,1.9c1.6,0.6,3.2,0.7,5-0.2c0-0.7,0.1-1.4,0.1-2c0-7.8,0-15.6,0-23.4c0-0.3,0-0.7,0-1
		C619.7,187.6,619.3,187.2,618.4,187.1z"/>
	<path d="M312.1,195.3c-1.5-0.2-2.9,0.2-4,1.3c-0.4,0.4-0.7,0.7-1.1,1c-0.1-0.2-0.2-0.3-0.2-0.4c0-0.1,0-0.2,0-0.3
		c-0.3-1-0.5-1.2-1.4-1.2c-0.6,0-1.3,0-1.9,0c-1,0.1-1.3,0.3-1.3,1.4c0,0.1,0,0.2,0,0.3c0,5.5,0,11,0,16.5c0,0.4,0.1,0.8,0.2,1.1
		c1.1,0.7,2.3,0.6,3.5,0.5c1.5-0.1,1.7-0.5,1.7-2c0-3,0.1-5.9,0-8.9c0-2.1,1.2-3.2,2.7-4.1c0.5-0.3,1.1-0.4,1.7-0.2
		c0.2,0.1,0.4,0.1,0.7,0.2c0.8,0.1,1.3-0.2,1.3-1c0.1-0.8,0.1-1.6,0-2.4C313.8,196,313.4,195.5,312.1,195.3z"/>
	<path d="M439.9,195.4c-1.6-0.2-3,0.1-4.2,1.2c-0.4,0.4-0.7,0.7-1.2,1.1c-0.7-2-0.7-2-2.8-2c-2,0-2.1,0.1-2.1,2c0,5.3,0,10.5,0,15.8
		c0,0.5,0.1,1,0.1,1.5c1.6,0.8,3.3,0.9,4.6,0.4c0.4-0.2,0.7-0.5,0.7-0.9c0-0.4,0-0.8,0-1.2c0-2.8,0.1-5.6,0-8.3
		c-0.1-1.4,0.5-2.4,1.5-3.4c0.9-0.9,1.9-1.5,3.3-0.9c0.1,0,0.2,0.1,0.3,0.1c0.9,0.1,1.3-0.2,1.4-1.1c0.1-0.8,0.1-1.6,0-2.4
		C441.4,196,440.9,195.5,439.9,195.4z"/>
	<path d="M777.1,195.3c-1.6-0.2-3,0.2-4.1,1.3c-0.3,0.3-0.7,0.6-1.2,1.1c-0.1-0.4-0.2-0.6-0.2-0.7c-0.2-1.1-0.4-1.3-1.4-1.3
		c-0.4,0-0.8,0-1.2,0c-1.8,0-1.9,0.1-1.9,2c0,5.3,0,10.5,0,15.8c0,0.5,0.1,1,0.1,1.5c1.9,1,3.6,0.9,5.2-0.2c0-0.4,0.1-0.9,0.1-1.3
		c0-2.9,0.1-5.8,0-8.7c-0.1-2,1.1-3.1,2.5-4.1c0.6-0.4,1.3-0.6,2-0.2c0.1,0,0.2,0.1,0.3,0.1c1.1,0.2,1.6-0.1,1.6-1.2
		c0.1-0.7,0-1.5,0-2.3C778.7,196,778.3,195.5,777.1,195.3z"/>
	<path d="M590,195.6c-0.3-0.1-0.5-0.2-0.8-0.3c-1.6-0.2-3,0.1-4.2,1.3c-0.3,0.3-0.6,0.8-1.3,0.9c-0.1-0.4-0.1-0.7-0.2-1
		c-0.1-0.4-0.4-0.8-0.8-0.8c-1-0.1-2-0.1-2.9,0c-0.4,0-0.7,0.4-0.7,0.8c0,0.2,0,0.5,0,0.7c0,5.6,0,11.1,0,16.7
		c0,0.4,0.1,0.8,0.2,1.2c1.7,0.7,3.3,0.7,5.1-0.1c0-0.7,0.1-1.3,0.1-1.8c0-2.8,0-5.7,0-8.5c0-1.1,0.3-1.9,1-2.7
		c0.2-0.3,0.5-0.5,0.7-0.7c0.8-0.7,1.7-1.2,2.9-0.7c0.2,0.1,0.3,0.1,0.5,0.1c0.8,0.1,1.3-0.2,1.3-1c0.1-1,0-2,0-2.9
		C590.8,196.2,590.5,195.8,590,195.6z"/>
	<path d="M391.6,161.9c0.2,0.1,0.6,0.1,0.8,0.1c0.6,0,1-0.2,1.1-0.9c0.1-0.9,0.1-1.7,0.1-2.6c0-1.1-0.5-1.6-1.5-1.8
		c-1.5-0.2-2.9,0-4,1.1c-0.3,0.2-0.5,0.5-0.8,0.7c-0.2,0.2-0.4,0.3-0.7,0.4c-0.1-0.2-0.1-0.3-0.2-0.4c-0.3-1.2-0.4-1.4-1.5-1.5
		c-0.4,0-0.8,0-1.2,0c-1.7,0-1.9,0.2-1.9,1.9c0,5.3,0,10.7,0,16c0,0.5,0.1,1,0.1,1.5c1.4,0.6,2.6,0.8,3.8,0.5
		c1.3-0.3,1.5-0.6,1.4-1.8c0-0.3,0-0.7,0-1c0-2.7,0-5.4,0-8.2c0-0.5,0-1,0.2-1.4c0.5-1,1.3-1.9,2.3-2.5
		C390.2,161.8,390.9,161.5,391.6,161.9z"/>
	<path d="M497.9,198c0-0.3,0-0.7,0-1c-0.1-0.7-0.4-1.1-1-1.2c-1.1-0.1-2.3,0-3.5,0c-0.5,0-0.8,0.4-0.8,0.9c0,0.2,0,0.5,0,0.7
		c0,5.5,0,11,0,16.5c0,0.4,0.1,0.8,0.2,1.2c1.7,0.7,3.4,0.7,4.9,0c0.4-0.7,0.3-1.3,0.3-1.8C497.9,208.2,497.9,203.1,497.9,198z"/>
	<path d="M468.7,195.7c-0.6,0-1.3,0-1.9,0c-1.6,0-1.8,0.3-1.8,1.9c0,5.4,0,10.8,0,16.1c0,0.5,0.1,0.9,0.1,1.3
		c1.1,0.8,2.3,0.7,3.4,0.6c1.5-0.1,1.8-0.5,1.8-2.1c0-4.6,0-9.3,0-13.9c0-0.8,0-1.5,0-2.3C470.3,196.1,470,195.8,468.7,195.7z"/>
	<path d="M247.9,157.1c-0.9-0.1-1.9-0.1-2.8,0c-1,0.1-1.2,0.4-1.3,1.5c0,0.2,0,0.5,0,0.7c0,5.2,0,10.4,0,15.6c0,0.5,0.1,1,0.1,1.7
		c1.9,0.7,3.5,0.8,5.2-0.1c0-0.6,0.1-1.1,0.1-1.6c0-5.1,0-10.3,0-15.4c0-0.3,0-0.6,0-0.9C249.1,157.6,248.8,157.2,247.9,157.1z"/>
	<path d="M786.4,195.8c-1.2-0.1-2.4-0.1-3.6,0c-0.5,0-0.8,0.5-0.8,1c0,0.2,0,0.3,0,0.5c0,5.6,0,11.2,0,16.8c0,0.3,0.1,0.7,0.2,1
		c1.7,0.7,3.3,0.7,5-0.1c0-0.6,0.1-1,0.1-1.5c0-5.3,0-10.5,0-15.8c0-0.3,0-0.6,0-0.9C787.3,196.3,787,195.8,786.4,195.8z"/>
	<path d="M608.1,195.8c-1.3-0.2-2.6-0.3-3.9,0.1c-0.1,0.1-0.3,0.2-0.4,0.4c0,0.3-0.1,0.6-0.1,0.8c0,5.6,0,11.2,0,16.8
		c0,0.4,0.1,0.8,0.1,1.2c1.7,0.7,3.3,0.7,5.1-0.1c0-0.6,0.1-1.1,0.1-1.6c0-5.1,0-10.3,0-15.4c0-0.3,0-0.7,0-1
		C609,196.3,608.7,195.9,608.1,195.8z"/>
	<path d="M478.7,157.2c-1.2-0.1-2.4-0.1-3.6,0c-0.4,0-0.7,0.4-0.7,0.8c0,0.2,0,0.5,0,0.7c0,5.6,0,11.2,0,16.8c0,0.3,0.1,0.7,0.2,1
		c1.7,0.7,3.3,0.7,5-0.1c0-0.7,0.1-1.3,0.1-1.8c0-5.1,0-10.2,0-15.3c0-0.3,0-0.7,0-1C479.6,157.7,479.3,157.2,478.7,157.2z"/>
	<path d="M375.6,195.7c-0.7-0.1-1.5-0.1-2.3-0.1c-1.7,0-1.9,0.2-1.9,1.9c0,5.4,0,10.7,0,16.1c0,0.5,0.1,0.9,0.1,1.3
		c2,1,3.6,0.9,5.1-0.2c0-0.4,0.1-0.8,0.1-1.2c0-5.3,0-10.6,0-15.9c0-0.2,0-0.5,0-0.7C376.7,196.2,376.3,195.8,375.6,195.7z"/>
	<path d="M288.5,149.2c-0.3-0.5-0.8-0.9-1.4-1c-1.1-0.1-2.2-0.1-3.3,0c-0.3,0-0.6,0.3-1,0.7c0.5,0.7,0.9,1.2,1.3,1.7
		c0.8,1,1.7,2,2.5,3.1c0.7,0.9,1.6,1.3,2.7,1.3c0.4,0,0.8,0,1.2,0c0.9-0.1,1.2-0.6,0.7-1.3C290.4,152.1,289.4,150.7,288.5,149.2z"/>
	<path d="M496.5,187.8c-0.9-0.1-1.7-0.1-2.6,0c-0.9,0.1-1.6,0.8-1.7,1.7c0,0.3,0,0.6,0,0.9c0,0,0,0,0,0c0,0.3,0,0.7,0,1
		c0.1,1,0.6,1.5,1.6,1.7c0.9,0.2,1.7,0.2,2.6,0c1-0.2,1.6-0.7,1.8-1.6c0.2-0.8,0.2-1.7-0.1-2.5C497.7,188.3,497.2,187.9,496.5,187.8
		z"/>
	<path d="M468.8,187.8c-0.6,0-1.3,0-1.9,0c-1.5,0.1-2.1,0.7-2.2,2.3c0,0.2,0,0.3,0,0.5c0,0.2,0,0.5,0,0.7c0.1,1.2,0.5,1.7,1.6,1.9
		c0.9,0.2,1.7,0.2,2.6,0c1-0.2,1.5-0.7,1.8-1.6c0.2-0.8,0.2-1.6-0.1-2.4C470.3,188.3,469.7,187.8,468.8,187.8z"/>
	<path d="M607.4,187.8c-0.3,0-0.7,0-1,0c0,0,0,0,0,0c-0.4,0-0.8,0-1.2,0c-1,0.1-1.7,0.8-1.7,1.8c0,0.7,0,1.4,0,2.1
		c0.1,0.8,0.5,1.3,1.3,1.4c1,0.2,1.9,0.3,2.9,0.1c0.9-0.2,1.4-0.7,1.7-1.5c0.2-0.8,0.2-1.6,0-2.4C609,188.3,608.4,187.9,607.4,187.8
		z"/>
	<path d="M786,187.8c-0.9-0.1-1.9-0.1-2.8,0c-0.9,0.1-1.5,0.8-1.6,1.8c0,0.3,0,0.6,0,0.9c0,0,0,0,0,0c0,0.3,0,0.7,0,1
		c0.1,0.9,0.6,1.5,1.5,1.7c0.8,0.1,1.7,0.3,2.6,0.1c1.3-0.4,1.9-0.8,2-2.2c0-0.5,0-1.1-0.1-1.6C787.4,188.6,787,187.9,786,187.8z"/>
	<path d="M374.7,187.8c-0.2,0-0.3,0-0.5,0c0,0,0,0,0,0c-0.5,0-1-0.1-1.6,0c-0.8,0.1-1.5,0.8-1.6,1.6c-0.1,0.7-0.1,1.5,0,2.2
		c0.1,0.8,0.5,1.3,1.3,1.4c0.9,0.2,1.8,0.3,2.7,0.1c1.3-0.3,1.8-0.8,2-2c0-0.3,0-0.7,0-1C377,188.5,376.3,187.8,374.7,187.8z"/>
	<path d="M249.4,150.6c-0.2-0.8-0.8-1.4-1.7-1.4c-0.3,0-0.7,0-1,0c0,0,0,0,0,0c-0.5,0-0.9,0-1.4,0c-1,0.1-1.6,0.8-1.7,1.8
		c0,0.6,0,1.3,0,1.9c0.1,0.8,0.5,1.4,1.4,1.6c1,0.2,1.9,0.3,2.9,0.1c0.8-0.2,1.3-0.6,1.6-1.4C249.6,152.4,249.6,151.5,249.4,150.6z"
		/>
	<path d="M475.3,154.5c1.1,0.3,2.2,0.3,3.2,0c1-0.3,1.5-1.1,1.5-2.5c0-1.5-0.4-2.4-1.3-2.7c-0.2-0.1-0.4-0.1-0.7-0.1
		c-0.3,0-0.7,0-1,0c0,0,0,0,0,0c-0.4,0-0.8,0-1.2,0c-1.1,0.1-1.7,0.7-1.8,1.8c0,0.7,0,1.4,0,2.1
		C474.1,153.8,474.5,154.3,475.3,154.5z"/>
</g>
</svg>
