<?xml version="1.0" encoding="utf-8"?>
<!-- Generator: Adobe Illustrator 28.3.0, SVG Export Plug-In . SVG Version: 6.00 Build 0)  -->
<svg version="1.1" id="Calque_1" xmlns="http://www.w3.org/2000/svg" xmlns:xlink="http://www.w3.org/1999/xlink" x="0px" y="0px"
	 viewBox="0 0 741.4 397.8" style="enable-background:new 0 0 741.4 397.8;" xml:space="preserve">
<path d="M149.6,350.1c4.3,1.3,3.5,3.7,2.8,6.4c-0.2,0.7,0.8,2.1,1.6,2.7c2.5,2.2,5.4,4.4,6.1,7.8c0.7,3.6,2.1,7.3,0.5,11
	c-0.3,0.8,0,1.8-0.2,2.7c-0.8,3.4-3.4,5.5-5.9,7.7c-0.7,0.6-1.4,1.2-2.2,1.6c-1.1,0.6-2.3,1.2-3.5,1.5c-1.5,0.4-3.1,0.8-4.6,0.8
	c-4-0.1-8.1-0.2-11.1-3.5c-3.4-0.4-3.8-3.9-5.7-5.8c-1-0.9-1.4-2.8-1.5-4.2c-0.2-2.9,0.1-5.9-0.1-8.8c-0.2-2,0.7-3.6,1.8-5
	c1.6-2.1,3.5-4.2,5.5-5.9c1.3-1.1,1.6-2.2,1.2-3.7c-0.1-0.4-0.2-0.7-0.4-1.1c-0.5-1.6-0.4-2.9,1.5-3.5c0.4-0.1,0.7-0.5,1.1-0.7
	c-1.8-1.4-3.6-2.6-5.3-4c-1.1-1-2.1-2.2-3.1-3.3c-2.3-2.5-2.5-5.5-2.3-8.7c0.1-2.2-0.2-4.5,0.1-6.7c0.1-1.4,0.6-2.9,1.4-3.9
	c1.8-2.2,3.3-4.6,6-6c1.6-0.8,1.9-2.3,1.1-4c-0.4-0.8-0.6-1.7-0.7-2.6c0-0.4,0.3-1,0.6-1.1c0.4-0.1,1,0.1,1.3,0.4
	c0.2,0.2,0.2,0.8,0.2,1.2c0,0.2-0.3,0.5-0.3,0.7c0,0.5-0.1,1,0.1,1.4c0.1,0.2,0.9,0.4,1,0.3c0.3-0.4,0.6-0.9,0.5-1.3
	c-0.2-1.7-0.5-3.4-0.8-5.4c-1.5,0.5-2.7,0.8-3.8,1.4c-3.1,1.7-6.2,2.8-9.9,2.9c-1.7,0-3.4,1.4-5.1,2c-1.7,0.6-3.5,0.9-5.2,1.4
	c-0.7,0.2-1.3,0.4-2,0.7c-3,1.3-6,2.6-8.9,4c-0.9,0.4-1.6,1.1-2.4,1.5c-5.1,2.5-10,5.6-15.6,7c-1.3,0.3-2.6,0.7-4,0.8
	c-0.6,0-1.5-0.4-1.9-0.9c-0.2-0.2,0-1.1,0.3-1.6c1.8-3.4,3.5-6.9,5.7-10.1c1-1.5,2.8-2.7,4.6-3.4c2.4-1,5-1.5,7.6-2
	c2.4-0.5,4.8-0.7,7.2-1.3c1.8-0.5,3.6-1.3,5.4-2c1.4-0.5,2.8-1.1,4.2-1.5c1.7-0.5,2.1-1.7,1.1-3.1c-1.5-2-3-3.9-4.3-5.9
	c-0.5-0.7-0.4-1.8-0.6-2.7c-0.1-0.7-0.3-1.3-0.5-2.5c-3,2.8-5.5,5.1-8,7.5c-2.6,2.5-5.9,3.5-9.3,3.8c-3.4,0.3-6.8,0.3-10.2-0.9
	c-1.7-0.6-3.8-0.2-5.8-0.4c-0.5,0-1.3-0.1-1.5-0.4c-0.2-0.4-0.1-1.2,0.2-1.6c1.2-1.3,2.5-2.5,3.7-3.8c0.6-0.6,0.9-1.5,1.4-2.3
	c-0.8-0.4-1.6-0.9-2.4-1.2c-1.8-0.6-3.7-1-5.4-1.8c-1.1-0.5-1.2-1.3,0.1-2.1c2.6-1.7,5-4,7.8-5.2c2.4-1,5.4-0.9,8.2-0.9
	c1.7,0,3.3,0.6,5.4,1c-2.6-2-4.8-3.9-7.2-5.5c-2.3-1.7-3.8-1.3-5.9,0.7c-1.8,1.7-3.8,3.3-5.9,4.6c-1,0.6-2.4,0.5-3.5,1
	c-1.2,0.5-2.7,1-3.5,1.9c-2.2,2.6-4.9,3.9-8.1,4.3c-1.9,0.3-3.8,0.8-5.6,1.2c-0.4,0.1-1.1,0.2-1.3-0.1c-0.3-0.4-0.4-1-0.3-1.5
	c1.6-5.8,4.5-10.6,10-13.5c0.5-0.2,0.9-0.5,1.3-0.8c-0.1-0.2-0.2-0.4-0.3-0.6c-0.6-0.1-1.1-0.4-1.7-0.4c-1.5,0-3.1,0.2-4.6,0.3
	c-3.8,0.2-6.1-2.6-8.8-3.9c1.8-2,3.2-4.1,5.2-5.5c2.5-1.7,5-3.6,8.3-3.7c2.8-0.1,5.6-0.4,8.1,1.5c1.7,1.3,3.7,2.4,5.5,3.5
	c0.1-0.2,0.3-0.3,0.4-0.5c-0.4-0.7-0.6-1.6-1.2-2.1c-2.4-2.2-4.9-4.3-7.5-6.3c-1.3-1-2.6-1.2-4.2,0.1c-3.4,2.8-7.6,1.4-8.9-3.6
	c-1.1,1.4-2.1,2.5-2.9,3.7c-1.1,1.7-1.8,3.8-4.2,4.1c-0.1,0-0.3,0.2-0.4,0.4c-2.4,3.7-6.4,4.4-10.2,5.5c-1,0.3-1.9,1-2.9,1.5
	c-0.5,0.2-1,0.3-1.4,0.5c-0.1-0.6-0.5-1.3-0.3-1.7c1.2-3,2.5-6,3.8-9c0.6-1.3,1.1-2.7,2-3.7c1.8-1.9,4-3.6,6-5.3
	c0.4-0.3,0.8-0.7,1.1-1c-0.1-0.2-0.2-0.4-0.2-0.5c-1.2,0.1-2.4,0.2-3.5,0.5c-3.6,0.8-7.1,0-10.6-0.7c-2.7-0.6-5.3-1.5-7.5-3.4
	c-1.2-1-2.9-1.2-4.3-1.9c-0.8-0.4-1.6-0.8-2.3-1.4c-0.4-0.3-0.8-1-0.7-1.2c0.2-0.4,0.9-0.9,1.3-0.8c2.9,0.5,5-1.4,7.4-2.4
	c3-1.3,5.8-2.9,9.2-1.2c0.2,0.1,0.5,0,0.7-0.1c0.1-0.1,0.2-0.3,0.3-0.4c-2.7-1.8-4.4-4.4-5.9-7.2c-1.5-2.7-2.8-5.5-4.3-8.2
	c-0.6-1.1-1.2-0.4-1.9,0.2c-1.2,1-2.4,2-3.7,2.9c-1.7,1.2-3.5,2.2-5.2,3.3c-0.4,0.2-1,0.6-1.3,0.5c-0.3-0.1-0.7-0.9-0.6-1.3
	c0.9-4-0.5-8.4,1.5-12.3c0.3-0.5,0.7-0.9,0.9-1.4c0.2-0.5,0.2-1.1,0.3-1.6c-0.7-0.1-1.6-0.6-2-0.3c-1.9,1.2-3.6,2.7-5.4,4
	c-0.3,0.2-1.1,0.2-1.5,0c-0.3-0.1-0.4-0.8-0.3-1.2c0.5-3,1.1-6.1,1.8-9.1c0.2-1.1,0.7-2.2,1.4-3.1c1-1.4,2.2-2.8,3.3-4
	c0.4-0.5,1.2-0.7,1.7-1.1c1.3-0.8,2.6-1.4,3.7-2.3c0.2-0.2,0-1.3-0.4-1.7c-0.8-0.8-1.8-1.5-2.8-2.1c-2.9-1.8-4.3-4.8-6.1-7.4
	c-0.5-0.7-1-1.7-0.9-2.5c0.5-2.9-0.9-5-2.6-7c-0.6-0.7-1.1-1.5,0-2.1c0.4-0.2,1.4,0.1,1.7,0.5c2.1,3.3,5.7,3.1,8.8,3.7
	c0.4,0.1,0.8,0.1,1.1,0.2c3.7,1.8,7.1,3.9,8.7,7.9c1.3,3.3,4.1,5.4,6.6,7.6c1,0.9,2.8,1,4.6,1.6c0.1-0.2,0.8-0.6,0.8-1.1
	c-0.1-2.6,0.1-5.3-1.6-7.4c-0.4-0.5-1.8-0.7-2.7-0.5c-2.6,0.4-3.7,0.3-4.8-2.2c-0.6-1.4-0.5-3.6,0.1-4.9c0.5-0.9,2.5-1.5,3.8-1.5
	c2.2-0.1,3.6,1,3.7,3.4c0,0.5,0.6,0.9,1.1,1.5c2-5.9-2-9.1-7.3-8.3c-3.4,0.5-7.1,0.5-9.4-3c-0.8-1.2-1.9-1.3-3.3-1
	c-0.9,0.2-2,0-2.9-0.4c-2.5-1.1-4.9-0.7-7.4,0.1c-1.4,0.5-2.9,0.7-4.3,0.9c-0.3,0-0.6-0.9-0.3-1.2c1.9-1.8,4-3.4,5.5-5.4
	c1.8-2.2,4.2-3,6.6-4c4.1-1.7,7.8-0.3,11.4,1.2c1.4,0.6,2.6,2.2,3.5,3.6c1.2,1.7,2,3.6,4.2,4.4c0.7,0.3,1.1,1.5,1.6,2.3
	c0.2-0.1,0.5-0.2,0.7-0.3c-0.4-0.7-0.7-1.4-1.1-2.1c-1.7-2.3-3.1-4.8-5.1-6.7c-1.9-1.8-4.2-3.8-6.6-4.5c-6.1-1.8-10.4-5.5-13.4-10.8
	c-1-1.8-1.5-4-1.7-6.1c-0.4-3.2-0.3-6.5-0.5-9.7c-0.1-1-0.5-2-0.8-3.1c0.2-0.1,0.4-0.2,0.6-0.2c1.9,2.8,3.8,5.6,5.8,8.2
	c0.6,0.8,1.6,1.3,2.8,2.2c0-3.3-0.1-6.1,0-8.8c0.1-2.7-0.7-5.4,0.6-8c2.3,4.2,7.2,6.2,8.7,11c0.7,2.1,2.5,3.8,3.8,5.7
	c0.2-0.1,0.4-0.1,0.6-0.2c0-1.2,0.1-2.4,0-3.5c-0.2-1.7,0.9-2.7,2.1-3.1c1.3-0.4,2.8-0.3,4,0.1c1.6,0.6,2.4,1.9,2.2,3.9
	c-0.2,1.4,0.5,2.2,2.4,1.7c0.2-3.5,0.4-7.1,0.7-10.6c0.1-1.8-0.7-3.2-1.8-4.5c-1.5-1.7-2.7-3.7-5.4-3.9c-2-0.1-4-0.3-5.9-0.9
	c-1.4-0.4-2.7-1.4-3.9-2.3c-2.9-2-5.9-3.9-8.7-6.1c-1.2-0.9-1.9-2.3-2.9-3.4c-0.5-0.5-1.2-0.9-1.9-1.2c-1.2-0.5-2.5-0.7-3.5-1.3
	c-0.4-0.2-0.4-1.3-0.5-2c0.6-0.1,1.3-0.5,1.8-0.3c1.9,0.8,3.4-0.1,4.9-0.9c0.6-0.3,1.5-0.4,2.2-0.5c1.2,0,2.4,0.2,3.5,0.1
	c3.3-0.2,6.3,0.7,9.2,2.3c0.5,0.3,1.5,0.4,1.9,0.2c0.4-0.3,0.3-1.2,0.3-1.9c0.2-2,0.4-4.1,0.6-6.1c0.3-2.5,0.4-5,1-7.4
	c0.6-2.2,1.6-4.4,2.8-6.3c1.7-2.7,1.9-5.6,1.7-8.6c0-0.3,0-0.5,0-0.8c0-0.1,0.1-0.2,0.3-0.5c2.5,2.1,2.9,5.1,3.5,7.9
	c0.6,2.7,0.7,5.5,1.4,8.4c0.3-0.6,0.9-1.3,0.9-1.9c0.1-2.5,1.3-4.4,2.7-6.3c0.9-1.2,1.3-2.8,2.1-4.1c0.4-0.6,1.1-1.1,1.6-1.6
	c0.5,0.6,1,1.3,1.5,2c0.1,0.1,0,0.3,0,0.4c1.9,4.7,0,9.6,0.4,14.3c0.2,2.3,0.7,4.5,0.9,6.7c0.1,1,0.1,2.1-0.1,3
	c-0.8,3.1-1.7,6.2-4,8.6c-0.3,0.3-0.1,0.9-0.1,1.4c0.2,0.1,0.5,0.3,0.7,0.4c2.3-2.1,4.6-4.2,7-6.3c1.6-1.4,3.2-3,5.1-3.7
	c2.1-0.8,3.4-2,4.2-3.9c0.2-0.3,0.4-0.6,0.7-1c1.4,0.6,1.6,1.8,1.3,2.9c-0.8,3-1.6,6.1-2.8,9c-0.7,1.7-2.2,3.1-3.3,4.7
	c-1.7,2.5-3.2,5.2-5,7.7c-0.8,1.1-2,2.3-3.2,2.7c-1.8,0.6-3.3,2.4-5.6,1.5c-0.3-0.1-1.7,1.4-1.9,2.3c-0.7,3.4-1.1,6.8-1.6,10.3
	c0,0.1,0.1,0.2,0.1,0.5c2.3-1,4.2-2.2,5-4.9c0.6-2,3.5-3.4,5.7-2.9c1.6,0.3,3.3,2.7,2.8,4.5c-0.4,1.6-1.4,3.3-2.6,4.3
	c-0.6,0.5-2.5-0.2-3.5-0.8c-1.5-0.9-2.4-0.5-3.2,0.7c-0.8,1.2-1.7,2.3-2.5,3.5c-0.4,0.6-0.5,1.4-0.8,2.1c1.8,0.7,2.4-0.6,3-1.4
	c1.8-2.4,4.7-2.4,7.1-3.4c0.2-0.1,1,0.7,0.9,0.9c-0.2,1.1-0.3,2.8-0.9,3.1c-2.3,1-2.2,3.1-2.5,4.9c-0.7,4.3-2.2,8.3-4.7,11.9
	c-0.6,0.9-1.6,1.5-2.6,2c-2.6,1.2-4.7,5-4.1,7.8c0.5,2.2,1.3,4.3,1.7,6.5c0.4,1.8,0.5,3.7,0.8,5.7c1.9-1.7,2.9-3.7,2.8-6.1
	c-0.1-3.3,0.2-6.4,1.3-9.5c0.4-1,1-1.9,1.6-2.8c1.4-2.3,2.7-4.7,4.1-6.9c1.4-2.3,3.2-4.2,5.4-5.9c2.9-2.2,5.1-5.2,7.7-7.9
	c0.4-0.5,1.5-1,1.7-0.9c0.6,0.6,1.3,1.4,1.3,2.1c0.2,3.2,0.5,6.5-1,9.6c-0.2,0.3,0.1,0.8,0.2,1.8c1.2-1.1,2-1.9,2.9-2.7
	c1.4,0.7,1.4,1.9,0.9,3.1c-1.3,3.9-2.7,7.9-4.1,11.8c-0.3,0.8-0.8,1.5-1.3,2.3c-0.7,1.1-1.5,2.2-2.3,3.3c-0.1,0.2-0.2,0.5-0.4,0.6
	c-2.8,1.9-5.5,4-8.5,5.8c-2.6,1.5-5.5,2.5-8.1,4c-1.7,1-3.1,2.5-4.3,4c-0.5,0.7-0.2,2-0.2,3.1c0,1.2-0.1,2.5,0.1,3.7
	c0.1,0.6,0.7,1.3,1.2,1.5c0.5,0.1,1.5-0.2,1.8-0.6c1.3-2.1,2.4-4.4,3.7-6.5c0.8-1.2,1.7-2.3,2.6-3.5c0.1-0.1,0.3-0.2,0.5-0.2
	c1.4-0.4,4.8,1.7,5.5,3.4c0.7,1.6,0.2,3.5-1.6,4.7c-0.9,0.6-2,1.3-3.1,1.4c-3.6,0.2-6.2,2.5-6.4,6.1c-0.1,2.2,0.1,4.4,0.4,6.6
	c0.1,0.9,0.9,1.6,1.5,2.4c0.7,1.1,1.5,2.2,2.5,3.7c0.3-1,0.6-1.6,0.6-2.2c-0.2-3.8,1.1-7.2,2.4-10.7c1-2.7,2.6-4.6,4.5-6.6
	c1.5-1.6,3.3-2.6,4.8-4c1.2-1.1,1.8-2.7,2.7-4.2c1.3,0.3,1.5,0.9,1.8,4c0.1,1.6,0.3,3.1,0.5,4.7c0.2,0.1,0.4,0.1,0.6,0.2
	c0.4-0.5,0.8-1,1.3-1.5c0.4-0.3,0.9-0.6,1.3-0.6c0.3,0,0.7,0.7,0.6,1c-0.4,5-0.1,10.1-2.3,14.9c-1.6,3.4-3.8,6.3-6.4,8.9
	c-1.8,1.8-4.1,3.1-6.1,4.8c-0.6,0.5-1.1,1.3-1.2,2c-0.1,3-0.1,5.9-0.1,9.5c0.9-0.6,1.5-0.8,1.8-1.3c0.9-1.7,1.7-3.5,2.6-5.2
	c0.6-1.2,1.2-2.6,2.1-3.6c0.9-1.1,2.2-1.7,3.6-1.2c1.9,0.6,3.2,1.9,3.3,3.9c0.2,3.3-0.7,5.4-4.5,5.1c-3.3-0.3-5.3,1.9-5.3,5.4
	c0,0.8,0.1,1.6,0,2.4c-0.3,2.2,0.5,3.7,2.3,5.1c1.5,1.2,2.4,3.1,3.5,4.8c1.2,1.9,2.3,3.8,3.6,5.6c0.3,0.5,0.9,0.8,1.4,1
	c3.3,1.5,5.4,3.8,6.6,7.3c0.5,1.6,2.1,2.8,3.4,4.4c1.7-5.6-1.6-9.7-6.1-12.2c-3-1.7-5.5-3.7-7.3-6.9c-2.3-4.1-2.5-8.7-3.4-13.1
	c-0.2-1.1,0.7-1.9,1.9-1.5c2.6,0.9,5.3,1.8,6.8,4.5c1.7,3,3.5,5.9,5.3,8.9c0.9,1.6,1.9,3.2,2.6,4.9c0.5,1.3,0.6,2.7,1.1,4
	c0.6,1.6,1.5,3.1,1.9,4.7c0.7,3.1,0.9,6.4,1.7,9.5c0.4,1.5,1.5,2.9,2.5,4.2c0.7,0.9,1.7,0.5,1.7-0.7c0-1.9,0.3-3.7-1.1-5.6
	c-2-2.7-1.4-5.6,1.8-7.4c0.8-0.5,2.4,0.2,3.5,0.5c0.5,0.2,0.9,0.8,1.6,1.3c1.7-2.7-1-5.4,0.7-8c4,2.3,7.1,5.6,10.2,8.8
	c0.2-0.1,0.3-0.1,0.5-0.2c0-3.6,0-7.1,0-10.7c0.2-0.1,0.5-0.3,0.7-0.4c1.1,1.1,2.3,2.1,3.3,3.2c0.6,0.6,0.9,1.5,1.5,2
	c3.3,2.8,4.5,6.8,6,10.6c1.6,4.1,1.3,8-0.1,12.1c-0.6,1.7-0.3,3.8-0.3,5.7c0,0.4,0.7,0.7,1.1,1.1c0.4-0.5,1.1-1,1.2-1.6
	c0.2-1.6,0.3-3.3,0.3-4.9c0.1-2.2,3.1-5.4,5.3-5.5c3.1-0.1,6.3-0.3,9.4-0.4c2.3-0.1,4.7-0.2,6.9,0.1c1.5,0.2,3,1,4.4,1.8
	c1.1,0.7,2.1,1,3.1,0c1.3-1.4,3-1.8,4.7-1.8c3.5,0.1,7,0.5,10.5,0.7c1.5,0,3.1-0.3,4.6-0.6c3.5-0.8,4.6-0.1,6.4,2.9
	c1.5,2.5,1.8,5.7,4.5,7.4c0.7,0.4,1.4,0.7,1.9,1c0.4-1.4,0.8-2.5,1.1-3.6c0-0.1,0.2-0.3,0.1-0.4c-1.5-2.7,1.6-5.5,0-8.3
	c-0.3-0.6,0.4-1.7,0.7-2.6c0.3-0.8,0.5-1.7,0.8-2.5c0.3-0.9,0.6-1.9,0.9-2.8c0.3-0.8,0.7-1.5,1-2.2c0.6-1.2,0.9-2.6,1.8-3.4
	c1.2-1.1,2.2-2,2.2-3.8c0-1.5,1.8-3.1,3-3.1c1.5,0.1,3.5,1.7,3.4,3.1c-0.1,1.3,0.3,1.2,1.3,1.1c0.7-0.1,1.9,0.1,2.2,0.6
	c1.3,1.8,2.1,4,3.4,5.8c1.6,2.2,1.8,4.4,1.1,6.8c-0.3,1.3-0.7,2.6-1,3.9c-0.4,2.1-1.5,3.8-2.5,5.6c-0.3,0.5,0.1,1.4,0.1,2.1
	c0.7-0.2,1.6-0.1,2.2-0.5c1.3-1,2.5-2.1,3.7-3.2c2.1-2,2.7-5.5,1.2-8c-0.7-1.2-1.1-2.2,0-3.5c0.3-0.3,0-1.5-0.4-2
	c-1.3-1.4-1.1-2.4,0.2-3.6c0.5-0.5,0.9-1.3,0.9-1.9c-0.1-1.6,0.5-2.7,1.9-3.5c0.5-0.3,0.9-0.7,1.4-1c0.6-0.4,1.3-0.7,1.6-0.8
	c0.9-1.1,1.7-1.9,2.3-2.8c0.2-0.4,0.2-1.2,0-1.6c-1-1.9-0.8-2.9,1.4-4.4c1.1-0.8,2.5-0.3,3.7,1c0.7,0.8,1.7,1.3,2.4,2
	c0.8,0.8,1.5,1.9,2.4,2.7c1.4,1.4,2.9,2.7,4.6,4.2c0.7-1.9,0.1-2.9-0.9-3.9c-0.8-0.8-1.4-1.8-2.3-2.4c-1.8-1.3-2.5-3.8-4.9-4.5
	c-1.2-0.4-1.5-2.6-0.6-3.7c0.4-0.4,0.8-0.9,1.1-1.3c-1.8-2.4-1.8-5-1.6-7.6c0.1-2.7,0.2-5.3,0.5-8c0.1-0.9,0.7-2.2,1.5-2.6
	c2-1,2.8-2.7,3.5-4.6c0.2-0.5,0.3-1,0.7-1.4c2.9-3,4-2.9,6.4,0.6c1.2,1.7,2.2,3.5,3.5,5.1c1.1,1.3,2.1,0.1,2.6-0.8
	c1.8-3.1,2-6.6,1.6-10c-0.4-3-1.1-6-1.9-8.9c-0.4-1.3-1.3-2.5-1.9-3.8c-0.3,0.1-0.5,0.1-0.8,0.2c0,0.7,0,1.5,0,2.2
	c0,2.2-0.9,3.6-2.9,4.6c-1.2,0.6-2.2,1.6-3.4,2.1c-1.1,0.5-2.4,0.7-3.6,0.8c-0.3,0-0.9-0.6-0.9-1c-0.1-3-0.2-6.1,0-9.1
	c0.2-2.1,2.2-2.5,4-2.8c1-0.1,2.1-0.1,3.1,0c2,0.1,3.9,0.3,5.9,0.2c0.5,0,1.4-0.9,1.4-1.3c-0.2-1.7-0.5-3.4-1.1-5
	c-0.5-1.5-1.8-1.7-3.2-0.9c-2.3,1.3-4.1,1.1-5.9-0.7c-1.2-1.2-3.3-1.8-3.1-4.1c0-0.1-0.7-0.3-1.1-0.3c-3,0.1-3.2-0.5-3.6-3.5
	c-0.1-0.8-0.1-1.6-0.4-2.2c-0.8-2-0.9-1.9,1-3.1c-1.1-1.2-2.1-2.4-3.3-3.4c-1.2-1.1-1.3-2.1-1.4-3.8c-0.1-2.1-0.7-4.2-0.2-6.4
	c0.3-1.3-0.3-2.9-0.5-4.4c-0.3-3.3,1.7-4.1,4.8-3.1c0.2,0.1,0.5,0.4,0.7,0.3c2.1-0.8,3.3-0.1,4.1,2c0.1,0.3,0.7,0.5,0.9,0.5
	c0.3-0.1,0.8-0.6,0.8-0.9c0.1-1.7,1.1-2.1,2.6-2.2c0.6-0.1,1.5-0.9,1.7-1.6c0.4-1.3,0-2.8,0.5-4c0.4-1,1.5-2,2.5-2.4
	c1.1-0.4,2.2,0.1,2.6,1.6c0.2,0.7,1.3,1.2,1.9,1.8c0.3-0.9,1.1-1.9,0.9-2.7c-0.5-2.6-1.1-5.3-2.1-7.8c-1.1-2.7-2.5-5.2-4-8.2
	c-0.2,1.1-0.4,2-0.4,2.9c0.1,1.8-0.7,2.9-2.4,3.6c-1.6,0.6-3.1,1.5-4.6,2.3c-1.6,0.9-4.4-0.4-4.5-2.2c-0.1-2-0.5-4.1,1.5-5.6
	c0.2-0.1,0.3-0.4,0.4-0.6c0.3-1,0.2-2.5,0.8-2.8c1.5-0.8,3.2-1.3,4.9-1.5c5.2-0.5,5.2-0.4,3.6-5.3c-0.4-1.1-0.6-2.4-1.3-3.3
	c-0.6-0.8-1.7-1.1-2.6-1.6c-0.5-0.3-1.1-0.5-1.7-0.8c-1.1-0.5-2.3-1.1-3.7-1.7c0,0-0.1-0.3-0.1-0.7c0.2-1.8-0.2-3-2.3-3.2
	c-0.6-0.1-1.4-1.1-1.5-1.8c-0.4-2.5-0.5-5.1-1-7.5c-0.2-1.1-0.8-2.3-1.6-3.1c-1.7-1.5-1.9-1.8-0.2-3.5c0.8-0.8,1-1.3,0.6-2.5
	c-0.2-0.7,0.5-2.1,1.2-2.7c1.1-0.9,1.4-1.7,0.8-3c-0.7-1.5,0.4-3.8,2.1-4.4c1.6-0.6,2.8,0,3.4,1.6c0.1,0.3,0.3,0.7,0.5,0.8
	c1.5,1,3.2,1.7,3,4.2c1.4-2.2,2.9-3,5-1.1c0.7-1.2,1.6-2.1,2-3.2c0.9-2.4,1.9-2.7,3.8-1c0.1,0.1,0.3,0.2,0.6,0.4
	c0.4-1.1,0.5-2.6,1.3-3.1c2.2-1.4,4.6-2.7,7.2-3.4c2.3-0.7,3.2,0.3,3.4,2.9c0.1,2,0.3,3.7,1.2,5.6c0.5,0.9-0.4,2.4-0.7,3.9
	c0.3,0.8,0.7,1.9,1.2,3c0.4,1.1,2.8,1.6,4.3,1.1c0.8-0.3,1.6-0.5,2.4-0.5c2.1,0,3,1.1,2.6,3.1c-0.4,2.3-0.9,4.4,1.2,6.3
	c0.3,0.3-0.2,1.7-0.5,2.5c-0.3,1-1,1.8-1.1,2.8c-0.2,3.6-0.4,3.9-4.2,4.2c0,0.5-0.1,1-0.2,1.4c-0.3,1.5-0.9,2.6-2.6,2.4
	c-1.9-0.2-3.1,0.5-3.3,2.5c0,0.5-0.5,1.1-0.9,1.4c-1.3,1-1.1,1.9,0.1,2.8c2.1,1.8,3.8,3.7,3.7,6.7c0,1.2,1,1.3,1.9,0.8
	c2.3-1.2,2.6-1.1,3.4,1.5c0.2-0.8,0.4-1.5,0.6-2.3c0.3-1.3,0.8-2,2.5-2c1.1,0.1,2.2-1,3.3-1.6c0.8-0.4,2-1.2,2.5-0.9
	c0.8,0.5,1.2,1.6,1.5,2.6c0.5,1.6,0.7,3.4,1,5c0,0.1,0.2,0.3,0.1,0.3c-1.4,2.1-0.5,4,0.4,6c0.2,0.3-0.1,1.1-0.4,1.4
	c-1.7,1.4-0.9,2.8-0.3,4.7c1.2-0.7,2.2-1.4,3.3-2.1c1.4,1.6,3.1,2.3,5.3,2c0.9-0.1,2.1,1,2.8,1.8c0.8,1,0.1,2-0.7,2.9
	c-0.8,0.9-1.2,2.1-1.9,3c-0.5,0.7-1.2,1.3-1.7,2.1c-0.3,0.5-0.8,1.2-0.7,1.6c0.6,1.8,0.2,2.8-1.8,3.2c-0.9,0.2-1.5,1.1-2.3,1.7
	c-0.7,0.5-1.5,1.2-2.3,1.3c-1.9,0.1-3.7,0.6-5.5,1.1c-2.5,0.7-5.4,0.2-8,0c-0.5,0-0.8-1.1-1.3-1.6c-0.7-0.5-1.8-1.4-2.2-1.2
	c-2,1-3.1,0.1-4.2-1.3c-0.1-0.2-0.4-0.3-1.2-0.4c0.1,0.8-0.2,1.8,0.2,2.4c0.8,1.2,0.8,2.3,0.4,3.7c-0.2,0.8-0.2,1.9,0.1,2.7
	c0.9,2.1,0.9,2.3-0.8,4c0.3,1.6,1.2,2.3,2.9,2.1c0.7-0.1,1.4-0.1,2.2,0c1.4,0.1,2-0.4,2-1.9c0-2.5,1.2-3.4,3.6-2.5
	c1.5,0.5,2.4,0.5,3.3-1.1c0.8-1.4,2.3-1,3.5-0.4c1.3,0.6,2.4,0.4,3.6-0.4c0.8-0.5,2.3-0.8,3.2-0.4c0.9,0.4,1.7,1.7,2,2.8
	c0.3,1.6,0,3.3,0.1,4.9c0,0.5,1,1.4,1.1,1.4c1.3-0.7,2,0,3,0.7c0.6,0.5,1.4,0.9,2.1,0.9c1.6,0.1,2.5,1.1,3.1,2.3
	c0.3,0.6,0.1,1.5-0.2,2.2c-0.2,0.6-0.7,1.2-1.3,1.7c-1.1,1-1.5,1.8-0.2,3c1.1,1.1,0.3,2.2-0.8,3.1c-1,0.8-2.1,1.7-2.7,2.8
	c-1,1.9-2.3,2.6-4.4,2.3c-0.4-0.1-1.1,0.3-1.4,0.6c-1.2,1.2-2.3,1.2-3.7,0c-0.5-0.4-1.3-0.5-1.9-0.8c-0.1,0.7-0.3,1.4-0.2,2
	c0.2,1.1,0.6,2.2,0.7,2.9c1-0.5,2.8-1.9,3.4-1.5c2.3,1.5,4.5,3,7.1,3.9c0.5,0.2,0.8,1.3,0.8,2c0.1,2,0.1,4.1,0.1,6.1
	c0,1.4,0,2.7,1.2,3.9c0.6,0.6,0.2,2.3,0.2,3.5c0,0.8-0.2,1.6,0,2.3c0.8,3.5-2.6,7.5-6.1,6.6c-1.6-0.4-3.2-2-4.2-3.5
	c-0.9-1.3-1.5-2.3-3.3-1.6c-0.4,0.2-1.2,0.2-1.3,0c-1.5-2.1-4.8-2.1-5.6-5c-0.1-0.5-1.4-0.9-2.1-0.8c-2.7,0.5-3.4-0.1-4.7-2.5
	c-0.9-1.8-2.3-3.6-3.9-4.9c-1.6-1.4-3.1,0.4-3.7,1.3c-1.8,3-4,5.9-3.8,9.7c0.1,1.2,0.4,1.9,1.6,1.1c2.1-1.4,4.1-0.4,6.2,0
	c1,0.2,2.2-0.2,3.2-0.1c0.9,0.1,1.9,0.1,2.7,0.6c3.5,2.1,6,5,6.3,9.2c0.3,2.9-0.7,3.7-3.7,3.4c-3-0.3-5.9-1-7.9-3.5
	c-0.7-0.9-1.2-2.1-1.3-3.2c-0.2-1.2-0.1-2.4-1.5-2.9c-1.3-0.5-2.4,0.1-3.2,1.2c-1.5,2.1-4.2,3.5-4.2,6.6c0,0.8,0.1,1.5,0,2.3
	c-0.1,1.2-0.3,2.5-0.5,3.7c-0.1,0.5-0.3,1-0.5,1.4c-0.5,1.1-1,2.2-1.4,3.2c-0.3,0.7-0.6,1.3-0.9,2c0.8,0.2,1.5,0.6,2.3,0.6
	c0.6,0,1.7-0.6,1.8-1c0.3-2.3,1.7-2.9,3.8-3c1.7-0.1,3.3-1.5,5.1,0.1c0.4,0.3,1.8-0.6,2.7-0.9c1.2,0.2,2.5,0.4,3.9,0.5
	c2.4,0.2,4.8,0.2,7.2,0.4c1.5,0.1,2.3,1.2,2.3,2.6c-0.1,1.8,0.8,2.4,2.2,3.4c2,1.5,3.4,3.9,4.4,6.3c0.6,1.4-0.8,2.7-2.4,3
	c-2.1,0.3-3.5,1-3.5,3.5c0,0.4-1,1.1-1.6,1.3c-1.6,0.6-3.4,0.8-4.9,1.5c-1.3,0.6-2.2,0.5-3.2-0.4c-0.9-0.9-1.7-1.6-3.2-1.2
	c-0.5,0.1-1.7-1-2.1-1.9c-0.8-1.4-1.4-1.8-2.8-0.8c-1.7,1.2-3.4,0.5-4.1-1.4c-0.2-0.5-0.5-1.3-0.7-1.3c-1.8,0-3.4-0.4-4.7-1.7
	c-0.7-0.6-1.7-0.9-2.5-1.4c-1.1-0.7-2-0.7-2.6,0.7c-1,2.4-2,4.7-3.1,7.1c-0.8,1.9-0.5,2.6,1.4,2.2c3.1-0.6,4.3,2,6.3,3.2
	c0.4,0.3,0.8,0.7,1.3,0.8c3.2,0.8,4.1,3.4,4.4,6.2c0.2,1.8,0.1,3.6,0,5.4c0,1.6-1,2.6-2.4,3.3c-1.3,0.7-2.4,0.1-3.7-0.4
	c-2.9-1.3-3.6-4.3-5.3-6.5c-1.2-1.6-0.8-3.4,0.1-5.1c0.3-0.6,0.5-1.6,0.1-2c-0.4-0.5-1.4-0.8-2-0.7c-2.2,0.5-4.5,1-6.3,3.2
	c1.3,1,2.7,2,3.9,3.1c1,0.9,1.8,2.1,2.6,3.1c0.8,1,1.4,2.1,2.4,2.9c1.2,1,2.2,3.5,1.7,4.9c-0.7,1.8-1.9,2.7-3.9,2.4
	c-1.4-0.2-2.4,0.3-3.1,1.7c-1.1,2.1-2.6,2.1-4.7,0.7c-0.5-0.4-1.6-0.3-2.3-0.1c-3.1,0.9-4.7,0.4-6.6-2.3c-0.7-1-1.5-1.1-2.7-1.3
	c-3.5-0.5-5.7,1.7-8.2,3.7c-0.4,1.6,0.1,2.5,2.3,2.3c0.8-0.1,1.5,0.5,2.3,0.8c1.1,0.4,2.2,0.7,3.2,1.2c0.8,0.4,1.8,0.9,2.2,1.6
	c0.7,1.5,0.9,3.2,1.5,4.8c0.3,0.9,0.9,1.9,1.6,2.4c1.1,0.8,1.4,1.3,0.4,2.4c-0.8,0.9-1.5,1.8,0.2,2.8c1,0.6,0.8,3.4,0,4.4
	c-1.5,1.9-2.5,2.1-4.3,1.1c-1-0.6-1.9-1.3-3.4-0.7c-3.3,1.3-6.3-0.2-9.2-1.4c-1-0.4-1.7-1.2-3-0.6c-1.3,0.6-2.4-0.2-3.1-1.3
	c-0.6-1-1.3-1.4-2.5-1.4c-1.4,0-2.8-0.3-3.5-1.9c-0.2-0.5-1.1-1-1.7-1.1c-2.4-0.1-3.2-1.3-3-3.6c0.2-1.4-0.7-1.8-1.8-1.6
	c-0.5,0.1-1.2,0.7-1.3,1.1c-0.4,4.1-2.8,6.6-6.2,8.4c-0.7,0.4-1.3,0.9-2.1,1.6c0.7,0.5,1,0.8,1.4,0.9c1.6,0.6,3.3,1.1,4.9,1.7
	c2.7,1.1,5.5,2.2,8.1,3.5c3.7,1.8,7.3,3.7,10.9,5.6c3.5,1.9,7,3.9,9.7,7c1.1,1.2,2.2,2.6,2.7,4.1c0.9,2.8-1.1,4.6-4.2,4.1
	c-2.6-0.4-4.9-1.4-7.2-2.7c-4.6-2.5-9.4-4.5-14-6.9c-4.2-2.2-8.2-4.9-12.4-7.1c-3.9-2.1-7.9-3.9-11.9-5.8c-0.4-0.2-0.7-0.5-1.1-0.7
	c-2.1-1.2-4.2-2.4-6.3-3.5c-1.7-0.9-4,0.1-4.5,2c-0.3,1.1-0.4,2.3,1.4,2.3c1.2,0,1.6,0.6,1.2,1.9c-0.4,1.3-0.8,2.7-0.6,3.9
	c0.1,0.9,1,1.8,1.8,2.5c2.6,2.2,5.4,4.2,6.1,7.8c1.2,5.4,1.8,10.9-1.1,15.8c-1.6,2.7-4.4,4.6-6.8,6.7
	C151.8,349.1,151,349.3,149.6,350.1z M138.2,366c-2.4-0.4-4.1,1.1-3.7,3.8C135.9,368.3,137.1,367.1,138.2,366c0.3-0.2,0.7-0.5,1-0.7
	c0.9-0.6,1.8-1.1,2.7-1.7c-0.1-0.2-0.2-0.3-0.3-0.5C139.3,363.1,138.3,364,138.2,366z M154.5,375.8c0.9-1.1,3.1,0,3.7-2.2
	c-0.8,0.1-1.4,0.1-1.7,0.1c-0.3-1.1-0.7-2.2-1-3.2c-0.6,0.4-1.3,0.9-1.9,1.3c0.5-3.6-2.4-5.1-4.5-7.1c-0.5-0.5-1.2-0.6-1.8-1
	c-0.7-0.4-1.3-0.8-2-1.3c0.5-0.6,0.9-1.3,1.5-1.7c0.3-0.2,0.9,0,1.4,0.1c0.7,0.1,1.3,0.3,2.4,0.5c-1.8-2.2-4.7-3.1-7.3-2.5
	c0.3,1.3,1.6,2.7-0.3,3.9c-0.1,0.1,0.2,0.9,0.3,1.4c0.3,1,0.6,2,0.9,3.1c-3.5-0.7-5.9,0.7-5.4,2.6c2.8,1.9,3.8-0.1,4.9-2.7
	c0.9,1.2,1.6,2,2.2,2.8c0.4,0.5,0.8,1.1,1.2,1.7c-0.7,0.1-1.5,0.6-2.1,0.3c-2.2-0.9-4.1,0.6-6.1,0.6c-0.2,0-0.4,0.4-0.6,0.6
	c3,2,3,2,2.7,3.9c-1.2-0.7-2.2-1.3-3.4-1.9c-0.4,0.4-1.5,1,0.1,1.9c0.4,0.3,0.6,1,1,1.4c1.3,1.6,1.9,4.3,4.9,3.2
	c0.2-0.1,0.4,0.1,0.6,0.1c2.1,0.5,2.7,0,2.7-2.2c-0.1-2.9,0-5.8,2.2-7.8c-0.9-1.8-1.8-3.4-2.5-5.1c-0.1-0.2,0.8-0.7,1.3-1.1
	c0.8,1.1,2,2.1,2.2,3.2c0.4,3,0.4,3.3,3.5,3.6C153.7,373.6,154.1,374.7,154.5,375.8c-1.4-0.1-2.8-0.3-4.6-0.5
	c-0.2,0.5-0.8,1.3-1,2.3c-0.1,0.3,0.8,1.3,1.2,1.3c1.9-0.1,3.7,1.9,3.3,4c-0.4,2.1-4.5,5.4-6.7,5.3c-0.4,0-0.9,0-1.1-0.2
	c-1.5-1.7-3.1-0.7-4.6-0.1c-1.4,0.6-2.5,0.6-3.3-0.8c-0.3-0.4-0.6-0.8-1-1.1c-2.9-2.5-3.1-3.4-1.5-6.9c0.1-0.1,0.1-0.2,0.1-0.4
	c0.5-0.9,0.6-1.5-0.5-2.3c-1.9-1.3-1.4-3.1,0.8-4c0.7-0.3,1.3-0.7,1.6-1c-1.3-0.4-2.5-0.9-3.8-1.2c-0.3-0.1-1,0.2-1.1,0.5
	c-0.6,1.5-2,1.5-3.2,1.7c-1.5,0.3-2.3,1.4-1.3,2.5c1.3,1.5,1.3,3,1.4,4.7c0,0.2,0.1,0.4,0.2,0.5c0.9,2.8,2.6,4.9,4.9,6.6
	c3.6,2.7,7.5,3.7,11.8,2.9c1.4-0.3,2.7-1.9,4-1.9c2.2,0.1,3.4-1.2,4.4-2.4c1-1.3,3.3-2.8,1.4-5.2c-0.3-0.4,0.2-1.5,0.3-2.2
	C155.6,377.3,155,376.6,154.5,375.8z M45.5,213.2c-0.6-1-1.2-1.9-1.7-2.8c-1.2-2.2-3-4.3-3.5-6.6c-0.4-1.8-0.8-3.3-2.2-4.4
	c-2.4-1.9-6-4-8.7-1.7c3.3,5.3,1.7,9.6-2.5,13.8c-1.6,1.6-2.5,3.9-3.5,6c-0.2,0.6,0.4,1.8,1,2.4c0.8,0.7,2,1,2.8,1.6
	c1.9,1.4,3.9,2.2,6.3,2c0.8-0.1,1.8,0.2,2.5,0.7c4.1,3.2,8.4,6.1,10.8,10.9c0.6,1.2,1,2.6,1.5,3.9c0.2,0.5,0.5,1.2,1,1.4
	c1.8,1.1,3.6,2,5.4,3c0.2,0,0.3-0.1,0.5-0.1c-0.2-0.7-0.2-1.5-0.7-2c-1.5-1.8-2.4-3.8-2.4-6.2c0-0.5-0.1-1-0.3-1.5
	c-1.3-4-2.8-7.9-2.5-12.2c0.1-1-0.7-2.4-1.5-3.1c-2.2-2-4-1.8-6.2,0.2c-1.7,1.5-3.9,2-5.7,1c-1.7-1-2.8-2.5-2.2-4.5
	c0.3-1.1,0.9-2,1.6-3c1.2-1.7,2.9-1.8,4.7-0.7C41.7,212.3,42.7,214.6,45.5,213.2z M151.9,327.8c-0.1-0.1-0.2-0.2-0.3-0.3
	c0.8-1.2,1.5-2.5,2.4-3.6c1.3-1.5,1.3-1.9-0.3-3.1c-0.3-0.2-0.6-0.5-0.9-0.7c-2.8-2.6-6.3-3.4-10-3.5c-3.7-0.1-6.7,2-9.6,4
	c-0.3,0.2-0.3,1.3-0.1,1.8c0.3,0.9,0.9,1.8,1.4,2.7c-1.1,0.7-1.8,1.1-2.1,1.8c-1.5,3.7-2.5,7.5,0.1,11.3c0.4,0.6,1.1,1.1,1.6,1.6
	c0.2-0.2,0.5-0.3,0.7-0.5c-0.6-1-1.1-2.1-1.8-3.3c1.1-1.2,1.7-2.5-0.4-3.7c-0.4-0.2-0.3-1.2-0.5-2.1c1.2,0.4,1.9,0.7,2.7,1
	c0.1-0.6,0.1-1,0.2-1.3c0.1-1.4-0.6-3.2,1.8-3.3c0.2,0,0.4-0.6,0.5-0.9c0.6-3.7,0.6-3.6,4.1-4.4c2.7-0.6,5.4-1.2,7.6,1.2
	c1.1,1.2,1.9,2.6,3.2,4.4c-4.2,0.3-7.7,0.6-11.2,0.7c-1.2,0.1-1.6,0.4-2,1.7c-0.9,2.4-1.5,4.3-0.1,6.9c0.8,1.5,1.8,2.4,2.8,3.6
	c2.3,2.7,2.5-1,3.9-0.9c0.1,0,0.2-0.1,0.4-0.2c0.4,0.3,1.2,0.6,1.3,1c0.5,1.7,0.8,3.5,1,5.3c0.1,0.8-0.1,1.6-0.2,2.9
	c1-0.3,1.8-0.3,2.4-0.7c1.1-0.7,2.1-1.7,3.2-2.5c2.1-1.6,2.1-2.4-0.3-3.6c-1,0.9-2.1,1.8-3.1,2.6c-0.5-1.2-1.1-2.5-1.3-3.7
	c-0.5-2.7-0.4-2.8-3.3-2.9c1.7-1.4,3.4-2.8,5.2-4.3c-0.4-0.3-0.7-0.6-1-0.9c0.7-0.5,1.3-0.9,2-1.4c-0.5-0.6-0.9-1.1-1.4-1.7
	C150.8,328.4,151.4,328.1,151.9,327.8z M153.3,296.3c2.7-0.3,5-0.4,7.2-1c3.6-0.9,6.8-3,10.7-3.3c0.6,0,1.7-1.9,1.6-2.8
	c-0.2-1.7-1.6-0.7-2.5-0.4c-6,1.9-12.1,1.9-17.9,0c-3.9-1.3-7.6-1.4-11.4-0.8c-0.4,0.1-1.2,0.9-1.1,1.2c0.6,2.2,4,4.7,6.4,4.6
	c1.8-0.1,3.3,0.5,4.7,1.5C151.7,295.8,152.7,296,153.3,296.3z M27.5,136.7c0.1,2.2-0.2,4,0.5,5.3c2,3.8,1.5,7.9,1.6,11.8
	c0.1,3.5,2.6,4.8,3.6,7.3c-1.1-2.8-0.7-5.5,0.6-8.1c0.4-0.9,1.1-1.7,1.2-2.6c0.3-2.9,0.5-5.8,0.4-8.8c-0.1-2.8-1.7-4.1-4.3-4
	c-0.4,0-0.9-0.2-1.3-0.3C29.2,137.2,28.6,137,27.5,136.7z M242.1,121c-0.5,2.1-1.4,3.7-1.2,5.1c0.5,3.6,1.2,7.3,2.6,10.6
	c1.4,3.2,1.8,6.2,1.2,9.6c-0.2,0.9,0.2,1.9,0.4,3.3c1.6-1.8,1.5-3.4,1.4-5c-0.1-1.1-0.5-2.3-0.1-3.2c0.6-1.4,0.6-2.5-0.2-3.8
	c-1.2-2-0.4-3.6,1.9-4.3c0.5-0.2,1-0.7,1.4-1.1c0.7-0.6,1.4-1.3,2.1-2c0.6-0.5,1.2-0.9,2.2-1.8c-2.5-0.9-4.8-1.2-6.6-2.3
	C245.3,125,244,123,242.1,121z M94.1,262.8c-1.2,1.6-1.8,2.7-2.7,3.6c-1.3,1.4-1.4,2.8-0.6,4.4c0.4,0.8,0.6,1.7,0.9,2.5
	c0.2,0.6,0.4,1.3,0.8,1.6c3.1,2.6,6.3,5,10.5,5.5c0.4,0,0.8-0.1,1.5-0.2C99.3,275.3,95.8,269.7,94.1,262.8z M244.1,199.9
	c2.2-2.2,2.9-6.2,1.5-9c-0.7-1.5-1.2-2.9,0.2-4.3c0.3-0.3,0.1-0.9,0.2-1.7C242.5,187,241.5,195.6,244.1,199.9z M131.8,296.8
	c0-0.2,0-0.5,0.1-0.7c-2.4-0.9-4.7-1.9-7.1-2.6c-0.6-0.2-2,0.4-2.1,0.8c-0.2,1.3-0.1,2.7,0.2,3.9c0.1,0.3,1.8,0.6,2.3,0.3
	c1.7-1.2,3.6-1.2,5.5-1.2C131,297.3,131.4,297,131.8,296.8z M61.7,253.3c0-0.9,0.2-1.4,0.1-1.8c-0.4-2.2-2.5-2.7-4.1-3.4
	c-0.5-0.2-1.9,0.7-2.4,1.5c-1,1.3-1.7,2.7-2.4,4.2c-0.1,0.3,0.1,0.7,0.1,0.9c1.4-1,2.6-1.9,3.9-2.8C58.8,250.4,60,252.2,61.7,253.3z
	 M129.2,368.9c2-0.8,3.3-2.2,3.5-4.4c0.6,0.1,1.1,0.1,1.6,0.2c0.5-1.8,3.6-4,5.8-4.1c0.5,0,1.1-0.4,1.6-0.7c0.1-0.1,0.1-0.8,0-0.8
	c-0.6-0.1-1.3-0.5-1.8-0.3c-2.5,1.1-4.9,2.4-7.3,3.7c-0.2,0.1-0.2,0.3-0.3,0.5C131.2,365,130.2,366.9,129.2,368.9z M135.7,342.7
	c-1.2,0.2-2.3,0.4-3.5,0.6c0,0.2,0,0.4,0,0.6c1.2,0.8,2.6,1.4,3.6,2.4c1.8,1.8,2,1.8,3.4-0.5c-0.9-0.8-1.9-1.6-2.5-2.2
	c0.3-1,0.5-1.7,0.5-2.3c0-0.1-0.8-0.2-1.4-0.4C135.8,341.7,135.7,342.2,135.7,342.7z M155.3,328.8c-2.9,1.7-3.4,2.7-2.2,4.1
	c1.2,1.5,0.8,2.8-0.4,3.7c-1.4,1.1-0.9,2-0.2,3.2C156,336.7,155,332.8,155.3,328.8z M258.5,221.6c-0.7,0.8-1.4,1.5-1.9,2.3
	c-0.4,0.7-0.8,1.9,0.4,2c1.2,0.1,2.5-0.3,3.7,0.2c0-0.6,0.3-1.4,0.1-1.9C260.3,223.4,259.5,222.7,258.5,221.6z M225.9,126.8
	c-0.3,1.7-0.9,2.9-0.6,3.8c0.4,1.2,3.9,0.8,4.8-0.6C228.8,129.1,227.6,128.1,225.9,126.8z M251.3,120.8c-0.6,1.1-1.1,2-1.7,3.2
	c1.1,0.5,2.1,0.9,3.7,1.6C253,123.4,253.3,121.7,251.3,120.8z M241,274.4c2.3,0.4,2.3-1.3,2.9-2.7c-1.5-0.8-2.8-1.3-3.9,0.3
	C240.3,272.8,240.6,273.6,241,274.4z M50.6,183.8c-0.8,1-1.8,1.9-1.6,2.3c0.3,0.8,1.2,1.7,1.9,1.7c0.5,0.1,1.8-1.1,1.7-1.6
	C52.5,185.5,51.5,184.9,50.6,183.8z M37.5,212.5c-0.8,1-1.7,1.8-1.6,2.2c0.2,0.6,1.1,1.5,1.7,1.5c0.7,0,1.3-0.9,2-1.4
	C39.1,214.2,38.5,213.5,37.5,212.5z M145.8,348.3c-0.8-2.4-1.3-2.5-4.4-1.9C141.2,348.5,141.6,348.7,145.8,348.3z M28.3,176.6
	c-0.2,1.5-0.9,2.9,0.5,3.8c0.4,0.3,2-0.4,2.1-0.8C31.1,178.1,30.2,177.1,28.3,176.6z M88.6,259.3c-0.7,1-1.6,1.7-1.5,2.1
	c0.2,0.7,1.1,1.2,1.6,1.7c0.6-0.6,1.4-1.1,1.6-1.8C90.4,260.9,89.4,260.3,88.6,259.3z M51.9,130.2c-1.2-0.7-1.9-1.3-2.7-1.4
	c-0.3-0.1-1.2,1.1-1.1,1.3c0.4,0.7,1,1.4,1.6,1.7C50.1,131.9,50.8,131,51.9,130.2z M32.9,132.9c-1-0.8-1.6-1.7-2.2-1.7
	c-0.5,0-1.2,0.9-1.4,1.6c-0.1,0.3,0.7,1.3,1.1,1.3C31.1,134,31.8,133.5,32.9,132.9z M59.5,255.3c-0.9-1-1.6-2.3-2.9-1.1
	c-0.4,0.4-0.3,1.9,0.1,2.3C58,257.6,58.6,256.2,59.5,255.3z M51,246c-2,1.3-3.6,2.3-5.2,3.2C47.3,250,51,248.3,51,246z M225.7,201.4
	c0.1,0.2,0.2,0.4,0.3,0.6c0.9-0.3,1.8-0.6,2.7-0.9c-0.3-0.7-0.5-2.1-0.9-2.1C225.8,198.5,227.2,201.1,225.7,201.4z M64.9,223.8
	c-1.1-0.8-1.6-1.5-2.2-1.5c-0.5,0-1,0.8-1.5,1.3c0.5,0.4,0.9,1.2,1.4,1.2C63.1,225,63.7,224.4,64.9,223.8z M136.8,356.4
	c0.1-0.1,0.3-0.2,0.4-0.3c0-1.1,0-2.1,0-3.2c-0.2-0.1-0.4-0.2-0.6-0.3c-0.4,0.7-1.2,1.4-1.2,2.1
	C135.4,355.2,136.3,355.8,136.8,356.4z M150.6,310.4c-0.3,0-0.7,0.1-1,0.1c0.2,1.3,0.4,2.6,0.6,4c0.3,0,0.6-0.1,0.9-0.1
	C150.9,313.1,150.8,311.8,150.6,310.4z M150.1,356.3c0.3-0.1,0.6-0.1,0.9-0.2c0-0.9,0.1-1.7,0-2.6c0-0.3-0.5-0.6-0.8-0.6
	c-0.1,0-0.6,0.4-0.6,0.6C149.7,354.5,149.9,355.4,150.1,356.3z M154.9,366.8c0.2,0,0.5,0,0.7-0.1c-0.1-1-0.2-2-0.3-3.1
	C153.4,364.7,153.4,365.4,154.9,366.8z"/>
<path d="M142.7,262.5c-0.4-0.2-0.6-0.2-0.6-0.3c-0.3-2.8-2.6-4.4-4.3-5.9c-2.1-1.9-5-2.9-7.4-4.4c-5.2-3.3-11.1-2.7-16.9-3.3
	c-2.7-0.3-5.4-0.5-8.1-0.8c-7.1-0.7-14.2-1.2-21.3-2.1c-2.1-0.3-4.4-1.2-5.7-3.3c-0.1-0.2-0.3-0.3-0.4-0.4c-5.2-2.8-5.8-8-6.4-12.9
	c-0.5-3.9-0.4-7.9-0.4-11.8c0-2.6,0.3-5.1,0.3-7.7c0.1-5.1,0-10.3,0-15.4c0-6.5,0-13,0-19.5c0-4.7-0.3-9.5-0.3-14.2
	c0-2.7,0.3-5.5,0.3-8.2c0-3.2-0.3-6.4-0.3-9.6c0.1-12,0.2-24.1,0.3-36.1c0.1-10.8,0-21.6,0-32.4c0-2.4,0.7-3.1,3.1-3.1
	c15.5,0,31,0,46.6,0c9.9,0,19.9,0.3,29.8,0.3c19.5,0,38.9-0.2,58.4-0.3c3.6,0,4,0.5,4,4c0,32,0,64.1,0,96.1
	c0,19.3,0.1,38.6-0.1,57.9c0,3-1,6-1.9,8.8c-0.4,1.3-1.6,2.4-2.7,3.3c-1.5,1.3-3.3,2.2-4.9,3.3c-3.3,2.2-7.3,2.1-11,2.6
	c-6.4,0.8-12.9,1.1-19.4,1.6c-3.4,0.3-6.9,0.6-10.3,0.8c-3.3,0.2-6.2,1.4-9.1,2.9c-1.8,0.9-3.6,1.6-5.4,2.4c-0.4,0.2-0.8,0.6-1.1,1
	c-0.7,0.8-1.2,1.7-2,2.3c-1.2,0.9-2.2,1.9-2.4,3.5C143.3,261.9,143,262.2,142.7,262.5z M127.1,108.3c0,11.3,0,22.5,0,33.8
	c0,2.5-0.7,3.2-3.1,3.2c-15.7,0-31.4,0-47.2,0c-3.3,0-3.2,0-3.2,3.1c0,3.6,0,7.2,0,10.8c-0.1,4.6-0.2,9.3-0.3,13.9
	c-0.1,2.6,0.8,3.3,3.4,2.9c0.4-0.1,0.9,0,1.4,0c14,0,27.9,0,41.9,0c1.2,0,2.5,0.4,3.7,0.3c3.2-0.5,3.5-0.3,3.5,3
	c0,12.4,0,24.8,0,37.2c0,5.6,0,11.1,0,16.7c0,4.3,0,8.5,0,12.8c0,2.5,0.7,3.5,3.2,3.9c0.5,0.1,1.1,0.3,1.6,0.6
	c3.4,1.9,6.9,3.5,9.2,6.9c0.8,1.2,1.8,0.9,2.8,0.1c2.3-1.9,4.6-3.8,7.1-5.5c1.3-0.9,3-1.5,4.6-2c2-0.6,3.2-2.4,2.8-4.5
	c-0.2-0.9-0.3-1.8-0.3-2.7c0-19.8,0-39.7,0-59.5c0-1.7,0-3.3,0-5c0-1.2,0.5-2.1,1.7-2.2c1.5-0.1,2.9,0,4.4,0c14.1,0,28.3,0,42.4,0
	c0.8,0,1.7,0.1,2.5,0.3c1.8,0.3,2.8-0.5,2.8-2.3c0-8.9,0-17.8,0-26.7c0-1.5-0.3-2.8-2.4-2c-0.5,0.2-1.2,0-1.8,0
	c-15.4,0-30.8,0-46.2,0c-3,0-3.5-0.5-3.5-3.5c0-22.3,0-44.5,0.1-66.8c0-1.9-0.6-2.4-2.5-2.4c-8.7,0.1-17.4,0.1-26.1,0
	c-2.1,0-2.5,0.7-2.5,2.6C127.1,86.1,127.1,97.2,127.1,108.3z"/>
<path d="M141.4,56.6c-6-1.4-11.9-2-18-1c-3.1,0.5-6.1,1.2-9.6,1.9c1.9,0.3,3.5,0.6,5.2,0.9c0,0.2,0,0.3,0.1,0.5
	c-1.3,0.3-2.5,0.5-3.8,0.8c-2.7,0.6-5.5,1.4-8.2,1.9c-3.2,0.6-6.5,0.8-9.7,1.5c-2.5,0.5-4.9,1.3-7.3,2.3c-1.6,0.6-2.9,0.3-3.1-1.5
	c-0.1-1.8-1.1-3-2.2-4.3c-1-1.2-1.3-3.1-1.7-4.8c-0.4-1.9-0.6-3.9-0.8-5.9c0-0.6,0.4-1.3,0.7-1.9c0.6-1.1,1.3-2.1-0.1-3.2
	c-0.4-0.3-0.5-1.2-0.7-1.8c-0.7-1.5-1.7-2.3-3.5-2.2c-3.9,0.1-7.8-3.9-7.8-7.8c0-0.3,0-0.5,0-0.8c0.1-3.5-0.2-3.6-3.7-3
	c-1.9,0.3-4.2,1-5.7-0.9c-2-2.5-2-5.6-0.3-8c2.5-3.6,2.9-3.6,7.2-2.5c0.8,0.2,1.8-0.2,2.5-0.6c1.4-0.8,2.4-1.2,3.7,0.2
	c0.6,0.7,2,0.9,3,0.9c4.3,0,5.5,1,6.2,5.1c0.1,0.5,0.9,1.1,1.4,1.1c1.1,0.2,2.3-0.2,3.3,0.1c1,0.3,2.4,0.9,2.7,1.7
	c0.8,2.1,0.8,4.5-0.6,6.5c-0.4,0.6-1.4,0.8-2.1,1.2c-0.5,0.3-1.4,0.7-1.4,1.1c-0.1,0.6,0.3,1.5,0.8,1.9c2.1,1.4,4.3,2.5,6.4,3.8
	c0.9,0.6,1.7,1.4,2.6,1.8c0.6,0.3,1.4,0.1,2.4,0.1c-0.4-0.6-0.6-1-0.9-1.5c3.8-1.6,8.6-2.1,9.1-7.8c-3.6,0.3-3.6,0.2-5.4-3
	c-0.6-1.1-1.7-1.8-2.2-2.9c-0.4-0.9-0.5-2.2-0.4-3.2c0.2-1.8,0.7-3.6,1.2-5.3c0.2-0.6,0.6-1.1,0.8-1.7c0.3-1,0.4-2,0.8-3
	c0.3-0.9,0.8-1.7,1.3-2.5c0.5-0.8,1.3-1.4,1.6-2.3c0.7-2.2,2.5-3.8,4.5-3.2c1.4,0.4,2.5,1.7,3.7,2.7c0.6,0.5,1.2,1.3,1.9,1.5
	c1.2,0.4,1.9,1.1,2.3,2.4c0.3,1.1,1,2,1.6,3c0.4,0.7,0.8,1.4,1.3,2.1c0.5,0.7,1,1.5,1.7,2.1c1.4,1.2,1.7,3.2,0.6,4.7
	c-0.5,0.8-1.1,1.6-1.3,2.5c-0.6,3.3-0.7,3.5-4,4.3c0,0.7,0.1,1.5,0.1,2c1.4,0.8,3.1,1.3,3.9,2.4c1.4,1.9,3.2,1.6,5.1,1.7
	c3.7,0.2,6.1-2.4,8.1-4.7c1.4-1.6,1.3-4.3,0.4-6.5c-0.1-0.3-1.1-0.6-1.5-0.5c-2.5,0.7-4.3,0.2-5.8-1.9c-0.3-0.4-0.6-1.2-0.4-1.6
	c1-1.7,1.8-3.5,3.2-4.7c0.9-0.8,1.4-1.5,0.9-2.1c-1.5-2.3,0.2-3.9,1-5.7c0.5-1.1,1.8-1.9,2.8-2.9c0.4-0.4,0.8-0.9,1-1.4
	c1.2-2.3,3.8-4.8,6.8-4.7c2.2,0.1,3.1,1.6,4.2,2.5c2.1,1.9,3.8,4.3,5.3,6.7c0.9,1.4,1.1,3.2,1.3,4.9c0.1,1.2,0.4,2.1,1.2,3.1
	c1.9,2.2,2.8,4,1.2,6.2c-1.2,1.7-2.7,2.4-4.8,1.6c-2.2-0.8-2-0.8-2.3,1.6c-0.4,2.7,1,4.8,2.2,6.8c0.3,0.5,1,0.8,1.6,1.1
	c0.5,0.3,1.1,0.4,1.6,0.7c3.9,2.4,6.6,2.1,9.9-1.1c1-0.9,2.2-1.5,3.4-2.3c-0.3-1-0.9-1.8-2.4-1.9c-1.6-0.1-1.9-1.6-2.2-2.9
	c-0.3-1.1-0.8-2.2-1.5-3.1c-1-1.3-1.1-3.3,0.4-4.3c1.4-1,2.6-1.8,2.5-3.8c0-0.5,0.8-1.4,1.3-1.4c1.7-0.2,2.1-1.2,2.2-2.6
	c0.1-1.4,2.6-3.4,3.9-2.9c0.6,0.2,1,1.1,1.5,1.7c-0.5,0.3-1,0.9-1.5,1c-1.4,0.1-3-0.1-2.1,2.3c0.2,0.5-0.7,1.9-1.2,1.9
	c-1.9,0.3-2.3,1.3-2.2,3c0,0.5-0.3,1.1-0.4,1.5c-0.8,0.5-2,0.8-2.1,1.3c-0.2,0.6,0.8,1.4,1,2.2c0.2,0.8,0.3,1.7,0.3,2.5
	c0.1,0.5,0,1.5,0.1,1.5c0.7,0.2,1.6,0.3,2.2,0c0.4-0.1,0.8-1.2,0.7-1.6c-1.3-3.1-0.1-6,1-8.7c1.2-3,4.4-4.3,7-2.8
	c1.2,0.7,2.3,2.1,3,3.4c1.4,3,1.2,5.9-1,8.6c-0.8,1-1.1,2,0.1,3.1c1.2,1,2.2,0.3,2.2-0.6c-0.1-2.3,1.4-3,2.9-3.9
	c0.4-0.2,0.7-0.6,1.1-1c1.2,1.1,1.1,2.2,0.1,3.4c-0.9,1.1-1.7,2.4-2.7,3.4c-0.7,0.7-1.7,1.5-2.6,1.5c-2.3,0.1-2.4-0.1-2.8,2.1
	c1.8,1.2,3.6,2.5,5.5,3.6c0.9,0.6,1.9,1.1,2.9,1.4c0.8,0.3,1.8,0.1,1.5,1.5c0,0.1,0.7,0.5,1.1,0.5c1.1,0.1,2.2,0,3.6,0
	c-0.5-0.6-0.8-0.9-0.9-1c2.9-2.1,5.8-4.1,9.1-6.4c-1.2-0.6-1.8-1.3-2.2-1.2c-2.4,0.4-2.6-1.3-3.1-2.8c-0.5-1.5-0.5-2.7,0-4.3
	c0.8-2.6,2.4-2.5,4.2-2.3c1.6,0.2,2.4-0.4,3-2c0.4-1.2,1.1-2.4,1.9-3.3c0.6-0.6,1.8-1,2.7-1.1c2-0.2,4.1,0.5,5.8-1.5
	c0.6-0.7,1.9-0.7,2.7,0.3c0.8,1,1.7,0.9,2.8,0.4c2.9-1.3,5.9,0.5,7.3,3.4c1.3,2.6,1.1,4.7-0.2,6.9c-0.4,0.7-1.5,1.4-2.4,1.4
	c-1.9,0.1-3.7-0.3-5.6-0.3c-2.3,0-2.8,0.6-2.2,2.8c0.8,3.4-2.9,9-7.2,8.9c-1.1,0-2.9,0.1-3.2,0.7c-0.9,1.9-2.4,3.9-1.6,6.3
	c0.3,1,0.1,2.1,0.1,3.1c0,0.7-0.4,1.5-0.2,2.1c1.3,2.9,0,5-1.6,7.2c-0.8,1.1-1,2.6-1.7,3.8c-0.6,1.1-1.4,2-2,2.9
	c-1.9-0.7-3.5-1.4-5.2-1.8c-2.1-0.5-4.3-0.8-6.4-1.1c-0.6-0.1-1.2,0.1-1.8-0.1c-3.3-0.9-6.6-1.9-10-2.7c-1.7-0.4-3.4-0.4-5.2-0.7
	c-0.7-0.1-1.3-0.4-2-0.6c0-0.2,0-0.3,0-0.5c1.7-0.3,3.5-0.5,5.2-0.8c0-0.1,0-0.2,0-0.3c-3-0.6-6-1.4-9-1.7c-3.1-0.4-6.3-0.6-9.5-0.5
	c-3.2,0.1-6.4,0.6-10,0.9c3.2,0.6,5.8,1.1,8.6,0.5c2.1-0.4,4.5,0.2,6.7,0.4c1,0.1,2.1,0.3,3.5,0.4c-1.6,1.2-36.8,1.3-38.9,0.4
	c3-1.6,6.2-0.9,9.2-1.1C135.3,56.5,138.4,56.6,141.4,56.6z M100,58.2c-0.4,0.4-0.7,1.1-1.1,1.2c-2.1,0.6-3.8,2.5-6.3,2.1
	c-0.7-0.1-1.6,0.4-2.4,0.7c5.3,0.6,12.1-1.5,12.8-3.8C102,58.4,101,58.3,100,58.2c-0.8-0.5-1.5-1-2.3-1.5c-1.2-0.8-2.8-1.2-1.9-3.4
	c0.4-1.1,0.1-2.5,0.1-4.2c-1.3,0.3-2.9,0.5-4.3,1.1c-0.4,0.1-0.6,1.8-0.5,1.9c1.4,0.8,0.9,2,0.9,3.2c0.1,1.1,0,2.2,0,3.4
	C94.8,57.4,97.4,57.9,100,58.2z M190.7,61.9c1.3,0.3,2.6,0.7,3.9,1c0-0.3,0.1-0.7,0.1-1C193.4,61.9,192,61.9,190.7,61.9
	c-0.7-0.5-1.3-1.2-2-1.5c-1.3-0.5-2.6-0.7-4.3-1.1c0.7-0.5,1-0.9,1.3-0.9c2-0.1,4-0.3,5.9-0.1c1.3,0.1,1.9-0.2,1.6-1.5
	c-0.3-1.3-0.3-2.5,0.8-3.6c0.9-1,0.5-2.9-0.7-3.2c-1.5-0.4-3.2-0.5-5.1-0.8c0.4,0.5,0.5,0.7,0.7,0.9c2.6,1.8,2.5,4.6-0.2,5.9
	c-2.5,1.2-5.1,2.2-7.9,3.3C184.2,60.3,187.1,62.4,190.7,61.9z M81.5,33.2c0.3-0.2,0.5-0.3,0.8-0.5c-0.2-0.7-0.4-1.5-0.6-2.2
	c-0.2-0.6-0.7-1.5-0.5-1.8c1.2-1.2,0.6-2.7,0.7-4c0-1,0.4-2,0.2-2.8c-0.6-2.2-2.3-2.6-5.4-2.3c-0.7,0-1.5-0.1-2-0.5
	c-1.2-1.1-2.3-1.4-3.5-0.3c-1.1,1-2.1,1-3.3,0.3c-2.2-1.2-4.9-0.1-5.4,2.3c-0.3,1.3-0.1,2.7,0.3,4c0.4,1.3,1.5,1.9,2.9,1.3
	c1.3-0.6,1.9-1.5,0.8-2.9c-0.3-0.4-0.5-0.9-0.6-1.4c-0.1-0.6,0.1-1.3,0.1-1.9c0.7,0.2,1.7,0.3,2,0.7c1.1,1.4,2.7,2.5,2.3,4.7
	c-0.1,0.4,0.4,1,0.8,1.2c1.3,0.6,2.6,1.4,3.9,1.3c2.4-0.1,3.7,1,4.8,2.8C80.2,31.9,80.9,32.5,81.5,33.2z M207.4,19.5
	c-3.1-0.1-4.9,2.2-4.4,4.8c0.4,2,0.5,4.1,0.8,6.2c0.1,0.5,0.4,1,0.7,1.5c0.4-0.2,1-0.3,1.3-0.7c1.2-2,2.6-2.9,5.1-2.9
	c3.1,0,4.3-1.6,4.7-4.8c0.1-0.9,0.8-2,1.5-2.6c0.6-0.5,2.1-0.7,2.5-0.4c0.8,0.7,0.7,1.8-0.5,2.5c-0.4,0.2-0.8,1.4-0.5,1.8
	c0.4,0.8,1.7,1.9,1.9,1.8c1.4-0.8,2.7-1.9,3.8-3.1c0.3-0.4,0.1-1.8-0.4-2.4c-2.4-2.9-3.4-3.1-7.1-2c-0.9,0.3-2.1,0.8-3-0.6
	c-0.2-0.2-1.7-0.1-2,0.3c-0.8,1.1-1.6,1.3-2.8,0.8C208.3,19.6,207.6,19.5,207.4,19.5z M116.9,12.2c-1.2-0.3-2.1-0.5-3-0.6
	c-1.3-0.1-1.8-0.8-2.3-1.9c-0.5-1.1-1.7-1.9-2.6-2.8c-0.5,1-1,2-1.6,3c-0.4,0.6-0.9,1.5-1.4,1.6c-1.3,0.2-1.4,0.9-1.4,1.9
	c0,1.6,0.4,3.4-1.5,4.5c-0.3,0.2-0.5,1.2-0.3,1.6c0.6,1.6,0.4,2.8-1,3.8c-1.1,0.8-0.6,2.1,0.2,2.2c2.3,0.4,2.3,1.9,2.3,3.6
	c0,0.4,0.4,1.2,0.6,1.2c0.5,0.1,1.4-0.2,1.5-0.5c0.3-0.9,0.6-2.3,0.2-2.8c-1.8-2.1-2.4-4.3-1.6-7.1c0.6-2.1,3.6-5.7,5.8-5.9
	c2.3-0.3,3.1,1.8,4.4,3c2.6,2.5,2.5,5.9,1.8,9.2c-0.2,1.1-0.2,2,1.3,2c1.5,0,2-0.6,1.5-2.1c-0.4-1.2-1.2-2.4,1-2.9
	c1.1-0.3,0.8-2-0.5-2.3c-1.5-0.4-2-1.6-2.1-2.7c-0.1-1.3-0.4-2.2-1.7-2.7c-0.3-0.1-0.4-1.1-0.4-1.7C116,13.3,116.5,12.9,116.9,12.2z
	 M156.8,45.3c-0.8-0.7-1.2-1.4-1.7-1.5c-4.5-0.5-9.1-0.9-13.6-1.2c-3.8-0.3-7.4,0.6-11,1.4c-2.5,0.5-4.1,1.8-4.3,4.4
	c-0.1,0.5,0,1.3,0.3,1.5c0.5,0.3,1.2,0.3,1.7,0.1c0.4-0.2,0.7-0.9,0.7-1.4c0-0.6-0.3-1.2-0.4-1.9c-0.1-0.4-0.1-1.1,0.1-1.1
	c0.4-0.2,1.2-0.3,1.4-0.1c0.5,0.4,0.9,1.1,0.9,1.7c0.1,2,0.5,4.2-1.7,5.6c0.1,0.1,0.3,0.2,0.4,0.3c8.8,0,17.6,0,26.6,0
	c-1-1.6-2.1-2.8-2.4-4.2C153.4,47.3,154.2,45.9,156.8,45.3z M149.2,16.6c2,0.1,2.5-1.5,3.1-2.6c0.6-1-1.9-5.4-3.1-6
	c-1-0.5-1.6-1.1-2.1-2.2c-0.5-1.2-1.8-2.2-2.9-3c-1.6-1.1-4.7,0.5-5.4,2.2c-0.6,1.3-1.5,2.6-2.6,3.4c-3.2,2.2-3.3,6.9,0.3,9.5
	c0-1,0-1.8,0-2.6c0-2.1,0.2-3.9,1.7-5.7c2.3-2.8,6.4-3.1,8.6-0.2C148.4,11.4,149.2,13.8,149.2,16.6z M148.3,37.6
	c-0.7-1.4-1.2-2.2-1.6-2.9c-0.7-1.3-1.7-2.5-1.9-3.9c-0.3-2.1-0.1-4.3-0.1-6.5c-1.2,0-2.9,0-4.7,0c1.1,5.1-0.1,9.4-2.9,13.3
	C140.9,37.6,144.3,37.6,148.3,37.6z M162.6,41.5c0,0.1,0.1,0.2,0.1,0.2c3.8,0.7,7.5,1.4,11.3,2.1c2.3,0.4,4.7,0.8,7,1.1
	c2.1,0.3,4.2,1.6,6.4,0.2c-0.1-0.1-0.2-0.4-0.4-0.4c-3-0.7-6-1.4-9-2c-1.4-0.3-2.8-0.6-4.2-0.8c-1.4-0.2-1.4-1-1.1-2.1
	c1.3,0.1,2.4,2.2,3.6,0.5c-1.5-2.7-3-5.2-4.5-7.8c-1.6,2.4-2.2,6.1-6.4,5.9c1.2,0.6,2.4,0.8,3.5,1.1c0.7,0.2,1.4,0.7,2,1
	c-0.7,0.2-1.4,0.6-2.1,0.7C166.9,41.3,164.7,41.4,162.6,41.5z M178.1,45.8c2.6,3.6,1.4,6.7-0.5,10.1c2.1,0.4,4,0.8,5.9,1.2
	c0.2-0.1,0.5-0.3,0.7-0.4c-2.6-1.2-3.4-3.4-2.4-5.3c0.9-1.6,3.1-2.4,4.7-3.5c-1-0.1-2.1-0.4-3.3-0.4c-1-0.1-2,0.1-2.7-1.1
	C180.3,45.8,179,45.9,178.1,45.8z M119.2,38.7c0-0.2,0-0.4,0.1-0.6c-4.1-0.3-4.8-3.9-6.8-6.3c0.5,2.8-1.3,4.7-2.8,6.8
	c-0.3,0.5-0.5,1.3-0.4,1.9c0,0.2,1,0.5,1.5,0.4c2.4-0.5,4.8-1,7.2-1.6C118.5,39.3,118.8,38.9,119.2,38.7z M97.8,48
	c2.1,1.3,4.5,0.8,5.7,3.1c1.4,2.6-1.4,3.8-1.7,6.2c1.1-0.4,1.9-0.7,2.7-0.8c0.9-0.2,1.9-0.1,3.1-0.2c-0.7-1.5-1.3-2.7-1.8-3.9
	c-1.2-2.7-0.3-5.5,1.7-6.2c-2.3,0.4-4.6,1-6.9,1.5C99.8,47.8,99,47.9,97.8,48z M97.8,44.9c0,0.2,0,0.4-0.1,0.7c2,0,3.9,0.1,5.9,0
	c0.9-0.1,1.7-0.7,2.6-0.9c2.2-0.5,4.5-1,6.7-1.4c0.9-0.2,1.7-0.4,2.6-0.5c1.8-0.2,3.7-0.4,5.5-0.6c0-0.2,0-0.3,0-0.5
	c-2.8,0-5.6-0.1-8.4,0.1c-1,0.1-2,0.8-3,1.1C105.6,43.4,101.7,44.1,97.8,44.9z M202.2,33.6c0.1-0.1,0.1-0.2,0.2-0.3
	c0-1.6,0-3.2,0-4.8c0-0.2-0.2-0.5-0.4-0.7c-0.5-0.7-1-1.4-1.7-2c-0.4-0.3-1-0.5-1.5-0.5c-0.8,0.1-1.6,0.5-2.4,0.8
	c-1.6,0.5-1.8,1.8-1.3,2.9c0.4,0.9,1.6,1.9,2.5,2c1.8,0.2,1.1-1.4,1.3-2.4c0.1-0.5,0.6-0.9,0.9-1.3c0.4,0.3,1,0.6,1.1,1
	c0.3,1.1,0.2,2.3,0.5,3.4C201.5,32.5,201.9,33.1,202.2,33.6z M90.8,44c0-0.2,0.1-0.3,0.1-0.5c-3.5-1.2-6.1-3.2-7.8-6.6
	c-0.4,0.7-0.7,1.4-0.5,2c0.4,1.4,0.9,2.8,1.6,4c0.7,1,1.7,2.2,2.7,2.3C88.2,45.3,89.5,44.4,90.8,44z M193.9,43.1
	c1.2,1.7,2.7,2.2,4.1,2.2c1.2,0,2.3-0.7,2.7-2.1c0.3-1,1-1.9,1.4-3c0.3-0.9,0.4-1.9,0.6-2.9c-0.2-0.1-0.4-0.1-0.6-0.2
	C199.7,39.4,198.6,43.3,193.9,43.1z M165.1,44.5c-2.3,0.2-4.6,0.3-6.9,0.5c0,0.2-0.1,0.4-0.1,0.6c1.9,0.1,3.8,0.2,3.5,2.7
	c-0.2,1.6-0.9,3.2-1.4,5.2c0.9-0.1,1.8,0,2.6-0.3c0.2-0.1,0.2-1.3,0-1.9C162.4,48.8,163.4,45.9,165.1,44.5z M87.2,24.9
	c-1.1,0.6-1.7,1-2.4,1.4c0.4,0.5,0.8,1,1.1,1.5c0.2,0.4,0.2,1,0.4,1.4c0.3,0.6,0.6,1.5,1.1,1.8c0.4,0.2,1.2-0.4,1.8-0.7
	c1.3-0.9,1.2-2.2,0.5-3.2C89.1,26.3,88.1,25.7,87.2,24.9z M152.2,23c0.1,0.2,0.2,0.4,0.3,0.5c0.9-0.3,2.2-0.4,2.6-1
	c0.4-0.6,0.2-2-0.3-2.7c-1.2-1.5-5.5-0.7-6.3,1.1c-0.2,0.5-0.2,1.2-0.2,1.4c0.8-0.6,1.7-1.3,2.6-1.9c0.5-0.3,1.1-0.3,1.6-0.4
	c0,0.6,0.1,1.3,0,1.9C152.6,22.4,152.3,22.7,152.2,23z M190.8,45.9c0.5,0.7,0.6,0.9,0.7,0.9c2.6,0.9,5.2,1.8,7.8,2.6
	c1.5,0.5,1.2-0.6,1.2-1.2c-1.5-0.6-2.9-1-4.1-1.8C194.6,45.3,193,45.9,190.8,45.9z M84.4,49.2c3.6,0.1,6.5-1.8,9.8-2.8
	C91.3,45.2,85.4,46.8,84.4,49.2z M132.3,20.4c1.1-0.2,1.8-0.3,2.9-0.4c-1.4-1.2-2.6-1.9-3.7-0.8c-0.8,0.8-1,2.2-1.5,3.3
	c1,0.4,2.1,0.7,3.4,1.2C133,22.2,132.7,21.4,132.3,20.4z M187.2,50.6c-1,0.3-2.1,0.6-3.1,0.9c0.3,1,0.6,2,1.1,2.9
	c0.1,0.2,1.3,0,1.8-0.3C188.6,53.3,187.8,52.1,187.2,50.6z M156.9,46.2c-0.8,1.3-1.4,2.7-0.1,3.6c0.5,0.4,2.5,0,2.7-0.5
	C160.3,47.2,158.6,46.7,156.9,46.2z M97.7,51.8c-0.3,2,0.7,2.6,1.8,2.5c0.6,0,1.6-1.1,1.5-1.5c-0.2-0.7-0.9-1.6-1.7-1.8
	C98.8,50.8,98,51.6,97.7,51.8z M125.5,44.9c-1.3-1.3-2.7-0.1-4,0c0.3,1.5,0.6,2.7,0.8,3.6C123.2,47.3,124.3,46.1,125.5,44.9z
	 M122.5,53.2c1.1,0,2.1,0,3.1,0c0-0.2,0.1-0.3,0.1-0.5c-0.9-0.8-1.8-1.6-2.7-2.5c-0.1,0.1-0.3,0.2-0.4,0.3
	C122.5,51.4,122.5,52.1,122.5,53.2z M137.9,25.2c1.4-2.7-1.8-2.8-2-4.5c-0.2,0.1-0.4,0.2-0.5,0.3C136.2,22.3,137,23.7,137.9,25.2z
	 M148.3,33.1c0.7,1,1.3,2.1,2,3.1C151,34.9,150.8,34.4,148.3,33.1z M138,29.3c-0.2,0-0.4,0.1-0.6,0.1c-0.2,0.9-0.3,1.7-0.5,2.9
	c0.6-0.1,1.4-0.2,1.4-0.3C138.3,31.2,138.1,30.3,138,29.3z"/>
<path d="M381.2,186.1c5.1,0,10,0,14.8,0c0.5,0,1.3,0.6,1.4,1.1c2.1,6.6,4,13.2,6.1,19.8c2.4,7.6,4.9,15.1,7.3,22.7
	c0.5,1.6,1,3.3,1.5,5.3c0.6-0.6,1-0.9,1.2-1.3c2.8-9,5.6-18,8.4-26.9c2-6.4,4.2-12.8,6.2-19.2c0.4-1.4,1.1-1.6,2.5-1.6
	c4,0.1,8.1-0.2,12.1-0.3c1.2,0,1.9,0.5,1.5,1.8c-1.9,5.5-3.9,11-5.7,16.5c-2.2,6.7-4.2,13.4-6.4,20.1c-1.4,4.4-3.1,8.7-4.5,13.1
	c-1.8,5.5-3.6,11-5.3,16.5c-0.5,1.7-1.3,2.8-3.4,2.7c-4.1-0.2-8.1,0-12.2,0c-2.8,0-3.3-0.6-4-3.3c-0.9-3.4-2.1-6.7-3.1-10.1
	c-1.4-4.6-2.9-9.3-4.3-13.9c-0.9-2.9-2.1-5.8-3-8.7c-1.1-3.4-2.1-6.9-3.2-10.3c-1.8-5.6-3.7-11.2-5.5-16.8
	C382.6,191.1,381.9,188.7,381.2,186.1z"/>
<path d="M741.4,256.4c-4.2,0-8.1,0-12.1,0c-1.6,0-2.1-1.3-2.5-2.6c-0.2-0.6-0.3-1.1-0.5-2.2c-2.7,2.9-5.8,4.6-9.3,5.3
	c-4.9,0.9-9.9,1.3-14.6-0.2c-9.3-2.9-11.9-12.6-9.1-19.8c2.3-5.9,7.1-7.9,12.6-9.2c5.5-1.3,11.2-0.9,16.6-2.7
	c2.6-0.8,4.1-3.7,3.6-6.2c-0.9-4.2-4-4.9-7.5-5.2c-2.6-0.2-5.1,0-7.5,1.5c-1.6,1-2.5,2.4-2.8,4.2c-0.2,1.6-1,2.2-2.6,2.2
	c-3,0-6,0-9,0c-2.9,0-3.1-0.5-2.5-3.1c2-8.3,8-11.9,15.8-13.3c6.5-1.2,13-1.3,19.4,0.5c3.8,1.1,6.9,3.2,9.1,6.5
	c0.9,1.4,1.5,3.3,1.5,5c0.1,9.8,0,19.5,0.1,29.3c0,2.7,0.7,5.4,1,8C741.4,254.9,741.4,255.6,741.4,256.4z M714.8,248.9
	c6-0.2,10.1-3.5,11.1-8.8c0.4-2.3,0.5-4.7,0.5-7c0-1-0.7-1.1-1.7-0.8c-2.5,0.7-5,1.1-7.5,1.7c-2.7,0.7-5.6,1.2-8,2.6
	c-4.2,2.4-3.7,8.9,0.7,10.9C711.5,248.2,713.2,248.5,714.8,248.9z"/>
<path d="M558.8,234.4c-5.4,0-10.7,0-16.1,0c-2.1,0-2.5,0.4-2.1,2.4c1.5,8.6,8,11.9,15.9,9.8c3-0.8,5.5-2.1,7-5
	c0.3-0.5,1.1-0.9,1.8-0.9c3.1-0.2,6.2-0.3,9.4-0.3c1.2,0,1.6,1.1,1.2,2.1c-3,6.8-7.4,12.1-14.9,14.1c-4.4,1.1-9.1,1.3-13.7,0.6
	c-5.7-0.8-10.4-3.3-14.3-7.5c-3.1-3.4-4.9-7.5-5.8-12c-2-10.6,0-20.1,8.3-27.6c3.4-3.1,7.5-4.8,12-5.6c6.1-1.1,12.1-0.5,17.3,2.6
	c5.2,3.1,8.8,7.8,10.7,13.7c1.2,3.8,1.3,7.6,1.6,11.5c0.1,1.6-0.5,2.1-2.2,2.1C569.6,234.4,564.2,234.4,558.8,234.4z M551.6,225.4
	C551.6,225.4,551.6,225.4,551.6,225.4c2.7,0,5.4,0,8,0c4.2,0,3.7-0.1,2.5-3.6c-2.7-7.7-9.1-8.1-15.3-5.9c-3.1,1.1-4.8,3.6-5.7,6.8
	c-0.7,2.5-0.7,2.7,1.9,2.7C545.8,225.4,548.7,225.4,551.6,225.4z"/>
<path d="M599.2,211.8c0.4-0.3,0.8-0.6,1.1-1c3-3.8,7-5.6,11.8-6.3c3.9-0.6,7.7-0.3,11.3,1c3.7,1.4,6.8,4.2,7.9,8.2
	c1,3.7,1.9,7.6,2,11.4c0.3,9.6,0,19.3,0.1,28.9c0,2-0.8,2.5-2.6,2.5c-3.2,0-6.4-0.1-9.6,0c-1.8,0.1-2.4-0.6-2.4-2.4
	c0.1-10,0.2-20,0-30.1c-0.2-7.5-6-10.4-12.4-8.3c-3.4,1.1-5.2,3.6-6.2,7.3c-1.4,4.9-0.8,9.7-0.9,14.5c-0.2,5.6-0.1,11.1,0,16.7
	c0,1.8-0.5,2.3-2.3,2.2c-3.1-0.1-6.3-0.1-9.4,0c-1.7,0.1-2.2-0.6-2.1-2.2c0-4.8,0-9.7,0-14.5c0-10.7,0-21.5,0-32.2
	c0-1.7,0.4-2.3,2.2-2.3c3.1,0.1,6.3,0.1,9.4,0c1.4,0,1.9,0.4,1.8,1.8c-0.1,1.4,0,2.9,0,4.3C598.9,211.5,599.1,211.7,599.2,211.8z"/>
<path d="M659,245.8c6.1,0,11.7,0,17.4,0c1.9,0,3.8,0.3,5.6,0.3c1.2,0,2.3-0.2,3.5-0.3c1.1-0.1,2,0.3,2,1.5c0.1,2.5,0.1,5-0.1,7.5
	c0,0.6-1.2,1.5-1.8,1.5c-14.5,0.1-28.9,0.1-43.4,0c-0.6,0-1.8-1-1.8-1.5c-0.1-2.9,0.1-5.8,0.3-8.6c0.1-0.7,0.5-1.4,1-2
	c5.2-5.9,10.5-11.8,15.8-17.8c2.5-2.8,5.1-5.6,7.6-8.4c0.4-0.4,0.5-1.1,0.7-1.6c-0.6-0.1-1.2-0.4-1.8-0.4c-1.8,0-3.5,0.2-5.2,0.2
	c-4.6,0-9.2,0-13.7,0c-2.4,0-2.7-0.4-2.7-2.7c0-2.2,0-4.5,0-6.7c0-1.2,0.4-1.6,1.6-1.6c13.2,0,26.4,0,39.7,0c1.2,0,1.7,0.4,1.6,1.6
	c-0.1,2.7,0.3,5.5-0.1,8.2c-0.2,1.6-1.4,3.1-2.5,4.4c-5.1,5.8-10.4,11.5-15.6,17.2C664.4,239.6,661.9,242.6,659,245.8z"/>
<path d="M496.6,203.8c7,0.3,13.5,2,18.6,6.8c3.2,3,5.7,6.9,5.3,11.8c0,0.5-0.9,1.3-1.4,1.3c-3.2,0.1-6.5,0-9.7,0.1
	c-1.5,0-2.3-0.5-2.6-1.9c-0.6-2.2-1.7-4.1-3.7-5.5c-2.4-1.7-5.2-2-8-1.5c-6,1-8.1,5.5-9.6,10.7c-1.3,4.6-0.6,9.1,0.6,13.4
	c1.7,5.9,8.1,10.1,14.4,7.6c4.1-1.6,5.8-4.3,6.7-8.2c0.3-1.3,1.3-1.6,2.3-1.6c2.3,0,4.5,0.2,6.8,0.3c1,0,1.9-0.2,2.9-0.3
	c1.4-0.1,1.8,0.6,1.6,1.9c-0.5,4.3-2.4,8-5.1,11.3c-2.4,2.9-5.5,5.2-9.3,6.1c-2.5,0.6-5.1,1.2-7.7,1.7c-1.3,0.2-2.7,0-4-0.1
	c-7.2-0.4-13.4-3-17.9-8.6c-3.2-3.9-5.5-8.4-5.4-13.7c0-2.2,0.1-4.3,0-6.5c-0.3-5,1.6-9.3,4.1-13.5c2.8-4.7,7-7.8,12-9.6
	C490.3,204.7,493.5,204.4,496.6,203.8z"/>
<path d="M447.4,120.4c0.1,0.4,0.5,1.2,0.3,1.9c-1.5,7.5-4.2,14.5-10.2,19.7c-4,3.4-8.7,5.2-13.9,6.1c-6.1,1-11.9,0.2-17.5-1.8
	c-3.3-1.2-6.2-3.5-9.1-5.7c-4.6-3.4-7.4-8.3-9.1-13.5c-2.3-7.4-3.5-14.9-1.7-22.8c1.3-5.7,3-10.9,6-15.7c3.8-6,9.5-9.8,16.2-11.8
	c4-1.2,8.3-1.9,12.5-1.4c10,1.4,18.7,5.2,23.5,14.8c1.2,2.4,1.7,5.1,2.6,8c-2.4,0-4.1,0.2-5.8-0.1c-0.7-0.1-1.5-1-1.8-1.8
	c-1.9-6.7-6.3-11.3-12.7-13.6c-5.4-2-10.9-2-16.5-0.2c-6.4,2.1-11,6.1-13.9,11.9c-1.5,3-2.8,6.1-3.4,9.3c-0.7,3.3-0.7,6.7-0.5,10.1
	c0.2,3.4,0.6,6.8,1.5,10.1c2.2,7.7,6.7,13.9,14.3,17c5.2,2.1,10.5,2.9,16.2,1.1c8-2.5,12.8-7.8,15.1-15.5c0.4-1.5,0.7-3,1.1-4.5
	c0.3-1.1,0.9-1.7,2.2-1.6C444.3,120.4,445.7,120.4,447.4,120.4z"/>
<path d="M649.8,104.2c0-3.5,0-6.9,0-10.4c0-4.6,0-9.3,0-13.9c0-3,0.9-3.7,4-3.3c1.8,0.2,2.4,0.9,2.4,2.8c-0.1,21.7,0,43.4-0.1,65
	c0,0.8-0.4,2.2-0.8,2.3c-1.4,0.2-2.9,0.1-4.3-0.1c-0.3-0.1-0.5-1.3-0.5-2c0-1.8,0.1-3.5,0.1-5.3c0-0.4-0.3-0.7-0.4-0.9
	c-1.8,1.9-3.4,3.9-5.2,5.6c-2.9,2.7-6.6,3.9-10.4,4.3c-5.4,0.5-10.5-0.3-15.1-3.7c-5.5-4-8.4-9.4-9.3-16c-0.2-1.7-0.7-3.3-0.7-5
	c0-2.2,0.1-4.5,0.4-6.7c0.5-4,1.2-8,3.3-11.4c3.3-5.2,7.7-9.1,14.1-10.3c6.4-1.2,12.4-0.1,17.7,3.7c1.4,1,2.3,2.8,3.4,4.2
	c0.4,0.5,0.7,0.9,1.1,1.4C649.5,104.4,649.7,104.3,649.8,104.2z M649.9,122.2c-0.1-1.8,0-4.2-0.6-6.3c-0.8-3.1-1.9-6.1-3.4-8.9
	c-2.3-4.2-6.5-6.1-11.1-6.9c-4-0.7-8,0.1-11.1,2.4c-4.9,3.6-7.4,8.8-7.7,14.9c-0.1,3.1-0.1,6.2,0,9.3c0.1,3.7,1.7,6.9,3.5,9.9
	c2.3,3.7,5.7,6,10.1,6.5c5.2,0.6,10.1-0.1,14-4C648,134.5,649.9,129,649.9,122.2z"/>
<path d="M532.6,111.8c0.3-5.4,2.1-9.7,6.2-12.9c3.6-2.9,7.9-3.8,12.4-4c4.4-0.1,8.7,0,12.7,1.9c4.6,2.2,7.3,6,7.6,10.9
	c0.5,7.4,0.4,14.7,0.5,22.1c0,2.8,0,5.5,0,8.3c0,2.7,0.8,3.5,3.4,3.6c0.9,0,2.2-0.4,2.1,1.3c-0.1,1.5,0.7,3.6-1.8,3.8
	c-2.1,0.1-4.4,0-6.4-0.6c-2.4-0.7-2.7-3.2-3.2-5.4c-0.2-0.6-0.3-1.3-0.6-2.3c-1,1.4-1.8,2.3-2.5,3.3c-2.4,3.4-5.7,5.2-9.6,6
	c-5.6,1.2-11.2,1-16.4-1.8c-4.3-2.3-6.3-6.3-6.7-10.9c-0.4-5.1,0.9-9.8,5.6-12.6c2.5-1.5,5.3-2.6,8.2-3.2c5.4-1.1,11-1.7,16.5-2.4
	c3.8-0.5,5.5-4.1,5-7.8c-1-6.8-5.2-8.4-11.1-9.1c-3.2-0.4-6.2,0.3-9.2,1.3c-4.1,1.4-5.9,4.8-6.4,8.9c-0.2,1.4-0.5,1.9-2,1.7
	C535.7,111.6,534.3,111.8,532.6,111.8z M565.7,120.1c-2.7,0.7-5,1.4-7.4,1.8c-2.5,0.5-4.9,1-7.4,1.2c-3.7,0.4-7.2,1.2-10.4,3.2
	c-2.7,1.6-3.7,4.2-4,6.9c-0.4,3.8,3.4,8.7,7.3,9.6c5.8,1.3,11.1,0.3,16-3.2c3.7-2.7,5.4-6.5,5.9-10.9
	C566,125.8,565.7,122.9,565.7,120.1z"/>
<path d="M461.6,230.9c0,7.8,0,15.6,0,23.4c0,1.7-0.5,2.3-2.2,2.2c-3.3-0.1-6.5,0-9.8,0c-1.7,0-2.2-0.8-2-2.4c0.2-1,0.1-2.1,0.1-3.1
	c0-14.5,0-28.9,0-43.4c0-1.8,0.5-2.3,2.2-2.2c3.2,0.1,6.4,0.1,9.6,0c1.6-0.1,2,0.5,2,2C461.5,215.2,461.6,223.1,461.6,230.9z"/>
<path d="M524.2,101.6c-3.2,0-5.9,0-8.6,0c-1.4,0-1.7,0.6-1.6,1.9c0.1,3.3,0,6.6,0.1,9.9c0,1,0.2,1.9,0.2,2.9c0,5,0,10,0,15
	c0,2.1-0.4,4.2,0,6.2c0.8,4.3,3.5,5.8,7.9,4.7c0.5-0.1,1.1-0.1,1.6-0.2c0.1,0.2,0.2,0.3,0.2,0.3c0.7,5.2,0.7,5.2-4.5,5.2
	c-1.8,0-3.7-0.1-5.4-0.5c-4.8-1.1-6-3.5-6.1-8.5c-0.2-10.4,0-20.8,0-31.2c0-1.5,0.1-2.9-0.1-4.4c-0.1-0.5-0.9-1.2-1.5-1.3
	c-1.8-0.2-3.5-0.1-5.3,0c-1.5,0.1-2.2-0.5-2.2-2.2c0.1-3.4,0.5-3.7,4-3.2c1.3,0.2,2.7,0,4-0.2c0.4-0.1,0.9-0.8,0.9-1.2
	c0-3.9-0.2-7.9-0.3-11.8c0-1.2,0.5-1.9,1.7-1.9c1,0,2.1,0.1,3.1,0c1.6-0.1,1.8,0.8,1.8,2c0,3.3,0,6.5,0,9.8c0.1,3.2,0.1,3.2,3.5,3.1
	c0.9,0,1.8,0.2,2.7,0.3c1.2,0.1,3.2-0.1,3.3,0.3C524.3,98.1,524.1,99.8,524.2,101.6z"/>
<path d="M478.4,101.6c-2.5,0-4.7-0.1-6.9,0c-1.2,0-1.7-0.5-1.7-1.6c0-0.7,0-1.4,0-2.2c0-1.2,0.6-1.8,1.8-1.8
	c1.8,0.1,3.7,0.2,5.5,0.2c0.4,0,1.3-0.4,1.3-0.7c0.1-1.6,0.1-3.3,0.1-5c0-1.5,0.2-3,0.2-4.5c0-1,0-2.1-0.2-3.1
	c-0.2-1.3,0.2-2,1.6-1.9c0.5,0,1,0,1.6,0c3,0,3,0,3,2.9c0,3.5,0,6.9,0,10.4c0,1.4,0.3,1.9,1.9,1.7c2.8-0.3,5.7-0.1,8.4-0.1
	c0.2,0.6,0.3,0.7,0.3,0.9c0.1,4.9,0.4,4.7-4.5,4.6c-1.5,0-3,0-4.5,0c-1.2,0-1.6,0.4-1.6,1.6c0,11.4,0,22.8,0,34.2
	c0,3.6,3.9,5.9,7.9,5c1-0.2,2.2-1,2.7,0.7c0.7,2.6,0,4.3-1.9,4.5c-3.8,0.3-7.7,0.3-11.2-1.5c-2.5-1.2-3.3-3.8-3.4-6.4
	c-0.1-6,0-12.1,0-18.2c0-4.5,0-9.1-0.1-13.6C478.7,105.8,478.6,103.7,478.4,101.6z"/>
<path d="M667.9,121.4c0-7.8,0-15.6,0-23.4c0-1.5,0.4-2.1,2-2c5.2,0.2,4.3-0.7,4.3,4.4c0,14.7,0,29.4,0,44.2c0,2.3-0.3,2.6-3,2.6
	c-2.8,0-3.3-0.3-3.3-2.6C667.9,136.9,667.9,129.2,667.9,121.4z"/>
<path d="M463.1,146.9c-2.1,0-4.1,0-6.2,0c0-0.7-0.1-1.3-0.1-1.9c0-15.6,0-31.2,0-46.8c0-1.8,0.5-2.3,2.2-2.2c4.8,0.1,4.1-0.5,4.1,4
	C463.1,115.5,463.1,131,463.1,146.9z"/>
<path d="M461.2,186c0.1,0.3,0.4,1,0.4,1.6c0.1,2.9,0,5.7,0,8.6c0,1.2-0.4,1.6-1.6,1.6c-3.5,0-7.1,0-10.6,0c-1.2,0-1.6-0.4-1.6-1.6
	c0-2.8-0.2-5.7-0.2-8.5c0-1.2,0.3-2.1,2.2-1.9C453.4,186.3,457,186,461.2,186z"/>
<path d="M541,75.2c2.4,0,4.3-0.3,6,0.1c1.3,0.3,2.5,1.5,3.4,2.6c2.1,2.6,3.9,5.3,5.8,7.9c0.4,0.6,1,1,1.4,1.5
	c0.2,0.4,0.4,1.1,0.2,1.4c-0.2,0.3-0.9,0.6-1.3,0.6c-1.8-0.1-3.5-0.8-4.8-2.1c-3.3-3.4-6.5-6.9-9.7-10.4
	C541.7,76.5,541.5,76.1,541,75.2z"/>
<path d="M667.9,81.8c0-0.2,0-0.4,0-0.6c0-4.8,0.3-5.1,5.1-4.3c0.5,0.1,1.1,0.9,1.2,1.3c0.1,2.3,0.1,4.6,0,6.9
	c-0.1,1.3-0.6,2.4-2.4,1.8c-0.6-0.2-1.5-0.3-2.1-0.1c-1.4,0.5-1.8,0-1.8-1.3C667.9,84.3,667.9,83,667.9,81.8z"/>
<path d="M463.1,76.8c0,3,0,5.8,0,8.6c0,0.1,0,0.3,0,0.4c-0.6,0.4-1.6,1.3-1.7,1.2c-1.3-1.3-4.3,1.4-4.6-1.8c-0.2-2.3,0-4.6-0.1-6.9
	c0-1.3,0.6-1.6,1.7-1.6C459.9,76.8,461.4,76.8,463.1,76.8z"/>
<path d="M172.7,8.1c0.6-1.5,1.4-3.4,3.1-3c1.6,0.4,3,1.9,4.3,3.2c0.9,0.9,1.4,2.2,2.1,3.3c0.3,0.4,0.7,1.1,0.6,1.4
	c-0.8,1.6,0.3,2.7,0.9,3.9c0.3,0.7,0.5,1.4,0.7,2.1c0.3,0.9,0.6,1.8,0.8,2.7c0.1,0.6,0.1,1.3,0.1,1.9c-0.6-0.1-1.2-0.1-1.7-0.3
	c-1.3-0.8-2.3-1.7-1.7-3.6c0.2-0.5-0.6-1.4-0.8-2.1c-0.3-1-0.6-2-0.7-3c-0.1-1.5,0.3-3.2-2.2-2.9c-0.3,0-0.7-1-0.9-1.6
	c-0.3-0.7-0.2-1.6-0.6-2.2c-0.2-0.3-1.2-0.1-1.8,0c-0.7,0.2-1.4,0.6-2.1,0.9C172.9,8.5,172.8,8.3,172.7,8.1z"/>
<path d="M143.3,376.8c0.7,0.8,1.5,1.4,1.4,1.7c-0.3,0.7-0.9,1.6-1.4,1.6c-0.5,0-1.1-0.9-1.7-1.4C142,378.3,142.5,377.7,143.3,376.8z
	"/>
<path d="M129.7,376.3c1.3-1.3,1.9-1.3,2.6,0.6c0.3,0.9,0.4,1.9,0.3,2.9c0,0.4-0.9,1-1.2,1c-0.5-0.1-1-0.7-1.2-1.2
	C129.9,378.6,129.8,377.5,129.7,376.3z"/>
<path d="M147.8,52.5c-3.5,0-7,0-10.4,0c-2.4,0-4.6-1.7-5.1-3.9c0-0.2,0-0.4,0-0.6c0.2-1.6,3.1-4.1,4.7-4.1c3.8,0,7.5,0,11.3,0
	c1.9,0,3.5,0.5,4.2,2.4c0.6,1.7,0.6,3.6-0.9,4.9c-1,0.8-2.3,1.3-3.5,1.9C147.9,52.8,147.8,52.6,147.8,52.5z"/>
</svg>
