<?xml version="1.0" encoding="utf-8"?>
<!-- Generator: Adobe Illustrator 28.3.0, SVG Export Plug-In . SVG Version: 6.00 Build 0)  -->
<svg version="1.1" id="Calque_1" xmlns="http://www.w3.org/2000/svg" xmlns:xlink="http://www.w3.org/1999/xlink" x="0px" y="0px"
	 viewBox="0 0 741.4 474.7" style="enable-background:new 0 0 741.4 474.7;" xml:space="preserve">
<path d="M119.2,472.8c-2.3-4.6-3.8-8.6-6-12.1c-2.3-3.8-6.2-5.3-10.6-5.3c-27.6,0-55.1,0.2-82.7-0.1c-7.4-0.1-13.7-3.3-17.4-10.3
	c-0.5-0.9-1.7-1.5-3-2.6c0-96.6,0-194,0-291.7c2.4-0.3,4.9-0.5,7.3-0.8c0.3,0,0.6,0,1,0c74.7,0.2,149.4,0.4,224.2,0.6
	c3.8,0,6.7,2.9,6.7,6.7c0,17.3,0.9,34.6-0.2,51.9c-2.3,37.4-0.6,74.7-1,112.1c-0.4,37.4-0.1,74.9-0.1,112.3c0,5.9-0.7,12-5.6,16
	c-2.8,2.4-6.6,3.8-10.2,5c-2.5,0.8-5.4,0.7-8.1,0.7c-25.9,0-51.8,0-77.6,0c-7.9,0-11.9,3.1-14,10.7
	C121.3,467.9,120.4,469.8,119.2,472.8z M76.7,356.2c-1.2,2.9-4.8,4.3-6.3,2.3c-1.5-1.9-2.6-4.1-3.6-6.4c-0.5-1.1-0.5-2.7,0-3.7
	c2.3-4.4,4-9.3,8.6-12.1c0.4-0.3,0.5-1.1,0.7-1.6c-0.6,0-1.3-0.2-1.7,0.1c-0.7,0.6-1.1,1.6-1.8,2.1c-5.8,3.2-8.9,8.6-11.7,14.3
	c-0.8,1.6-2.2,3.2-3.7,4.2c-3.9,2.6-8.3,4.6-12.1,7.5c-4.4,3.4-6.3,8.5-7,13.9c-0.5,3.5-0.6,7.1-0.5,10.7c0.1,3.1,0.8,6.2,1.1,9.3
	c0.2,2.8-1,4.9-3.3,6.6c-1.9,1.4-3.4,3.4-4.9,5.2c-0.3,0.4-0.3,1.4,0,1.8c0.3,0.4,1.3,0.7,1.7,0.5c5.9-2.7,11.2-6.3,15.5-11.1
	c1.7-1.9,3.1-4.1,5-5.6c5.2-4.3,10.6-8.4,15.9-12.6c3-2.3,6.3-4,8.1-7.7c2.1-4.3,4.8-8.4,7.1-12.6c0.2-0.3-0.1-0.8-0.2-1.8
	c-1.5,0.8-2.7,1.4-4.4,2.2C78.5,360.1,77.7,358.3,76.7,356.2z M195,389.6c-0.7-1-1.5-2.1-2.2-3.2c-0.7,0.8-1.4,1.6-2.1,2.5
	c-1.4,2-2.5,4.4-4.2,6.1c-3.3,3.1-6.8,6.2-11.9,3.3c-0.6-0.3-1.5-0.1-2.2-0.2c-3.2-0.6-6.6-0.5-9-3.5c-2.4-2.9-5.3-5.3-7.9-8
	c-2-2.1-4-4.3-5.5-6.8c-2.1-3.5-5.2-4.7-8.8-5.2c-1.4-0.2-2.8-0.6-4.2-0.8c-1.4-0.2-2.7-0.4-4.1-0.7c-0.2,1.4-0.5,2.8-0.5,4.3
	c0,0.8,0.4,1.8,0.9,2.3c3.6,3.1,7,6.3,9.8,10.2c1.9,2.6,5.5,3.8,8.3,5.8c5.2,3.6,11.4,5.7,15.7,10.7c0.9,1,3.1,1.5,4.6,1.2
	c3.8-0.7,7.5-2.3,11.6-1.2c0.7,0.2,1.9-0.4,2.4-1c2.3-2.9,4.6-5.9,6.6-9C193.4,394.4,194,392.1,195,389.6z M78.5,381.4
	c0.5,1.9,0.7,3.1,1.1,4.1c0.3,0.6,1,1.5,1.5,1.5c0.7-0.1,1.6-0.7,2-1.3c1.2-2.1,2.4-4.3,3.3-6.6c3.1-8.2,8.6-14.3,16.3-18.5
	c0.5-0.3,1.1-0.6,1.6-1c2.7-2.9,5.4-5.8,8.1-8.7c1.3-1.4,2.4-2.9,3.8-4.2c1.8-1.6,2-3.6,0.4-5.2c-1.7-1.7-3.3-3.6-5.1-5.2
	c-0.7-0.6-1.9-1.2-2.7-1c-0.6,0.2-1,1.5-1.3,2.4c-0.2,0.6-0.1,1.3,0,1.9c0.9,6.9-3.7,11-8,15c-5.1,4.7-11.4,8.2-14.4,15
	c-0.2,0.5-0.7,0.8-1,1.2C82.2,374.5,80.3,378.2,78.5,381.4z M102.6,294.4c2-1.4,3.8-3.5,5.7-3.7c5.5-0.7,10.4-8,8.1-13.2
	c-1.4-3.3-2.7-6.4-1.5-10.2c0.3-0.8-1.5-2.4-2.5-3.4c-0.2-0.2-2.2,0.8-2.2,1.3c0,3.9-1,8,2.5,11.2c1.7,1.5,1.9,6.2,0.1,7.1
	c-3.9,1.9-6.8,6-11.9,5.2c-4.3-0.7-8,2.4-9.3,5.2c-1.8,4-4.8,5.7-8,7.6c-0.6,0.3-1.4,1-1.4,1.4c0.1,0.7,0.9,2,1.3,1.9
	c2.5-0.4,5.5-0.4,7.4-1.8c2.7-1.9,4.6-4.8,6.8-7.4c1.2-1.4,2.3-1.5,3.5-0.1c-2.6,8.1-0.1,13.1,6.4,12.5
	C107.5,303.3,107.1,298.6,102.6,294.4z M82.4,217.8c-0.5-1.9-0.5-4.2-1.5-4.8c-2-1.3-2-3.2-2.8-4.9c-0.4-0.9-0.9-1.8-1.4-2.7
	c-2.7-4.7-5.8-9.3-8-14.3c-1.5-3.3-3.5-5.8-6.1-8c-0.5-0.4-1.7-0.7-2.1-0.4c-0.6,0.4-0.9,1.4-1,2.2c-0.2,1.2-0.2,2.4-0.3,3.6
	c-0.2,2.7-0.5,5.4-0.6,8.1c-0.1,2.6,0,5.2,0,7.7c0,3.3-0.9,6.8,2.1,9.9c0.8-1.3,1.5-2.7,1.5-4c-0.1-2.5-0.9-4.9-1.1-7.3
	c-0.2-2.8-0.1-5.5-0.1-8.3c0-1.5,0-3.1,0-5.1c3.5,1.7,6,3.3,7.1,6.6c0.7,2,1.4,4.2,2.8,5.7c1.7,1.9,2.1,3.7,1.1,5.9
	c-0.4,1-0.7,2-1,3.1c1.3,0.1,2.3,0.3,3.4,0.4c2.9,0.2,4.5,1.3,4.1,4.7C78,218.4,80,217.9,82.4,217.8z M30.6,191.6
	c-1.7,0-4.5-0.4-7.1,0.1c-2.7,0.5-5.2,1.7-7.7,2.7c-0.8,0.3-1.5,1.3-1.7,2.1c-0.1,0.4,1.3,1.7,1.7,1.6c2-0.6,4.2-1.1,5.7-2.4
	c1.8-1.6,4.8-1.8,4.9,0.3c0.3,4,2.1,7.2,3.4,10.8c1,2.6,1,5.5,3.5,7.5c0.7,0.6,1,2.1,0.9,3.2c-0.3,4.3,2.1,7,5.7,10
	c0.2-1.5,0.6-2.4,0.4-3.1c-2.5-7.7-5.2-15.4-7.7-23.1C31.8,198.5,31.4,195.6,30.6,191.6z M140.1,302.9c4.1,4.5,7.3,10,13.9,11.1
	c1.3,0.2,3.3,0.1,4.1-0.8c3.2-3.2,6.6-6.5,8.9-10.3c3.3-5.3,5.7-11.1,8.5-16.7c0.3-0.5,0.2-1.3,0-2c-0.1-0.3-1-0.7-1.1-0.6
	c-0.5,0.4-1,0.9-1.3,1.5c-0.8,1.4-1.4,2.9-2.3,4.2c-4.3,5.6-8.3,11.4-10.5,18.2c-0.4,1.2-1.4,3.2-2.2,3.2c-1.5,0-3.5-0.7-4.3-1.8
	C150.3,304.3,145.4,303.4,140.1,302.9z M106.5,178.2c2,4.8-3.1,4.6-5.2,5.7c1.5,1,2.8,1.9,4.1,2.9c1.8,1.5,3.4,1.3,4.6-0.7
	c1-1.6,2-1.9,3.8-1.2c0.7,0.3,2.4-0.4,2.5-0.9c1-3.6,2-7.3,2.5-11.1c0.2-1.2-1.2-2.7-1.9-4c-1.1,0.8-2.2,1.5-3.2,2.3
	C111.4,173.5,109.2,175.7,106.5,178.2z M187.3,182.6c-1.7,1.4-3.7,2.3-4.6,3.9c-1.1,2-1.2,4.5-1.5,6.9c-0.1,0.9,0.3,2.2,1,2.9
	c2.3,2.2,5,4.1,3.6,8.1c-0.4,1,0.1,2.5,0.4,3.7c0.8,3.4,1.1,6.6-0.8,9.9c-1.5,2.6-2,5.8,0.3,8.5c0.6,0.6,1.9,0.9,2.7,0.7
	c0.5-0.1,0.9-1.5,0.9-2.4c0-1.9-0.4-3.7-0.5-5.6c-0.3-3.7-0.4-7.3-0.7-11c-0.2-2.5-0.8-5.1-0.9-7.6c0-1.8,1.1-3.8,0.8-5.5
	c-0.8-3.8-1.3-7.4,0-11.2C188.3,183.9,187.9,183.6,187.3,182.6z M156.1,177.5c-0.1-0.4-0.2-0.9-0.3-1.3c-1,0-2.5-0.4-2.8,0.1
	c-2.3,3.5-4.9,6.9-4.8,11.5c0.1,3.5-0.1,7.1-0.6,10.5c-0.7,3.9-2.1,7.7-2.8,11.6c-0.4,2.2-1.2,4.8,1.2,7.3
	c2.2-5.5,4.2-10.5,6.3-15.9c-3.2-2.2-3.5-5.3-1.1-9.1c0.8-1.2,0.9-3,0.9-4.5C151.8,183.7,152,179.9,156.1,177.5z M213.8,190.7
	c-0.3-0.4-0.8-1.5-1.7-2.1c-0.7-0.4-2.3-0.3-2.7,0.2c-0.6,0.8-0.7,2.1-0.7,3.2c-0.1,1,0,2.1,0.2,3.2c0.6,3.9,1,7.8,1.9,11.7
	c1.1,4.4,0.3,6.3-3.8,8.6c-1.5,0.9-2.7,2.4-3.6,4c-0.9,1.5,0.3,2.6,1.8,2.1c1.4-0.4,2.6-1.5,3.6-2.6c1-1,1.6-2.6,2.7-3.4
	c3.9-2.6,3.7-5.8,2.8-10c-0.9-4.3-4.6-8.9-0.5-13.5C213.9,192,213.8,191.7,213.8,190.7z M126.6,298.9c-0.9,3-1.6,5.8-2.6,8.6
	c-1.1,3.3-1.8,6.5-0.3,10c0.6,1.3,0.1,3.1,0.1,4.7c-0.1,2.7-0.6,5.5-0.3,8.2c0.2,1.6,1.4,3.1,2.2,4.7c0.7-1.8,1.4-3.6,2.1-5.4
	c0.1-0.2,0-0.4,0-0.6c-1.1-7.8-1.2-15.6,1-23.4C129.6,303,129.7,300.2,126.6,298.9z M38.9,312.2c-1.7,4.1-3.3,7.6-4.5,11.3
	c-1.7,5.3-3.6,10.4-8.6,13.7c-1.1,0.7-1.7,2.3-2.1,3.6c-0.1,0.4,1.2,1.8,1.5,1.7c1.5-0.5,3.7-1.1,4.2-2.2c1.9-4.7,4.4-9,7.4-13.1
	c1.7-2.4,3-5.2,4.1-7.9C41.7,317.1,42.1,314.7,38.9,312.2z M105.4,204.6c-1.3-2-2-3.9-3.5-5c-1.9-1.4-1.7-2.6-0.8-4.2
	c0.5-0.9,1-1.7,1.7-3.1c-2-0.5-3.5-1-5-1.3c-1.4,3-2,5.5,1.2,7.3c0.4,0.2,0.7,0.8,0.8,1.3c1.4,4.2,2.8,8.4,4.4,13.3
	c0.9-1,1.3-1.6,1.8-2.2c1-1.4,0-4.5,2.8-4.1c2.5,0.3,1.7,2.9,2,4.7c0.1,0.8,0.8,1.9,1.5,2c0.7,0.2,1.9-0.4,2.3-1
	c0.3-0.5,0.1-1.7-0.3-2.4c-1-1.9-2.2-3.7-3.5-5.5c-0.8-1.1-1.7-2.1-2.7-3.3C106.9,202.6,106.1,203.7,105.4,204.6z M102.7,413.8
	c-3.2-6.2-5.1-12.4-10.4-16.5c-1.1-0.8-2.7-1-4.2-1.5C87.5,401.8,96.4,413,102.7,413.8z M128.7,256.8c-0.7-2.9-1.5-4.7-4.6-3.3
	c-0.9,0.4-2.3,0.2-3.1-0.2c-3.2-1.7-6.1-0.8-8.8,1c-0.7,0.5-1,1.7-1.5,2.7c0.9,0.4,2,1.3,2.6,1c2.7-1.1,4.4,0.5,6.5,1.8
	c0.7,0.5,2.7,0.4,2.9-0.1C123.9,257.2,125.7,256.3,128.7,256.8z M197.3,225.1c-0.1,3.4,2.5,5.9,5.9,6.8c1.9,0.6,3.7,1.6,5.6,2.3
	c1.2,0.4,3.1,1.3,3.5,0.8c1.6-1.6,0.1-3-1.2-4.1c-0.6-0.6-1.6-0.7-2.5-1c-2.7-0.9-5.7-1.2-6.5-4.9c-0.2-0.8-1.8-2-2.4-1.9
	C198.7,223.5,197.8,224.7,197.3,225.1z M150.1,446.2c-3.7-3.3-15.7-2.7-20.9,0.7C136.2,447,142.9,449.2,150.1,446.2z M161.5,195.8
	c3.1-0.7,6.8-5.7,7.2-8.1c0.6-3.8-0.8-6.5-4.1-8.4c-1.3-0.7-2.7-1.2-4.1-1.7c-0.1,0-0.8,1.1-0.7,1.2c1,0.8,1.9,1.7,3,2.3
	c3.6,1.8,4.4,7.8,1.4,10.6C163.2,192.5,162.6,193.9,161.5,195.8z M79.9,400c-1.4,1-2.9,1.5-3.5,2.5c-1.8,3.1-3.3,6.3-4.8,9.6
	c-0.5,1.1-0.8,2.4-1.2,3.5c0.4,0.2,0.8,0.4,1.2,0.6C74,410.8,81.2,408.4,79.9,400z M37.4,291.8c-1.8,3-0.9,4.6,0.3,6.3
	c1,1.5,1.8,3.1,2.8,4.7c0.5,0.8,1.1,1.6,1.6,2.4c0.9-0.9,2.1-1.6,2.7-2.7c0.3-0.6-0.4-1.8-0.9-2.6c-0.9-1.4-2.1-2.6-3.1-3.9
	C39.8,294.6,38.7,293.4,37.4,291.8z M54.9,421.7c0,0.3,0,0.6,0,0.9c4.4,0.3,8.8,0.7,13.2,0.6c0.4,0,0.8-2.8,1-4.3
	c0-0.2-1.9-1-2.3-0.7c-3.3,2.4-6.9,3.1-10.9,2.9C55.6,421,55.2,421.5,54.9,421.7z M152.3,428.7c6-0.3,11.8-0.6,18.4-0.9
	c-5.7-1.1-10.6-2.2-15.5-2.9C153.4,424.7,151.6,425.7,152.3,428.7z M42.6,186.9c-0.5-0.3-1.6-1.4-2.2-1.2c-2.5,1-4.8,2.3-7.1,3.6
	c-0.4,0.2-0.9,1.2-0.8,1.3c0.4,0.5,1,1,1.6,1c1.4,0,2.9-0.1,4.3-0.5C40.2,190.6,42.6,190.6,42.6,186.9z M109.1,321
	c1.4-4.9-1.5-7.3-4-10.2c-0.9,1.5-1.8,3.5-1.3,4.5C105.2,317.4,107.3,319.1,109.1,321z M174.4,207.4c-0.9,3.5-4.9,5.6-4.4,10
	C175.1,215.8,175.6,214.7,174.4,207.4z M108.7,331.1c3-2.6,3.3-5.2,1.3-7.2c-0.4-0.4-1.3-0.8-1.7-0.6c-0.6,0.3-1.4,1.2-1.3,1.7
	C107.3,326.9,108,328.8,108.7,331.1z M136.9,299.3c0.2-0.1,0.4-0.2,0.6-0.3c-1.5-3.1-3.1-6.3-4.7-9.6c-1.3,1-1.9,1.5-2.7,2.2
	C132.5,294.4,134.7,296.8,136.9,299.3z M141.8,276.9c3.3,0,6.4,0,9.6,0C149.1,273.9,143.3,273.9,141.8,276.9z M108.8,416.9
	c0,1.4-0.2,2.3,0,3.1c0.3,1.2,0.9,2.3,1.4,3.5c0.6-0.6,1.8-1.1,1.8-1.7c0.1-1.4-0.2-2.8-0.6-4.1
	C111.2,417.2,109.9,417.2,108.8,416.9z M97.5,374.8c1.7-0.1,3,0.1,3.9-0.4c1.1-0.6,1.8-1.9,3.1-3.4
	C100.1,370.6,100.1,370.6,97.5,374.8z M126.3,205.7c0.2,3,2.4,3.1,4.4,3.1c0.3,0,1-1.6,0.8-2C130.2,204.6,128.3,204.9,126.3,205.7z
	 M84.6,349.4c3.1,3.5,4.5,3.5,7.1,0C89.2,349.4,87,349.4,84.6,349.4z M167.9,350.1c0-0.4,0-0.7,0-1.1c-2.8-2.7-3.8-2.7-6,1.1
	C164.2,350.1,166,350.1,167.9,350.1z M203.9,372c-2.8,0.3-4.2,1.4-3.2,4.4C203.5,376.1,204.9,374.9,203.9,372z M85.1,332.8
	c1,1,1.7,1.6,2.3,2.2c0.5-0.9,1.4-1.7,1.5-2.6c0-0.8-0.9-1.6-1.4-2.4C86.9,330.8,86.2,331.6,85.1,332.8z M108.6,434.4
	c-1.1-0.7-1.8-1.4-2-1.3c-1,0.6-2,1.4-2.8,2.3c-0.1,0.1,0.9,1.2,1.4,1.9C106.2,436.5,107.2,435.6,108.6,434.4z M52.5,313.6
	c-0.5,0.4-0.9,0.7-1.4,1.1c0.6,1.3,1.2,2.5,1.8,3.8c0.6-0.8,1.8-1.7,1.7-2.4C54.4,315.2,53.2,314.4,52.5,313.6z M175.7,271.6
	c-0.4,0.5-0.8,1-1.2,1.4c0.9,0.9,1.7,1.9,2.6,2.8c0.6-0.7,1.1-1.5,1.7-2.2C177.7,272.9,176.7,272.2,175.7,271.6z M223.1,445.6
	c-1.8-0.2-3.6-0.3-5.5-0.5C218.4,448.3,218.8,448.4,223.1,445.6z M184.5,370.5c-0.3,0.4-0.7,0.9-1,1.3c1.6,1.2,3.3,2.4,4.9,3.6
	c0.3-0.4,0.6-0.8,0.9-1.2C187.7,372.9,186.1,371.7,184.5,370.5z M198.9,379.7c-0.4-0.4-0.9-0.8-1.3-1.1c-0.9,1-1.8,1.9-2.5,2.9
	c0,0,0.9,0.8,1.4,1.3C197.3,381.7,198.1,380.7,198.9,379.7z M58.9,337.1c0.3,0,0.6-0.1,0.9-0.1c0.1-0.8,0.6-2.1,0.3-2.5
	c-0.8-0.8-2-1.1-3-1.5c-0.2,0.3-0.4,0.6-0.6,1C57.2,335,58,336,58.9,337.1z M61.6,326.8c-0.3,0.3-0.6,0.6-0.9,0.9
	c2.4,0.8,1.9,4.6,5.7,4.1C64.7,330.2,63.1,328.5,61.6,326.8z M155.5,414.2c2,2.8,3.2,2.9,5.8,0.7C159,414.6,157.2,414.4,155.5,414.2
	z"/>
<path d="M111.9,144.5c-6.9,0.8-13.4,0.9-19.3-2.7c-0.5-0.3-1.5-0.3-2.1,0c-5,2.3-10.8,2.2-15.7,0c-1.8-0.8-3.9-0.9-6.3-1.4
	c2-2.4,4.5-1.2,6.6-1.3c3.6-0.2,7.2-0.3,10.8-0.3c1.1,0,2.5,0.2,3.4,0.8c1.7,1.3,2.4,0.6,2.9-1.5c-1.4-0.3-2.7-0.7-4.1-1
	c-1.4-0.3-2.8-0.6-4.3-0.7c-2.1-0.2-4.2-0.3-6.2-0.6c-1.7-0.2-3.6-0.4-5.1-1.1c-4.1-1.9-8.4-2.4-12.9-2c-1,0.1-2.6,1.1-2.8,1.9
	c-0.6,2.7-2.7,2.4-4,1.9c-4.3-1.6-8.5-3.7-12.6-5.7c-0.6-0.3-1-1.9-0.8-2.7c0.4-2.8,1.1-5.6,1.8-8.7c-0.6-0.3-1.4-1.2-2.2-1.2
	c-4.3,0.3-4.1-2.9-4.6-5.7c-0.1-0.8-0.5-1.6-0.4-2.4c0.4-4.9-2.9-8.3-4.8-12.3c-0.1-0.2-0.3-0.3-0.3-0.5c-0.6-4.8-1.7-9.7-1.6-14.5
	c0.1-3.1,1.9-6.1-2.6-6.6c1.8-2.3,3.4-4.4,5.1-6.6c1.5-1.9,2.9-0.9,3.9,0.3c3.8,4.9,7.1,9.9,6.5,16.6c-0.1,0.9,0,1.9,0,3.2
	c1.2-0.4,2.1-0.4,2.4-0.9c2.6-3.3,5.6-3.6,9.2-0.7c0.3-1.2,0.4-1.9,0.5-2.5c0.7-2.3,2.1-3.1,4.6-2.2c1.1,0.4,2.4,0.8,3.5,0.6
	c0.8-0.2,1.3-1.4,2-2.1c-0.7-0.5-1.4-1.1-2.1-1.4c-4.4-1.7-7.9,0.5-11.1,2.9c-2.6,1.9-3.7,1.7-4.7-1.5c-0.3-1.2-0.1-2.5-0.5-3.7
	c-0.5-1.6-1.4-3.1-2.2-4.6c-0.7-1.4-1.8-2.6-2.2-4.1c-0.7-2.5-0.7-4.6-4.3-5.4c-2.8-0.6-5.5-1-8.3-0.9c-2,0.1-2.5,1-2.8,2.6
	c-0.2,1.5-0.5,3-0.9,4.8c-3.7-2.4-3.5-6.2-4.7-9.2c-1-2.5-1.2-5.3-1.5-8c-0.1-0.9,0.7-2.6,1.2-2.6c2.8-0.2,2.6-2.1,2.7-4
	c0-1.1,0-2.5,0.6-3.3c0.8-1,3-2.5,3.3-2.2c1.5,1.4,2.9,3,3.6,4.8c0.6,1.5,0,3.4,0.2,5c0.1,0.8,0.7,2,1.3,2.2
	c0.6,0.2,1.7-0.6,2.3-1.2c1.9-2.2,3.4-4.2-0.3-6.4c-1.8-1-2.1-3.5-0.7-5.3c2.3-2.9,0.9-4-1.9-4.8c-0.6-0.2-1.1-0.5-2.1-1
	c-0.2,1-0.1,2-0.7,2.6c-0.7,0.8-1.9,1.8-2.7,1.7c-5.6-0.5-6-0.3-7.6,5.1c-0.2,0.6-0.4,1.1-0.7,1.8c-4.1-3.4-6.3-7.4-5.9-12.7
	c0.3-0.3,0.6-0.6,1-0.9c0.6,1,1,2.3,1.9,2.9c0.8,0.6,2.3,0.8,3.2,0.4c0.9-0.4,1.6-1.7,2-2.7c0.1-0.2-1.2-1.4-2-1.5
	c-1.6-0.2-3.4-0.1-4.4-0.1c-1.6-1.4-2.8-2.5-4.3-3.9c0.5-2.7,3.4-2.2,5.4-3c1.6-0.7,3.5-1.4,4.4-2.7c1.7-2.4,3.8-3.4,6.5-3.7
	c1.7-0.2,3.4-0.7,5.2-1.1c-0.5,1.2-0.9,2.1-1.3,3.1c0.2,0.3,0.4,0.7,0.6,1c1.8-0.8,3.7-1.4,5.4-2.5c3.4-2,4.5-1.7,5.5,2
	c0.7,2.4,1.7,4.7,2.3,7.1c0.4,2.1,0.1,4.3,0.5,6.4c1,5.3-0.8,11.2,3,16c1.5,1.9,2.9,2.2,5.1,0.8c1.7-1.1,3.9-1.4,5.8-2.4
	c2.5-1.3,4-4.2,7.4-4.1c0.7,0,2.1-1.6,1.9-2.2c-0.2-1-1.3-2-2.2-2.5c-2.3-1.1-4.3-2.2-4-4.5c1.7,0.4,4.5,1.4,4.7,1
	c1.2-1.9,2.5-4.6,1.9-6.4c-0.5-1.4-3.7-2.1-5.8-2.6c-0.4-0.1-1.4,2-2.2,3.2c-2.8-1.9-1.9-5.3-2.6-8.8c3.7,1.7,6.3,1,8.4-2.3
	c-4-0.7-7.5-2.1-7-6.9c0.2-1.8,5-4.3,7.2-4.2c-0.1,2.1-0.3,4.1-0.3,6.2c0,0.5,0.3,1.3,0.6,1.3c2.9,0.4,5.9,0.6,8.8,0.9
	c0.2-0.4,0.3-0.8,0.5-1.3c-1-0.8-2.3-1.5-3.1-2.5c-0.8-1.1-1.5-2.5-1.5-3.8c0-0.6,1.5-1.6,2.5-1.8c3.2-0.8,6.5-1.4,9.7-1.9
	c1.5-0.2,2.7,0,2.9,1.9c0.6,4.8,1.7,9.5,0.8,14.5c-0.7,3.7,0.1,7.7,0.5,11.6c0.2,2,0.7,4.1,1.2,6.1c0.7,2.6,2.7,3.5,5.2,3.4
	c2.7-0.1,5.5-0.2,8.1-0.7c1.4-0.3,2.5-1.6,3.8-2.4c0.8-0.4,1.7-1.1,2.4-1c4.3,0.7,5.8-0.4,5.8-4.5c0-6,0-6,5.6-7.9
	c1.2-0.4,2.5-0.7,3.4-1.4c0.8-0.7,1-2,1.5-3c-1.3-0.3-2.6-0.9-3.8-0.7c-1,0.1-1.9,1.2-2.8,1.8c-0.1,0-0.3,0-0.3,0
	c-5.1-5.3-4.5,0.6-6.7,2.8c-2.4,2.3-2.4,3.5-1,5.9c0.3,0.5-0.3,1.7-0.9,2.4c-0.5,0.6-1.7,1.2-2,1c-0.6-0.5-1.1-1.4-1.3-2.3
	c-0.2-1.3-0.2-2.8,0-4.1c0.2-2.8-0.6-5.2-1.8-7.8c-1.2-2.5-1.3-5.5-1.8-8.3c0.3-0.1,0.6-0.3,0.9-0.4c0.9,0.5,1.8,0.9,2.5,1.5
	c2.6,2,7.1,2.6,9.6,0.7c1.8-1.4,2.7-0.8,4.2,0.2c1,0.7,2.9,0.8,4,0.4c0.6-0.3,0.7-2.3,0.7-3.5c0-0.4-0.6-1.2-1-1.3
	c-2.9-0.5-3.1-2.1-2.2-4.6c0.7-1.8-0.6-3.3-2.2-3.4c-0.7,0-1.9,1.9-2.1,3.1c-0.2,1.4,0.4,2.9,0.7,4.7c-2.7,2.4-8.5,0.3-9.6-1.8
	c-1.1-2.1,0.1-4,2.5-4.3c1.9-0.3,4.4,0.2,4.5-3.1c3,0,6,0,8.9,0c3,0,5.9,0,8.6,0c0.8,1.2,1.4,2.4,2.3,3.1c3.8,3.3,3.8,7.3,2.3,11.7
	c-1.2,3.6-2.2,7.3-3.2,11c-0.6,2-0.7,4.1-1.6,6c-2.5,4.9,2.4,9.1,6.1,9.6c3.7,0.5,7.4,1.1,11,1.8c2.5,0.5,4.4-0.8,4.8-3.2
	c0.7-4.4,1.7-8.8,2.2-13.2c0.2-1.9-0.1-4-0.6-5.9c-0.7-2.8,1-2.9,2.9-3c2.4-0.2,4.7,1.5,7.2-0.4c1.8-1.4,2.3-2,0.1-3.2
	c-1.1-0.6-2.6-1.1-3.1-2c-0.6-1.2-0.7-2.8-0.4-4.1c0.3-1.5,1.4-1.7,3.1-1.4c2.7,0.5,5.9-0.5,8.1,0.6c3.9,2,7.8,2.5,12,3.1
	c3.4,0.4,5.3,5,3.7,8.7c-1.6,3.5-3.6,6.7-5.4,10c-0.4,0.8-0.5,1.8-0.6,2.7c-0.4,3.8-1,7.7-1.2,11.5c-0.1,1.5,0.5,3.5,1.5,4.4
	c1.7,1.5,4,2.4,6.2,3.3c0.7,0.3,2-0.1,2.7-0.7c1.4-1.2,2.6-2.7,4-4.4c0.5,0.9,1,1.8,1.3,2.7c0.9,2.4,3.2,3.3,5.3,1.8
	c1.1-0.8,2.4-1.5,3.2-2.5c1.8-2.5,4.3-3.7,7.1-4.5c2.6-0.7,2.8-2.1,0.8-4c-1.3-1.2-2.4-2.6-3.5-4c-1.9-2.5-4.3-3.1-7-1.4
	c-1.4,0.9-2.7,1.8-4.1,2.8c0-3.9,0-7.4,0-12c2.5,3.4,4.9,3.8,7.7,2.6c2.3-1,2.5-2.1,0.9-4c-0.8-1-1.9-2.2-1.8-3.3
	c0.1-2.4,1.3-3.4,4.2-3.6c5-0.3,9,2.3,13.4,3.7c1.1,0.3,2.3,0.4,3.3,0.9c4.5,2.5,5.5,5.4,3.7,10.3c-1.4,3.9-2.9,7.5-5.7,10.9
	c-3.5,4.2-4.8,10-5,15.5c-0.1,3.8-0.9,7.3-3.3,9.8c-2.9,3-2,6.7-3.1,9.9c-1.4,4.2-2.9,8.4-4.3,12.7c-0.4,1.1-1,2.3-0.7,3.3
	c1.3,4.4-1.3,7.7-2.5,11.5c-0.9,3-1.6,6.2-2,9.4c-0.4,3.6-0.1,7.4-0.9,11c-0.4,1.9-2.2,4-3.9,5.1c-2.9,1.8-6.3,2.8-9.6,3.9
	c-0.1,0-0.8-1.3-1.1-2c-0.3-0.7-0.4-1.9-0.8-2c-0.8-0.2-1.9,0-2.5,0.5c-0.5,0.5-0.9,1.9-0.6,2.3c2.2,2.8-0.2,3.1-1.8,3.9
	c-0.7,0.3-1.6,0.3-2.4,0.7c-2.1,1.1-2.7,0-2.5-1.8c0.3-3.2-2.1-5-5.4-4.1c-4.3,1.2-8.5,2.6-12.9,3.5c-2.1,0.4-4.3-0.1-6.4-0.1
	c-10.6,0.2-21.1,0.4-31.7,0.7c-2.3,0.1-4.6,0.3-6.8,0.8c-1.1,0.3-2.6,1.2-3,2.2c-0.3,0.9,0.6,2.3,1.1,3.5
	C110.8,143.5,111.3,143.9,111.9,144.5z M74.8,55.3c-3.5,0.1-7,0.3-9.4-3.1c-0.2-0.4-2.3-0.1-2.7,0.4c-1,1.3-2.3,3.1-2.1,4.6
	c0.5,5,1.6,9.9,2.4,14.9c0.3,1.9-0.8,4.2,2.4,4.9c1.9,0.4,3.5,2.3,5.4,2.7c2,0.5,4.2,0.3,6.3,0c2.2-0.3,4-1.4,3.8-3.7
	c-2.9,0-5.4-0.2-7.8,0c-5.3,0.5-5.4,0.5-5-4.8c0.1-0.7,0.5-1.4,0.5-2.1c0.3-2.3-0.3-4.1-3-4.6c-0.7-0.1-1.3-0.4-2-0.6
	c0.8-1,1.4-1.7,1.9-2.5c0.8-1.6,1.3-3.2,3.9-2.1C71.2,60.1,74.6,57.1,74.8,55.3c2-0.6,4-1.2,6.9-2.1c-2-1.8-3.2-3.5-4.9-4.1
	c-1.2-0.5-3,0.5-4.5,0.8c0.3,1.3,0.6,2.6,1.1,3.8C73.6,54.3,74.3,54.8,74.8,55.3z M61.1,114.7c0-0.4,0-0.8-0.1-1.3
	c-0.9-0.8-2.1-1.4-2.6-2.3c-0.6-1.4-0.6-3-0.9-4.6c1-0.1,2.1-0.6,2.8-0.2c1.6,0.9,3.7,1.9,3,4.5c-0.9,3.4-0.9,3.6,2.7,3.2
	c2-0.2,3.8-1.5,5.8-2.4c-1.1-1.5-2.2-3-3.3-4.6c-1-1.4-3.1-3.3-2.7-4.2c1.2-3.2-0.9-5.1-2.5-7.6c1-0.3,1.8-0.5,2.4-0.9
	c1-0.6,2.5-1.3,2.7-2.1c0.4-2.3,1.5-3.6,3.5-4.7c0.7-0.3,1.2-1.8,1.1-2.6c0-0.5-1.5-1.4-2.1-1.2c-0.8,0.2-1.8,1.2-2.1,2
	c-1,3.1-4.7,5.1-7,3.1c-3.5-3-6.1,1.5-9.1,0.3c-1.6,3.5-5.1,3.5-8.1,4.3c-2.7,0.7-3,2.1-1.3,4.5c1.1,1.5,1.7,3.2,2.6,4.8
	c0.3,0.5,0.9,0.9,1.1,1.1c0.8-1.8,1.5-3.4,2.3-5.4c2.8,3.5,1.1,5.4-1.3,7.4c1.1,1.2,2.2,2.2,3.1,3.4c0.9,1.2,1.5,2.6,2.2,3.8
	c-1.3,0.6-2.7,1.2-4,1.8c-1.8,0.7-3.6,1.3-5.3,2.1c-0.5,0.2-0.9,1.5-0.7,1.8c0.4,0.6,1.3,1.1,2,1c1.1-0.1,2.1-0.6,3.1-1
	c1.6-0.7,3.1-1.5,4.7-2C55.8,116,58.4,115.4,61.1,114.7z M109,102.8c0.4-1.3,0.8-2.4,1-3.6c0.3-1.3,0.5-2.6,0.6-4
	c0.2-1.8,0.5-3.7,0.4-5.5c-0.1-1.9-0.8-3.8-1-5.8c-0.1-2-1.3-2.1-2.8-2.1c-2,0-4,0-6.1,0c-1.3,0-2.6-0.1-3.8,0.1
	c-3.7,0.6-7.3,1.5-11,1.8c-2.2,0.2-3.9,0.4-4.3,2.9c-0.3,2.3,1.4,4.6,3.6,5.5c0.9,0.3,2,1.5,2,2.3c0,2.8,0.6,5.4-0.7,8.6
	c-1.6,3.8-3.7,4.4-6.8,5c-1.8,0.4-3.5,1.3-5.2,1.9c0.1,0.5,0.3,0.9,0.4,1.4c2.4-0.3,4.9-1,7.3-0.7c6.6,1,8.7-2.5,9.8-8.2
	c0.7-4.1,4-5.1,7.9-3.4C103,100.1,105.7,101.3,109,102.8z M151.8,77.3c2.1,0,2.9-1.6,1.9-2.8c-2-2.4-0.2-4,0.5-6
	c0.5-1.4,1-3,0.9-4.4c-0.2-2.1-1-4.2-1.3-6.4c-0.4-2.5-2-3.5-4.3-4c-1.5-0.4-3-1.2-4.3-2.1c-1.8-1.3-7.7-1.5-9.1,0
	c-0.3,0.3-0.3,0.9-0.3,1.4c-0.2,4.3-0.5,8.7-0.6,13c0,1.2,0.4,2.6,0.9,3.7c0.8,1.8,1.7,3.5,2.8,5c0.4,0.6,1.6,1.3,2.2,1.1
	c1.3-0.2,2.5-1,3.6-1.6C148.9,71.7,150.9,72.5,151.8,77.3z M101.3,64.1c0.9,1.3,1.8,2.2,2.3,3.3c1.2,2.5,3.4,2.6,5.2,1.4
	c2-1.4,2.4-3.7,1.7-6.2c-0.9-3.4,0.3-5.3,3.6-5.8c3.9-0.6,5.1-1.8,5.9-5.9c0.1-0.6,1-1.2,1.7-1.7c0.7-0.6,1.5-1,2.3-1.5
	c-0.1-0.4-0.2-0.8-0.2-1.2c-5.2-0.2-10.4-0.4-15.5-0.4c-0.7,0-1.5,1.3-2,2.1c-1.9,3.1-1.9,7.2-4.7,10c-0.5,0.5-0.2,1.8-0.3,2.7
	c-0.1,0.9-0.2,1.8-0.3,2.4c-2.4,0.5-4.9-2.3-6.1,0.6c-0.4,1,1.7,3.1,2.8,4.9c0.9-0.8,1.3-1,1.5-1.4C99.7,66.6,100.3,65.6,101.3,64.1
	z M124.7,99c0,3,2.1,5.8,4.1,5.6c2.6-0.2,3.2-2,2.8-4.3c-0.4-2.5,1.5-2.8,3-3.1c1.4-0.3,3,0.1,4.4-0.2c1.4-0.4,3.3-1.1,3.7-2.2
	c0.8-2.2,2-2.8,4.1-3c0.9-0.1,1.7-1.7,2.5-2.6c-0.8-0.6-1.6-1.4-2.5-1.6c-1.9-0.4-4.1-0.1-5.8-0.9c-2-0.8-2.8,0-3.8,1.4
	c-1.8,2.7-2.2,2.5-4.5-0.1c-1.5-1.7-3.5-3.3-5.6-4.3c-3-1.4-3.6-0.6-3.9,2.7C122.9,90.9,128.3,94.8,124.7,99z M201.4,62.9
	c-2.7-3-3.9-2.9-6.8,0.1c-1,1.1-2.7,1.5-4,2.3c-0.8,0.5-2.1,1.1-2.2,1.9c-0.6,3.9-0.9,7.8-1.4,11.7c-0.3,2,0.7,2.7,2.5,3.2
	c2,0.7,2.4-0.6,3.3-1.8c1.4-1.8,3.2-3.3,4.7-5.1c0.8-0.9,1.8-2,1.7-3c0-0.8-1.5-1.5-2.5-2.5c-1.3,2.1-2.2,3.7-3.3,5.2
	c-0.5,0.7-1.5,1.1-2.3,1.6c-0.8-1.2-1.7-2.4-2.2-3.7c-0.1-0.4,1.1-1.8,1.8-1.9C196.2,70.6,199.8,68,201.4,62.9z M172.1,26.3
	c-3.6,0.3-6.6,0.3-8.6-2.7c-0.2-0.3-1.6-0.1-2.1,0.3c-1.9,1.5-3.8,3.1-5.5,4.9c-0.5,0.6-0.6,1.7-0.6,2.6c-0.1,2.2,0.2,4.5-0.2,6.6
	c-0.4,1.6-0.6,2.8,1.2,3.1c1.3,0.2,3.3,0,4-0.8c1.8-2.1,2-4.6,0.2-7.2c-0.5-0.7-0.3-1.9-0.4-2.8c0.8-0.1,1.7-0.3,2.5-0.2
	C167.2,31,169.4,30.3,172.1,26.3z M171.3,55c-5.2-3.5-9.6-6-15.2-5c-0.9,0.2-2.6,0.7-2.6,1.1c0,1,0.6,2.1,1.1,3.1
	c0.5,1.1,1.6,2,1.8,3.1c0.5,2.7,2,3.9,4.7,3.8C165.5,60.7,166.9,56.3,171.3,55z M26.9,33.3c0.1-0.2,0.4-0.8,0.4-1.3
	c-0.3-2.7,1.3-3.4,3.5-3.8c1-0.2,1.9-1.1,2.9-1.7c-1.1-0.5-2.2-1-3.3-1.4c-0.3-0.1-0.8,0.3-1.2,0.3c-2.7-0.1-6.2,2.2-7.2-2.7
	c-0.1-0.4-1.9-1-2.4-0.7c-1.2,0.8-2.9,2.1-2.9,3.1c0,1.6,0.9,3.9,2.2,4.7C21.2,31.5,24,32.2,26.9,33.3z M137.2,107.4
	c0.9-0.6,2.1-1,2.7-1.9c1.6-1.9,3.2-2.6,5.7-1.5c2.2,0.9,3.3-0.5,3.9-2.6c0.3-1.2,1-2.2,1.2-3.4c0.2-1.5,0.2-3.1,0.1-4.7
	c0-0.3-0.9-0.5-1.4-0.7c-0.6,1.3-1.1,2.5-1.7,3.8c-0.7,1.4-1.1,3.4-2.2,4.1c-1.7,1-3.9,1.3-5.9,1.6
	C136.2,102.4,135.3,104,137.2,107.4z M78.5,30.8c-2.1-3.3-3.6-6.2-5.6-8.6c-0.3-0.4-3,0.4-3.9,1.3c-0.7,0.7-0.8,3.1-0.1,3.7
	C71.1,29.5,74,30.7,78.5,30.8z M81.2,69c1.5-0.8,3-1.1,3.7-2.1c0.4-0.6-0.4-2.2-0.9-3.2c-0.5-1.2-1.1-2.5-1.9-3.5
	c-0.8-0.9-2.1-1.5-3.1-2.3c-0.4,0.3-0.7,0.6-1.1,1C78.9,62,79.9,65.1,81.2,69z M91.3,51.5c1.2,4.2,2.3,5.3,5.1,4.7
	c2.2-0.5,3.2-2.9,2.5-7.2C96.3,49.9,93.8,50.7,91.3,51.5z M173,14.5c-0.3-4.1-3.5-2.8-4.9-3.9c-0.9,1.4-2.5,2.7-2.6,4.1
	c-0.2,2.4,2.4,2.8,4,2.6C170.8,17.1,171.9,15.5,173,14.5z M51.9,68c0,4,1.5,6,4.1,6.6c0.9,0.2,3-1.1,2.9-1.5
	c-0.2-1.5-0.7-3.5-1.8-4.2C55.8,68,53.8,68.3,51.9,68z M125.1,61.4c-2.5-0.4-2.3,1.5-2.3,3.2c0,2,0.3,4,2.6,3.6
	c1-0.2,2.1-2.2,2.4-3.6C128.1,63,127.8,61.2,125.1,61.4z M104.6,74.4c-1.9-1.4-3.3-3.2-4.6-3.2c-1.6,0-3.2,1.6-5.1,2.6
	C98.3,76.5,100.5,76.6,104.6,74.4z M48.9,59.3c1.3,4.3,2.6,5.7,4.8,4.5c0.8-0.4,1.5-2.8,1.1-3.7C53.5,57.2,51.2,58,48.9,59.3z
	 M181.5,59.7c-0.9,1.8-1.6,2.7-1.7,3.6c-0.1,1.7,0,3.8,2.4,3.6c1-0.1,2.9-2,2.7-2.4C184.4,63,183.1,61.8,181.5,59.7z M184.9,101
	c0.7-3-0.2-4.9-2.7-5.7c-0.5-0.2-1.9,0.7-2,1.2C179.8,99.7,182.4,100.1,184.9,101z M212.8,26.8c0.3-1.4,0.5-2.3,0.8-3.3
	c-0.4-0.1-1.1-0.3-1.1-0.2c-0.6,1.8-1.7,3.7-1.5,5.4c0.2,1.7,1.5,3.5,4.4,2.3C214.4,29.4,213.5,27.9,212.8,26.8z M113.9,106.8
	c3.6,2.7,4.9,2.8,7.5,0.5C119.5,104.6,117.5,104.5,113.9,106.8z M168.3,95c0.7-2.3,0.5-4.3-2.2-4.8c-0.5-0.1-1.9,1-1.8,1.4
	C164.7,93.6,165.5,95.5,168.3,95z M128.8,7.4c-1.4-1.2-2.3-1.9-3.1-2.7c-0.8,1-1.8,1.8-2.1,2.9c-0.1,0.5,1.3,2,1.9,1.9
	C126.5,9.6,127.3,8.5,128.8,7.4z M37,92.6c-1.4-0.8-2.4-1.9-3.2-1.8c-0.9,0.2-1.7,1.3-2.6,2.1c0.9,0.7,1.7,2,2.6,2.1
	C34.7,95,35.6,93.7,37,92.6z M166.6,109.4c1.1-1.7,1.8-2.7,2.5-3.7c-1.5-0.7-3.1-1.4-4.6-2.1c-0.3,0.4-0.5,0.7-0.8,1.1
	C164.6,106,165.3,107.3,166.6,109.4z M114.8,74c-0.2,0.4-0.4,0.8-0.6,1.2c1,0.7,1.9,1.9,2.9,1.9c1.3,0.1,2.7-0.8,4-1.2
	c-0.1-0.4-0.1-0.9-0.2-1.3C118.8,74.4,116.8,74.2,114.8,74z M132.1,75.5c-3.1-4.3-3.7-4.2-6.7,0.4C128,75.8,129.8,75.6,132.1,75.5z
	 M171.2,38.4c2.3-1,2.2-2.9,1.6-4.9c-0.1-0.4-1.2-0.4-1.9-0.6c-0.1,1.8-0.1,3.6-0.1,5.4C170.7,38.3,170.9,38.4,171.2,38.4z
	 M90.7,74.9c-2.6-2.9-4.6-1.5-7-0.1C86.1,76.8,88.2,76.1,90.7,74.9z M172.2,100.4c0.6-0.3,1.1-0.6,1.7-0.9c-0.5-1.2-0.9-2.5-1.6-3.6
	c-0.1-0.2-1.5,0.5-2.4,0.8C170.7,97.9,171.5,99.1,172.2,100.4z M176.8,84.7c2.6,2.9,4,2.4,5.2-1.4C180,83.8,178.4,84.3,176.8,84.7z
	 M207.6,70.3c-1.2-0.9-2-1.9-2.4-1.8c-0.9,0.3-1.5,1.3-2.2,1.9c0.6,0.6,1.2,1.6,1.8,1.6C205.6,72,206.3,71.1,207.6,70.3z M77,37.1
	c-0.6,1.3-1.4,2.2-1.2,2.8c0.3,0.7,1.2,1.5,2,1.7c0.4,0.1,1.6-1.3,1.5-1.8C79.1,38.9,78.1,38.3,77,37.1z M76.4,6.5
	c-0.4,0.4-0.8,0.8-1.2,1.3c-0.2,2.6,1,3.6,3.5,3.2c0.4-0.4,0.8-0.8,1.2-1.2C78.7,8.6,77.5,7.6,76.4,6.5z M71.9,96.5
	c-0.6,0-1.2,0-1.9,0c0,1.3-0.1,2.6-0.1,3.9c0.7,0,1.3,0,2,0C71.9,99.2,71.9,97.8,71.9,96.5z"/>
<path d="M432.7,302.8c0-7.6,0-15.3,0-22.9c0-2.9,0-5.9,0-8.8c0-2.3,1.3-3.5,3.5-3.5c10.4,0,20.8-0.3,31.2,0.1
	c8.9,0.3,18.1,10.6,18.1,19.5c0,5.4,0.7,11.1-3.2,15.6c-1.3,1.6-2.8,3.2-4.5,4.2c-3.7,2.2-4,3.5-1.2,6.7c2.8,3.4,5.6,6.8,8.3,10.3
	c2.1,2.8,3.6,2.9,5.2-0.3c1.7-3.2,2.9-6.6,4.4-9.9c1.9-4.5,3.8-9.1,5.7-13.7c1.6-3.9,3.3-7.8,5-11.6c2.6-6.1,5-12.4,7.9-18.3
	c0.6-1.3,2.9-2.3,4.6-2.6c3.2-0.4,6.6-0.2,9.8-0.1c3.6,0.2,4.6,3.2,5.8,5.8c4.6,10.3,9.1,20.6,13.6,31c1.6,3.8,3,7.7,4.5,11.5
	c1.5,3.5,3,7,4.6,10.5c1.7,3.7,0.7,5.5-3.3,5.5c-3,0-5.9,0-8.9,0c-2.2,0.1-3.5-1-4.2-3c-0.5-1.3-1.2-2.4-1.8-3.7
	c-1.2-2.5-3-3.7-6-3.6c-6.6,0.2-13.1,0.1-19.7,0.1c-3.1,0-5,1.2-5.8,4.5c-1.1,4.7-2.6,5.6-7.6,5.6c-7.6,0-15.3-0.3-22.9,0.1
	c-4.8,0.3-6.5-3.1-8.8-6c-2.8-3.5-5.3-7.2-8.1-10.8c-2.2-2.8-5.7-4-7.3-2.5c-0.9,0.8-1.6,2.2-1.7,3.4c-0.2,3.5-0.1,7-0.1,10.5
	c0,3.4-1.8,5.2-5.3,5.2c-2.4,0-4.9,0-7.3,0c-3.3,0-4.5-1.4-4.6-4.9C432.7,318.9,432.7,310.8,432.7,302.8z M458.6,282.2
	c-10.6-0.2-8.6,0.8-8.7,7.7c-0.1,7.3,0,7.3,7.5,7.2c0.3,0,0.6,0,0.9,0.1c3.7,1,6.7-0.2,9.6-2.5c2.3-1.9,2.9-4.6,1.5-7.1
	C466.9,282.8,462.9,281.4,458.6,282.2z M521.8,288.2c-2,5-3.6,8.9-5.1,12.8c-0.3,0.8-0.5,1.6-0.7,2.4c-0.6,1.9,0.2,3,2.1,3.1
	c2.4,0.1,4.9,0,7.3,0c3.7,0,4.7-1.8,3-5.1c-1.2-2.4-1.9-5-3.1-7.4C524.5,292.1,523.3,290.5,521.8,288.2z"/>
<path d="M576.5,297.3c0,10.3,0,19.5,0,28.7c0,5.1-0.8,5.9-5.9,5.9c-1.8,0-3.6,0-5.4,0c-3.2-0.1-4.6-1.4-4.6-4.6
	c0-18.5,0-36.9,0-55.4c0-2.8,1.3-4.4,4.2-4.3c1.4,0,2.8,0.3,4.1,0c4.1-0.9,6.7,1.4,8.8,4.2c5.4,7.3,10.6,14.7,16,22
	c2.2,3,4.5,5.9,6.7,8.9c0.4,0,0.7-0.1,1.1-0.1c0.1-2.8,0.4-5.6,0.3-8.4c-0.3-7.6-0.9-15.1-1.1-22.7c-0.1-2.4,1.3-4.1,4.2-3.9
	c2.6,0.2,5.3,0.2,7.9,0c3.2-0.3,4.1,1.5,4.2,4.1c0.1,2.6,0,5.3,0,8c0,15.6,0,31.2,0,46.8c0,4.5-1,5.5-5.6,5.5c-0.2,0-0.4,0-0.6,0
	c-5.3,0.9-8.9-1.4-11.9-5.6c-6-8.5-12.3-16.8-18.5-25.2C579.7,299.8,578.3,298.9,576.5,297.3z"/>
<path d="M738.6,315.6c-4,7.8-10,11.7-11.4,12.7c-1.9,1.2-4.1,2.3-6.5,3.1c-6.6,2.3-13.2,2.1-19.6,1.4c-5.7-0.6-11.2-3.1-15.6-7.3
	c-8.7-8.3-11.8-18.3-10.5-30.2c1.2-10.1,5.4-18.2,13.7-23.9c7.5-5.1,15.9-6,24.7-4.9c4.2,0.5,8,1.5,11.8,3.4
	c5.9,3,10.3,7.3,12.9,13.4c0.2,0.6,0.6,1.1,0.8,1.6c0,0,1.4,3,2.3,6.5C744.3,304.5,738.6,315.6,738.6,315.6z M691,299.5
	c-0.3,11.2,7.5,18.8,18.2,18.3c10-0.5,16.5-7.9,16.5-17.4c0-10.9-6-18.5-17.5-18.9C698.6,281.2,690.5,290.7,691,299.5z"/>
<path d="M394.5,267.6c3.4,0.2,6.9-1,9.1,2.5c0.5,0.8,1.1,1.5,1.5,2.4c3.4,7.8,6.9,15.7,10.2,23.5c2.7,6.4,5.1,12.9,7.8,19.3
	c1.5,3.6,3.1,7.2,4.9,10.6c1.9,3.6,0.3,6.6-3.4,6.1c-2.6-0.4-5.3-0.1-7.9-0.1c-3,0-4.9-1.3-5.7-4.3c-1.4-5-2.6-5.9-7.7-5.9
	c-6.1,0-12.3,0.2-18.4-0.1c-3.8-0.2-6.1,2.3-6.9,5.4c-1,3.9-2.1,4.8-6.1,4.8c-2.5,0-5.1,0-7.6,0c-3.6-0.1-5-2.4-3.5-5.6
	c3.2-7.1,6.4-14.3,9.5-21.4c1.8-4,3.5-7.9,5.2-12c1.7-4.2,3.3-8.4,5.1-12.5c1.6-3.6,3.2-7.2,5.2-10.5
	C387.9,266.2,391.7,268,394.5,267.6z M394.6,306.4c1.2,0,2.3,0,3.5,0c3-0.1,3.7-1.1,2.7-3.9c-1.2-3.5-2.6-6.9-4-10.4
	c-0.1-0.4-0.5-0.7-0.8-1c-1.8-2-2.7-1.8-3.6,0.8c-1,2.6-2,5.2-3.2,7.7c-2.6,5.7-1.9,6.8,4.3,6.8C394,306.4,394.3,306.4,394.6,306.4z
	"/>
<path d="M340.5,267.6c7,0,14,0,21,0c3.6,0,4.9,1.3,5,4.9c0,2,0,4,0.1,6c0.1,2.6-1.3,3.6-3.6,3.7c-3,0.1-6,0-9.1,0
	c-4,0.1-4.6,0.7-4.6,4.6c0,13.2,0,26.5,0,39.7c0,3.8-1.5,5.3-5.4,5.3c-2.5,0-5.1,0-7.6,0c-2.9,0-4.2-1.4-4.2-4.3c0-13.7,0-27.3,0-41
	c0-3.7-0.6-4.3-4.4-4.3c-3,0-5.9-0.1-8.9,0c-3,0.2-4.3-1.5-4.4-4.1c-0.1-2.1,0.4-4.2,0.4-6.3c0-3.7,2.2-4.4,5.4-4.3
	C327,267.7,333.8,267.6,340.5,267.6z"/>
<path d="M648.4,267.6c7.1,0,14.2,0,21.3,0c2.8,0,4.7,0.8,4.9,4c0.1,2.2,0.6,4.4,0.5,6.5c-0.2,3.4-3.5,5-7.9,4.5c-3-0.3-6,0.1-9,0.2
	c-1.9,0-2.1,1.2-2.1,2.8c0,13.3,0,26.7,0.1,40c0,5.5-0.6,6.3-6,6.3c-1.5,0-3,0-4.4,0c-4.4,0-5.5-1.2-5.5-5.7c0-13.3-0.1-26.7,0-40
	c0-2.9-1.2-4-3.9-4c-3.7,0.1-7.5,0.2-11.2,0c-0.9,0-2.3-1.2-2.3-1.9c-0.1-3.4-0.1-6.9,0.4-10.3c0.1-0.9,2.2-2.2,3.4-2.2
	C633.7,267.5,641,267.6,648.4,267.6z"/>
<path d="M425.8,210.5c-0.3,1.8-0.7,3.1-0.7,4.4c0.1,9.1,0.5,18.2,0.5,27.2c0,1.7-1.5,4.1-3,4.8c-1.8,0.9-4.7,1-5.8-1.5
	c-0.8-1.8-0.9-4-0.9-6.1c0-12.6,0.2-25.2,0.3-37.8c0-1.5,0.1-3,0-4.5c-0.2-2.7,1.3-4.1,3.6-4.8c2.5-0.7,4.8-0.6,6.5,1.8
	c3.6,5.1,7.2,10.2,10.7,15.3c1.2,1.8,2.2,3.7,3.5,5.5c1.1,1.6,2.4,1.6,3.5,0c2.9-4.3,5.8-8.6,8.7-12.9c1.6-2.4,3.1-5,4.7-7.4
	c1.4-2.1,5.9-3.4,8.4-2.4c2.6,1,2.8,3.4,2.8,5.7c0,14.8,0,29.7,0,44.5c0,1.9,0.1,4.3-2.4,4.8c-1.5,0.3-3.8,0.2-4.8-0.7
	c-1.1-1-1.6-3.1-1.7-4.8c-0.2-8.8-0.1-17.6,0-26.4c0-1.2,0.6-2.5,0.5-3.7c0-0.7-0.8-1.3-1.2-2c-0.5,0.4-1.1,0.7-1.5,1.2
	c-3.9,5.5-7.7,11.1-11.6,16.7c-2.5,3.6-5.1,3.4-7.3-0.1c-3.3-5.3-6.9-10.4-10.4-15.6C427.7,211.4,426.9,211.2,425.8,210.5z"/>
<path d="M556.8,226.9c0.3-2.1,0.6-3.4,0.6-4.7c-0.2-7.9-0.4-15.8-0.6-23.7c0-1,0.4-2,0.6-3.1c0.5-2.2,1.7-3.6,4.1-3.6
	c2.3,0.1,4,1.1,4.4,3.6c0.2,1.1,0.4,2.2,0.5,3.4c0,14.2,0,28.4,0,42.6c0,2.3-0.1,5.1-2.5,5.5c-1.7,0.3-4.4-1.1-5.5-2.5
	c-7-8.6-13.7-17.5-20.5-26.3c-1.6-2.1-3.3-4.1-5-6.1c-0.4,0.2-0.8,0.3-1.3,0.5c0,2.7,0,5.4,0,8c0,7.6,0.1,15.2-0.2,22.8
	c-0.1,3.5-1.4,4.2-5.3,3.9c-2.9-0.2-3.5-2.3-3.5-4.6c-0.1-14.4,0-28.8,0-43.2c0-1-0.3-2.1,0.1-2.8c0.8-1.6,1.7-3.6,3.1-4.3
	c1-0.5,3.5,0.3,4.4,1.3c3.8,4.3,7.3,8.8,10.8,13.4c4.6,5.9,9.1,11.9,13.6,17.9C554.8,225.4,555.5,225.8,556.8,226.9z"/>
<path d="M359.3,221.4c0.2-11.8,3.9-20.1,12.1-25.7c7.5-5.1,15.9-6.3,24.7-2.8c8.3,3.3,13.6,9.3,15.8,17.8c3,11.6,1.1,22.3-7.7,30.9
	c-4,3.8-9.1,6-14.9,6.3c-6.4,0.4-12.5-0.3-17.6-4.1c-3.2-2.3-6.1-5.5-8.1-8.9C360.8,230.3,358.3,225.3,359.3,221.4z M368.2,220.1
	c1.2,3.7,2.2,7.5,3.6,11.1c1.7,4.4,10.6,8.6,14.7,8c7.4-1,12.5-4.3,15.8-11.7c4-8.9,0-24.2-12-26.9c-5.8-1.3-10.8,0.3-15.1,3.7
	C370.4,208.3,369,213.9,368.2,220.1z"/>
<path d="M572.7,219.6c0-6.4-0.1-12.7,0-19.1c0-1.9,0.2-3.8,0.7-5.6c0.5-2,2-3.1,4.2-3.1c9.4,0,18.9,0,28.3,0c3.3,0,4.8,2.3,4.3,5.9
	c-0.4,2.8-2.9,4.3-5.7,4.2c-6.6-0.4-13.3-0.5-19.9-0.4c-0.8,0-1.6,1.5-2.4,2.4c-0.2,0.2,0,0.6,0,0.9c0.1,10.4-1.3,9.3,9,9.3
	c4.8,0,9.5,0,14.3,0c2.8,0,4.1,1.4,4.1,4.3c0,3.4-0.9,4.5-4.1,4.5c-6.5,0-12.9,0.1-19.4,0c-2.9-0.1-4.1,1-3.9,3.9
	c0.1,2.4,0.2,4.9,0,7.3c-0.2,3,0.9,4.2,4,4.1c6.5-0.1,12.9,0,19.4,0c3.5,0,5.9,1.8,5.9,4.6c0,3-2.2,4.6-5.9,4.6
	c-7.7-0.1-15.4-0.2-23.2-0.3c-0.6,0-1.3,0-1.9,0c-7.2,0.3-7.2-0.3-7.7-7.3C572.4,233.1,572.7,226.3,572.7,219.6
	C572.7,219.6,572.7,219.6,572.7,219.6z"/>
<path d="M656,209.8c0-3.3,0-6.2,0-9c0-1.2,0-2.3,0-3.5c0.1-3.3,2-5.5,4.8-5.5c2.4,0,4,2.1,4.1,5.3c0,3.7,0,7.4,0,11.1
	c0,11.2,0.1,22.5-0.1,33.7c0,1.7-0.9,4.4-2.1,4.8c-1.6,0.6-4.3,0-5.7-1c-1.9-1.4-3.2-1.1-4.8-0.1c-3.6,2.2-13,2.4-16.5,0
	c-2.3-1.5-4.7-3.1-6.4-5.2c-4.3-5.2-4.5-11.4-3.7-17.9c0.5-4.6,2.8-8,5.9-10.9c5.7-5.5,12.6-5.2,19.6-3.4
	C652.5,208.6,653.9,209.1,656,209.8z M634.4,226.9c0,6.9,4.5,12,10.7,12c5.2,0,11.1-5.9,10.8-11.6c-0.2-5-3.9-11.5-10.8-11.5
	C639.1,215.8,633.2,219.9,634.4,226.9z"/>
<path d="M516.7,214c0,5.3-0.2,10.6,0,15.9c0.2,5.5-2.9,9.4-6.4,12.7c-5.9,5.6-13.2,6.5-20.8,4.5c-7.9-2.1-15.8-10.2-15.5-19.3
	c0.3-10.2,0.1-20.4,0-30.5c0-2.5,1-4.7,3.3-5.1c1.5-0.3,3.4,0.9,4.8,1.9c0.7,0.5,0.8,2.1,0.8,3.2c0.1,9.3-0.2,18.7,0.1,28
	c0.3,7.9,4.5,12.8,12,14.1c4,0.7,7.4-2.1,9.9-5c2.6-3.1,3.7-6.7,3.6-11c-0.3-8.9-0.1-17.8-0.1-26.7c0-3.4,1.5-4.9,4.4-4.8
	c3.1,0.1,3.8,2.2,3.9,4.7C516.7,202.4,516.7,208.2,516.7,214z"/>
<path d="M343.4,191.1c5.2-0.4,10.3,2.7,15.2,6c3,2,2.9,4.2,0.3,7.1c-2,2.2-4,2-6.5,0c-3.7-2.9-7.9-4.5-12.7-3.4
	c-4.3,1-8.5,2.1-11.4,6c-3.8,5.1-5.2,10.7-4.1,17c1.4,7.2,5.4,12,12.6,14c6,1.7,11.4,0.2,16.3-3.2c2.8-1.9,4.2-1.8,6.8,1.2
	c1.8,2.1,1.7,4.5-0.7,6.2c-6.5,4.5-13.5,6.7-21.8,5.5c-8-1.1-14-5-18.3-11.2c-2.8-4-4.5-8.8-4.9-13.9c-0.6-8.6,1.8-16.4,7.4-22.6
	C326.9,193.9,334.1,191.1,343.4,191.1z"/>
<path d="M668.1,227.5c0-5.1,0-10.2,0-15.3c0-3.3,1.5-5.1,4.2-5.1c3.2,0,4.7,1.5,4.7,4.9c0,10.1,0,20.1,0,30.2c0,3.6-1.3,5-4.5,4.9
	c-3.1,0-4.4-1.4-4.4-5.1C668.1,237.2,668.1,232.4,668.1,227.5z"/>
<path d="M672.7,202.7c-3.1,0-5.1-1.7-5.2-4.5c-0.1-2.7,2.6-5.7,5.1-5.7c2.8,0,5.7,2.7,5.7,5.2C678.3,200.6,676,202.6,672.7,202.7z"
	/>
<path d="M140.7,145c-9.4,1.4-18.3,2.3-27.7,0.4c3.5-0.9,6.6-1.8,9.7-2.5c0.9-0.2,1.9,0,2.8-0.1c3.6,0,7.3,0.4,10.8-0.3
	C138.9,142.1,139.7,143,140.7,145z"/>
<path d="M161.3,140.7c-1.2,0.9-2.3,2.1-3.6,2.6c-0.6,0.2-1.8-0.8-2.7-1.3c0-0.4,0-0.9,0-1.3c1.8-0.5,3.6-1,5.4-1.5
	C160.8,139.8,161.1,140.2,161.3,140.7z"/>
<path d="M52,20c-0.2-2.5-0.5-4.4-0.5-6.3c0-0.7,0.6-1.4,1.1-2c0.1-0.2,1.2,0.2,1.3,0.4c0.1,0.6,0.1,1.4-0.1,2
	C53.4,15.9,52.8,17.6,52,20z"/>
<path d="M200.2,17.9c-0.6,1.5-1.2,3.1-1.7,4.6c-0.5-0.2-1.6-0.6-1.5-0.7c0.5-1.5,1.1-3,1.7-4.5C199.1,17.5,199.7,17.7,200.2,17.9z"
	/>
<path d="M53,376.3c0.8,4.7-3,12.8-6.8,14.5c-0.7,0.3-2.1,0.1-2.5-0.4c-0.7-0.8-1.5-2.2-1.3-3.1c0.8-3.6,2-7,6.4-8
	C50.2,379,51.4,377.5,53,376.3z"/>
<path d="M66.1,359.4c-0.8,0.9-1.1,1.5-1.5,1.5c-3.2,0.4-5,2.8-7.2,4.6c-0.8,0.7-2.4,0.4-3.7,0.6c0.5-1.1,0.7-2.5,1.5-3.3
	c1.8-1.6,3.8-3,5.9-4C62.4,358.5,64,359.2,66.1,359.4z"/>
<path d="M58.5,94.8c-1.9,0.8-3,1.7-3.6,1.4c-1.1-0.5-2.1-1.6-2.6-2.8c-0.2-0.3,1.7-2.2,2-2.1C55.6,92.1,56.6,93.2,58.5,94.8z"/>
<path d="M99.8,87.4c-1,0.9-2,2.3-3.1,2.4c-0.8,0.1-2.5-1.8-2.4-2.6c0.2-1.3,1.4-3.1,2.5-3.4C98.6,83.4,99.6,84.8,99.8,87.4z"/>
<path d="M105.3,91.5c0.7,1,1.7,2,2.1,3.1c0.1,0.3-1.6,1.8-1.8,1.7c-1.2-0.8-2.4-1.7-3-2.8c-0.3-0.6,0.5-1.9,0.8-2.8
	C104,90.9,104.6,91.2,105.3,91.5z"/>
<path d="M148.3,64.6c-1.1,4.2-3.1,5.9-5.6,4.9c-0.9-0.4-2.1-2.1-2-2.9C142,61.5,145.6,65.3,148.3,64.6z"/>
<path d="M139.3,57.1c1.8-0.6,3.7-1.3,5.5-1.7c0.1,0,1.1,1.8,0.8,2.3c-0.8,1.4-2,2.7-3,4c-1.2-1-2.4-2-3.6-3
	C139.1,58.1,139.2,57.6,139.3,57.1z"/>
<path d="M110.4,54.4c-0.3-1.4-1.2-3.3-0.7-4.1c0.6-0.9,2.7-0.9,4.1-1.3c0.3,0.3,0.6,0.6,0.9,0.9c-1,1.6-2,3.2-2.9,4.8
	C111.4,54.5,110.9,54.5,110.4,54.4z"/>
</svg>
