<?xml version="1.0" encoding="utf-8"?>
<!-- Generator: Adobe Illustrator 28.3.0, SVG Export Plug-In . SVG Version: 6.00 Build 0)  -->
<svg version="1.1" id="Calque_1" xmlns="http://www.w3.org/2000/svg" xmlns:xlink="http://www.w3.org/1999/xlink" x="0px" y="0px"
	 viewBox="0 0 741.4 364.4" style="enable-background:new 0 0 741.4 364.4;" xml:space="preserve">
<path d="M0.4,153c1.3-0.1,1.5-1.1,1.6-2.1c1.1-6.7,4.4-12.3,8.8-17.4c0.2-0.2,0.4-0.4,0.6-0.6c2.3-1.8,3.4-1.4,3.9,1.4
	c0.8,4,1.3,8.1,2.5,11.9c1.3,4.2,2.9,8.3,5.1,12.1c4.4,8,9.2,15.9,10.9,25.1c0.3,1.5,0.8,3,1.1,4.5c0.1,0.5,0,1.1,0,1.9
	c-0.7-0.3-1.1-0.4-1.3-0.7c-3.4-3.4-7.1-6.7-10.2-10.4c-2.6-3.2-4.8-6.8-6.7-10.5c-2.4-4.5-3.1-9.6-3.9-14.5c-0.1-0.5-0.1-1-0.3-1.3
	c-0.4-0.6-0.9-1.2-1.4-1.8c-0.6,0.6-1.6,1.2-1.6,1.9c-0.2,2.7-0.4,5.5,0,8.2c1.5,8.6,4.8,16.5,11,22.9c4,4.1,8,8.1,11.9,12.2
	c1.4,1.5,2.5,3.3,3.8,4.9c1.2,1.5,0.5,3-0.1,4.4c-0.9,2.3-1.8,4.6-2.7,6.8c-0.1,0.2-0.3,0.4-0.6,0.8c-0.6-0.6-1.2-1-1.5-1.6
	c-3.6-6.6-8.7-11.9-13.9-17.2c-3.5-3.6-6.9-7.6-9.7-11.7c-2.9-4.2-4.7-9-5.6-14.1c-0.2-1.1,0.1-2.7-1.7-3C0.4,161,0.4,157,0.4,153z"
	/>
<path d="M741.4,222.6c-0.4,0.9-1.1,1.7-1.2,2.7c-0.4,4.6-2.1,8.8-4.7,12.6c-2.4,3.5-5.4,6.2-9.2,8c-6.7,3.3-13.7,3.7-20.7,1.4
	c-5.6-1.8-10-5.4-13.1-10.5c-3.9-6.5-5.1-13.5-4-20.8c1.1-7.1,4.7-13,10.5-17.3c6-4.5,12.7-5.7,20-4.5c9,1.5,15.2,6.6,19.1,14.6
	c1.1,2.2,1.4,4.8,2.1,7.2c0.2,0.8,0.8,1.5,1.2,2.2C741.4,219.6,741.4,221.1,741.4,222.6z M728.4,220.8c0.2,0,0.3,0,0.5-0.1
	c-0.5-4.4-0.9-8.7-1.6-13.1c-1-5.8-5.1-10.4-12-10.7c-6-0.3-10.8,2.7-13,8.1c-1.8,4.7-2.1,9.5-2.2,14.4c-0.1,4.8,0.7,9.7,1.3,14.5
	c0.2,1.8,1,3.5,1.9,5.1c2.8,5.3,7.6,6.2,13.1,5.8c6.2-0.4,9.2-4.8,10.6-9.5C728.4,230.6,728.6,225.7,728.4,220.8z"/>
<path d="M160.9,0.3c0.1,4.1,0,8.1,0.3,12.2c0.1,1.6,1,3.3,2,4.6c2.5,3.1,3.5,6.4,3.2,10.3c-0.2,2.4-0.1,4.8,0,7.2
	c0,1.5-0.5,2.6-1.9,3.4c-0.9,0.5-1.7,1.3-2.6,2c-0.4,0.3-0.9,0.5-1.4,0.8c-0.2-0.5-0.6-1.1-0.6-1.6c0-3.9-0.2-7.8,0.1-11.7
	c0.1-2.5-0.7-4.4-2-6.4c-0.6-1-1.3-1.9-1.9-2.8c-1.1-1.6-1.8-3.3-1.7-5.4c0.2-2.5,0-4.9,0.1-7.4c0.1-1.7,0.4-3.4,0.5-5.1
	C157,0.3,159,0.3,160.9,0.3z"/>
<path d="M194,0.3c0.1,5,0.3,10.1,0.3,15.1c0,1-1,2-1.6,3c-1.1,1.7-2.3,3.4-3.4,5.2c-0.4,0.7-0.6,1.7-0.6,2.6c-0.1,4.1,0,8.3,0,12.4
	c0,0.6-0.3,1.3-0.5,1.9c-0.6-0.3-1.1-0.6-1.7-0.9c-0.8-0.5-1.4-1.2-2.2-1.6c-1.6-0.8-2.2-2-2.1-3.8c0.1-2.5,0.2-5.1,0-7.6
	c-0.3-3.2,0.7-5.9,2.6-8.3c2.6-3.1,3.5-6.5,3.2-10.5c-0.2-2.5,0.2-5,0.4-7.5C190.3,0.3,192.2,0.3,194,0.3z"/>
<path d="M183,0.3c0.1,3.6,0.2,7.2,0.3,10.8c0,2.2-0.3,2.6-2.4,2.6c-4.4,0-8.7,0-13.1,0c-1.2,0-2.1-0.4-2-1.7
	c0.1-3.9,0.2-7.8,0.4-11.7c1.8,0,3.7,0,5.5,0c0.2,1.6,0.4,3.3,0.6,4.9c0.1,1.7,0.7,2.2,2.4,2.2c1.5,0,2.3-0.6,2.4-2.2
	c0.1-1.6,0.3-3.3,0.5-4.9C179.3,0.3,181.1,0.3,183,0.3z"/>
<path d="M250.2,153.5c0,24.4,0.1,48.8-0.1,73.2c-0.1,9.3-3.5,17.6-10,24.4c-6.4,6.7-14.1,10.8-23.2,12.4c-5.9,1-11.9,1.7-17.8,2.8
	c-6.6,1.2-13.3,2.4-19.3,5.7c-1.3,0.7-2.5,1.7-3.6,2.6c-1.1,0.9-2.2,0.9-3.2,0c-3-2.8-6.8-4.2-10.6-5.4c-8.7-2.7-17.9-3.5-26.9-4.9
	c-10.8-1.6-20.4-5.7-27.6-14.3c-4.5-5.4-7.6-11.5-8.3-18.6c-0.2-2.4-0.5-4.8-0.5-7.2c0-48.5,0-96.9,0-145.4c0-2,0.4-2.4,2.4-2.5
	c0.9,0,1.7,0,2.6,0c47.6,0,95.2,0,142.8,0c0.6,0,1.1,0,1.7,0c1.2,0,1.8,0.7,1.7,1.9c0,1,0,2,0,2.9
	C250.2,105.3,250.2,129.4,250.2,153.5z M105.1,115.8c0,10.3,0,20.5,0,30.8c0,3,0.1,3.1,3.1,3.1c14.5,0,29,0,43.6,0
	c2.4,0,2.7-0.2,2.7-2.6c0-15.8,0-31.6,0-47.3c0-4.9,0-9.9,0.1-14.8c0-2-0.7-2.6-2.6-2.4c-1,0.1-2.1,0.2-3.1,0.2c-13,0-26.1,0-39.1,0
	c-0.8,0-1.6,0-2.4-0.1c-1.8-0.2-2.1,0-2.1,1.9C105.1,94.9,105.1,105.3,105.1,115.8z M193.8,115.9
	C193.8,115.9,193.9,115.9,193.8,115.9c0.1,10.3,0.1,20.6,0.1,30.8c0,2.7,0.2,2.9,2.8,2.9c11.1,0,22.2,0,33.2,0c3.4,0,6.9,0,10.3,0.1
	c2.5,0.1,2.9-0.3,2.9-2.8c0-13,0-26.1-0.1-39.1c0-7.5,0-15,0-22.6c0-2.6-0.4-2.9-2.9-2.7c-0.8,0.1-1.6,0.1-2.4,0.1
	c-14,0-27.9,0-41.9-0.1c-1.4,0-2.2,0.3-2.2,1.9C193.8,94.9,193.8,105.4,193.8,115.9z M217.4,189.3c0-0.1,0-0.1,0-0.2
	c-7.1,0-14.1,0-21.2,0c-2.2,0-2.3,0.1-2.3,2.3c0,21.5,0,42.9,0,64.4c0,0.7,0,1.4-0.1,2.1c-0.3,2,0.3,2.6,2.4,2.2
	c2.3-0.4,4.5-0.9,6.8-1.2c8-0.9,15.9-1.8,23.2-5.7c5.3-2.8,9.5-6.8,12.7-11.8c1.5-2.3,2.8-4.8,3.2-7.7c0.3-2.1,1.2-4.2,1.2-6.3
	c0.1-11.9,0-23.8-0.1-35.6c0-0.7-0.1-1.4-0.3-2c-0.3-0.9-0.8-1.1-1.9-0.9c-1.7,0.4-3.5,0.5-5.3,0.5
	C229.6,189.3,223.5,189.3,217.4,189.3z M154.4,224.1C154.4,224.1,154.4,224.1,154.4,224.1c0-6.7,0-13.3,0-20c0-4.2,0-8.4,0-12.6
	c0-1.9-0.5-2.5-2-2.5c-4.9,0-9.9,0.1-14.8,0.1c-1.7,0-3.4,0.1-5.2,0.1c-5.6,0-11.1,0.1-16.7,0c-3,0-5.9-0.4-8.9-0.4
	c-0.5,0-1.3,0.5-1.6,1c-0.3,0.5-0.2,1.3-0.2,2c0,11.2,0,22.4,0,33.6c0,6.1,1.7,11.7,5,16.7c5.9,8.8,14.4,13.5,24.7,15.2
	c5.9,1,11.9,1.9,17.8,2.9c1.4,0.2,2.1-0.5,1.9-2c-0.1-0.7-0.2-1.5-0.2-2.2C154.4,245.3,154.4,234.7,154.4,224.1z"/>
<path d="M436.4,227c0.5-1.3,0.9-2.1,1.2-2.9c3.7-9.1,7.4-18.1,11.1-27.2c2.2-5.2,4.4-10.4,6.6-15.6c1.1-2.7,2.2-5.5,3.3-8.3
	c0.6-1.6,1.6-2.5,3.4-2.4c2.4,0.1,4.8,0.5,7.2,0.5c2.9,0,5.7-0.3,8.6-0.5c0.5,0,1-0.1,1.4,0.1c0.6,0.4,1.5,0.9,1.5,1.5
	c0.1,0.5-0.7,1.6-1.2,1.7c-1.4,0.3-2.9,0.3-4.4,0.4c-3.1,0.1-3.5,0.4-3.5,3.4c0,22.5,0,45,0,67.5c0,0.5,0,1,0,1.5
	c-0.1,1.7-0.6,2.1-2.3,1.7c-0.7-0.2-1.5-0.3-2.2-0.4c-4.1-0.5-5.7-2.5-6.8-6.7c-0.3-1.3-0.4-2.6-0.4-3.9c0-16.6,0-33.3,0-49.9
	c0-1.3,0-2.7,0-4c-0.2,0-0.3-0.1-0.5-0.1c-0.3,0.3-0.6,0.6-0.8,0.9c-1.4,3.2-2.8,6.5-4.2,9.8c-1.7,4.1-3.5,8.2-5.2,12.4
	c-1.6,3.8-3.1,7.6-4.7,11.4c-2.7,6.5-5.4,13-8.1,19.5c-0.6,1.5-1.2,3.1-2,4.6c-0.3,0.6-1.2,1.1-2,1.2c-1,0.2-2.1,0.2-2.6-1
	c-1.3-3.1-2.6-6.1-3.9-9.2c-1.7-4.1-3.4-8.2-5.1-12.4c-2.1-5.2-4.3-10.4-6.4-15.5c-2.8-6.7-5.7-13.5-8.6-20.2
	c-0.1-0.3-0.4-0.6-0.9-1.4c-0.2,1-0.5,1.5-0.5,2c0,20,0.1,40,0.1,59.9c0,1.3-0.3,2.1-1.8,2.1c-1.6,0-2.2-0.5-2.2-2.1
	c0-22,0-44.1,0-66.1c0-0.7,0-1.5-0.1-2.2c-0.3-2-1-2.6-3-2.7c-1.5,0-3,0-4.5-0.1c-1.1-0.1-2-0.6-1.9-1.9c0.1-1.3,1-1.7,2.2-1.6
	c2.3,0.2,4.7,0.5,7,0.5c3.1,0,6.2-0.4,9.3-0.5c2.9-0.1,3.4,0.3,4.5,3c2.8,6.9,5.7,13.7,8.6,20.6c2.1,5.1,4.1,10.2,6.2,15.3
	c2.1,5.1,4.3,10.2,6.4,15.4C435.3,225.4,435.8,226,436.4,227z"/>
<path d="M308,102.6c0-2.6-0.1-5.3,0-7.9c0.1-1.2,0.4-2.4,1-3.4c1.7-3,4.4-3.4,6.7-0.8c1.4,1.6,2.3,3.5,3.4,5.3
	c0.9,1.5,1.6,3.1,2.6,4.4c1.3,1.8,2.4,1.7,4,0.3c2.3-2.1,4.5-1.5,5.6,1.4c1.2,3.2,0.5,6.4-0.1,9.7c-0.5,2.7-0.8,5.5-1,8.3
	c0,0.9,0.6,2.4,1.3,2.7c0.7,0.3,1.9-0.6,2.8-1c0.3-0.1,0.5-0.5,0.8-0.6c1.1-0.2,2.3-0.8,3.1-0.4c0.7,0.3,1.2,1.8,1.3,2.7
	c0.2,2.9-0.8,5.6-2.2,8.2c-1.1,2.1-2.3,4.2-3.2,6.5c-0.3,0.8-0.4,2.2,0.1,2.8c0.5,0.6,1.8,0.5,2.8,0.6c0.4,0,0.9-0.2,1.3-0.3
	c2-0.3,3.5,0.9,3.1,2.9c-0.5,2-1.3,4-2.2,5.9c-0.2,0.4-1.3,0.7-1.8,0.5c-3.4-1.5-6.2-0.3-8.9,1.8c-3.5,2.9-5.2,6.8-6.2,11
	c-0.2,0.8,0.1,2-1.4,1.9c-1.3-0.1-2.3-1.5-2.2-2.6c0.5-3.6,1.1-7.1,1.4-10.7c0.4-6.3,0.9-12.7,0.8-19c-0.1-5.7-0.7-11.3-1.5-16.9
	c-0.4-2.7-1.4-5.4-2.3-8c-0.2-0.5-1.1-0.8-1.7-1.1c-0.3,0.6-1,1.2-1,1.8c0.2,3.2,0.5,6.4,0.7,9.6c0.3,5,0.9,10,0.6,14.9
	c-0.6,9.9-1.5,19.8-3.5,29.5c-1.2,6-2.2,11.9-3.4,17.9c-0.2,1.1-0.4,2.1-1.8,2.1c-1.4,0-2.6-0.7-3.1-2.1c-0.2-0.5-0.2-1.1-0.3-1.7
	c-0.6-6.2-2.1-12-5.3-17.4c-1.7-2.8-2.7-5.9-2.5-9.3c0.2-2.9,1.6-3.8,4.3-3c1,0.3,2.3,0.3,3.2-0.2c1.2-0.6,1-2,0.5-3.1
	c-0.8-1.7-1.5-3.4-2.5-5c-2-3.3-4.4-6.5-5-10.5c-0.1-0.6-0.1-1.3-0.1-1.9c0.2-1.9,1.7-2.9,3.5-2.5c0.6,0.1,1.2,0.6,1.8,0.6
	c0.7,0,1.7,0,2.1-0.5c0.4-0.5,0.6-1.6,0.3-2.1c-1.3-2.5-2.9-4.8-4-7.4c-0.8-1.8-1.1-4-1.2-6c-0.1-2,1.2-2.8,3.2-2.5
	c0.5,0.1,0.9,0.2,1.3,0.3c2.8,0.6,4.4-0.7,4.5-3.6c0-0.7,0-1.5,0-2.2C308,102.6,308,102.6,308,102.6z"/>
<path d="M202,319.3c0.5-0.4,1.1-0.7,1.6-1.1c4-3,6.7-7.1,9.7-11c1.6-2.1,3.5-3.9,5.6-5.5c1.6-1.2,3.1-0.5,4.1,1.3
	c1.4,2.7,3.3,3.2,5.4,0.9c2.7-2.9,5.2-6.1,7.7-9.2c1.3-1.6,3-2.7,5-3.1c1.6-0.3,2.7,0.5,2.9,2.1c0.1,0.9,0.2,1.7,0.3,2.6
	c0.4,2,1.8,2.5,3.2,1c1.6-1.8,3.1-3.8,4.5-5.8c1.8-2.7,3.4-5.5,6.2-7.3c1-0.7,2.3-1.1,3.5-1.3c1.5-0.2,2.8,1.2,2.9,3
	c0.3,3.3,1.8,4.2,4.6,2.4c3.5-2.2,6.9-4.7,10.4-6.9c2.5-1.5,5.2-1.7,8-0.8c1.7,0.5,2.7,3.4,2.3,5.4c-0.8,3.4-2.5,6.2-4.4,9.1
	c-2.1,3.2-1.6,5.4,1.6,7.1c2.4,1.3,2.7,3.3,0.6,5.1c-1.9,1.7-4.2,2.6-6.8,3c-4.5,0.8-8.9,1.9-13.4,2.9c-0.9,0.2-1.6,0.8-2.4,1.4
	c-1.4,1.1-1.4,2.5,0.1,3.5c3.7,2.3,1.9,5.1-1,6.2c-3.7,1.4-7.7,1.9-11.6,1.6c-7-0.5-13.9-1.4-20.9,0.3c-0.2,0-0.4,0-0.5,0.1
	c-2.7,1.7-5.2,0.3-7.7-0.5c-1.4-0.4-2.7-0.9-4-1.4c-0.4-0.2-0.7-0.5-1-0.8c0.4-0.3,0.7-0.8,1.1-0.9c2.2-0.6,4.5-1,6.7-1.6
	c4.1-1.1,8.2-2.2,12.2-3.6c4.9-1.8,9.8-3.8,14.6-6c6.7-2.9,13-6.5,18.7-11.1c1.6-1.3,3.1-2.8,4.4-4.3c0.4-0.5,0.3-1.5,0.4-2.3
	c-0.8,0.1-1.7-0.2-2.4,0.2c-3.9,2.2-7.6,4.7-11.5,6.8c-3.7,2-7.5,3.6-11.3,5.4c-2.9,1.3-5.8,2.5-8.7,3.6c-1.6,0.6-3.3,1.1-4.9,1.5
	c-8.3,2.1-16.5,4.3-24.8,6.3c-2.9,0.7-5.9,1.3-8.9,2c-0.6,0.1-1.2,0.2-1.8,0.3C202.3,319.8,202.2,319.5,202,319.3z"/>
<path d="M276.6,257.4c-0.5-0.8-1-1.5-1.5-2.3c-1.4-2.7-3.1-4.9-6.6-5c-1.1,0-1.3-0.7-0.9-1.5c2.4-4.7,2.6-9.8,2.5-14.9
	c-0.1-2.2-0.5-4.5-0.4-6.7c0.1-1.9,0.4-3.9,0.9-5.8c0.7-2.8,2.8-3.4,5.1-1.8c2.4,1.7,3.8,1.2,4-1.7c0.1-2-0.3-4.1-0.9-6.1
	c-0.9-3.1-2.4-6.1-3.3-9.2c-0.5-1.8-0.5-3.8-0.5-5.8c0.1-1.5,1.1-2.3,2.7-2.2c3.2,0.1,4.2-1.2,3.4-4.4c-0.4-1.8-0.9-3.6-1.3-5.3
	c-0.5-2.6-0.2-5.2,1.1-7.5c1.5-2.7,5.8-3.2,8-0.6c2.2,2.7,3.7,5.9,5.5,8.8c0.3,0.4,0.4,1,0.6,1.4c1.7,3.3,3.3,3.6,6.2,1.5
	c0.7-0.5,1.5-1.1,2.2-1.6c1.6-0.9,3.7-0.1,3.9,1.8c0.3,2.8,0.3,5.5-0.6,8.3c-0.7,2.2-0.9,4.7-0.9,7.1c0,1.9,1.1,2.4,3,1.9
	c0.7-0.2,1.3-0.6,1.9-0.8c2.2-0.8,4.4,0.7,3.7,2.8c-0.7,2.5-2.1,4.7-3.5,7c-0.8,1.4-2,2.5-2.9,3.8c-0.5,0.7-0.7,1.7-0.7,2.6
	c0,1.1,0.7,1.6,1.8,1.5c0.9-0.1,1.7-0.2,2.6-0.2c2,0.2,2.9,1.5,2.3,3.4c-0.4,1.2-1.2,2.3-2,3.3c-0.3,0.3-1.4,0.4-1.7,0.1
	c-4.5-3.6-8.6-1.2-11.4,2.1c-2.4,2.9-3.6,6.3-4.5,9.9c-0.1,0.5-0.5,1-0.8,1.4c-0.5-0.3-1.1-0.5-1.3-0.9c-0.3-0.8-0.6-1.7-0.5-2.5
	c0.5-2.4,1.3-4.6,1.7-7c0.7-4.2,1.3-8.5,1.6-12.8c0.6-6.7-0.1-13.4-1.7-19.9c-0.5-2.1-1-4.1-1.6-6.1c-0.1-0.5-0.5-1.1-0.9-1.4
	c-0.4-0.3-1.1-0.5-1.5-0.4c-0.3,0.1-0.7,0.8-0.6,1.3c0.1,2.6,0.2,5.2,0.4,7.7c0.2,2.7,0.7,5.3,0.8,8c0,4.7,0.1,9.4-0.4,14.1
	c-0.6,5-1.7,10-2.7,15c-0.2,0.8-1,1.8-1.7,2c-3.5,1-5.5,3.5-6.6,6.7c-0.7,2.1-0.9,4.4-1.3,6.7c-0.2,1.3-0.3,2.6-0.4,3.9
	C277.1,257.3,276.8,257.4,276.6,257.4z"/>
<path d="M329.7,231.5c-0.8,2.6-1.5,5.2-2.4,7.8c-1,3-0.5,3.8,2.5,4c2.3,0.2,3.4,1.9,2.7,4.1c-0.8,2.5-2.6,4.2-4.6,5.6
	c-2.6,1.9-5.3,3.6-8,5.4c-0.4,0.3-0.8,0.7-1.1,1.1c-1.3,1.4-1.2,2.2,0.6,3c0.3,0.1,0.6,0.3,1,0.4c3.5,1.1,2.8,3.9,0.7,5.8
	c-2.7,2.4-6.2,3.3-9.6,4.5c-2.5,0.9-5,1.9-7.4,3.1c-0.8,0.4-1.2,1.5-1.7,2.3c0.9,0.5,1.8,1.1,2.7,1.5c0.9,0.3,1.9,0.3,2.8,0.6
	c2.2,0.7,3,2.8,1.5,4.4c-1.3,1.4-2.9,2.7-4.7,3.3c-2.8,0.9-5.8,1.3-8.7,1.8c-1.4,0.2-2-0.4-1.6-1.9c1.1-3.9,0.2-7.4-2.8-10.2
	c-0.9-0.9-0.7-1.4,0.2-2.2c3.8-3.6,7.6-7.2,11.3-10.9c6-6.2,11.6-12.7,15.7-20.4c0.1-0.2,0.3-0.3,0.3-0.4c0-1.1,0-2.3,0-3.4
	c-0.9,0.5-2,0.8-2.6,1.5c-5.3,5.8-10.3,11.9-15.8,17.5c-5.1,5.1-10.7,9.7-16,14.7c-1.7,1.6-3.9,1.5-5.9,2.1
	c-0.3,0.1-1.2-0.7-1.3-1.2c-0.2-0.9-0.1-1.9,0-2.9c0.1-1.9,0.3-3.9,0.5-5.8c0.1-0.6,0.2-1.4,0.7-1.6c2.3-1.5,3-3.9,3.4-6.3
	c0.2-1.6,0.1-3.2,0.4-4.8c0.4-1.9,0.8-4,1.6-5.7c1.1-2.5,3.6-2.7,5.5-0.7c1,1,1.6,2.3,2.4,3.5c1,1.6,2.4,1.9,3.6,0.5
	c1-1.2,1.9-2.5,2.4-3.9c1.2-3,1.9-6.1,3.1-9.1c0.7-1.7,2-3.2,3.2-4.5c1.1-1.2,2.7-0.8,3.6,0.7c0.4,0.8,0.7,1.6,1.1,2.4
	c0.8,2.1,2,2.4,3.5,0.7c1.5-1.6,2.7-3.4,4-5.2c1.7-2.5,3.9-4.4,6.6-5.8c3.3-1.7,6.3,0,6.4,3.6c0,0.3,0,0.7,0,1
	C329.5,231.4,329.6,231.5,329.7,231.5z"/>
<path d="M339.7,165.5c0.1,1,0.1,2.1,0.3,3.1c0.4,1.5,1.3,1.9,2.7,1.4c0.5-0.2,1-0.5,1.6-0.7c2-0.7,3.5,0.4,3.7,2.5
	c0.4,4.4-1.4,8-3.8,11.5c-1,1.5-2.1,3-3,4.6c-0.3,0.6-0.6,1.3-0.7,1.9c-0.2,1.3,0.4,1.9,1.7,2c0.1,0,0.2,0,0.3,0
	c1.4,0,3.1-0.9,3.9,1c0.9,2,0.4,4.1-0.9,5.6c-2.6,2.9-5.4,5.6-8.1,8.4c-0.8,0.8-1.6,1.5-2.1,2.5c-0.3,0.6-0.4,1.6-0.1,2.2
	c0.2,0.4,1.2,0.6,1.9,0.6c1.6,0,3.3-0.7,4.8,0.4c1.6,1.1,2,2.3,1,4.1c-1.6,3-4.4,4.6-7.2,6.2c-0.4,0.3-1,0.4-1.4,0.7
	c-1.1,0.8-2,0.5-2.9-0.3c-3.2-2.7-7.5-3.1-11.2-0.9c-1,0.6-2.1,1.1-2.8-0.2c-0.7-1.2-2.6-1.9-1.2-4c3.4-4.8,6.7-9.7,9.6-14.8
	c2.9-5,5.3-10.3,6.6-16c0.6-2.9,1.2-5.8,1.5-8.8c0.2-1.5-0.1-3.1-0.3-4.6c-0.2-1.1-1.2-1.3-1.9-0.5c-0.5,0.7-1,1.5-1.2,2.3
	c-1.6,8.4-5,16.2-8.8,23.7c-0.8,1.5-1.7,3-2.6,4.5c-0.5,0.8-1,0.9-1.6,0.1c-1.2-1.7-2.8-2.8-5-3.1c-1.1-0.2-1.4-0.8-1-1.9
	c1-2.9,1.2-5.8,0.8-8.8c-0.1-0.4,0.6-1.2,1-1.3c2.2-0.4,3.2-1.5,2.7-3.8c-0.4-2.1-1.2-4.1-1.6-6.1c-0.4-1.8-0.7-3.7-0.7-5.6
	c-0.1-1.5,0.4-3.2,1.9-3.5c1.3-0.2,3,0.2,4.1,1c3.4,2.5,4.1,2.5,5.9-1.3c1-2.2,1.3-4.8,2.2-7c0.8-2,1.9-4,3.2-5.8
	c1-1.5,2.9-1.7,4.5-1.3c2.2,0.5,3,2.4,3.5,4.3c0.4,1.9,0.5,3.9,0.7,5.8C339.8,165.5,339.7,165.5,339.7,165.5z"/>
<path d="M627.2,223.6c0-6.9,0-13.9,0-20.8c0-3.3-0.6-3.9-3.9-3.9c-0.9,0-1.9,0.1-2.7-0.2c-0.6-0.2-1.1-1.1-1.6-1.6
	c0.6-0.4,1.1-1.1,1.7-1.2c1.8-0.3,3.7-0.3,5.5-0.3c3-0.2,6.1-0.4,9.1-0.4c1.9,0,2.4,0.5,2.4,2.5c0,1.1-0.1,2.2,0,3.3
	c0,0.4,0.4,0.8,0.7,1.3c0.4-0.2,0.9-0.4,1.1-0.7c4.9-6.8,11.6-8.6,19.5-7.3c5,0.8,8.7,3.3,11.1,7.5c1.2,2,1.9,4.5,2,6.8
	c0.2,12.5,0.1,24.9,0.1,37.4c0,1.8-0.5,2.3-2.4,2.4c-4,0.1-6.7-1.7-7.7-5.7c-0.5-2-0.8-4.1-0.8-6.1c-0.1-9.1,0-18.1,0-27.2
	c0-3.9-1.1-7.3-4.7-9.3c-4-2.3-8-1.5-11.5,1c-5.4,3.9-7.3,9.7-7.3,16.1c0,9.4,0,18.7,0,28.1c0,2.1-0.3,2.4-2.4,2.4
	c-2.1,0-4.1,0-6.2,0c-1.4,0-2-0.6-2-2.1C627.2,238.1,627.2,230.8,627.2,223.6C627.2,223.6,627.2,223.6,627.2,223.6z"/>
<path d="M4.6,209.5c0.7-4,1.4-8,2.1-12c0.1-0.3,0.1-0.6,0.3-0.8c0.9-1,1.8-2,2.8-3c0.8,0.9,1.9,1.8,2.5,2.8
	c3.1,6.1,7.2,11.4,12.2,16.1c1.3,1.3,2.8,2.4,4.2,3.5c6,4.7,11.4,10,15.5,16.4c1.2,1.9,2.3,4,3.3,6c0.2,0.3,0.1,1.2,0,1.2
	c-0.5,0.1-1.1,0.2-1.6,0c-3.6-1.9-7.2-3.7-10.7-5.7c-4.8-2.8-9.4-6.1-13-10.3c-2.3-2.7-4.2-5.7-6.3-8.5c-0.3-0.4-0.4-0.9-0.8-1.1
	c-0.7-0.5-1.5-0.7-2.3-1.1c-0.1,0.8-0.6,1.7-0.4,2.4c1.8,6.3,5.9,11.2,10.7,15.5c5.3,4.8,11.4,8.2,17.8,11.2
	c7.4,3.4,14.3,7.7,20.1,13.6c1.9,1.9,3.4,4.2,5,6.3c0.3,0.4,0.2,0.9,0.3,1.4c-0.5,0-1.1,0.1-1.5,0c-2.8-0.6-5.4-1.9-8.4-0.7
	c-0.5,0.2-1.5-0.2-2-0.7c-4.8-4.7-10.5-8.1-16.3-11.4c-3-1.7-6.4-2.9-9.4-4.6c-2.9-1.6-5.8-3.5-8.5-5.5c-4-3-7.2-6.8-9.8-11.2
	C6.8,223.2,5,216.8,4.6,209.5z"/>
<path d="M603,221.5c0.3,7.9,0.5,15.8,0.8,23.7c0.1,2.4-0.4,3.1-2.8,2.9c-3.9-0.4-5.8-1.3-7.4-5.3c-0.2-0.4-0.5-0.8-0.8-1.2
	c-0.4,0.3-0.9,0.5-1.1,0.9c-2.8,4.1-6.9,6-11.7,6.1c-4.4,0.1-8.8-0.5-12.9-2.3c-4.2-1.8-6.5-4.9-7.3-9.3c-1-6.1,1.5-10.7,6.4-13.9
	c6.4-4.3,13.7-6.1,21.4-6.1c5.2,0,5.5-0.6,5.2-5.2c-0.2-3.2-0.1-6.4-0.6-9.6c-0.4-2.9-2.8-4.5-5.5-5.1c-6-1.3-9.4,0.7-12.1,6.2
	c-0.6,1.2-1.3,2.3-2.1,3.3c-1.7,2.3-4,2.4-6.5,1.9c-2.5-0.6-3.4-3.9-1.9-6.3c2-3.1,5-5,8.3-6.4c6.3-2.6,12.9-3.1,19.6-1.6
	c5.3,1.2,9.3,4.1,11,9.6c0.2,0.8,0.3,1.6,0.3,2.4c0,5.1,0,10.1,0,15.2C603.2,221.5,603.1,221.5,603,221.5z M593,226.3
	c-0.1,0-0.1,0-0.2,0c0-1.3,0-2.6,0-4c0-1.7-0.5-2.4-2.2-2.2c-2.9,0.3-5.8,0.6-8.6,1.2c-8.1,2-12.1,8.8-10.2,16.9
	c1.4,6,8.8,8.9,14,5.4c3.7-2.4,5.7-5.9,6.4-10.1C592.6,231.2,592.7,228.7,593,226.3z"/>
<path d="M22.9,110.4c0.6,6.6,2.7,12.4,5.5,18.1c3,6,6.2,11.9,8.9,18c3.4,7.7,4,15.8,3.2,24.1c-0.1,0.6-0.5,1.2-0.7,1.8
	c-0.5-0.5-1.2-0.8-1.6-1.4c-1.4-2.4-3.1-4.5-5.5-6.1c-0.7-0.5-1.2-1.5-1.4-2.4c-1.2-4.9-2-9.9-3.7-14.6c-1.5-4.2-3.9-8-5.8-12
	c-2.3-4.8-4.4-9.7-5.5-14.9c-1-4.5-1.6-8.9-0.8-13.5c1.7-10.4,6.6-18.7,15.8-24.2c1.4-0.8,3.1-2,4.6-0.9c1.5,1.1,0.6,3.1,0.2,4.5
	c-2.3,7.2-1.9,14.4,0,21.7c0.8,3.2,1.7,6.3,2.4,9.5c1.2,5.3,1,10.6,0.5,15.9c-0.1,0.5-0.5,1-0.8,1.5c-0.5-0.4-1.1-0.7-1.3-1.2
	c-2.3-4.6-4.9-9.1-6.7-13.9c-2-5-3-10.3-2.2-15.8c0.2-1.1,0.2-2.3,0-3.4c-0.1-0.7-0.8-1.2-1.2-1.8c-0.6,0.5-1.6,0.9-1.8,1.5
	C24.2,104,23.6,107.2,22.9,110.4z"/>
<path d="M210,71.6c-8.3,0-16.5,0-24.8,0c-2.5,0-3-0.5-3-3.1c0-4.7,0-9.4,0-14.1c0-5.4-4.8-9.3-9.9-7.8c-3.7,1.1-5.8,3.8-5.9,8.7
	c-0.1,4.4,0,8.8,0,13.3c0,2.4-0.5,3-2.9,3c-16.7,0-33.4,0-50.1,0c-1.7,0-2.3-0.7-2.3-2.3c0.1-4.4-0.8-4.3,4-4.3
	c14.1,0,28.1,0,42.2,0c2.5,0,2.6-0.1,2.6-2.6c0-2.8-0.1-5.6,0-8.4c0.2-5.9,3-10.5,8.3-12.9c7.4-3.5,15.6-0.5,19.1,6.9
	c0.8,1.8,1.1,3.9,1.3,5.9c0.2,2.9,0.1,5.9,0,8.8c0,2.1,0.2,2.3,2.4,2.3c14.5,0,29,0,43.6,0c1,0,2.8,0.4,2.8,0.8
	c0.2,1.6,0.1,3.4-0.2,5c-0.1,0.3-1.4,0.6-2.1,0.6C226.8,71.6,218.4,71.6,210,71.6z"/>
<path d="M40.4,191.8c0.3-7.6,2.3-14.8,5.9-21.5c5.1-9.4,12-17,20.9-22.8c1.5-1,3.4-1.7,5.2-2.2c2-0.5,3.2,0.8,2.4,2.6
	c-2.5,5.6-2.5,11.6-3.1,17.5c-0.8,7.6-3.5,14.4-7.7,20.7c-4.1,6-8.4,11.8-12.3,17.8c-3.4,5.3-5.3,11.1-6.2,17.3
	c-0.1,0.5-0.3,0.9-0.5,1.4c-0.5-0.3-1-0.4-1.4-0.8c-1.7-1.3-3.3-2.6-5-3.8c-1-0.7-1.5-1.3-1-2.7c3.2-10.2,8.7-19,15.4-27.2
	c4.5-5.5,8.4-11.5,10.6-18.4c0.8-2.4,1.2-5,1.6-7.5c0.1-0.6-0.6-1.4-0.9-2.1c-0.7,0.5-1.6,0.9-2,1.6c-1,2-1.8,4.2-2.6,6.3
	c-2.4,6-5.9,11.2-9.7,16.3c-2.5,3.3-5.1,6.6-7.7,9.9c-0.3,0.4-0.8,0.5-1.2,0.8c-0.2-0.4-0.5-0.8-0.6-1.3
	C40.4,193.2,40.4,192.5,40.4,191.8z"/>
<path d="M298.6,181c-1-1.5-1.8-3.2-3.1-4.5c-3.6-3.7-7.2-7.4-11-10.9c-3.5-3.2-7-6.4-8.8-10.9c-0.8-2-0.8-4.5-0.8-6.7
	c0-1.5,2.1-2.3,3.9-1.7c1.2,0.4,2.3,0.6,3.3-0.4c0.8-0.8,1.2-1.7,0.5-2.8c-1.2-1.7-2.3-3.4-3.6-5c-2-2.3-4.2-4.4-6.1-6.7
	c-0.7-0.9-1-2.4-1.1-3.7c-0.2-1.1,0.5-1.9,1.7-2.2c3-0.7,3.7-2.4,2.2-5.1c-1.4-2.6-3.1-5-4.3-7.6c-0.7-1.7-0.9-3.8-1-5.7
	c0-1.7,1.3-2.6,3.2-2.6c2.8,0,4.9,1.6,7.2,3c3.2,2,6.5,4.1,9.8,6c0.4,0.3,1,0.6,1.4,0.5c2.1-0.4,2.9,0.7,3.4,2.5
	c0.1,0.4,0.4,0.7,0.5,1.1c1.1,2.3,1.1,2.3-0.9,3.9c-0.6,0.5-1.2,1.1-1.7,1.7c-0.8,1.1-1.5,0.8-2.3,0c-1.6-1.5-3.2-3.1-5-4.5
	c-0.6-0.4-1.5-0.3-2.3-0.4c0,0.8-0.2,1.7,0.2,2.3c1.8,2.9,4.1,5.6,5.6,8.6c2.1,4.2,3.7,8.6,5.5,12.9c0.5,1.2-0.1,2.1-1,2.8
	c-2.7,2.3-3.1,5.2-2.7,8.5c0.4,3.7,2.4,6.7,4,10c2.4,4.9,4,10,4,15.5c0,0.6-0.2,1.3-0.3,1.9C298.9,181,298.7,181,298.6,181z"/>
<path d="M305.4,85.7c-0.2,0.9-0.2,2.3-0.8,3.5c-1.8,3.5-1.5,7.2-1.3,11c0.1,0.8,0.4,1.8-0.8,2.1c-1.2,0.2-1.7-0.5-2-1.6
	c-1.5-6.5-3.9-12.8-7-18.8c-1.5-2.8-3.5-5.4-5.3-8c-0.3-0.4-0.6-0.8-1-1c-0.6-0.2-1.4-0.3-2-0.4c-0.1,0.7-0.4,1.5-0.2,2
	c1.4,3.2,3.1,6.3,4.5,9.5c1.3,3.1,2.5,6.4,3.6,9.6c1,3,1.8,6,2.5,9.1c0.2,1-0.1,2.1-0.3,3.1c-0.2,0.9-0.6,1.7-0.9,2.6
	c-0.3,1-0.8,1.3-1.8,0.7c-3-1.8-6.2-3.4-9.1-5.4c-1.7-1.2-3.3-2.6-4.4-4.4c-1.2-1.9,0.1-3.6,2.3-3.8c0.8-0.1,1.6-0.5,2.5-0.8
	c-0.4-1-0.4-2.3-1.1-2.9c-2.3-1.9-4.8-3.5-7.2-5.2c-2.4-1.6-4.4-3.5-5.5-6.2c-0.9-2.2-0.1-3.6,2.3-3.7c0.5,0,0.9-0.1,1.4,0
	c1.6,0.3,3.2-0.2,3.6-1.6c0.4-1.3,0.2-3-0.2-4.4c-0.5-1.4-1.7-2.5-2.5-3.9c-0.6-1-1.3-2.1-1.4-3.2c-0.1-1.1,0.1-2.7,0.8-3.4
	c0.9-1,2.4-1.7,4.1-1.3c3.7,0.9,6.2,3.5,9.1,5.7c1.5,1.1,3.1,2.2,4.7,3.2c1.3,0.8,2.5,0.6,3.4-0.8c0.7-1.1,1.4-2.6,3.1-2.4
	c1.8,0.3,3,1.5,3.7,3.2c1.7,4,2.6,8.2,2.8,12.5C305,81.9,305.2,83.5,305.4,85.7z"/>
<path d="M72.9,280.2c-0.6,0-1.2,0-1.8,0c-5.5-0.5-11.1-1.2-16.3-3c-5.7-2-10.8-5-15.3-9c-0.6-0.6-1.4-1.1-2.1-1.4
	c-0.4-0.2-1.1-0.2-1.4,0.1c-0.3,0.3-0.4,1.1-0.2,1.4c1.3,1.9,2.5,3.9,4.1,5.4c4.5,4.2,9.7,7.3,15.8,8.7c4.4,1.1,8.9,1.8,13.3,2.7
	c3.7,0.8,7.5,1.7,11.2,2.6c1.2,0.3,1.7,1.1,2,2.3c0.6,2,1.4,3.8,2.1,5.8c0.2,0.7,0.4,1.4,0.5,2.1c-0.6-0.1-1.3,0-1.9-0.2
	c-7.9-2.8-16.2-3.9-24.4-5.6c-7.1-1.5-13.5-4.5-19.2-9.1c-4.4-3.7-8.1-8-10.6-13.1c-2.6-5.2-4.1-10.7-3.6-16.6
	c0.1-0.8,0.7-1.8,1.3-2.2c0.5-0.2,1.6,0.3,2.2,0.8c5.3,5.4,11.7,9,18.5,11.9c3.6,1.6,7.1,3.5,10.7,5c5.3,2.3,9.7,5.8,14,9.5
	c0.5,0.4,0.9,1,1.3,1.6C73.1,279.9,73,280,72.9,280.2z"/>
<path d="M42.7,144.7c-0.1-0.9-0.3-1.7-0.2-2.3c1.1-4,1.8-8.1,3.4-11.8c4-9.1,10.6-16.3,18.5-22.2c3.6-2.7,6.4-6,8.3-10.1
	c0.3-0.6,1.2-1.3,1.8-1.3c0.7,0,1.6,0.6,2,1.2c2.6,4.6,3.2,9.7,2.9,14.9c-0.3,5.7-1.9,11.1-4.5,16.1c-2.4,4.6-5.5,8.6-9.4,11.9
	c-5.3,4.5-10.7,8.8-15.2,14.2c-0.8,1-1.5,2-2.4,2.9c-0.4,0.4-0.9,0.8-1.4,1.1c-0.2-0.5-0.6-1-0.7-1.6c-0.4-1.9-0.9-3.7-0.9-5.6
	c0-1.1,0.3-2.6,1.1-3.4c3.2-3.6,6.5-7.1,10-10.3c5.3-4.8,10.2-9.9,13.4-16.4c1-1.9,1.6-4,2.1-6.1c0.2-0.6-0.4-1.4-0.6-2.1
	c-0.6,0.3-1.5,0.4-1.8,0.9c-1.7,2.5-3.2,5.1-5,7.6c-3,4.3-6.6,7.9-10.5,11.3c-3.7,3.2-7.4,6.4-10,10.6
	C43.5,144.3,43.3,144.4,42.7,144.7z"/>
<path d="M489.5,132.3c0-4.6,0-9.2,0-13.8c0-2.3-0.7-3-3-3.1c-1,0-2.5,0.4-2.5-1.1c0-1.4,1.5-1.1,2.5-1.2c2.5-0.1,5-0.3,7.5-0.4
	c2.1-0.1,2.4,0.3,2.6,2.5c0,0.5,0.4,1,0.6,1.5c0.5-0.2,1.1-0.4,1.5-0.8c3.9-4.2,8.6-5,13.8-3.3c2.1,0.7,3.8,2.1,5,4
	c1,1.4,1.7,1.5,2.8,0.1c4.6-6.2,14.7-6.7,19.3-0.3c1.2,1.7,1.9,4.2,1.9,6.3c0.2,8,0.1,16,0.1,23.9c0,2.2-1,2.9-3.1,2.3
	c-3.1-0.8-4.5-2.9-4.5-7c-0.1-6.2,0.1-12.4,0-18.6c0-2.4-0.2-4.8-2.2-6.6c-1.5-1.3-4.4-1.8-6.1-0.9c-4.1,2.2-6.2,5.8-6.4,10.3
	c-0.2,6.7,0,13.4,0,20.1c0,2.7-1.1,3.5-3.7,2.5c-2.3-0.9-3.8-3.2-3.8-6.2c0-6.6,0-13.2,0-19.8c0-2.3-0.5-4.5-2.3-6.1
	c-2.5-2.2-5.9-1.7-8.7,0.8c-2.9,2.7-4,6.2-4.1,9.9c-0.1,6.3,0,12.6,0.1,18.9c0,1.3-0.6,1.9-1.8,2c-0.1,0-0.1,0-0.2,0
	c-6.3,0.1-5.3,0.1-5.3-4.9C489.4,139.8,489.4,136,489.5,132.3C489.4,132.3,489.4,132.3,489.5,132.3z"/>
<path d="M48.9,117c1.7-8.2,4.4-16,8.3-23.2c2.2-4,5.1-7.6,7.5-11.5c0.9-1.5,1.7-3.1,2.3-4.8c0.2-0.6-0.2-1.4-0.3-2.2
	c-0.7,0.3-1.6,0.4-2,0.9c-3.3,4.2-6.8,8.3-9.5,12.8c-3.2,5.2-5.7,10.7-8.3,16.1c-0.9,1.8-1.3,3.8-1.9,5.7c-0.2,0.6-0.3,1.2-0.7,1.7
	c-0.5,0.8-1.2,0.9-1.5-0.2c-1-3.4-2.3-6.8-2.7-10.3c-0.3-2.2,0.7-4.6,1.4-6.8c2-6.5,5.1-12.4,9.7-17.4c1.8-1.9,3.8-3.7,5.9-5.3
	c4.4-3.3,8.3-7.1,11.1-11.8c1.1-1.9,2.9-1.9,4.2-0.1c4.3,6.3,5.1,13.2,3.3,20.5c-1.8,7.4-5.9,13.3-11.4,18.4
	C58.4,104.9,52.9,110.3,48.9,117z"/>
<path d="M542.6,205.7c0,10.8,0.1,21.6,0,32.4c0,3-0.5,6-3.1,8.3c-1.9,1.6-4,1.9-6.3,1.7c-0.5,0-1-0.7-1.3-1.3
	c-0.2-0.4-0.1-1-0.1-1.5c0-22.9,0-45.8,0-68.7c0-2.1-0.4-2.6-2.6-2.6c-1.3,0-2.7,0.1-3.9-0.1c-0.6-0.1-1.5-0.9-1.7-1.5
	c-0.3-1.1,0.5-1.7,1.6-1.8c0.2,0,0.3,0,0.5,0c4.6-0.1,9.3-0.3,13.9-0.4c2.5-0.1,3,0.4,3,3C542.6,184,542.6,194.9,542.6,205.7z"/>
<path d="M111.3,311.3c-0.4,0.1-0.8,0.2-1.1,0.2c-5.7,0.1-11.3,0.3-17,0.3c-4.7,0-9.4-0.6-13.8-2.5c-0.4-0.2-0.8-0.3-1.2-0.3
	c-0.5,0.1-1.1,0.3-1.4,0.7c-0.2,0.2,0.1,1.1,0.5,1.3c1.3,0.9,2.5,1.8,3.9,2.4c3.9,1.8,8,2.4,12.2,2.6c4.7,0.2,9.4,0,14.1,0
	c7.6,0,14.9,1.3,22.1,3.7c1.2,0.4,2.4,0.9,3.5,1.4c0.4,0.2,0.7,0.7,1,1c-0.4,0.3-0.7,0.8-1.1,0.9c-3.3,1.1-6.5,2.2-9.8,3
	c-1.4,0.3-3,0.3-4.4-0.1c-5.4-1.3-10.9-1.4-16.4-1.3c-4.9,0.1-9.8-0.2-14.5-1.6c-9.5-2.7-17.5-7.7-22.7-16.4c-1.2-2-2.2-4.2-2.8-6.4
	c-0.6-2.4,0.4-3.2,2.8-2.6c0.7,0.2,1.3,0.4,1.9,0.7c5.5,3,11.5,4.7,17.7,5.1c6.3,0.4,12.6,1.2,18.6,3.2c2.3,0.8,4.5,2,6.7,3
	c0.5,0.2,1,0.6,1.5,0.8C111.6,310.8,111.5,311,111.3,311.3z"/>
<path d="M78.8,279.1c-1-1.6-2.1-3.1-3.1-4.7c-3.7-6-5.4-12.6-5.7-19.6c-0.2-4.2,0.7-8.4,1.9-12.5c1.1-3.6,2.5-7,4.9-9.9
	c0.6-0.7,1.2-1.4,1.9-2c1.7-1.3,3.2-0.6,3.6,1.5c0.4,2.1,0.6,4.3,1.3,6.3c0.9,2.8,2,5.6,3.4,8.2c2.5,4.9,3.5,10.3,4.3,15.7
	c1.3,7.9,2.5,15.8,4.2,23.7c1,4.6,3.1,8.8,5.8,12.7c0.2,0.4,0.4,0.8,0.9,1.6c-1.1-0.2-1.8-0.4-2.5-0.4c-1.9-0.2-3.8-0.5-5.7-0.4
	c-1.3,0.1-2.1-0.2-2.8-1.4c-5-8.9-6.6-18.7-7.3-28.7c-0.4-5.2-1.4-10.4-2.2-15.6c-0.3-2.1-0.9-4.2-1.5-6.3c-0.2-0.5-0.9-1.3-1.3-1.2
	c-0.5,0-1.2,0.8-1.3,1.3c-0.2,1.8-0.4,3.7-0.2,5.4c0.8,6.8,2.1,13.6,2,20.5c0,1.2,0.2,2.4,0.2,3.6c0,0.6-0.1,1.3-0.2,1.9
	C79.2,278.9,79,279,78.8,279.1z"/>
<path d="M273.5,266.6c-0.4,2.7-0.9,4.9-1.1,7.1c-0.1,1.2,0,2.5,0.3,3.7c0.5,1.9-1.8,5-3.8,4.9c-0.3,0-0.6-0.2-0.9-0.5
	c-0.9-1-2-1.9-2.7-3c-0.4-0.5-0.6-1.5-0.4-2.1c0.4-2,1.1-3.9,1.4-5.8c0.1-0.6-0.5-1.4-0.7-2c-0.6,0.4-1.5,0.6-1.9,1.2
	c-1.2,2-2.1,4.2-3.3,6.2c-0.5,0.9-1.4,1.8-2.3,2.2c-4.5,1.6-7.2,5-9.4,8.9c-1.2,2-1.4,2.1-3.3,0.7c-2.2-1.7-5.7-1.6-8.4,0.1
	c-3.7,2.3-6.1,5.8-8.4,9.4c-0.1,0.1-0.1,0.3-0.2,0.5c-1.7,2.8-1.9,2.6-3.7,0.7c-0.4-0.5-1.1-0.9-1.7-1.1c-1.5-0.5-1.5-1.2-0.8-2.4
	c2.3-4,4.4-8,6.7-12c1.4-2.5,3-4.8,4.7-7.2c0.9-1.3,2.3-1.9,3.9-1.6c1.5,0.3,1.8,1.7,2.2,3c0.2,0.5,0.3,1.1,0.6,1.6
	c0.9,1.3,2.3,1.4,3,0c1.1-2.2,2-4.6,2.8-7c1-2.9,1.9-5.9,2.9-8.8c0.3-0.8,0.9-1.4,1.6-2c1.4-1.2,2.7-0.9,3.6,0.7
	c0.1,0.1,0.1,0.2,0.2,0.3c0.6,1.3,1.1,2.8,2.8,2.9c1.7,0,2.5-1.4,3.3-2.6c0.9-1.3,1.8-2.7,2.6-4c1.1-1.7,2.5-2.8,4.7-2.5
	c2.2,0.2,3.1,2,3.7,3.6C272.6,261.9,273,264.5,273.5,266.6z"/>
<path d="M52.7,238.9c-0.4-2-1-4-1.3-6c-1.2-8.4,0.3-16.3,4.9-23.5c2.4-3.7,4.9-7.2,7.1-10.9c1.4-2.5,2.3-5.2,3.2-7.9
	c0.7-1.9,2.3-2.6,3.5-1c1.4,1.9,2.7,4,3.4,6.2c2.8,8.8,2.2,17.7-0.2,26.4c-1.1,4-3,7.8-4.6,11.6c-2.1,5.2-4.1,10.4-3.8,16.1
	c0,0.5-0.3,1-0.5,1.6c-0.5-0.3-1-0.4-1.4-0.8c-1.8-1.5-3.5-3-5.2-4.5c-0.8-0.7-1-1.5-0.7-2.6c1.3-3.8,2.5-7.6,3.9-11.4
	c1-2.7,2.4-5.2,3.5-7.8c2.4-5.4,4.6-10.8,4-16.8c-0.1-0.7-0.7-1.3-1-1.9c-0.5,0.4-1.3,0.8-1.5,1.4c-0.8,2.2-1.4,4.5-2.3,6.7
	c-1.6,3.8-3.2,7.6-5,11.3c-2.1,4.2-4,8.3-5.2,12.9c-0.1,0.3-0.3,0.7-0.5,1C53.1,238.9,52.9,238.9,52.7,238.9z"/>
<path d="M122,310.1c-1.3-0.5-2.7-1-3.9-1.7c-5.2-2.8-9.3-6.9-11.8-12.3c-1.4-3.1-2.5-6.3-3.4-9.5c-1.3-5-2.5-10-4.9-14.6
	c-1.1-2.1-0.5-2.9,1.9-3c4.2-0.2,7.8,1.6,11.3,3.7c4.6,2.7,8,6.7,10.7,11.2c2.3,3.7,4,7.7,6.2,11.5c5,8.8,10.8,17,19.6,22.6
	c0.3,0.2,0.4,0.7,0.7,1c-0.5,0.2-1,0.6-1.5,0.6c-4.9,0.1-9.4-1.1-13.4-4.1c-4.1-3.1-7.1-7-9.4-11.5c-2.5-4.7-4.7-9.6-7.3-14.2
	c-1.5-2.6-3.5-4.8-5.2-7.2c-0.2-0.3-0.6-0.7-0.9-0.8c-0.7-0.2-1.4-0.2-2-0.3c0,0.7-0.2,1.5,0.1,2c1.8,3.6,3.8,7.2,5.6,10.8
	c1.8,3.6,3.4,7.4,5.2,11c0.7,1.5,1.8,2.8,2.7,4.3C122.2,309.8,122.1,310,122,310.1z"/>
<path d="M602.4,132c0-4.6,0-9.2,0-13.8c0-2.5-0.3-2.8-2.7-2.9c-0.9,0-2.2,0.3-2.2-1.1c0-0.4,1.5-1,2.3-1.1c2.6-0.3,5.1-0.4,7.7-0.4
	c2-0.1,2.4,0.4,2.6,2.3c0.1,0.5,0.4,1,0.6,1.5c0.5-0.2,1.1-0.4,1.5-0.7c4.1-4.4,9.2-4.8,14.6-3.2c3.8,1.1,6.7,5.4,6.8,9.7
	c0.1,8.2,0.1,16.3,0.1,24.5c0,1.8-0.9,2.5-2.7,2.3c-2.1-0.3-3.9-1.8-4.4-3.8c-0.3-1.4-0.6-2.9-0.6-4.4c-0.1-5.7,0-11.5,0-17.2
	c0-0.1,0-0.2,0-0.3c0-4-1.7-6.9-4.5-7.7c-3.1-0.9-6.8,0.8-8.9,3.8c-1.6,2.4-2.3,5-2.4,7.8c-0.1,6.4,0,12.7,0.1,19.1
	c0,1.4-0.5,2-1.9,2.1c-0.1,0-0.1,0-0.2,0c-5.7,0.4-5.7,0.4-5.7-5.3C602.4,139.4,602.4,135.7,602.4,132
	C602.4,132,602.4,132,602.4,132z"/>
<path d="M507.4,221.5c0,7.9,0,15.8,0,23.7c0,2.7-0.3,3-3,2.9c-4.7-0.2-7.7-3.8-7.8-9.3c-0.1-5.1,0-10.2,0-15.3c0-7.1,0-14.2,0-21.3
	c0-2.7-0.8-3.5-3.5-3.5c-1,0-2,0.2-2.9-0.1c-0.7-0.2-1.2-0.9-1.8-1.3c0.6-0.5,1.1-1.1,1.7-1.5c0.3-0.2,0.8-0.2,1.2-0.2
	c4.4-0.2,8.8-0.4,13.2-0.5c2.5-0.1,2.9,0.5,2.9,2.9C507.4,205.8,507.4,213.7,507.4,221.5z"/>
<path d="M587,131.1c0,4.8,0,9.6,0,14.5c0,1.2,0.4,2.9-1.2,3.2c-1.2,0.2-2.8-0.3-4-1c-0.7-0.4-1.2-1.5-1.5-2.4
	c-0.7-1.7-1.1-1.9-2.3-0.5c-2.3,2.7-5.2,4.1-8.7,4.4c-6.5,0.4-12.6-3.2-12.5-10.7c0-6.6,0-13.2,0-19.8c0-3-0.4-3.4-3.3-3.5
	c-0.3,0-0.7,0.1-1-0.1c-0.4-0.3-0.8-0.7-1.2-1c0.4-0.4,0.8-1,1.2-1.1c3.4-0.2,6.9-0.4,10.3-0.5c1.3,0,1.7,1,1.7,2.2
	c0,2.4,0,4.8,0,7.2c0,5.6,0,11.2,0,16.9c0,2.6,0.8,4.9,3.2,6.1c2.4,1.2,4.9,0.9,7.2-0.7c3.2-2.3,4.6-5.6,4.6-9.5
	c0-6.3,0-12.5,0-18.8c0-2.5,0.3-2.9,2.9-2.9c4.8,0,4.8,0,4.8,4.8C587,122.4,587,126.8,587,131.1z"/>
<path d="M432.1,104.4c0,1.3,0.1,2.7-0.1,4c-0.1,0.7-0.7,1.2-1.1,1.8c-0.5-0.5-1.2-1-1.3-1.5c-1-3.6-2.7-6.5-6.1-8.4
	c-5.8-3.2-14.6-2.9-18.7,2.9c-2.1,2.9-3.3,6.3-3.4,9.8c-0.3,6.5-0.3,13,0.1,19.4c0.2,3.5,1.3,7,3.6,9.9c1.9,2.3,4.3,3.6,7.2,3.8
	c6.5,0.6,12.3-0.9,16.9-5.9c0,0,0.1-0.1,0.1-0.1c0.8-0.4,1.6-0.8,2.4-1.2c-0.1,1.1,0.3,2.5-0.3,3.2c-1.7,1.8-3.5,3.7-5.6,4.7
	c-3.2,1.4-6.6,2.6-10,2.7c-7.5,0.2-14.1-2.2-18.7-8.6c-2.7-3.7-4.1-7.9-4.7-12.5c-0.6-4.7-0.8-9.4,0.3-14
	c1.7-7.3,5.6-12.9,12.5-16.3c5.7-2.8,11.7-3,17.8-1.6c2.5,0.6,5,1.3,7.5,1.8c1.1,0.3,1.7,0.9,1.7,2.1C432,101.6,432,103,432.1,104.4
	C432,104.4,432,104.4,432.1,104.4z"/>
<path d="M215.6,60.6c-6.5,0-13,0-19.5,0c-2.6,0-2.9-0.3-2.9-2.9c0-0.3,0-0.7,0-1c0-2.4,0.4-2.8,2.8-2.8c10.7,0,21.5,0,32.2,0
	c3.1,0,3.2-0.1,3.2-3.2c0-3.7,0.1-7.4-0.1-11c-0.2-2.7,0.5-5.1,2.1-7.2c1-1.4,2-2.9,2.9-4.5c0.5-0.9,0.9-2,1-3c0.1-2.9,0-5.9,0-8.8
	c0-2.2,0.3-2.5,2.5-2.5c4,0,4,0,4,4c0,2.9,0.1,5.9-0.1,8.8c-0.1,1.4-0.6,2.9-1.3,4.2c-1,1.9-2.3,3.7-3.5,5.5c-1,1.5-1.4,3-1.3,4.9
	c0.1,5.6,0.1,11.3,0,16.9c0,2.4-0.3,2.7-2.7,2.7C228.6,60.6,222.1,60.6,215.6,60.6z"/>
<path d="M133.2,60.6c-6.5,0-13.1,0-19.6,0c-1.9,0-2.3-0.3-2.3-2.3c0-5.5-0.1-10.9,0-16.4c0.1-2.5-0.4-4.7-2-6.7
	c-1.2-1.6-2.3-3.3-3.3-5c-0.5-0.8-0.8-1.8-0.8-2.7c-0.1-3.7,0-7.3,0-11c0-2.4,0.4-2.7,2.7-2.7c0.5,0,0.9,0,1.4,0
	c1.5-0.1,2.2,0.6,2.2,2.1c0,2.6,0.1,5.2,0,7.8c-0.1,1.8,0.3,3.4,1.4,4.9c1.3,1.8,2.6,3.7,3.7,5.6c0.6,1.2,1.1,2.6,1.1,3.9
	c0.1,4.4,0,8.8,0,13.3c0,2.3,0.4,2.7,2.7,2.7c10.6,0,21.1,0,31.7,0c1.1,0,2.9,0.3,3,0.8c0.4,1.6,0.3,3.4,0,5
	c-0.1,0.4-1.4,0.8-2.2,0.8C146.3,60.6,139.7,60.6,133.2,60.6C133.2,60.6,133.2,60.6,133.2,60.6z"/>
<path d="M476.1,129.3c0.1,7.4-1.9,12.8-7.2,16.7c-4.4,3.2-9.3,4.2-14.7,3c-6-1.4-10.4-5-12.4-10.8c-3-9-1.7-17.9,7.2-23.7
	c9-5.8,21.4-1.8,25.5,7.9C475.7,125,476.2,127.6,476.1,129.3z M448.4,130.2c0.5,3.3,0.8,6.5,1.5,9.7c0.9,4.4,4.1,7,8.5,7
	c4.3,0,7.7-2.7,8.5-7c1.2-6.1,1.4-12.3,0-18.4c-0.4-1.6-1.1-3.2-2.2-4.4c-2.3-2.6-5.3-3.2-8.6-2.5c-3.4,0.7-5.4,3-6.2,6.2
	C449.2,123.8,448.9,127,448.4,130.2z"/>
<path d="M665.4,131.2c-3.3,0-6.5,0-9.8,0c-0.9,0-1.8,0.1-1.8,1.3c-0.1,4,0.1,7.9,2.8,11.3c1.4,1.8,3.2,2.6,5.3,2.8
	c4.4,0.4,8.3-0.9,11.6-3.8c0.4-0.3,0.7-0.8,1.2-1c0.5-0.3,1.1-0.4,1.6-0.6c0.1,0.6,0.5,1.4,0.2,1.8c-1.2,1.4-2.3,3-3.9,3.9
	c-5.4,3.1-11.1,3.4-16.9,1.3c-4.4-1.6-7.4-5-8.8-9.4c-0.9-2.8-1.3-5.8-1.4-8.8c0-6.1,2.4-11.2,7.3-15c7.9-6.1,18.7-3,22.6,5.6
	c1,2.3,1.7,4.7,2.3,7.1c0.6,2.4-0.4,3.5-2.8,3.5C671.7,131.2,668.6,131.2,665.4,131.2C665.4,131.2,665.4,131.2,665.4,131.2z
	 M661.6,128.5C661.6,128.5,661.6,128.5,661.6,128.5c1.9,0,3.9,0,5.8,0c1.8,0,2.3-0.5,2.1-2.3c-0.3-2.2-0.8-4.4-1.3-6.5
	c-0.7-2.8-2.5-4.7-5.3-5.3c-2.7-0.5-4.8,0.8-6.4,2.8c-2.3,2.9-2.7,6.4-2.7,9.9c0,1.1,0.8,1.4,1.8,1.4
	C657.6,128.5,659.6,128.5,661.6,128.5z"/>
<path d="M234.8,356c-0.2,0.7-0.4,1.4-0.7,1.9c-0.7,1.2-1.4,2.3-2.2,3.5c-0.3,0.5-0.9,0.8-1.3,1.2c-0.3-0.4-0.8-0.8-0.9-1.3
	c-1.7-5.4-5.6-8.6-10.5-10.9c-4.5-2.1-9.2-3.3-14.1-4.2c-4.6-0.9-9.2-2.3-13.7-3.7c-3.2-1-6.4-2.2-9.6-3.3c-0.5-0.2-1-0.7-1.4-1.1
	c0.4-0.5,0.7-1,1.1-1.3c1-0.8,2.1-1.7,3.2-2.2c0.8-0.4,1.9-0.6,2.7-0.4c6.4,2.5,13,4.3,19.8,5.5c5.3,1,10.6,2.1,15.5,4.3
	c4.7,2.2,8.7,5.3,11.3,9.9C234.4,354.5,234.6,355.2,234.8,356z"/>
<path d="M722.7,130.1c0,5.1,0.1,10.2,0,15.3c0,0.9-0.7,1.8-1,2.7c-1-0.5-2.2-0.8-2.9-1.5c-1.5-1.6-1.3-1.7-2.9-0.2
	c-2.2,2.1-6.3,2.5-9.4,1.3c-6.5-2.5-8.2-9.3-7.2-15.1c1-5.5,4.5-8.7,9.9-9.9c2.3-0.5,4.3,0.1,6.2,1.3c1.9,1.1,2.3,0.8,2.3-1.3
	c0-2.1,0-4.2,0-6.4c0-1.5-0.6-2.2-2.1-2.3c-0.5,0-1-0.6-1.5-0.9c0.5-0.3,1-0.8,1.6-0.9c1.7-0.2,3.4-0.3,5.1-0.4
	c1.4-0.1,1.9,0.5,1.9,2.4c0,4.2,0,8.5,0,12.7C722.7,127.9,722.7,129,722.7,130.1z M718.2,135.2c-0.1,0-0.3-0.1-0.4-0.1
	c0-0.6,0-1.2-0.1-1.7c-0.3-1.3-0.5-2.7-0.9-4c-0.8-2.5-3.6-4.7-5.9-4.6c-2.7,0.1-4.8,2.1-5.5,5c-1,3.9-0.8,7.9,0.2,11.7
	c0.6,2.5,2.2,4.1,4.8,4.5c2.4,0.3,4.4-0.7,5.3-2.7C716.7,140.7,717.3,137.9,718.2,135.2z"/>
<path d="M156.9,329.8c-0.6,0.3-0.9,0.6-1.4,0.7c-4.5,1.3-9,2.6-13.5,3.7c-2.9,0.8-6,1.2-8.9,2c-8.2,2.3-16.1,5-21.3,12.5
	c-0.3,0.5-0.6,1-0.9,1.5c-0.7,1.3-1.4,1.3-2.2,0c-0.8-1.3-1.7-2.5-2.3-3.8c-0.3-0.5-0.2-1.5,0.1-2c2.1-3.5,5.2-6,8.7-7.9
	c3.7-2,7.4-3.9,11.3-5.2c4.1-1.5,8.5-2.3,12.8-3.4c2.9-0.7,5.9-1.3,8.8-2.2c2.3-0.8,4.3-1,6,1.3c0.5,0.6,1.2,1,1.8,1.6
	C156.2,328.9,156.4,329.3,156.9,329.8z"/>
<path d="M190.6,322.3c-0.4,0.5-0.6,0.9-0.9,1.1c-4.4,3.9-9.1,7.6-14.3,10.2c-0.5,0.3-1.4,0.4-1.9,0.1c-5.1-2.7-9.7-6-14-9.9
	c-1.3-1.2-1.2-1.9,0.4-2.5c4.8-1.7,9.2-4.2,13.4-7.2c0.5-0.4,1.9-0.2,2.4,0.2c4,2.9,8.3,5.1,12.8,6.8
	C189.3,321.5,189.9,321.9,190.6,322.3z"/>
<path d="M166.9,338c-0.4,0.3-0.8,0.7-1.2,0.8c-5.3,1.8-10.6,3.8-16,5.4c-3,0.9-6.2,1.3-9.2,2c-7.5,1.7-14.9,3.7-20.1,10.1
	c-1.1,1.3-1.7,3.1-2.5,4.6c-0.2,0.4-0.5,0.9-0.9,1c-0.2,0.1-0.7-0.4-1-0.8c-0.8-1.2-1.6-2.4-2.3-3.6c-0.3-0.6-0.4-1.5-0.1-2
	c2.6-4.5,6.1-8.1,10.9-10.3c4.4-2.1,9-3.4,13.8-4.3c4.7-1,9.4-2.4,14.1-3.7c2.8-0.8,5.5-1.9,8.3-2.8c0.5-0.2,1.2-0.2,1.6,0.1
	c1.4,0.8,2.7,1.8,4,2.7C166.4,337.3,166.6,337.6,166.9,338z"/>
<path d="M197.2,325.3c0.4,0.1,0.9,0.2,1.4,0.3c4.1,0.9,8.1,1.8,12.2,2.8c2.5,0.6,5.1,1.3,7.6,2.1c3.2,1,6.4,2,9.4,3.5
	c5,2.3,9.7,5.2,13,9.8c0.4,0.6,0.5,1.7,0.2,2.3c-0.5,1.2-1.4,2.3-2.1,3.5c-0.7,1.1-1.2,0.9-1.9,0c-1.4-1.8-2.9-3.7-4.4-5.4
	c-3.1-3.5-7.3-5.3-11.6-6.7c-5.2-1.6-10.6-2.7-15.9-4.1c-4-1-8.1-2-12.1-3.2c-0.4-0.1-0.9-1.1-0.9-1.2c1.4-1.3,2.9-2.5,4.4-3.8
	C196.6,325.2,196.9,325.3,197.2,325.3z"/>
<path d="M133.4,40.3c0-2.2,0.1-4.5-0.1-6.7c-0.1-1.3-0.6-2.7-1.3-3.8c-1.2-2.1-2.7-4-3.9-6.1c-0.6-1-0.9-2.3-1-3.5
	c-0.1-3.4-0.1-6.9-0.1-10.3c0-1.9,0.4-2.3,2.3-2.4c4.4-0.1,4.7-0.1,4.3,4.3c-0.6,6.2,1,11.5,5,16.2c0.7,0.9,1,2.4,1.1,3.6
	c0.1,5.2,0,10.3,0.1,15.5c0,1.6-0.4,2.3-2.1,2.3c-5.3,0-4.4-0.4-4.4-4.4C133.4,43.4,133.4,41.9,133.4,40.3
	C133.4,40.3,133.4,40.3,133.4,40.3z"/>
<path d="M209.1,39.1c0-2.2,0.1-4.4,0-6.5c-0.2-2.4,0.8-4.3,2.1-6.2c1.1-1.6,2.3-3.2,3.2-4.9c0.5-1,0.9-2.3,0.9-3.4
	c0.1-2.7,0.1-5.5,0-8.3c0-1.6,0.6-2.3,2.2-2.3c4.3-0.1,4.3-0.2,4.3,4.1c0,1.8-0.2,3.6,0,5.3c0.6,4.2-1.1,7.6-3.5,10.8
	c-0.1,0.1-0.2,0.3-0.3,0.4c-1.8,2.1-2.5,4.5-2.3,7.3c0.2,3.9,0,7.9,0.1,11.9c0,1.5-0.5,2.1-2,2.1c-5.8,0.1-4.6-0.1-4.7-4.4
	C209.1,43,209.1,41,209.1,39.1z"/>
<path d="M127.4,283.8c4.5,0.9,8.2,1.2,10.9,5.4c4,6.3,9,12,13.7,17.9c2,2.5,4.3,4.9,6.5,7.3c0.2,0.3,0.4,0.6,0.7,1.1
	c-1.6,0.7-3,1.5-4.5,1.8c-0.7,0.2-1.9-0.3-2.4-0.8c-6-7.4-12-14.8-17.8-22.3c-2.3-2.9-4.2-6-6.3-9
	C128,284.9,127.9,284.6,127.4,283.8z"/>
<path d="M221.2,284.5c-1.5,2.3-2.9,4.6-4.6,6.7c-4.6,6.2-9.3,12.4-14.1,18.5c-1.9,2.4-4.1,4.5-6.1,6.8c-1,1.1-2.2,1.1-3.4,0.5
	c-3.2-1.5-3.2-1.6-1-4.3c3.9-4.7,8-9.3,11.8-14.1c2.7-3.4,5.2-7,7.7-10.5c1.3-1.8,2.7-3,5-3.2c1.4-0.1,2.9-0.6,4.3-0.9
	C221,284.1,221.1,284.3,221.2,284.5z"/>
<path d="M145.4,287.8c4,1.1,7.7,1.6,10.5,5.2c3.9,5.2,8.5,9.8,12.8,14.6c1.6,1.8,1.7,2-0.3,3.4c-0.8,0.6-1.5,1.3-2.4,1.6
	c-0.6,0.2-1.7-0.1-2.1-0.6c-3.2-3.5-6.4-7-9.5-10.6c-3.2-3.9-6.3-7.9-9.4-11.8c-0.3-0.3-0.5-0.9-0.4-1.2
	C144.6,288.1,145.2,287.9,145.4,287.8z"/>
<path d="M203.4,287.8c0.4,0.2,0.9,0.3,1,0.5c0.1,0.3,0,0.9-0.3,1.2c-5.9,7.1-11.8,14.2-17.6,21.3c-0.2,0.3-0.5,0.5-0.7,0.7
	c-1.1,1.3-2.2,1.8-3.7,0.5c-0.2-0.1-0.4-0.2-0.6-0.3c-3.6-2.4-2.9-2.2-0.7-4.6c4.3-4.7,8.4-9.5,12.5-14.4c1.6-1.9,3.3-3.5,5.9-3.8
	C200.6,288.8,202,288.2,203.4,287.8z"/>
<path d="M737.3,135.9c0,3.1,0,6.2,0,9.3c0,1.1,0.3,2.4-1.2,2.9c-1,0.3-2.7-0.8-3.2-2.1c-0.3-0.9-0.4-1.9-0.4-2.9
	c0-5.1-0.1-10.1,0-15.2c0-1.7-0.5-2.5-2.2-2.6c-0.5-0.1-1-0.5-1.4-0.8c0.5-0.2,1-0.6,1.6-0.7c1.5-0.2,3-0.4,4.4-0.5
	c1.8-0.1,2.4,0.4,2.4,2.3C737.3,129,737.3,132.5,737.3,135.9C737.3,135.9,737.3,135.9,737.3,135.9z"/>
<path d="M138.5,13.8c0-1.5,0-3.1,0-4.6c0-1.1,0.5-1.7,1.7-1.7c0.3,0,0.6,0,0.9,0c4,0,4,0,3.9,4c0,1.7,0.6,2.3,2.4,2.3
	c2.5,0,2.6,0.2,2.6,2.6c0.1,4,0.1,4-4,4c-1.8,0-3.6-0.1-5.3,0c-1.6,0.1-2.2-0.6-2.2-2.1C138.5,16.8,138.5,15.3,138.5,13.8
	C138.5,13.8,138.5,13.8,138.5,13.8z"/>
<path d="M210.5,13.9c0,1.5,0,3,0,4.5c0,1.3-0.6,2-2,2c-2.4,0-4.8-0.1-7.2,0c-1.6,0-2.3-0.7-2.2-2.3c0-0.3,0-0.7,0-1
	c0-3.1,0-3.2,3.1-3.3c1.5-0.1,2.2-0.7,2.1-2.2c-0.4-4.6,0.4-4,4.5-4c1.2,0,1.8,0.6,1.8,1.8C210.5,10.8,210.5,12.4,210.5,13.9
	C210.5,13.9,210.5,13.9,210.5,13.9z"/>
<path d="M226.3,20.2c0-1.5,0-3,0-4.5c0-1.2,0.6-1.9,1.9-2c4.4-0.4,4.7-0.1,4.7,4.3c0,2.1,0,4.1,0,6.2c0,1.9-0.4,2.3-2.3,2.4
	c-4.4,0.2-4.4,0.2-4.4-4.2C226.3,21.6,226.3,20.9,226.3,20.2C226.3,20.2,226.3,20.2,226.3,20.2z"/>
<path d="M122.7,20.3c0,1.5,0,3,0,4.5c0,1.3-0.6,1.8-1.9,1.9c-4.6,0.1-4.6,0.1-4.6-4.4c0-2.1,0-4.2,0-6.4c0-1.4,0.7-2.1,2.1-2.2
	c4.4-0.2,4.4-0.3,4.4,4.2C122.7,18.7,122.7,19.5,122.7,20.3C122.7,20.3,122.7,20.3,122.7,20.3z"/>
</svg>
