<?xml version="1.0" encoding="utf-8"?>
<!-- Generator: Adobe Illustrator 28.3.0, SVG Export Plug-In . SVG Version: 6.00 Build 0)  -->
<svg version="1.1" id="Calque_1" xmlns="http://www.w3.org/2000/svg" xmlns:xlink="http://www.w3.org/1999/xlink" x="0px" y="0px"
	 viewBox="0 0 699.2 677.7" style="enable-background:new 0 0 699.2 677.7;" xml:space="preserve">
<path d="M189.6,424.7c3.3-3.5,5.7-6.6,8.7-9.1c1.9-1.6,4.6-2.4,6.9-3.6c1-0.6,2.6-1.2,2.8-2c0.2-0.9-0.7-2.4-1.6-3.1
	c-3.5-2.7-7.3-5-12.1-4.4c-2.8,0.4-4.6-0.7-6.4-3.1c-3.8-5.1-8.2-9.8-12.6-14.5c-1.9-2-2.5-3.7-0.3-5.8c1.8-1.8,2.5-3.8,1.5-6.5
	c-0.6-1.6-0.3-4.5,0.7-5.5c0.9-0.9,3.6,0.1,5.4,0.3c1.1,0.1,2.2,0.6,3.3,0.5c1.7-0.2,4.2-1.5,4.8-0.9c2.1,2.3,3.6,5.2,5.3,7.9
	c0.4,0.7,0.5,1.5,0.7,2.3c0.4,0.1,0.8,0.2,1.2,0.2c0.3-1.3,0.9-2.6,0.9-3.9c-0.2-5.6-1.6-11.3,5.1-14.8c3.4-1.8,3-7.6,0.9-12.9
	c-2.5-6.2-5.6-12.6-5.9-19.1c-0.7-13.9,0.5-27.8,0.4-41.8c0-6,0-12.4-4.8-16.9c-1.2-1.1-4-1.5-5.5-0.9c-3.4,1.3-4.8,5.7-3.7,8.8
	c1.1,3.4,1.9,7,3.1,10.4c1.6,4.5,0.2,8.3-2.2,11.9c-0.7,1.1-1.2,2.2-1.7,3.4c-1.4,3-0.4,5.2,2.7,5.9c2.4,0.6,5.4,1,4.2,3.8
	c-0.8,1.9-4,3.7-6.3,4c-3.8,0.4-9.1-7.3-7.9-10.9c1.3-3.9,2.9-7.7,4.3-11.6c0.5-1.3,1-2.8,0.7-4.1c-0.7-4.1-1.4-8.4-2.7-12.3
	c-1.9-5.7,0.9-10,4.4-13.3c2.8-2.6,6.9-4.8,11.4-2c1.7,1,3.6,1.5,6.4,2.6c1.3-3.1,2.3-6.5,4-9.5c1.8-3.1,4.1-6.1,6.6-8.8
	c5-5.6,10.3-10.9,15.4-16.4c0.5-0.5,0.8-1.3,1.8-3.1c-4.1,2.5-6.9,4.3-9.9,5.9c-2.4,1.3-5.8,1.6-7.3,3.5c-2.8,3.5-6,5.5-10.3,6.6
	c-2.5,0.6-4.4,3-6.8,4c-3.6,1.5-7.3,2.9-11,3.7c-1.2,0.2-4-1.8-4-2.9c-0.1-2.6,0.5-5.6,1.8-7.9c1.2-2.1,3.9-3.3,5.7-5.1
	c1.5-1.6,2.4-3.7,3.9-5.4c0.9-1.1,2.1-2,3.4-2.7c2.5-1.4,4.7-2.8,3.1-6.2c-0.3-0.6-0.6-1.6-0.3-2c5.2-7.3,4.4-19,15.7-21.9
	c1.1-0.3,2.5-0.5,3.4,0c4.3,2.3,8.9,0.9,13.2,1.4c6,0.7,7.9-2.1,10.8-6.4c2.8-4.2,6.4-8.9,13.1-8.2c1.3,0.1,3.2-2.1,4.1-3.6
	c1.1-1.7,1.3-4,2.1-5.9c0.4-0.9,1.5-2.2,2.1-2.1c4.3,0.5,6.1-2.6,8.2-5.2c1.7-2.2,3.2-2.7,6.1-2c3.7,0.9,7.6,1,11.4,0.9
	c3.7-0.2,5.8,1.5,4.7,5c-1.2,4-2.5,8-4.3,11.8c-0.6,1.2-2.7,1.7-4.2,2.4c-1.1,0.5-2.2,0.7-4,1.1c1.1,1.1,1.5,1.8,2.2,2.3
	c3.5,2.5,7.2,4.8,10.4,7.6c1,0.9,0.6,3.4,0.6,5.1c0.1,2.1,0,4.1,0.6,6.2c5.8-5.5,7.8-12.5,9.2-19.6c1.3-6.8,2.2-13.6,3.3-20.4
	c0.1-0.8,0.2-1.7,0.2-2.6c0.2-7.5,5.5-12.5,13.3-12.6c4.3-0.1,8.5-0.1,11.7,3.7c0.7,0.8,2.8,0.4,4.3,0.3c2.1-0.1,4.3-0.7,6.3-0.4
	c11.7,1.6,23.2,0.9,34.7-1.5c4.1-0.9,8.3-1.4,12.5-1.8c1-0.1,2.3,1,3.2,1.8c4.7,4.1,7.3,8.9,7.3,15.6c0,9.5,0.8,19,1.7,28.5
	c0.3,2.6,2.1,5.1,3.4,7.6c0.2,0.4,1.7,0.7,1.7,0.6c0.5-0.9,1.3-2.2,1-2.8c-2.3-4.3-0.6-7.2,2.7-10.1c0.9-0.8,1.2-2.5,1.3-3.8
	c0.4-4.2,1-4.5,5.1-3.2c1.8,0.6,3.8,0.6,5.7,0.9c0.1-0.5,0.3-1,0.4-1.4c-1-0.7-2.1-1.3-2.9-2.2c-2.1-2.3-6.1-3.7-4.1-8.2
	c0.5-1-0.5-2.7-0.8-4.1c-0.3-1.5-1-3.1-0.7-4.5c1.3-6.1,3.2-8.3,8.8-4.9c2.3,1.4,4.5,1.6,7.3,1.6c2.8,0,6,3.2,8.3,5.7
	c1.6,1.8,2.7,3,5.3,3.4c3.1,0.5,3.8,3.3,3.1,6.2c-0.8,3.4,0.3,5.8,3.3,7.5c1.2,0.7,2.7,1.3,3.6,2.3c2.5,3,4.5,1.8,6.9-0.2
	c2.7-2.3,5.6-4.8,9.5-3.8c2.1,0.5,4.1,1.8,6,3c2.3,1.4,3.9,1.3,5.9-0.8c4.4-4.6,12.8-2.4,15.2,3.6c0.7,1.7,2.3,2.9,3.3,4.5
	c0.9,1.4,2.1,3,2.1,4.5c0.1,6.6,3.2,11.9,6.5,17.1c3,4.9,6.3,9.6,9.4,14.5c1.5,2.3,0.1,5.6-2.9,7c-5.6,2.5-10.1-0.2-14.6-3
	c-5.4-3.3-10.8-6.6-16-10.3c-3.9-2.7-7.4-5.9-11-8.9c-1.5-1.2-3-2.5-4.5-3.7c-0.4,0.2-0.9,0.3-1.3,0.5c0.3,1.7,0.1,3.9,1.1,5.1
	c5.8,7.6,10.8,16.1,18.1,22c5.5,4.5,10.3,9.1,14.6,14.5c1.1,1.4,1.8,3.1,2.7,4.5c0.7-0.1,1.1-0.1,1.2-0.2c5.2-4.7,8.9-5.2,14-1.9
	c5,3.1,7.6,9.2,6.3,14.6c-1.3,5.2-2.8,10.4-3.9,15.7c-1.1,5.2-0.3,10.3,2.4,15c1.5,2.5,1.6,4.7-0.2,7c-0.4,0.6-0.8,1.1-1.2,1.7
	c-3.9,6.9-4.9,7.2-12.1,3.7c-0.5-0.2-1.1-0.3-2.3-0.6c-0.4,1.8-0.8,3.5-1.1,5.2c-0.6,3.3-1,6.7-1.8,9.9c-1.6,6.6-3.4,13.2-5.3,19.7
	c-0.5,1.6-1.4,3.1-2.3,4.5c-2.4,3.3-2.6,7.2,0.1,9.6c4.9,4.3,6.9,9.2,5.6,15.7c1,0.1,1.8,0.4,2,0.2c3.2-4.9,8.7-3.9,13.3-5
	c1.4-0.3,3.6,0.2,4.5,1.2c0.8,0.9,0.9,3.3,0.3,4.5c-1.9,3.9-2,7.7-1,11.9c0.4,1.7-0.4,4-1.3,5.7c-2.4,3.9-4.6,8.2-7.9,11.3
	c-2.6,2.4-6.5,3.7-10.1,4.7c-2.5,0.7-6.4,3.2-6.2,5.7c0.1,0.9,1.4,2.3,2.2,2.3c4.5-0.1,8.6,0.4,12.5,3.1c2.8,1.9,4.3-0.7,5-3.3
	c1.1-4.5,2.3-8.9,3.5-13.4c0.3-1.2,1-2.9,1.9-3.2c1.8-0.6,3.9-0.5,5.9-0.7c-0.1,1.6,0.1,3.2-0.2,4.7c-0.6,2.7-1.3,5.4-2.5,7.9
	c-1.8,3.9-3.8,7.8-6.1,11.5c-1.7,2.9-3,5.1-2,9.1c1,4.1-0.1,9.1-1.7,13.2c-1.9,5.1-4.1,10.4-9.5,13.5c-4.2,2.4-8.4,3.3-11.8,1.1
	c-4.9-3.2-6.8-7.6-5-12.6c1.8-4.8,3.7-9.7,6.3-14.2c1.4-2.4,4.2-4,6.4-5.8c1.2-1,2.5-1.8,3.7-2.7c-3.5-4-10.4-4.5-13.8-0.9
	c-4.5,4.8-8.9,9.6-9.9,16.8c-0.5,3.8-3.4,7.3-4.9,11.1c-3.3,8.3-6,16.8-9.5,24.9c-2.6,6-6.1,11.6-9.5,17.2
	c-2.4,3.9-5.1,7.7-7.9,11.4c-8.3,11.1-19.6,18.3-31.7,24.5c-7.1,3.6-14.2,6.8-22.3,7c-1.1,0-2.3,1.4-3.1,2.4
	c-5.4,7.6-12.7,8.7-21.7,5.3c-1.4-0.5-3-0.9-4.5-1c-5.3-0.1-10.7-0.3-16,0c-5.3,0.3-10.6,1.3-16,1.9c-5.1,0.6-10.1,1-15.2,1.4
	c-1,0.1-2.2-0.5-3-1.2c-3.7-3.6-7.3-7.2-8.6-12.7c-1-4.3-3.2-7.8-9-7.8c-2.9,0-5.8-2.5-8.7-3.9c-10.9-5.2-21.4-11.3-30.8-19
	c-3.7-3-6-7.5-9.3-11c-7.1-7.6-11.4-16.5-14.5-26.3c-1.1-3.4-1.4-7.2-3.1-10.3c-5.2-9.2-1.6-21-9-29.5c-3-3.4-5.5-7.2-8.9-10.2
	c-1.4-1.2-4.8-1.7-6.5-0.8c-3.9,1.9-7.9,4.2-10.8,7.4c-3.3,3.5-2.6,4.3,1.9,5.8c9.5,3.1,16.6,12.3,12.5,21.3
	c-1.5,3.3-4.9,6.2-8.1,8.3c-3.2,2.1-5.4-1.6-7.7-3.1c-7.3-5-8.4-12.7-8.4-20.9c0-2-1-4.1-2.1-5.8c-3.8-5.8-6.2-11.8-6.6-18.9
	c-0.1-2.7-2.3-5.5-3.9-8c-1.1-1.7-3-2.7-0.8-5c2.1-2.2,4-2,5.9-0.3c1.3,1.2,2.8,2.8,3.2,4.4c1.4,5.8,2.4,11.8,3.7,17.7
	C188.6,421.5,189.1,422.8,189.6,424.7z M361.3,536.1c0-0.6-0.1-1.2-0.1-1.9c1-0.2,2.1-0.6,3.1-0.5c2.7,0.2,3.5-1,3.5-3.6
	c0.2-13.2,0.6-26.4,0.8-39.6c0.1-7.2-0.1-14.4,0.1-21.7c0.1-7.3,0.8-14.6,0.8-21.8c0.1-45.6,0.1-91.2,0-136.8c0-4,1.6-5.4,5.4-5.2
	c9.8,0.6,19.6,0.9,29.4,1.9c5,0.5,10,1.6,14.8,3.3c6.3,2.2,6.2,2.5,9.9-2.7c0.6-0.8,1.4-1.5,2.1-2.2c4.3-4.3,8.7-8.6,12.9-13
	c2.6-2.6,2.3-6.9-0.7-8.1c-6.3-2.6-12.6-5-19-7.4c-0.5-0.2-1.1-0.2-1.7-0.2c-11.4,0.1-22.2-3.7-33.3-5.2c-2.9-0.4-5.9-0.5-8.9-0.8
	c-2.7-0.3-5.4-0.4-8-0.8c-3.2-0.5-4.3-2.2-3.1-5.5c0.7-2.1,1.2-4.4,1.2-6.6c0.1-20.3,0-40.6,0-60.9c0-3.6-2.1-5.6-6-5.6
	c-8.1,0-16.1,0.1-24.2-0.1c-3.5-0.1-4.5,1.1-4.4,4.5c0.2,11.8,0,23.6,0.1,35.4c0,2.8,0.7,5.6,0.7,8.5c0,7.8-0.4,15.6-0.2,23.4
	c0.1,4.4-0.9,6.8-4.5,6.8c-11.7,0.1-23.2,0.8-34.8,3.1c-11.3,2.2-22.6,3.4-33.4,7.9c-5.6,2.4-7.4,9-2.9,13.5
	c5.7,5.6,11.5,11.2,17.4,16.5c0.9,0.8,3.2,1.1,4.5,0.6c7.6-3,15.3-5.2,23.6-5.4c7.5-0.2,15-0.8,22.5-1.7c7.4-0.9,8.4,3.8,7.9,8.6
	c-0.3,2.5-0.8,5.1-0.8,7.6c0.1,5.6,0.8,11.1,0.7,16.7c-0.1,12.6-0.6,25.2-0.7,37.8c0,5.1,0.8,10.2,0.7,15.4c0,6.7-0.7,13.4-0.8,20.1
	c-0.1,18.4,0,36.9,0,55.3c0,13.5-0.1,27,0,40.5c0,3.2,0.5,6.5,0.9,9.7c0.5,4.2,1,8.4,1.6,12.6c0.5,3.3,1.4,6.5,2.1,9.7
	c0.6,0.1,1.2,0.3,1.8,0.4c-2.3,2-4.7,4-8,6.7c2.5-0.4,4.5-0.2,5-1c3.4-4.6,7.8-1.9,11.8-2c6.9-0.1,13.8,0,21.5,0
	c-1.7-2.7-3-4.9-3.8-6.1C365.6,536.1,363.5,536.1,361.3,536.1z M457.8,395.8c0.5,0.4,1.1,0.8,1.6,1.2c1.6-1.2,3.5-2.1,4.8-3.6
	c1.5-1.8,2.7-3.9,3.6-6c0.6-1.3,0.4-2.9,0.7-4.4c0.3-1.9,0.1-4.4,1.2-5.7c1.9-2.4,2-3.9,0.1-6.3c-1.5-2-1.5-4.2,1.9-4.8
	c2.9-0.5,4.2-2.4,3.9-5.5c-0.1-1.2,0.4-2.5,0.8-3.7c2.4-8.4,2.5-10.7,10.5-3c1.8,1.7,3.2,1.7,4.2-0.8c1.7-4.2,3.8-8.3,5-12.7
	c1.9-7,2.2-14.6,4.9-21.3c3.1-7.6,2.9-15.2,2.9-23c0-3.6-4-8.3-7.6-8.3c-2,0-4,1.3-6,2c1.2,1.5,2.2,3.1,3.5,4.3
	c1.4,1.2,3.2,1.8,4.6,2.9c0.9,0.8,2.1,2.4,2,3.3c-0.9,4.5-1.7,9.1-3.6,13.2c-2.9,6.2-6.4,12.2-10.2,17.9c-1.8,2.7-4.7,4.9-7.4,6.9
	c-2.1,1.5-5.6,1.6-7,3.4c-3.8,4.9-8.8,5-13.9,4.4c-1.8-0.2-4.3-1.4-4.9-2.8c-0.9-2.2-0.8-4.8,2.3-6.4c2.1-1.1,4.3-3.5,4.9-5.7
	c1.3-4.8,5.5-8.8,3.8-14.4c-0.1-0.2,0.5-0.6,0.8-0.8c3.2-1.6,3.6-4.4,3.4-7.6c-0.1-0.9,0-2.3,0.6-2.8c2.8-2.4,1.4-4.8,0.9-7.7
	c-0.4-2.5,1.1-5.6,2.6-7.8c0.7-1,3.9-1.3,5.4-0.7c3.3,1.5,5.2-0.2,6.5-2.3c2.5-4.2,6-5.8,10.6-5.7c2.4,0,4.7-0.4,7.1-0.7
	c-0.3-2.2-0.7-4.4-1-6.6c0-0.3,0-0.6,0-0.9c-0.6-7.8-3.3-15-7.9-21.3c-1.1-1.6-2.6-3.1-4.3-4.1c-3.3-2.1-5.9-0.6-5.9,3.3
	c-0.1,4.5-0.4,8.9,0.1,13.4c0.5,4.9-1,8.3-5,11.1c-2.3,1.6-3.9,2-5.9-0.2c-1.1-1.2-2.6-2.1-4.8-3.8c-0.9,11.3-1.7,21.2-2.6,31.1
	c-0.3,3.6-1.7,5.6-5.8,6.5c-5.1,1.1-9.6,4-12.3,8.8c-4.6,7.9-7.1,16.3-6.9,25.5c0.2,9.6,3.9,17.6,11.2,23.7c2.9,2.4,6.3,4.3,9.4,6.6
	c1.1,0.9,2.6,2.5,2.4,3.6c-0.7,3.7-2,7.2-3.1,10.8C459.4,390.9,458.6,393.4,457.8,395.8z M386.9,521.5c1.8-0.9,2.4-1.3,3-1.5
	c5.7-2.3,11.5-4.3,17-7c8.9-4.4,17.2-10,23.1-18.1c4.6-6.3,8.3-13.3,11.9-20.3c2.9-5.8,5.1-11.9,7.5-17.9c0.2-0.5,0.1-1.1,0.2-1.7
	c1.6-6.6,3.3-13.2,4.9-19.8c1.1-4.8,1.9-9.6,2.9-14.4c0.3-1.6,0.2-3.7,1.2-4.8c3.1-3.7,2.6-6.6-0.6-10c-2.8-2.9-3.9-3.3-5.9-0.1
	c-2.8,4.5-5.3,9.2-8.3,13.5c-6.6,9.9-12.6,20.4-20.4,29.4c-12.3,14.1-22.1,29.7-30.5,46.3c-3.2,6.2-5.5,12.8-7.6,19.5
	C384.7,516.3,386.2,518.9,386.9,521.5z M260.2,402.5c-0.5-1.1-1.1-2.6-1.8-4.1c-0.6-1.3-2.1-2.9-1.8-3.8c1.1-3,0.9-5-2.1-6.8
	c-1.1-0.6-1.1-3-1.6-4.6c-0.3-1.1-0.1-2.3-0.7-3.2c-2.5-4.3-1.8-6.8,2.5-9.5c2.2-1.4,3.8-3.5,5.9-5c3.2-2.2,5.6-4.7,6.1-8.8
	c0.1-0.6,0.7-1.5,1.3-1.6c3.8-1.2,3.8-4.7,4.6-7.6c0.7-2.4,0.8-5,1.6-7.4c2.4-8.1,0.1-15.9-0.8-23.8c-0.1-0.9-1.4-1.7-2.2-2.5
	c-0.6-0.6-1.5-1-2-1.6c-4.1-5.7-7.5-12.3-16.4-11.5c-0.8,0.1-2.3-1.6-2.5-2.7c-1.9-9.6-0.9-19.5-3.5-29c-0.3-1.1,0.1-2.3,0-3.4
	c-0.2-2.7,0.3-5.7-0.8-8c-3.3-7.4,1.8-10.5,8.1-9.9c5,0.5,9.3,1.1,13.6-2.4c5-4.1,10.6-7.5,15.6-11.6c11.7-9.5,18.7-22.6,26.4-35.2
	c1.6-2.6,2.5-5,0.6-7.8c-0.5-0.7-1.3-1.3-1.9-2c-0.5,0.7-1.1,1.4-1.4,2.2c-3.9,7.6-6.8,15.9-11.8,22.7c-5.6,7.6-12.7,14.4-19.9,20.6
	c-5.1,4.4-11.2,8.2-17.4,10.7c-4.9,2-10.8,1.9-16.3,2.3c-2.8,0.2-3.5,1.6-3.3,3.8c0.5,7.6,1.1,15.3,1.6,22.9
	c0.1,1.5,0.4,3.1,0.5,4.6c0.4,7.4,0.7,14.8,1.4,22.2c0.2,1.7,1.5,4.5,2.9,4.8c8.2,2.4,14,7.6,18.6,14.5c1.7,2.6,4.7,5.1,4.8,7.8
	c0.3,5.7-0.1,11.7-1.4,17.3c-3,12.4-10.8,21.1-22.6,26.1c-2.3,1-3,2.4-2,4.7c5.5,12.4,8.9,25.7,16.5,37.3
	c3.7,5.6,6.7,11.7,10.6,17.3c9.8,14.1,20,27.9,29.8,42c3.2,4.6,5.6,9.7,8.6,14.4c3.6,5.8,7.6,11.4,11.1,17.3
	c1.8,3.1,2.1,7.3,4.4,9.8c2.3,2.5,2.2,4.9,2.3,7.6c0,1,0.5,1.9,0.5,2.9c0,4.8,0,9.7-0.2,14.5c-0.1,2.3-1.3,4.1-3.8,3.2
	c-1.9-0.7-4.1-1.9-4.9-3.5c-1.4-2.9-1.5-6,0.7-9.2c0.8-1.1-0.3-3.9-1.1-5.5c-0.5-0.9-2.4-0.9-3.7-1.3c-0.2,1.5-0.4,3-0.6,4.5
	c-0.1,0.4,0,0.9-0.2,1.2c-2.9,4.6-0.1,8.3,2.1,12c2.7,4.6,6.4,6.6,9.5,5.3c4.4-1.8,7.2-7.7,6.2-12.6c-0.5-2.5-1.4-5.2-0.9-7.5
	c1.7-7.1-2.1-13-4.5-18.8c-3.5-8.4-8.7-16-13.3-23.9c-2.5-4.4-4.4-9.6-8.1-12.7c-3.5-2.9-5.6-6.5-8.4-9.7c-2.6-2.9-4.5-5.6-1.4-8.7
	c-1.4-1.9-2.2-4.2-3.7-4.8c-7.2-2.7-7.5-10-10.8-15.3c-1-1.6-1.6-3.5-2.6-5.1c-0.8-1.3-1.5-3-2.7-3.7c-2.8-1.8-4.8-3.7-5.2-7.3
	c-0.1-1-1.2-2-2-2.8c-1-0.9-2.2-1.5-2.8-1.9c0.9-2.4,2.4-4.5,1.9-5.8C265.2,403.9,262.5,403.5,260.2,402.5z M247.9,401.8
	c-0.3,0.1-0.6,0.3-0.9,0.4c0.1,1.5,0,3.1,0.3,4.6c1.3,6.2,2.7,12.3,4,18.4c0.9,4,1.4,8,2.7,11.9c2,6.2,4.5,12.3,6.8,18.4
	c1.8,4.7,3.3,9.4,5.4,13.9c2.3,4.9,4.5,9.8,8.5,13.9c3.9,4,6.2,9.5,10.2,13.3c6.5,6,13.6,11.5,20.9,16.6c3.9,2.7,8.6,4.2,12.9,6.2
	c0.4-0.3,0.7-0.6,1.1-1c-0.6-1.6-1-3.3-1.8-4.8c-2.5-4.7-5.3-9.3-7.7-14c-2.9-5.6-5.1-11.5-8.5-16.7c-7-10.7-14.6-21-21.8-31.5
	c-3.7-5.4-6.8-11.3-10.7-16.6c-6.1-8.3-12.1-16.6-16.5-25.9C251.5,406.4,249.5,404.2,247.9,401.8z M458.9,380.2
	c0.3-0.6,0.6-1.2,0.9-1.7c-1.6-1.2-3.1-3-4.8-3.3c-6.2-1.2-9.9-6.1-14.2-9.8c-4.9-4.3-7.6-10.2-9.5-16.9
	c-3.5-12.5-0.2-23.5,5.6-33.8c2.7-4.9,8.5-8,12.8-12c4.1-3.9,8.8-7,8-14.2c-0.6-5.8,0.6-11.9,1.5-17.7c1.3-8.3-1.7-14-9.8-16.2
	c-7.8-2.1-14.6-6-20.9-10.8c-7.3-5.5-14.2-11.5-21.1-17.5c-2.8-2.4-6.9-3.4-8.5-7.5c-0.8-2.1-2.3-4-3.5-5.9c-0.8,1.5-1,2.7-0.5,3.6
	c2.6,4.2,4.7,8.8,8.1,12.3c6.2,6.2,13,11.9,19.9,17.4c8.1,6.5,17.5,10.5,27.6,12.5c4,0.8,4.4,2.8,4.1,5.9c-0.1,1.3-0.5,2.5-0.6,3.7
	c-0.6,8.7-1,17.3-1.9,26c-0.2,1.7-1.9,3.8-3.5,4.7c-11.7,6.3-19,16.2-22,28.7c-3.4,14.2-0.7,27.8,7.5,40.1
	c3.5,5.2,5.8,11.2,12.1,14.4c1.4,0.7,2.2,5.7,1.2,7.6c-4.7,8.6-9.8,17-15.3,25.1c-11.8,17-24.1,33.7-35.9,50.7
	c-8.8,12.7-14.9,26.9-20,41.5c-1.1,3.1-1.4,6.2,1.5,9.4c2.4-5.8,2.7-11.6,6.4-16.4c2.1-2.7,1.9-7,3.7-10
	c5.1-8.9,10.3-17.8,16.2-26.2c7.7-10.9,17.4-20.4,23.8-32.3c4-7.4,9.5-14,14.2-20.9c1.1-1.6,1.8-3.4,2.7-5.1c2-3.9,3.6-8.2,6.2-11.7
	c2.6-3.6,4.4-6.8,2.4-11.2c-0.3-0.8-0.2-1.7-0.3-2.8C455.1,379.8,457,380,458.9,380.2z M490.6,417.5c-3.2,0.4-5.7,1-8.1,0.9
	c-4.8-0.2-9.6-0.9-14.3-1c-0.9,0-2.2,1.7-2.6,2.9c-1.2,4-1.9,8.1-2.9,12.2c-2,8-3.6,16-6.1,23.8c-2.4,7.4-5.5,14.5-8.6,21.6
	c-4.4,10.2-10.5,19.2-17.8,27.5c-8.5,9.6-20,14.4-31.2,19.8c-1.4,0.7-2.3,2.4-3.5,3.7c1.4,0.8,3,2.4,4.2,2.1
	c6.4-1.3,13.4-1.9,18.9-5c10.5-5.8,20.7-12.4,27.9-22.4c5.2-7.1,9.9-14.6,14.5-22.1c1.9-3.1,2.8-6.9,4.2-10.4
	c2.3-5.9,5.1-11.6,6.8-17.7c3.5-11.9,7.6-23.3,16.9-32C489.8,420.6,490,419,490.6,417.5z M242.1,387.2c0.3-0.3,0.6-0.6,1-1
	c-1.3-2.5-2.6-4.9-3.8-7.4c-2.6-5.2-1.8-9.6,2.7-11.3c8.7-3.3,14.9-8.6,19-17.4c3.2-6.8,2.9-13.1,1.4-19.9c-0.4-1.7-2.3-3.2-2.3-4.8
	c-0.3-8.6-6.4-12.2-12.9-15.2c-2-1-5.1-0.8-7.2,0.1c-0.9,0.4-1,3.9-0.7,5.9c0.2,1.8,1,3.9,2.2,5.3c4.3,4.7,4.6,12.1,10.6,15.8
	c1,0.6,1.9,2.7,1.6,3.7c-0.6,2.2-1.8,4.5-3.3,6.2c-0.6,0.7-2.9,0.6-4.1,0.1c-7.4-3.1-14.9-6.2-20.5-12.2c-7.1-7.7-16.5-14-17-26.1
	c0-0.6-0.4-1.5-0.9-1.9c-1.1-0.8-2.3-1.3-3.5-1.9c-0.3,1.2-1,2.6-0.7,3.7c2.5,8.3,1.8,17.2,5.9,25.2c2,3.9,2.6,8.5,3.9,12.8
	c0.9,2.9,2.6,3.6,5.5,2.1c3.7-1.9,5.2-0.8,6.5,3.1c0.8,2.5,1.9,5.2,3.6,7c2.4,2.4,2.7,4.9,2.1,7.8c-1,4.9,3.7,16.8,7.9,19.5
	C239.9,386.9,241.1,386.9,242.1,387.2z M455.7,200.2c-1.4,3.7-2.3,6-3.1,8.4c-0.7,1.8-1.3,3.6-2,5.4c-0.7,1.6-1.3,4.1-2.3,4.4
	c-1.5,0.4-3.7-0.6-5.2-1.7c-3.3-2.4-6.4-5.2-9.7-7.7c-0.7-0.6-2.4-0.8-3.1-0.3c-4.6,3.2-9.4,4.5-15,3.2c-1-0.2-2.8,0.5-3.2,1.3
	c-0.4,0.8,0,2.6,0.6,3.4c2.6,3.2,5.2,6.6,8.4,9.3c5.4,4.5,10.9,9,17,12.5c4.6,2.6,10.1,4.1,15.4,5.2c4,0.8,8.4,0,12.5,0.2
	c2.3,0.1,4.6,0.9,4.3,4.1c-0.4,3.5-0.6,7-1.4,10.5c-1.3,5.7-0.6,7.4,4.7,9.1c1.3,0.4,2.9,0,4.4,0c-0.1-1.5,0.1-3.1-0.4-4.6
	c-1.5-4.8-3.7-9.2-0.1-14.4c2-2.9,2.4-6.2-0.6-10.2c-7-9.1-13.8-18.6-17.4-29.9C458.9,206.1,457.5,203.8,455.7,200.2z M299.8,521.2
	c0.3-0.5,0.7-1.1,1-1.6c-3.1-2.7-5.9-5.8-9.4-7.9c-12.9-8-21.4-20.1-28.6-32.8c-4.9-8.8-7.7-18.8-11.3-28.2
	c-2.2-5.7-4.7-11.3-6.1-17.2c-1.7-7.2-2.4-14.7-3.6-22c-0.4-2.5-1.7-6-4.2-4.2c-4.5,3.2-9,2-13.7,2.4c-1.3,0.1-2.9,1.3-3.4,2.5
	c-0.4,0.9,0.6,2.6,1.4,3.6c1,1.3,2.4,2.3,3.6,3.5c7.4,7.3,8.8,17.2,12,26.4c0.7,2,1.5,4,1.7,6.1c1.3,11.6,6.4,21.9,11.9,31.9
	c3,5.5,8.2,9.9,12.6,14.6c7.7,8.1,17.7,13,27.2,18.6C293.7,518.4,296.8,519.7,299.8,521.2z M244.3,206.4c-0.5,0.1-1,0.1-1.5,0.2
	c-0.6,1.8-1.5,3.5-1.8,5.3c-1.7,10.8-5.8,20.1-14.5,27.1c-2,1.6-2.5,3.7,0.5,5.2c3.3,1.6,4.8,4.6,4.4,8c-0.5,4.6-1.3,9.2-2.7,13.5
	c-0.8,2.6-0.6,4.3,1.9,4.8c3.4,0.7,6.2-1.9,6-5.4c-0.3-5.7-0.9-11.3-1.7-16.9c-0.7-5.1,0-6.3,5.2-6c7.7,0.4,15.6,0.2,22.6-2.9
	c11-5,19.3-13.6,27.6-24.3c-3-0.4-4.9-0.7-6.9-1c-2.2-0.4-4.8-0.2-6.6-1.3c-3.6-2.2-6.7-5.1-10.5-8.1c-0.9,3-1.1,6-2.7,8
	c-1.7,2.2-4.6,3.5-7,5.2c-0.1,0.1,0,0.3-0.1,0.4c-1.5,0.8-3.2,2.4-4.5,2.2c-1.2-0.2-2.4-2.3-3.2-3.7
	C247.1,213.3,245.8,209.8,244.3,206.4z M237.6,276.6c-6.2,5.4-6.2,5.4-11.4,0.9c-3.8-3.3-3.5-7.6-2.9-12c0.5-3.9,1.2-7.9,1.2-11.8
	c0-1.8-1-4.7-2.1-5c-1.8-0.4-4.2,0.5-6.1,1.5c-4,2.2-4.4,6.8-6.4,10.3c-3,5.2-3.5,10.4-3.4,16.1c0.1,3.4,1.8,5.2,4.8,4.3
	c3.1-0.9,4.6,0.7,6.6,2.3c1.8,1.5,4,3.8,5.9,3.6c4.6-0.4,7.7,1.4,10.5,4.6c0.8,0.9,1.6,1.8,2.4,2.7c0.3-0.1,0.7-0.2,1-0.2
	C237.6,288.4,237.6,283,237.6,276.6z M327.2,177.3c1-1.6,1.3-2.2,1.8-2.7c1.4-1.4,2.6-3.3,4.3-3.9c0.8-0.3,2.5,2,3.8,3.1
	c1,0.9,1.9,2.3,3.1,2.5c5.6,1,10.5-0.4,14.7-4.5c1.5-1.5,3.8-2.2,5.9-3c3.1-1.2,6.3-2.1,9.4-3.1c-2-6.5-5.4-8.1-11.4-7.6
	c-6.4,0.5-12.9,0.4-19.3-0.1c-2.8-0.2-4.1-0.4-4.6,2.9c-0.2,1.5-1.9,2.8-3,4.2c-1.2-1.1-2.5-2.1-3.5-3.4c-1.6-2.1-3-4.4-4.7-7
	C324.9,162.4,325.9,169.3,327.2,177.3z M517.5,305.1c0.3-0.9,1.2-2.4,1-3.8c-0.4-3.2-1.5-6.3-2-9.4c-0.4-2.2-0.8-4.6-0.2-6.7
	c1.3-5.4,3.3-10.6,4.8-15.9c0.7-2.3-3.5-7.5-6.1-7.9c-3.2-0.4-6.8,2.6-6.6,6c0.3,3.8,1.3,7.4,1.6,11.2c0.5,6.5,0.8,13.1,0.9,19.6
	C510.9,302.4,511,306,517.5,305.1z M510.1,432.8c-7.9,5.9-12.9,12.1-12,21.4c0.1,1.2,0.7,3.1,1.2,3.2c1.2,0.2,2.8-0.3,3.8-1.1
	c5.8-4.9,6.6-11.9,7.8-18.7C511.1,436.4,510.5,435,510.1,432.8z M197.2,434.9c-0.7,1.5-2,3-1.8,4.1c0.6,3.3,1.7,6.6,2.8,9.9
	c1,2.9,3,4.6,6.2,3.4c3.5-1.3,3.3-4.2,2.7-7.1C206,440,201.9,437.7,197.2,434.9z M189.4,238.3c5.1-4.4,9.8-8.5,14.4-12.6
	c0.4-0.3,0-1.4,0-2.1c-0.9,0.3-1.8,0.4-2.6,0.8c-1.6,0.9-3.1,2-4.6,3.1c-1.4,1.1-2.8,2.2-4,3.5c-1.4,1.6-2.5,3.4-3.9,5
	c-2.7,3.2-5.6,6.4-8.8,10c1.3,0.4,2.7,1.2,2.8,0.9C185.2,243.9,190.6,242.9,189.4,238.3z M467,209.9c0.4,0,0.8,0,1.2,0
	c0.2-1.2,0.7-2.5,0.4-3.5c-1.3-4.6-1.3-8.9,2.2-12.7c0.4-0.4-0.5-2.1-0.8-3.2c-2.2,1-4.8,1.6-6.6,3.1c-1,0.8-1.1,3.2-0.8,4.8
	c0.6,2.9,1.8,5.8,2.8,8.6C465.8,208,466.5,208.9,467,209.9z M227.4,325.2c-0.5-0.3-1-0.7-1.5-0.9c-5.4-2.1-7.7-6.5-9.4-11.8
	c-1.2-3.6-3.4-7-5.1-10.4c-0.6,0.3-1.3,0.6-1.9,0.9c1,2.5,2.9,5,2.8,7.4c-0.3,5.2,5,7.1,5.9,11.6c0.4,1.8,2.8,3.3,4.4,4.8
	C224.3,328.4,225.9,328.5,227.4,325.2z M222.9,201.6c-1.9,0.2-4.1,0-4.3,0.5c-2.2,5.7-9,6.3-11.9,11.4c-2.4,4.4-2.8,4.5,2.8,5.7
	c0.2-1.8,0.4-3.5,0.6-5.1c1.6-0.5,3.5-0.5,4.4-1.5C217.3,209.5,219.7,205.9,222.9,201.6z M388.6,536.6c1.4-4.4,2.5-8.2,3.7-12.1
	c-4.1-0.7-6.2,1.1-6.3,3.7C386,530.9,384.1,534.8,388.6,536.6z M246.8,340.1c-1.7-0.6-2.8-0.9-3.8-1.4c-1.1-0.5-2.7-0.8-3.2-1.7
	c-2.1-3.5-5.2-3.7-9.6-3.3c1.7,1.6,2.9,2.9,4.3,3.9c1.6,1.1,3.7,1.5,5,2.8C241.9,342.9,243.9,342.4,246.8,340.1z M230.4,295.3
	c-2.6-5.4-6.2-4-9-3.9c-1.6,0.1-3,1.6-4.6,2.4c0.2,0.5,0.4,1,0.6,1.5C221.5,295.3,225.5,295.3,230.4,295.3z M213.1,284.7
	c-4.3,2.7-8.8,3.5-9.3,8.7c4.9,1.6,5.7-4,9-5C213.1,288.4,213,286.7,213.1,284.7z M393.8,199.4c-0.9-2.2,1.7-5.8-2.6-5.8
	c-1.4,0-4.2,2.2-4.1,3.1C387.6,200.1,390.3,200.3,393.8,199.4z M271,200.5c1.9,2.9,3.7,5.8,5.7,8.5c0.5,0.6,1.9,0.6,2.9,0.8
	c0.3-1,1-2.5,0.7-2.9c-2.4-2.5-5-4.8-7.6-7C272.3,199.7,271.2,200.4,271,200.5z M254.3,192.9c0.3,0.1,0.7,0.1,1,0.2
	c1.8-1.5,3.5-3.6,5.6-4.3c5.2-1.7,5.3-1.4,1.4-6.4C259.6,185.9,256.9,189.4,254.3,192.9z M466,250.9c-2.7-3.7-5.3-4.4-9-2.5
	C459.1,253.3,461.1,253.8,466,250.9z M473,210.1c4.1-4.2,3.2-8.7-2-12.4C471.7,202.1,472.3,205.7,473,210.1z M316.3,170.6
	c-2.4,1-5,10.1-3.4,12.9C313.9,179,318.8,175.9,316.3,170.6z M483.1,199.3c-1-2.9-1.6-5.1-2.7-7.1c-0.3-0.5-3-0.6-3.3,0
	c-0.6,1-0.8,3.1-0.2,3.7C478.3,197.3,480.3,197.9,483.1,199.3z M200.1,268.7c-2.1,3.6-1.2,6,3,8.3
	C204.9,273.3,203.7,270.8,200.1,268.7z M484.3,186.7c-0.4,0.4-0.9,0.7-1.3,1.1c0.9,1.1,1.7,3,2.6,3c2.1,0,4.8,3.1,6.6-0.7
	C489.3,188.9,486.8,187.8,484.3,186.7z M374.1,184.6c3.3,1.2,6,2.2,9.3,3.3C378.7,180.8,378.7,180.8,374.1,184.6z M389.7,171.2
	c-1,0.1-1.9,0.2-2.9,0.4c0.3,2.1,0.6,4.1,0.9,6.2c1-0.2,2.8-0.4,2.8-0.5C390.4,175.3,390,173.3,389.7,171.2z M424.6,191
	c3.4,0.3,8.3-2.7,8.6-5c0.1-0.5-0.1-1.1-0.4-1.5c-0.2-0.2-1-0.3-1.2-0.2C429.3,186.5,427.1,188.7,424.6,191z M217.7,298.5
	c-1.7-1.3-2.8-2.7-3.8-2.7c-1-0.1-2.1,1.3-3.1,2c1,1,1.9,2.4,3.1,2.8C214.7,300.8,216,299.5,217.7,298.5z M231.7,385.1
	c-0.7,6.1,3.5,6.2,6,7.9c0.4-0.3,0.7-0.7,1.1-1C236.7,390.1,234.6,388,231.7,385.1z M209.5,405.8c-0.1-4.1-4.4-7.5-8.2-6.9
	C204,401.2,206.5,403.3,209.5,405.8z M470.1,316.6c-0.4,0.3-0.7,0.6-1.1,0.9c0.5,4.1,1.6,5.3,5.8,5.1
	C473,320.3,471.6,318.5,470.1,316.6z M482.1,396c0.3,0.6,0.7,1.2,1,1.9c1.8-0.8,3.6-1.6,5.4-2.4c-0.5-0.8-1.3-2.3-1.4-2.2
	C485.4,394.1,483.8,395.1,482.1,396z M203.9,325c-0.7,0.1-1.3,0.2-2,0.3c0.5,3.2,1.1,6.5,1.6,9.7c0.5-0.1,1-0.2,1.5-0.2
	C204.6,331.5,204.2,328.3,203.9,325z M206.2,207.6c3.3-3.5,6.1-6.5,8.6-9.3C211.2,200,207.5,202.1,206.2,207.6z M479.4,213
	c-0.2,3.6-0.2,3.6,3.8,4.3c0-1.4,0-2.7,0-4.3C481.8,213,480.6,213,479.4,213z"/>
<path d="M299,14.6c3-0.1,6-0.2,9.9-0.3c-3.7-3.5-6.3-5.9-9.4-8.7c4.5-0.9,8.6-2.2,12.7-2.3c4.6-0.1,4.9,4.4,5.3,7.4
	c0.4,3.4-0.9,7-1,10.5c-0.1,3.6,0.3,7.3,0.6,10.9c0.2,1.9,0.4,4,1.3,5.7c0.6,1.1,2.5,1.6,3.8,2.4c0.3-1.5,1.5-3.6,0.9-4.3
	c-4.9-5.3,0.6-8.9,2.2-12.8c0.9-2.3,4.4-1.5,5.7,0.8c1.5,2.8,2.2,6,3.1,9c0.2,0.8-0.3,1.9,0.1,2.5c0.7,1.1,1.8,2,2.8,3
	c0.7-1.3,2-2.6,2-4c0.1-3.1-0.5-6.2-0.6-9.3c-0.1-2.9-0.2-5.3-2.3-7.9c-3.2-4-1.5-13.9,2.4-17c0.8-0.6,2.1-0.6,3.1-0.6
	c5.3-0.1,10.7,0.5,15.9-0.2c4.1-0.5,6.4,2.2,9.3,3.7c0.4,0.2,0.8,1.2,0.7,1.8c-0.4,4.7,1.2,9.6-2.1,14.1c-1.4,1.9-1.1,5.2-1.2,7.8
	c-0.2,3.7-0.1,7.5,0,11.2c0,0.7,0.8,1.4,1.1,2c4.9-1.4,7.4-3.8,4.3-8.8c2.3-3.1,4.7-6.2,7-9.3c1.9,2.2,4.3,4.1,5.4,6.6
	c0.8,2-0.4,4.8-0.1,7.2c0.2,1.8,1.4,3.5,2.1,5.2c1.1-1.4,2.9-2.7,3.2-4.2c1.4-6.6,2.7-13.3,1.1-20.2c-0.6-2.9,0.1-6.3,0.9-9.2
	c0.8-3,3.6-2.7,6.1-2.4c5.1,0.8,10.3,1.6,15.4,2.5c1.1,0.2,2.2,0.4,3.2,0.9c6.1,3.1,5.4,3.1,4.7,10.4c-0.5,5.9-4.2,10-5.7,15.2
	c-0.8,2.7-1.8,5.3-2.2,8.1c-0.1,1,1.1,2.2,1.7,3.3c0.8-0.8,2.3-1.7,2.3-2.5c-0.1-4.6,3.3-6.9,6-9.6c2-2,4-1.7,5.3,1
	c0.1,0.2,0,0.7,0.1,0.8c1.2,1.5,0.5,5.3,3.6,3.9c1.4-0.6,2.5-4.4,1.9-6.2c-1.3-4.4-1.1-8.5,0.2-12.8c1.5-4.8,5.9-7.1,10.7-5.1
	c5,2.1,10,4.3,14.9,6.5c3.8,1.8,4.9,4.9,3.2,8.9c-2.7,6.3-5.9,12.4-8.3,18.7c-2.5,6.7-4.4,13.7-6.4,20.6c-1.1,3.9-1.5,7.9-2.7,11.7
	c-1.4,4-2.4,7.7-0.1,11.8c0.5,0.9-0.5,3.5-1.6,4.3c-5.6,4.6-4.5,11.6-6.7,17.4c-0.1,0.3,0.2,0.8,0.3,1.2c0.7,2.2,2.5,5.1,1.8,6.5
	c-1.7,3.1-4.3,6.2-7.3,8.1c-10,6.4-20.9,10.3-33.1,9.8c-3.4-0.1-6.9,1-10.3,1.8c-9.9,2-19.8,2.9-29.9,1.7
	c-6.2-0.7-12.5,0.1-18.7-0.2c-6.1-0.3-12.1-1-18.2-1.7c-7.7-1-15.4-2-23-3.5c-3.8-0.7-7.4-2.5-11-3.9c-3.6-1.4-7.2-2.8-10.6-4.6
	c-2.4-1.3-4.7-3.2-6.7-5.1c-0.8-0.8-0.9-2.4-0.9-3.6c-0.2-3.1-0.1-6.2-0.2-9.3c0-0.8-0.4-1.7-0.4-2.5c0.2-5.1,0-9.8-3.7-14
	c-1.1-1.3-1.1-4.3-0.4-6.2c1.8-4.9-0.1-9.2-1.5-13.6c-1.5-4.9-3.3-9.8-5.1-14.7c-2.4-6.6-4.8-13.2-7.5-19.7
	c-0.7-1.7-2.6-2.8-3.6-4.4c-1.4-2.4-2.9-4.8-3.5-7.5c-0.3-1.5,0.6-4.1,1.9-4.8c4.4-2.7,9.1-4.8,13.8-7.1c1.1-0.6,2.4-0.9,3.5-1.4
	c5.5-2.5,9.7-0.1,10.5,6.1c0.4,2.9-0.2,5.8,0.2,8.7c0.4,3.1,1.2,6.2,2,9.3c0.5,1.9,1.2,3.8,2,5.5c0.6,1.2,1.6,2.3,2.7,3
	c0.4,0.3,2.3-0.7,2.3-1.2c0.1-1.4,0.1-3.4-0.8-4.3c-3.4-3.4-2.4-6.8-0.3-10c2.1-3.4,5.5-3.3,7.4,0.1c1.3,2.2,1.8,4.9,2.7,7.3
	c0.6,1.6,1.3,3.2,2.3,4.6c0.3,0.4,2.5,0.1,2.7-0.3c0.5-1.7,1.2-3.7,0.7-5.2c-2.3-6.7-4.9-13.3-7.7-19.8c-3.6-8.2-0.3-13.4,8.7-13.3
	c0.7,0,1.4,0,2.7,0C298.8,9.3,299,12,299,14.6c-3.1-1.2-6.2-2.4-9.3-3.7c-0.3,0.2-0.6,0.5-0.9,0.7c0.8,1.2,1.5,3.3,2.4,3.4
	C293.8,15.3,296.4,14.8,299,14.6z M287.5,95.5c-0.6-1.7-1.2-3.5-2-5.1c-0.1-0.2-2.1,0.7-3.3,1.1c0,0.5,0,0.9-0.1,1.4
	c1.8,0.8,3.7,1.6,5.5,2.5c0.5,6.2,2.4,7.4,7.3,4.9C294.4,95.5,291,95.5,287.5,95.5z M310.2,106.3c0.1,0.4,0.2,0.8,0.3,1.2
	c13.4-0.9,26.9-2.3,40.3-2.4c13.3-0.1,26.5,2.2,40.8,1.8c-1.3-1.2-1.6-1.7-1.9-1.8c-10.8-1.2-21.5-2.7-32.4-3.5
	c-4.9-0.4-9.9,0.4-14.9,0.8c-9.1,0.6-18.1,1-27.2,1.8C313.6,104.3,311.9,105.6,310.2,106.3z M357.5,138.7c3.1,2.6,6.5,2.9,10.3,2.1
	c3.4-0.7,7-1,10.4-1.3c4.7-0.4,9.3-0.5,14-1c0.9-0.1,1.7-0.9,2.8-1.5C389.7,132.6,363.8,134.1,357.5,138.7z M309.3,41
	c-0.7,0.2-1.4,0.2-2,0.5c-4.1,1.7-7,0-6.8-4.4c0.1-2.8,0.9-5.5,1.3-8.3c0.4-2.6,1.7-3.6,4.4-3.4c2.1,0.2,4.1,0,3.5-3.7
	c-1.6,0.4-3,0.7-4.4,1.2c-1.7,0.5-3.3,1.5-5,1.6c-5.3,0.3-5.6,0.4-4,5.3c0.2,0.7,0.6,1.3,0.8,2c1.1,4.1,0.8,8.7,4.7,11.9
	c0.6,0.5-0.2,2.5-0.3,3.9c-0.1,1.8,0,3.6,0,5.4c0.6,0,1.2,0.1,1.8,0.1c0.4-2.3,0.8-4.6,1.2-7.2c2.3,0.9,4.2,1.7,5.9,2.4
	C310,45.9,309.7,43.7,309.3,41z M294.6,130.2c-0.1,0.6-0.1,1.2-0.2,1.8c2.6,2.6,5.1,5.1,9.7,3.6c1.8-0.6,4.1,0.1,6.1,0.5
	c5,1,9.9,2.2,14.9,3.3c1.3-5.5-2.2-5.3-4.6-5.9c-5-1.3-10-2.5-15.1-3.2C301.8,129.8,298.2,130.2,294.6,130.2z M347.7,9
	c-2.3-1-4.2-1.6-5.8-2.6c-1.5-0.8-2.7-2-4.1-3.1c0.2,1.7,0.4,3.4,0.7,5.1c0.1,0.5,0.7,1,0.7,1.5c0.2,3.1,2.9,3.3,4.3,2.4
	c3.8-2.3,7.6-2.1,11.6-1.6c0.7,0.1,1.4-0.3,2.4-0.5c-2-2.2-3.7-4.3-5.6-6.1c-2-1.9-3.5-1.6-4.1,1.3C347.8,6.3,347.8,7.2,347.7,9z
	 M326.5,93.3c-0.2,0.5-0.4,1-0.6,1.5c2.2-0.3,4.6-1.4,6.5-0.8c1.8,0.6,2.9,3.1,4.6,4.9c1.8-2,2.6-3.6-0.4-5.3
	c-1-0.5-1.7-1.6-2.7-2.3c-1-0.7-2.1-1.8-3.2-1.9c-4.3-0.6-5.7-3.1-3.7-7.1c0.3-0.7,0.7-1.3,1.1-2c-0.2-0.2-0.4-0.5-0.7-0.7
	c-2.4,1.5-4.8,3-6.7,4.2C322.8,87.3,324.7,90.3,326.5,93.3z M451.2,28.7c1.4-0.7,2.5-1.2,3.4-1.9c0.1-0.1-0.4-1.5-0.8-1.7
	c-3.1-1.1-6.3-1.9-9.3-3c-1.7-0.6-3.1-1.9-4.8-2.5c-1.3-0.5-2.8-0.5-4.3-0.7c0.3,1.4,0.2,3.7,1,4C441.3,25,446.3,26.7,451.2,28.7z
	 M429.6,49.5c1.2,0.1,1.8,0.3,2.3,0.2c3.6-0.9,7-6,5-7.6c-1.9-1.5-2.6-3-1.1-4.5c1.4-1.4,3.5-1.9,4.9,0.7c0.2,0.4,1.7,0.3,2.4,0
	c0.3-0.1,0.6-1.7,0.5-1.7c-2.4-1.4-4.8-3.7-7.2-3.7c-3,0-2.8,3.5-3,6.1c-0.2,2.4-1.2,4.8-1.9,7.1C431,47.1,430.3,48,429.6,49.5z
	 M405.9,28.2c-0.2-1.2-0.2-2.2-0.4-2.2c-3.5-0.7-7-1.4-10.6-1.9c-0.3,0-1,1.3-1.1,2c-0.8,3.5-1.6,7.1-2.2,10.7
	c-0.2,1.1,0.4,2.3,0.6,3.4c0.6,0,1.2,0.1,1.8,0.1c0.8-2.7,2.1-5.3,2.3-8c0.5-5.1,1.4-6.2,6.4-5.1C403.4,27.5,404.3,27.8,405.9,28.2z
	 M364.9,93.4c2.6,0,4.7,0,8.3,0c-1.8-1.8-2.6-3.2-3.9-4c-5.4-3.4-5.5-4.9-0.1-8.3c0.1-0.1,0.1-0.5,0.2-2.1c-3.6,1.7-6.6,3.1-9.6,4.5
	c-0.2,0.4-0.3,0.8-0.5,1.2C364.3,85.8,366.2,88.6,364.9,93.4z M345.9,36.7c2-5.8-1.5-14.3,8.6-15.9c-3.5,0-6.6,0-9.6,0.6
	c-0.9,0.2-2.2,2.1-2,3C343.6,28.5,344.9,32.6,345.9,36.7z M302.7,74.8c1.9-14.9,1.8-15.3-1.5-16.2c-0.8,3.2-1.9,6.3-2.4,9.6
	C298.4,71.1,298.6,74.2,302.7,74.8z M402.3,43.3c-5.4-0.7-10.3,2.5-11.3,7.4c-0.1,0.7,0.1,1.4,0.2,2.1c0.7-0.2,1.5-0.3,2.1-0.8
	c1.5-1,2.7-2.8,4.3-3.1C401.1,48.3,401.7,46,402.3,43.3z M418.8,130.6c-3.5-2.3-9.6-0.6-13.8,3.6C408.9,137,414.7,135.5,418.8,130.6
	z M410.8,15.3c-0.3,0.1-0.5,0.2-0.8,0.2c-1.7-1.9-3.4-4-5.3-5.7c-0.7-0.6-2.2-0.5-3.3-0.7c0.2,1.8,0.3,3.6,0.5,5.4
	c3.1-0.3,5.2,6.8,9,1.2C410.9,15.6,410.8,15.4,410.8,15.3z M383.7,62.3c-0.6,4.5-1,7.4-1.5,11.1c2.2-0.4,4.8-0.2,5.1-1
	c0.8-1.9,1-4.3,0.5-6.4C387.6,64.9,385.7,64,383.7,62.3z M287.9,112.5c-1.5-1.9-1.7-2.2-7.8,0.6c-2.9,1.3-6.7,2.6-7.3,7.4
	C278.2,117.7,282.9,115.1,287.9,112.5z M262.8,39.7c-0.7-1.5-1.9-4.4-2.2-4.4c-2.8,0.9-5.7,2-8.2,3.6c-0.8,0.6-0.3,3-0.4,4.6
	c0.4,0,0.8,0,1.2,0C255.6,38.1,257.1,37.5,262.8,39.7z M345.7,60c-4.1,0.3-5.3,2.7-5.3,5.2c0,1.6,1.6,3.2,2.5,4.8
	c0.5-0.2,1-0.3,1.6-0.5C344.8,66.5,345.2,63.5,345.7,60z M261.1,61.6c4.4-5.3,3.1-8.2-4.9-9.8C258,55.2,259.5,58.4,261.1,61.6z
	 M245.5,24.6c-0.9,1.4-2,2.6-1.7,3c1.1,1.7,2.4,3.4,4,4.6c0.3,0.2,2.2-1.9,3.4-2.9C249.5,27.9,247.8,26.5,245.5,24.6z M296.5,94.4
	c0.7-2.5,2.1-5,1.4-5.9c-1.7-2.3-4.5-3.5-7.8-1.6C292.1,89.2,293.8,91.2,296.5,94.4z M325.7,54.9c-1.3,3.8,2.7,11.3,5.6,11.7
	C333.2,60.8,326,59.6,325.7,54.9z M333.6,80.6c0,3.4,0,5.2,0,6.9c0.4,0.3,0.7,0.6,1.1,0.9c1.5-1.6,3.1-3.1,4.6-4.7
	C337.6,82.8,335.9,81.9,333.6,80.6z M253.7,21.7c-0.4,0.3-0.7,0.6-1.1,0.9c0.6,1.5,1,4.1,1.9,4.3c1.9,0.4,4.2-0.4,6.3-0.6
	c0-0.5,0-1,0-1.5C258.5,23.8,256.1,22.7,253.7,21.7z M372.5,66.9c2.3-3.6,4.1-6.2,5.8-8.9c-0.4-0.3-0.8-0.7-1.2-1
	c-2.1,1.9-4.4,3.8-6.3,5.9C370.5,63.3,371.7,65.1,372.5,66.9z M372.3,83.8c1.7,1.7,3.1,3.2,4.5,4.7c0.7-1.2,2.2-2.6,1.9-3.4
	C378,82.6,376.1,81.7,372.3,83.8z M428.2,75.2c-1.3-1.2-2.2-2.1-3.1-3.1c-1,1.2-2.8,2.5-2.7,3.6c0.1,1.2,2.1,2.1,3.2,3.2
	C426.4,77.9,427.1,76.9,428.2,75.2z M304.9,94.3c-0.5,0-0.9,0-1.4,0c-0.5,1.5-1.3,3-1.5,4.5c-0.1,0.8,1,1.7,1.6,2.5
	c1.2-1.3,2.7-2.4,3.4-3.9C307.2,96.8,305.6,95.3,304.9,94.3z M398.1,16.1c0-0.3,0.1-0.6,0.1-1c-1.6-2-3.2-3.9-4.7-5.9
	c-1,1.7-1.7,4.1-0.8,5C393.8,15.5,396.2,15.6,398.1,16.1z M420.6,67.1c-0.4-0.6-0.8-1.2-1.1-1.7c-2,1.3-4.1,2.4-5.8,3.9
	c-0.6,0.6-0.4,2.2-0.6,4.2C416.2,70.9,418.4,69,420.6,67.1z M292,64c-0.3-0.1-0.7-0.3-1-0.4c-1.6,1.4-3.4,2.7-4.7,4.3
	c-0.6,0.7-0.1,2.3,0.1,3.4c0,0.2,1.8,0.4,2,0.1C289.7,69,290.9,66.5,292,64z M344.9,50.7c1-0.1,1.9-0.1,2.9-0.2
	c0-1.6,0.3-3.3-0.2-4.7c-0.1-0.5-2.3-0.3-3.5-0.4C344.4,47.1,344.6,48.9,344.9,50.7z M370,43.8c1.4,2,2.5,3.5,3.5,5
	c0.6-1,2-2.2,1.8-2.8c-0.6-1.5-1.9-2.7-3.1-3.9C372.3,42,371.2,42.9,370,43.8z M281.8,51.1c1.9,1.7,3.6,3.1,5.2,4.5
	c0.4-1.1,1.3-2.4,1-3.2C287.1,50.2,285.4,48.9,281.8,51.1z M262.1,41.8c1.6,3.1,3.1,6.2,5,10.1C268.6,46.4,266.2,43.7,262.1,41.8z
	 M326.8,43.1c-0.6,0.4-1.2,0.7-1.8,1.1c0.8,1.8,1.6,3.6,2.3,5.4c0.8-0.9,2.5-2.1,2.3-2.7C329.1,45.5,327.8,44.3,326.8,43.1z M421,40
	c-2.1,2.5-3.9,4.7-5.7,6.9C419.6,48.1,421.4,46,421,40z M302.2,109.3c-3.3-2.8-5.6-2.1-8.6,2C296.8,110.5,299.5,109.9,302.2,109.3z
	 M274.3,66.1c-0.6,0.1-1.2,0.2-1.8,0.3c0.3,2.8,0.7,5.5,1,8.3c0.8-0.1,1.6-0.3,2.3-0.4C275.4,71.6,274.8,68.9,274.3,66.1z
	 M388.6,61.1c0.4,0.3,0.7,0.7,1.1,1c0.7-0.9,1.9-1.8,2.1-2.8c0.4-2.1-0.1-4-3.2-3.4C388.6,57.8,388.6,59.4,388.6,61.1z M277.4,75.7
	c0,3.2,0,4.9,0,7c1.6-0.4,2.8-0.7,5-1.3C280.6,79.4,279.3,77.9,277.4,75.7z"/>
<path d="M385.2,658.1c1.4-5,2.6-10.1,4.2-15.1c1.6-5,3.5-9.9,5.2-14.9c1.7-4.9,3.4-9.7,5.1-14.6c1.4-3.8,2.7-7.6,4.3-11.3
	c0.4-0.9,1.8-1.5,2.8-2c0.6-0.3,1.4-0.1,2.1-0.1c8.3,0,8.4,0,8.9,8.1c0.9,14.6,1.7,29.3,2.6,43.9c0.5,7.8,1.3,15.5,1.9,23.6
	c-3.5,0-6.6,0-10.3,0c-2.3-9.1-0.5-18.7-1.2-28.1c-0.7-9.4-1.6-18.9-3.3-28.7c-6.6,19-13.2,37.9-19.8,57c-2.6,0-5.3,0-8.4,0
	c-5.8-18.4-11.5-36.9-17.3-55.4c-0.6,0-1.2,0.1-1.8,0.1c-0.4,1.9-1,3.8-1.1,5.7c-0.7,15-1.2,30-1.8,44.9c-0.1,1.5-0.7,3-1.1,4.6
	c-3.3,0-6.4,0-9.8,0c-0.1-1.1-0.4-2.2-0.2-3.3c0.8-6,1.8-12,2.4-18c0.6-6.1,0.7-12.3,1-18.5c0.6-10.5,1.1-21,1.8-31.5
	c0.2-2.9,1.4-4.6,4.8-4.6c9.4,0,9.2,0.2,11.7,9.4c1.9,7.3,5.2,14.2,7.4,21.4c2.7,8.5,4.9,17.2,7.3,25.8c0.1,0.5,0.6,0.9,1,1.4
	C384.2,658.1,384.7,658.1,385.2,658.1z"/>
<path d="M284.9,676c-3.3,0-6,0-8.3,0c-1.3-1.8-2.4-3.4-3.6-5c-1.8,1.4-3.5,2.8-5.4,4.1c-0.7,0.5-1.7,0.9-2.5,0.9
	c-4.9,0.1-9.9,0.7-14.6-0.2c-2.9-0.6-5.6-3.3-8-5.6c-6.8-6.5-9.3-15-8.3-24c1-9.8,5.4-18.1,14.9-22.5c6.8-3.2,13.6-3.2,20.3,0.7
	c1.2,0.7,2.4,1.3,4.4,2.4c0-8.8-0.1-16.8,0.1-24.8c0.1-1.8,1-4.8,2.1-5.1c2.5-0.6,5.4,0,8,0.4c0.5,0.1,1,1.7,1,2.6
	C284.9,625,284.9,650.3,284.9,676z M274.5,649.1c-0.3-0.1-0.5-0.1-0.8-0.2c0-2.2-0.3-4.4,0.1-6.5c0.8-4.7-5.9-11.9-10.6-12.9
	c-5.7-1.2-11.9,1.7-14.6,6.9c-3.3,6.3-3.8,12.4-2.5,19.2c1.1,5.6,6.4,11.7,11.6,12.6c4.9,0.9,11.7-2.2,14.1-7.4
	C273.4,657.2,273.7,653,274.5,649.1z"/>
<path d="M53,676.1c-8.8,0-17.7,0.3-26.6-0.2c-2.6-0.1-5.3-2-7.6-3.5c-6.1-4.1-10.8-9.2-14.6-15.9c-5.7-10-2-20.2-2.9-30.2
	c-0.2-2.5,2.6-5.2,4-7.8c6.7-11.7,16.9-17.8,30.3-18.3c4.4-0.2,8.9-0.2,13.4,0c2.9,0.2,5.7,1.3,6.3,4.5c0.3,1.6,0.1,3.6-0.7,4.9
	c-0.5,0.8-2.7,1.4-3.8,1.1c-10.6-3.4-20.7-2.7-29.8,4.1c-4.5,3.4-7.2,8.1-8.4,13.6c-1.8,8.2-1.8,16.3,1.6,24.1
	c3.5,8.2,10.2,12.7,18.6,13.8c5.4,0.7,11.1-0.5,16.7-0.7c1.8-0.1,5-0.1,5.2,0.5c0.6,2,0.3,4.4-0.1,6.6
	C54.6,673.8,53.7,674.8,53,676.1z"/>
<path d="M699.1,676c-4,0-7.3,0-10.7,0c-0.4-1.7-0.8-3.4-1.3-5.3c-1.3,0.6-2.6,0.7-3.1,1.4c-3.8,5.5-9.5,3.6-14.7,4.1
	c-7.4,0.7-10.4-4.7-13.1-9.6c-2.4-4.3-0.8-8.5,1.8-13c4.2-7.3,11.6-7.8,18.1-10.1c3.3-1.1,7-0.8,10.5-1.1c1.3-7.3-3.1-13-10.3-12.7
	c-3.2,0.1-6.4,0.9-9.4,1.8c-2.6,0.8-5.5,2.1-7.1-0.8c-1.4-2.6,0.2-4.8,2.9-6.5c4.3-2.7,9-1.9,13.6-2.5c7.4-0.8,12.8,2.2,17.2,7.8
	c0.3,0.3,0.8,0.6,0.9,0.9c0.7,5.3,5.1,9.3,4.9,15.1C698.8,655.5,699.1,665.6,699.1,676z M687,656.5c0-3.1,1.2-7-4.5-6.3
	c-4.9,0.6-9.7,1.2-13.9,4.3c-2.6,2-3.3,7.7-1.1,10.3c2.7,3.3,6.1,4.7,9.9,3C683.9,664.8,688.3,662,687,656.5z"/>
<path d="M611.5,675.9c-3.5,0-6.9,0-10.8,0c0-5,0-9.8,0-14.7c0-11.2,0-22.4,0-33.6c0-2.3-0.8-5.2,2.5-5.8c3.2-0.6,6.4-0.3,7.5,3.7
	c0.1,0.4,0.4,0.7,0.8,1.4c1-0.4,2.2-0.6,2.9-1.3c4.7-4.7,10.8-4.6,16.4-3.7c6.8,1.1,10.5,6.6,12.9,12.8c0.5,1.4,0.9,3,0.9,4.5
	c0.3,10.9,0.6,21.7,0.7,32.6c0,1.3-0.7,2.7-1.1,4.1c-3.1,0-6.2,0-9.9,0c0-2.5,0.1-4.8,0-7.2c-0.2-9.4-0.6-18.8-0.8-28.2
	c-0.2-6.5-5.4-10.9-11-10.2c-5.5,0.7-10.6,6.3-10.6,12.5c-0.1,10.8-0.1,21.5-0.1,32.3C611.8,675.2,611.7,675.3,611.5,675.9z"/>
<path d="M458.4,651c-4.7,0-9.5,0-14.2,0c-3.8,0-5.2,1.8-3.5,5.1c4.9,9.3,12,13.9,23,11.7c2.1-0.4,4.1-1.1,6.2-1.2
	c3.7-0.2,5.4,1.8,3.9,4.9c-1.1,2.2-2.3,4.8-5.9,4.6c-4.6-0.3-9.2,0-13.8-0.1c-4.1,0-7.7-0.1-11.7-3c-9.2-6.7-14.3-19.4-11.5-30.3
	c2.1-7.9,5.5-15,12.8-18.5c12.5-6.1,28.2-3.6,32.8,13c0.8,2.8,1.4,5.7,1.7,8.6c0.3,3.5-1.6,5.2-5.1,5.2
	C468.2,651,463.3,651,458.4,651z M454.2,643.3c3.3,0,6.6,0.1,9.9,0c3.4-0.2,5-2.3,3.2-5c-1.8-2.9-4.1-6.3-6.9-7.5
	c-8.7-3.8-15.6-0.1-19.2,8.2c-1.1,2.7,0.6,4.3,3.5,4.3C447.9,643.3,451.1,643.3,454.2,643.3z"/>
<path d="M201.3,675.9c-2.9,0-6,0-8.6,0c-0.9-1.8-1.6-3.4-2.4-4.9c-1.8,1.1-3.5,2.2-5.3,3.2c-1,0.6-2,1.7-3.1,1.7
	c-4.7,0.2-9.5,0.1-14.2,0.1c-2.4-2.8-4.9-5.4-7-8.3c-2.8-3.8-2-9.4,0.5-13.5c5.1-8.4,13.4-9.8,22-11c2.4-0.3,4.7-0.7,7.2-1.1
	c1.7-7-2.7-12.9-10-12.6c-3.5,0.2-7,1.8-10.6,2.2c-2,0.2-4.2-0.6-6.2-0.9c0.3-1.9,0.1-4.1,1.1-5.5c1.1-1.4,3.3-2.6,5.1-2.7
	c6.1-0.5,12.6-2,18.2-0.4c6.7,1.8,11.7,7.3,12.4,15c0.6,6.7,0.7,13.4,0.9,20.1C201.4,663.4,201.3,669.5,201.3,675.9z M170.2,661.7
	c0.2,0.4,0.6,2,1.5,3.3c2.5,3.6,7.6,4.3,11.7,1.9c6.7-4,9.1-7.7,7.8-13.3c-0.5-2.5-1.6-3.8-4.3-3.4c-2.6,0.4-5.3,0.5-8,0.9
	C174.6,651.9,170.2,656.6,170.2,661.7z"/>
<path d="M154.4,676.1c-5,0-9.9,0.6-14.4-0.2c-2.3-0.4-4.9-3.1-5.9-5.4c-1.8-4-3.2-8.5-3.4-12.9c-0.4-8.1,0.3-16.3,0.1-24.5
	c0-1.2-2-3.3-3.2-3.3c-3.4,0-4.8-1.7-4.8-4.6c-0.1-2.7,1.8-3.3,4.3-3.4c3.1-0.1,4.1-1.8,3.5-5.1c-1-6.1,2-9.5,7.8-9.5
	c2.4,0,3.3,0.9,3.3,3.3c0.1,3.4-0.6,7.8,1.2,9.8c1.7,1.9,6.3,1,9.5,1.8c1.2,0.3,2.6,1.8,2.9,3c0.6,2.3-0.4,4.3-3.1,4.6
	c-2.3,0.2-4.6,0.1-6.9,0c-2.5-0.1-3.7,0.7-3.7,3.4c0.1,9.1-0.1,18.1,0.1,27.2c0.1,5.4,3,8.1,8.4,8.3
	C154.4,668.5,154.9,669.3,154.4,676.1z"/>
<path d="M118.1,676.1c-4.7,0-9.5,0.6-14-0.2c-2.3-0.4-4.8-3-5.9-5.3c-1.6-3.5-2.7-7.4-2.9-11.3c-0.4-8.3-0.2-16.7-0.1-25
	c0-3.2-1.1-5-4.5-4.7c-2.9,0.2-4.1-1.8-4-3.8c0.1-1.4,2.1-3.6,3.5-3.8c4.5-0.4,5.1-2.9,5-6.7c-0.2-6.1,0.8-7.3,5.6-8.1
	c4-0.7,6.1,1.8,5.2,5.9c-0.3,1.5-0.5,3.1-0.5,4.6c-0.1,2.9,1.4,4.2,4.2,4.1c2,0,4,0.1,6,0c2.2-0.1,3.6,0.4,3.6,3
	c0,2.6-0.6,4.6-3.6,4.7c-2.2,0.1-4.3,0.2-6.5,0c-2.7-0.2-3.7,1.2-3.7,3.5c0.2,9.7,0.4,19.4,0.9,29.2c0.2,3.6,2.4,5.7,5.9,6.2
	C118.8,669.2,118.8,669.1,118.1,676.1z"/>
<path d="M488.5,676.1c-0.9-1.4-2.2-2.6-2.4-3.9c-0.3-1.9-0.2-4.1,0.7-5.6c0.5-0.9,3.3-1.2,4.6-0.6c5.2,2,10.3,4.6,15.2-0.4
	c3.9-3.9,3.5-8-1.3-10.8c-2.5-1.5-5.3-2.6-8.1-3.6c-5.6-2.2-11.6-8.7-11.5-15.4c0.1-5.6,8.7-13.6,13.5-13.9c3.9-0.3,7.8-0.2,11.6,0
	c3.9,0.2,6.2,3,5.4,6.3c-0.9,3.6-2.7,4.3-6.1,2.7c-3.8-1.8-7.6-2.4-11.1,0.8c-4.1,3.7-3.5,8,1.5,10.5c3.8,1.9,8,3,11.4,5.3
	c5.8,4.1,9.9,11.1,6.7,17.7c-1.3,2.8-3.9,5.1-5.9,7.5c-4.7,5.7-11.2,2.9-17,3.4C493.3,676.3,490.8,676.1,488.5,676.1z"/>
<path d="M542.5,676.1c-3.1,0-5.7-0.4-8.2,0.1c-4,0.8-3.7-3.1-5.5-4.7c-0.6-0.6,0-3.2,0.7-4.6c0.9-1.7,2.2-2.5,4.6-1.3
	c2.8,1.4,6.1,2.2,9.2,2.7c3.4,0.5,8.5-3,9-5.9c0.7-4.1-1.9-6.5-5.2-8.4c-4.9-2.7-10.2-5-14.3-8.6c-6.5-5.7-4.4-15.2,3-20.6
	c6.1-4.4,12.5-2.9,18.9-2.9c3.7,0,5.9,3.7,4.5,6.9c-1.1,2.7-2.8,4-5.9,2.2c-3.8-2.2-7.8-2.5-11.4,0.8c-3.8,3.6-3.2,7.8,1.6,10.2
	c3.6,1.8,7.5,3.2,11.1,5c4.8,2.5,10.6,11.7,7.2,18c-1.5,2.8-3.8,5.1-5.8,7.6C552.3,677.4,546.9,675.8,542.5,676.1z"/>
<path d="M586.9,676c-4,0-7.3,0-10.9,0c-0.1-1.1-0.3-2.2-0.3-3.3c0-15.2-0.1-30.4,0.1-45.6c0-1.8,0.9-4.8,1.8-5
	c2.7-0.6,5.6-0.1,8.4,0.3c0.4,0,0.8,1.4,0.8,2.2C586.9,641.6,586.9,658.6,586.9,676z"/>
<path d="M310.8,675.9c-3.9,0-7.3,0-11,0c-0.1-1.4-0.2-2.6-0.2-3.9c0-14.9,0-29.8,0-44.7c0-5.4,0.3-5.3,6-5.7
	c4.2-0.2,5.4,1.2,5.3,5.3C310.7,643.1,310.8,659.3,310.8,675.9z"/>
<path d="M69.3,676.1c0-17.5-0.1-34.4,0.1-51.3c0-1,1.8-2.8,2.9-3c7.3-0.9,8.2,0,8.2,7.4c0,13.2,0,26.4,0,39.6c0,7.3,0,7.3-7.2,7.3
	C72.1,676.1,71,676.1,69.3,676.1z"/>
<path d="M166.5,601.6c5.6-3.5,9.9-2.9,13,2.4c2.1,3.5,6.4,6,5.1,11.2c-3.5,1.2-6.3,0.5-8.7-2.7C173.1,608.8,169.9,605.4,166.5,601.6
	z"/>
<path d="M65.8,606.5c0-4.2,1.8-6.3,5.8-6.3c4.3-0.1,6.3,1.9,6.3,6.1c0,4-2.2,6.2-6.5,6C68.2,611.9,65.5,610.7,65.8,606.5z"/>
<path d="M578.8,600.1c3.1,0,6.2,2.8,6.4,5.6c0.2,3.3-3,6.5-6.5,6.5c-3.7,0-6.4-2.5-6.4-5.8C572.2,602.9,575.1,600.1,578.8,600.1z"/>
<path d="M310.8,606.3c0,3.3-2.8,5.9-6.4,5.9c-3.3,0-6.6-3-6.4-6.1c0.1-3.2,3.3-6,6.6-6C307.9,600.2,310.8,602.9,310.8,606.3z"/>
<path d="M422.6,292.1c2.1-5.8-3.8-5.7-6-8.9c3.5-0.3,6.1-1.5,9.3,0.7c2,1.4,5.4,1.2,8.2,1.3c2.4,0.1,4.8,0.7,4.3,3.4
	c-0.4,2.2-2.2,4.2-5.5,3.2c0.7,0.6,1.4,1.2,2,1.7c-3.6,3.9-7.3,7.8-11.8,12.6c-0.4-2.5-1-4-0.9-5.5c0.5-4.2-2-4.4-5.1-4.1
	c-1.4,0.2-2.8,0.6-4.8,1C414,291.1,418.7,292.4,422.6,292.1z"/>
<path d="M345.6,522.4c1,1.4,2,3,3.2,4.2c1.4,1.4,3.1,2.3,4.5,3.7c1.5,1.4,2.8,3.1,4.1,4.7c-0.1,0.4-0.3,0.8-0.4,1.2
	c-3.7,0-7.4,0.1-11-0.1c-0.5,0-1.4-1.4-1.4-2.2c-0.2-3.7-0.1-7.4-0.1-11.1C344.9,522.7,345.2,522.5,345.6,522.4z"/>
<path d="M361.7,524.6c-0.4,2.1-0.7,4.1-1.4,6.1c-0.1,0.2-2.2-0.3-3.3-0.5c0.6-2.1,1.3-4.2,1.9-6.3
	C359.9,524.2,360.8,524.4,361.7,524.6z"/>
</svg>
