<?xml version="1.0" encoding="utf-8"?>
<!-- Generator: Adobe Illustrator 28.3.0, SVG Export Plug-In . SVG Version: 6.00 Build 0)  -->
<svg version="1.1" id="Calque_1" xmlns="http://www.w3.org/2000/svg" xmlns:xlink="http://www.w3.org/1999/xlink" x="0px" y="0px"
	 viewBox="0 0 699.2 581.8" style="enable-background:new 0 0 699.2 581.8;" xml:space="preserve">
<path d="M547.3,145.9c-28.9-29.4-59.9-55.3-100.6-67.1c11.9,31.9,23.4,62.5,35.5,94.8c-15.2-19.5-27.7-38.6-43.1-54.8
	c-44.3-46.5-98.7-72.6-163.7-72.9c-54.8-0.2-103.9,18.9-148.6,49.5C66.9,136.5,27.3,193.3,2.4,261c-0.7,1.8-1.3,3.5-2.3,6.1
	c-4-100.6,102-230.2,209.3-256.9C352.2-25.4,486.4,35.7,547.3,145.9z"/>
<path d="M227.7,581.8c-16.2-6.1-32.7-11.3-48.4-18.4c-53.4-24.3-97.9-59.6-127.1-111.2c-54-95.5-40.1-202,35.7-281.6
	c9.6-10.1,20.4-19.1,30.6-28.6c0.6,0.6,1.3,1.2,1.9,1.8c-4.3,7-8.7,14-12.9,21.1c-26.1,43.4-43.6,89.7-52,139.9
	C39.2,402.4,81.4,496.1,167,547.6c19.8,11.9,40.8,21.6,61.2,32.4C228.1,580.6,227.9,581.2,227.7,581.8z"/>
<path d="M94.9,403.5c18.6,20.1,36.2,41.2,56,60c41.5,39.5,89.5,68.2,146.1,80.2c67.7,14.4,129.2-1.6,184.3-41.9
	c21.2-15.5,40.2-34.2,58.7-50.1c-3,4-7.2,10.3-12,16c-42,49.8-92.9,86.1-157.5,100.1c-107.6,23.4-211.8-27.4-260.1-126.4
	c-6-12.4-11.1-25.2-16.6-37.9C94.2,403.5,94.6,403.5,94.9,403.5z"/>
<path d="M491.1,126.3c4.2,2.8,7.9,4.9,11.4,7.4c22.4,16.3,42.1,35.5,57.7,58.3c6.2,9,11.1,20,12.8,30.8c2.7,16.9-9.5,29.9-27.9,33.4
	c-15.6,3-32.3-5.3-35.9-20.7c-4.9-21-7.5-42.5-11-63.8C495.9,157.4,493.7,143.1,491.1,126.3z"/>
<path d="M91.5,283.9c10.5,0,19.9-1.1,29,0.2c18.1,2.6,23.2,20.3,11.2,36.7c11.3,7.5,15,15.8,12,26.4c-2.8,9.6-11.5,15.5-23.9,16.2
	c-28.2,1.6-28.2,1.6-28.2-26.9C91.5,319.4,91.5,302.3,91.5,283.9z M102.1,353.8c7.6,0,14.3,0.4,20.9-0.1c6.8-0.5,10.2-5,10.8-11.6
	c0.6-7-2.6-12.4-9.5-13.7c-7.1-1.3-14.5-1-22.3-1.4C102.1,336.5,102.1,344.4,102.1,353.8z M102.1,317.4c9.2,0,19,3.4,24.6-6.2
	c1.9-3.2,1.4-10-0.9-13.1c-5.9-8.1-14.9-6.3-23.8-5.3C102.1,301.4,102.1,308.9,102.1,317.4z"/>
<path d="M562.3,358.3c-23.6,8.7-35.9,6.7-44.9-6.6c-7.6-11.3-6.5-25.9,2.9-35.6c10.5-10.9,23.9-11.8,38.9-2.8
	c3.7-2.1,7.1-4,12.5-7.1c0,27.3,0.1,51.4-0.2,75.5c0,1.6-2.9,3.1-4.5,4.7c-1.5-1.6-4.3-3.1-4.4-4.8
	C562.1,374,562.3,366.4,562.3,358.3z M542.8,316.2c-10.8-0.2-19.7,8.4-19.9,19.3c-0.2,10.8,8.3,19.8,19.1,20.2
	c10.5,0.4,19.8-8.6,20-19.4C562.2,325.4,553.6,316.4,542.8,316.2z"/>
<path d="M452.1,362.1c-7.2,2.6-11.8,1.6-13.2-5.6c-2-10.3-8.3-13.5-18.1-11.9c-2.8,0.4-5.9,0.5-8.7,0c-10.8-1.8-17.5,1.9-20.6,13
	c-0.9,3.1-5.9,5-9.1,7.5c-1-0.9-2.1-1.8-3.1-2.8c4.6-11.8,9.2-23.6,14-35.4c5.2-12.9,10.4-25.7,16-38.4c0.9-2.1,3.8-4.6,5.9-4.7
	c2.2-0.1,5.7,1.9,6.5,3.9C432,312.3,442,337.1,452.1,362.1z M415.6,297.1c-5.5,14.4-10,26-14.5,37.8c10.4,0,19.4,0,29.3,0
	C425.5,322.4,421.1,311.2,415.6,297.1z"/>
<path d="M699,339.8c-15.2,0-29.6,0-44.2,0c2,15.1,17.1,20.7,30.8,11.3c4.9-3.4,7.8-3.5,11,1.2c-7,14.1-29.2,14-39.4,8.6
	c-11.4-6.1-17-22.4-12.2-35.5c5-13.8,19.1-21.1,33.7-17.6C691.9,311,700.5,324,699,339.8z M688.3,332c-2.2-11.1-7.9-15.9-17.1-15.9
	c-9,0.1-14.8,5.1-16.9,15c1.1,0.3,2.3,0.8,3.5,0.8C667.8,332.1,677.7,332,688.3,332z"/>
<path d="M252.8,329c1.8-5.7-0.7-10.3-6.3-11.5c-6.1-1.2-12.6-0.1-18.9-0.5c-3.2-0.2-6.3-1.6-9.5-2.4c0.2-1.8,0.4-3.6,0.6-5.4
	c9.3-0.4,18.8-2.2,27.9-1c11.9,1.6,16.3,8.2,16.4,20.1c0.1,9.7,0.3,19.4-0.2,29.1c-0.1,2-3.4,3.8-5.2,5.8c-4.6-5.9-9-0.5-13.5,0.2
	c-3.5,0.5-7.1,0.8-10.6,0.5c-12.6-0.9-20.5-8.3-20.4-18.9c0-10.5,8-18.3,20.5-18.7C239.8,326.3,246.1,328.1,252.8,329z M238.9,334.6
	c-9.6-0.1-15.3,4-15.4,10.7c0,6.9,5.6,10.9,15.2,10.8c7.3,0,13.7-1.9,15-10.2C254.8,339.5,247.9,334.6,238.9,334.6z"/>
<path d="M276.4,310.2c9.1-1.1,16.9-2.5,24.8-2.9c12-0.5,19.9,6.3,20.8,18.1c0.8,10.6,0.8,21.3,0.2,31.9c-0.1,2.4-3.8,4.7-5.9,7
	c-1.1-0.6-2.2-1.2-3.3-1.8c0-9.6,0.2-19.2,0-28.8c-0.2-11.6-4.4-17.3-12.4-17.6c-8.9-0.3-14.2,6-14.6,17.8
	c-0.2,7.7,0.3,15.5-0.3,23.2c-0.2,2.2-3.3,4.1-5,6.2c-1.4-2-4-4-4.1-6.1C276.3,341.4,276.4,325.7,276.4,310.2z"/>
<path d="M595.4,309.9c0,10-0.2,20,0.1,29.9c0.3,10.5,5,15.9,13.1,15.8c8.1-0.1,13.4-5.8,13.7-15.5c0.3-8.4-0.2-16.8,0.3-25.1
	c0.2-2.3,3-4.5,4.5-6.7c1.6,2.1,4.6,4.2,4.6,6.4c0.4,15.8,0.2,31.5,0.2,47.3c-10.2,0.7-19.7,2.3-29.1,1.9
	c-10.1-0.5-15.8-6.6-16.5-16.9c-0.8-10.9-0.8-21.9-0.3-32.9c0.1-2.4,4.1-4.5,6.2-6.8C593.4,308.1,594.4,309,595.4,309.9z"/>
<path d="M331.1,363.4c9.8-16.2,18.4-30.4,28.2-46.7c-7.9,0-13.9,0.3-19.8-0.2c-1.9-0.2-3.7-2.4-5.5-3.7c1.6-1.5,3.1-4.3,4.7-4.4
	c11.5-0.4,23-0.2,36.5-0.2c-9.6,16.1-18.3,30.5-28,46.7c7.8,0,13.8-0.4,19.8,0.2c2.4,0.3,4.6,2.8,6.8,4.3c-2.1,1.3-4.2,3.7-6.3,3.8
	C356.3,363.6,345.1,363.4,331.1,363.4z"/>
<path d="M504.2,357.5c-10.8,9.2-27.1,9.1-36.7-0.1c-10.4-10-11.7-27.5-3.2-38.9c9.3-12.5,27.9-15.4,41-4.4c-1.5,2.1-3.1,4.2-4.9,6.8
	c-1.8-0.8-3.3-1.2-4.6-1.9c-8.6-4.8-16.3-3-22.7,3.8c-5.7,6-5.8,18.3-0.8,25.3c4.9,6.8,13.5,8.7,22.5,5.8c2.9-0.9,6.4,0,9.6,0.1
	C504.3,355.1,504.2,356.3,504.2,357.5z"/>
<path d="M168.6,311.6c2.9-1.2,6.3-3.1,9.9-3.9c1.5-0.3,4.9,1.9,4.9,2.9c-0.1,2.1-1.6,5.7-2.9,5.8C166.4,318,166,328,166,338.5
	c0,6.4,0.4,12.9-0.2,19.3c-0.2,2-3,3.7-4.6,5.6c-1.5-1.7-4.1-3.4-4.2-5.1c-0.3-14.8-0.3-29.6-0.1-44.5c0-1.8,1.9-5,2.9-5
	C162.4,308.8,165,310.3,168.6,311.6z"/>
<path d="M202.4,336.6c0,6.8,0.4,13.5-0.2,20.2c-0.2,2.3-3,4.4-4.6,6.6c-1.5-2-4.3-3.9-4.4-5.9c-0.4-14.5-0.3-28.9,0.1-43.4
	c0.1-1.9,3-3.8,4.6-5.7c1.5,2,4.2,3.9,4.3,6C202.8,321.7,202.5,329.2,202.4,336.6C202.5,336.6,202.4,336.6,202.4,336.6z"/>
<path d="M207.6,291.2c-5,3-7.7,5.9-10.4,5.8c-2-0.1-5.5-3.9-5.4-6c0-2.2,3.6-5.9,5.6-5.9C200,285,202.7,288,207.6,291.2z"/>
</svg>
