<?xml version="1.0" encoding="utf-8"?>
<!-- Generator: Adobe Illustrator 28.3.0, SVG Export Plug-In . SVG Version: 6.00 Build 0)  -->
<svg version="1.1" id="Calque_1" xmlns="http://www.w3.org/2000/svg" xmlns:xlink="http://www.w3.org/1999/xlink" x="0px" y="0px"
	 viewBox="0 0 581.6 581.8" style="enable-background:new 0 0 581.6 581.8;" xml:space="preserve">
<g>
	<path d="M581.6,581.6c-193.9,0-387.7,0-581.6,0C0,387.7,0,193.9,0,0c193.9,0,387.7,0,581.6,0C581.6,193.9,581.6,387.7,581.6,581.6z
		 M338.4,261.4c0.8,0.4,1.6,0.9,2.4,1.3c-1,9.8-2.7,19.5-3,29.3c-0.5,18.2-0.2,36.5-0.3,54.7c0,5.2,2.2,7.5,7.5,7.6
		c6.7,0.1,13.3,0.7,20,1.1c5.1,0.3,8.3-3.4,8.1-8.9c-0.2-4.1-0.7-8.3-0.7-12.4c-0.1-33.9-0.2-67.9,0.1-101.8c0-6.2-2-8.1-8-7.8
		c-8.6,0.5-17.2,0.2-25.8,0.2c-18.3,0-18.3,0-24.3,17c-0.3,0.9-0.3,1.8-0.6,2.7c-6.3,19.5-12.5,39.1-19,58.5c-0.5,1.6-2.7,2.7-4,4
		c-1.2-1.8-2.8-3.4-3.4-5.3c-1.2-4.4-1.6-9-2.9-13.4c-5.9-19.2-11.8-38.3-18.5-57.3c-1-2.8-5.7-5.9-8.7-6
		c-13.9-0.6-27.9-0.3-41.8-0.2c-3.9,0-6.3,1.4-6.3,6.2c0.1,39,0.1,78.1,0,117.1c0,5,2.1,6.4,6.7,6.4c6.7,0,13.3,1,20,0.8
		c4.5-0.1,8.5-1.2,8.3-7.6c-0.4-13.9,0-27.9-0.2-41.8c-0.2-9.5-0.8-18.9-1.3-28.4c-0.3-5.4-0.8-10.7-1.2-16c0.9-0.2,1.8-0.3,2.7-0.5
		c1.1,2.1,2.4,4.1,3.1,6.4c8.3,26.8,16.6,53.6,24.8,80.4c1.8,5.9,5.4,7.8,11.2,7.2c3.9-0.4,7.9-0.7,11.7-0.1c7.1,1,11.5-1,13.9-7.5
		c1.7-4.7,3.3-9.5,4.8-14.3c6.8-22.3,13.6-44.6,20.5-66.8C334.8,264.3,337,263,338.4,261.4z M176.6,287.6c3.5-2.2,5.4-3.2,7.2-4.5
		c2.9-2.2,6.4-4,8.4-6.8c15.5-22.2,1-46.3-23.3-49.7c-21.9-3-44.4-1.6-66.6-1.7c-4.8,0-6.8,2.4-6.6,8.5c0.7,36.7,0.4,73.4,0.4,110.1
		c0,0.6-0.7,1.2-0.8,1.9c-1.1,5.8,2.5,9.9,8.5,9.8c13.9-0.3,27.8-0.6,41.7-0.8c10.1-0.1,20-0.3,30-3.8c14.9-5.1,23.6-12.8,25.1-28.1
		c1.5-15.3-1.3-23.9-16.2-30.8C182.3,290.7,180.4,289.6,176.6,287.6z M477.4,254.5c0.4-7.8,0.7-14.2,1-20.6c0.2-4.6-1.3-7.3-6.4-8
		c-20.6-2.9-40.7-4.6-60.9,3.9c-13,5.5-24.1,21.2-22.2,37.3c1.9,15.9,12.5,24.2,25.9,29.9c8.8,3.7,18,6.4,26.8,10.1
		c4.9,2.1,9.7,5.8,8.8,11.9c-1,6.7-6.7,9.4-12.7,11.1c-1.5,0.4-3.2,0.4-4.8,0.4c-11.1,0.3-22-0.3-32.2-5.7c-5.9-3.2-8.3-1.1-8.7,5.4
		c-0.3,4-1.3,8-2.3,12c-1,3.8-0.8,7.2,3.6,8.3c8.1,2.2,16.3,4.8,24.6,5.7c18.6,2,36.8,0.6,52.8-10.7c12.3-8.7,18-24.2,15-38.8
		c-3.5-16.9-15.8-24.1-30.5-29.3c-8.7-3.1-17.6-6.2-25.7-10.6c-7.6-4.2-7-10.2,0.7-14.6c7.7-4.4,16.2-5.1,24.7-3.5
		C461.8,250.2,468.7,252.3,477.4,254.5z"/>
	<path d="M130,313.3c-0.1-1.9-0.1-4.7-0.4-7.4c-0.6-5.2,2.7-7.6,6.9-7.3c6.9,0.6,13.9,2.1,20.6,3.9c5.9,1.6,10,6.2,10,12.3
		c0,6.2-9,13.7-15.6,14.3c-2.3,0.2-4.6,0.2-6.9,0.1C128.3,328.9,129.2,332.1,130,313.3z"/>
	<path d="M129.7,261.9c0-2.3-0.4-4.8,0.1-6.9c0.5-1.9,2.3-4.9,3.4-4.8c7.7,0.4,15.8,0,22.8,2.6c9,3.2,9.2,12.5,1.8,18.4
		c-7.1,5.7-15.3,5.9-23.5,4.8c-1.8-0.2-3.8-3.5-4.4-5.8C129.1,267.6,129.7,264.6,129.7,261.9z"/>
</g>
</svg>
