<?xml version="1.0" encoding="utf-8"?>
<!-- Generator: Adobe Illustrator 28.3.0, SVG Export Plug-In . SVG Version: 6.00 Build 0)  -->
<svg version="1.1" id="Calque_1" xmlns="http://www.w3.org/2000/svg" xmlns:xlink="http://www.w3.org/1999/xlink" x="0px" y="0px"
	 viewBox="0 0 581.6 158.5" style="enable-background:new 0 0 581.6 158.5;" xml:space="preserve">
<path d="M1.1,95.6c0-31.9,0-63.7,0-95.6c193.5,0,387,0,580.5,0c0,31.9,0,63.7,0,95.6c-1.4,0.1-2.8,0.4-4.2,0.4
	C386.7,96,196,96,5.3,96C3.9,96,2.5,95.7,1.1,95.6z"/>
<path d="M324,152.6c-3.5,0-6.3,0.1-9.1-0.1c-0.7,0-1.4-0.7-1.9-1.3c-2.1-2.6-2.8-2.8-5.5-0.7c-3.3,2.6-7.1,3-11.1,2.8
	c-2.4-0.2-4.8-0.4-7.1-2c-3.4-2.4-5.2-5.2-5.4-9.4c-0.3-5.4,1.8-9.2,6.4-12c3.2-1.9,3.2-2.4,1.1-5.6c-3.1-4.8-2.8-11.6,3.6-14.7
	c0.5-0.2,1-0.7,1.5-0.7c4,0.2,8.2-1.2,12,1.6c2.1,1.6,3.4,3.5,3.7,6.1c0.5,4.9-1,8.6-5.3,11.3c-1.8,1.1-1.8,3-0.4,4.7
	c0.7,0.8,1.4,1.7,2,2.6c1.2,1.5,2.4,1.3,3.2-0.3c1.1-2.1,4.8-3.4,6.8-2.3c0.4,0.2,0.7,1,0.6,1.3c-0.7,2-1.3,4.2-2.3,6
	c-1.1,2-1.3,3.5,0.4,5.3C319.5,147.3,321.5,149.8,324,152.6z M299.5,147.6c1.4-0.9,3.7-2.3,5.8-3.9c0.3-0.3,0.3-1.7-0.1-2.2
	c-1.8-2.5-3.7-4.8-5.6-7.2c-1-1.3-2.2-1.4-3.5-0.5c-0.7,0.5-1.4,1-2.1,1.5c-2.2,1.7-3.5,4.9-2.8,6.9
	C292.1,144.7,296,147.6,299.5,147.6z M305.7,118.4c0-2.7-2-4.9-4.5-4.9c-2.9,0-4.5,1.6-4.5,4.4c0,3,2.3,6.5,4.3,6.4
	C303.1,124.2,305.7,121,305.7,118.4z"/>
<path d="M69.8,130.8c0-6.7,0-13.3,0-20c0-1.4,0.5-2,1.9-2.1c5.4-0.4,5.4-0.4,5.4,4.8c0,2.6-0.2,5.2,0,7.8c0,0.9,0.5,1.9,1.1,2.6
	c0.2,0.2,1.5-0.3,2.1-0.8c5.2-4.2,13.3-3.4,17.3,1.4c2.2,2.7,3.4,5.9,3.4,9.4c0,2.9,0.3,5.8-0.1,8.7c-0.4,3.4-5.1,10.3-9.9,10.5
	c-3.9,0.2-7.6,0.6-10.9-2.1c-0.9-0.7-2-0.7-2.7,0.6c-0.6,1-6.4,1.6-7.2,0.7c-0.3-0.3-0.4-1-0.4-1.5
	C69.8,144.1,69.8,137.5,69.8,130.8C69.8,130.8,69.8,130.8,69.8,130.8z M85.1,148c3,0.2,5.1-1.4,6.5-3.8c2.8-4.7,2.8-9.5,0.1-14.4
	c-1.8-3.3-6.2-4.9-9.5-3.1c-4.8,2.6-6.9,10.3-4.2,15.7C79.6,145.4,81.5,147.7,85.1,148z"/>
<path d="M373,152.6c-3.1-0.4-6.2,1.1-8.8-1.5c-0.4-0.4-1.9-0.3-2.3,0.1c-2.4,2.3-5.4,2-8.2,2c-2.7,0-5.9,0.4-7.8-2.2
	c-1.5-2.1-4.5-3.4-4-6.9c0.3-2.8,3.8-7.5,6.6-8.1c3.9-0.7,7.8-1.3,11.7-1.9c2.2-0.3,4.4-2.6,4.3-4.5c-0.1-2-2.2-4.3-4.4-4.4
	c-3.1-0.3-6.1-0.2-7.9,3.1c-0.7,1.2-5.9,2-6.8,1.1c-0.5-0.5-0.8-1.9-0.5-2.5c0.7-1.4,1.6-3.2,2.9-3.8c2.3-1.2,5-2,7.6-2.5
	c1.8-0.4,3.8,0.1,5.6-0.1c3.2-0.4,6,0.8,8.5,2.4c2.5,1.6,2.8,4.5,2.8,7.1c0.1,5.2,0,10.5,0,15.8C372.5,147.9,372.8,150.1,373,152.6z
	 M364.6,140.7c0-2.9-0.6-3.8-2.5-3.4c-2.7,0.6-5.5,1.3-8.1,2.2c-1.8,0.6-3.2,2.1-3,4.1c0.1,1.5,0.8,3.7,1.8,4.2
	C358,150.2,365,147.6,364.6,140.7z"/>
<path d="M273.5,139.2c0,4,0,8-0.1,11.9c0,0.5-0.8,1.4-1.2,1.4c-2.4-0.1-5,0.9-7.1-1.3c-0.5-0.5-2.3-0.3-3,0.2
	c-2.7,2.1-5.8,1.5-8.7,1.8c-1.1,0.1-2.3-0.2-3.5-0.3c-2.9-0.4-5.5-3.3-6.2-6.8c-0.6-3.6,0.9-8.1,3.7-9.4c2.5-1.1,5.4-1.5,8.1-2.1
	c2.4-0.5,4.9-0.7,7.2-1.5c2.2-0.7,2.7-2.9,1.9-4.6c-0.6-1.4-2.2-2.9-3.6-3.2c-3-0.6-6.1-0.4-8,2.9c-0.8,1.3-6.3,2.3-7.3,1.3
	c-0.6-0.6-0.7-2.2-0.3-3c2.1-3.6,5.5-5.5,9.5-5.9c3-0.3,6.1-0.4,9.2,0c5,0.6,9.3,3.5,9.1,9.2c-0.1,3.1,0,6.3,0,9.4
	C273.3,139.2,273.4,139.2,273.5,139.2z M251.6,143.8c-0.3,2.2,1,3.5,3,4.3c4.8,1.8,10-1,10.6-6.9c0.3-3.1-1.1-4.4-4.2-3.6
	c-1.8,0.4-3.6,0.9-5.4,1.4C253.3,139.6,251.6,141.6,251.6,143.8z"/>
<path d="M515.3,138.2c0.4,4.3,0.8,8.5,1.1,12.8c0,0.5-0.7,1.6-1,1.5c-2.5-0.2-5.1,1-7.4-1.2c-0.5-0.5-2.3-0.5-3,0
	c-3.2,2.3-6.8,1.8-10.3,1.8c-3.7,0-5.9-1.9-7.7-4.9c-2.8-4.7,0.5-11.6,5.6-12.2c3.8-0.5,7.5-1.2,11.3-1.9c2.5-0.5,4-2.4,3.9-4.8
	c-0.2-2-2.5-4-4.7-4.2c-3-0.2-5.6,0.2-7.3,3c-0.8,1.3-6.5,2.2-7.5,1.1c-0.5-0.5-0.6-2.2-0.2-2.8c2.8-3.5,6.1-6.2,11-6
	c1.8,0,3.6,0.2,5.4,0c3.2-0.4,5.8,0.9,8.4,2.4c2.3,1.3,2.7,3.9,2.8,6.3c0.1,3,0,6,0,8.9C515.5,138.2,515.4,138.2,515.3,138.2z
	 M507.7,141.4c0-3.8-0.6-4.5-3.2-3.9c-2,0.5-4.1,0.9-6.1,1.4c-2.3,0.6-4.1,2.1-4.1,4.5c0,1.4,0.8,3.4,1.9,4.1
	c2.6,1.7,5.8,1.5,8.4-0.1C506.7,146.2,508.1,144.1,507.7,141.4z"/>
<path d="M132.5,152.4c-2.5-0.3-5.6,1.6-8.3-1.3c-0.4-0.4-2.2,0.1-3,0.6c-4.3,2.7-12.8,2.1-16.2-1.5c-2.7-2.9-2-6.5-1.4-9.8
	c0.5-2.6,2.8-4.1,5.7-4.5c3.7-0.5,7.4-1.2,11-1.9c2.1-0.4,4.5-3,4.4-4.6c-0.2-2.2-2.7-4.1-5.1-4.3c-3.2-0.3-5.9,0.5-7.5,3.6
	c-0.3,0.5-1.2,0.7-1.8,0.8c-1.3,0.1-2.7,0-4,0.1c-2.2,0.1-2.7-0.6-1.7-2.5c2.1-4.4,5.9-6.2,10.5-6.6c2.6-0.2,5.3-0.2,8,0
	c3,0.2,5.8,1.3,7.7,3.7c0.7,0.9,1.1,2.2,1.1,3.4c0.1,5.6,0,11.3,0.1,16.9C132.1,147.1,132.3,149.6,132.5,152.4z M124.9,140.6
	c0-2.6-1.2-3.6-3.7-3.1c-2.2,0.4-4.4,0.9-6.5,1.6c-2.1,0.7-3.9,2-4.1,4.3c-0.2,2,1,3.6,2.9,4.4C119.1,150.4,124.3,146.9,124.9,140.6
	z"/>
<path d="M412,129.5c2.1-6.2,5.9-8.9,11.6-8.9c2.3,0,4.6-0.3,6.8,0.1c2.5,0.4,4.9,1.3,7.1,2.4c1.6,0.9,2.4,2.6,2.4,4.8
	c-0.2,5.7-0.1,11.5,0,17.2c0,2.4,0.3,4.7,0.5,7.4c-2.5-0.3-5.6,1.7-8.2-1.3c-0.4-0.4-2.2,0.1-3,0.6c-4.3,2.8-13.1,2.1-16.5-1.7
	c-2.5-2.9-1.8-6.5-0.9-9.8c0.6-2.4,2.8-3.6,5.3-4.1c3.7-0.7,7.5-1.3,11.3-1.9c2.1-0.4,4.5-3,4.4-4.6c-0.2-2.1-2.7-4.1-5.1-4.3
	c-3.2-0.2-5.9,0.5-7.5,3.6c-0.1,0.3-0.4,0.6-0.6,0.6C417.1,129.5,414.7,129.5,412,129.5z M432.8,140.5c0-2.5-1.2-3.4-3.6-2.9
	c-2.1,0.4-4.2,0.9-6.4,1.4c-1.9,0.4-4.1,2.7-4.2,4.5c-0.2,2,0.8,3.5,2.6,4.3C427.1,150.5,432.3,146.8,432.8,140.5z"/>
<path d="M208.1,144.7c-0.9,1.4-1.6,2.9-2.7,4.1c-3,3.6-7,4.7-11.5,4.6c-5.1-0.1-9.8-1.3-12.9-5.7c-1.6-2.3-3.1-4.8-3-7.9
	c0.2-3.8-0.7-7.8,1.4-11.2c2.8-4.4,6.5-7.8,12.1-8c3.4-0.1,6.8-0.3,9.9,1.8c3.4,2.3,5.7,5.2,6.7,9.1c0.3,1.2,0.3,2.5,0.6,3.7
	c0.6,2.7,0.3,3.2-2.5,3.2c-5.3,0-10.7,0-16,0c-1.7,0-4.1-0.6-4.5,1.4c-0.3,1.7,0.6,4.1,1.8,5.5c2.8,3.4,8.5,3.8,11.1,1.1
	C201.5,143.6,204.4,144.1,208.1,144.7z M193.1,134.2c1.9,0,3.8,0.2,5.6-0.1c0.8-0.1,2.1-1.3,2-1.6c-0.6-1.7-1.1-3.7-2.4-4.9
	c-5.1-4.5-10.6-0.6-12.3,3.8c-0.7,1.9,0.1,2.5,1.7,2.6C189.5,134.3,191.3,134.2,193.1,134.2z"/>
<path d="M227.4,120.5c4.2-0.4,8.1,0.9,11.3,4.2c1.3,1.3,2.1,3.1,2.9,4.8c0.2,0.4-0.7,1.7-1.2,1.8c-1.6,0.2-3.3,0.2-4.9,0
	c-0.7-0.1-1.8-0.7-2-1.3c-1.1-3-3.6-4.1-6.4-4.3c-3-0.1-4.9,1.9-6.4,4.2c-3.2,4.8-2.5,9.9,0.1,14.6c1.4,2.5,4,3.9,7.2,3.3
	c2.5-0.4,4.3-1.6,5.3-3.9c0.7-1.6,1.6-2.4,3.4-2.2c1.3,0.1,2.7-0.1,4,0.1c0.7,0.1,1.3,0.6,2,0.9c-0.4,0.5-0.7,1.1-1.1,1.6
	c-0.4,0.5-1,0.8-1.2,1.4c-2.4,6.7-7.9,7.7-13.9,7.8c-4.3,0-8.3-1.2-11.3-4.6c-1.9-2.2-3.1-4.6-3.6-7.6c-0.4-2.7-0.2-5.3,0-8
	c0.4-6,7.6-13.5,14.2-12.6C226.1,120.6,226.5,120.5,227.4,120.5z"/>
<path d="M396.9,152.6c-0.4,0-0.8,0-1.2,0c-2.4,0.3-3.6-0.2-4.3-3c-1.3-4.9-3.4-9.6-5.1-14.4c-1.4-3.9-2.6-7.9-4-11.8
	c-0.6-1.7,0.1-2.2,1.6-2.2c0.2,0,0.3,0,0.5,0.1c2.1,0.8,5.3-1.5,6.4,2.1c0.7,2.3,1.3,4.6,2,6.9c0.8,3,1.5,6,2.4,8.9
	c0.2,0.7,1.4,1.6,2,1.5c0.8-0.1,1.9-0.9,2.1-1.7c1-3.1,1.6-6.3,2.5-9.4c0.6-2.3,1.3-4.6,2.1-6.8c0.2-0.6,1.2-1.2,1.9-1.3
	c1.5-0.3,3.1-0.3,4.6-0.4c1.3,0,1.6,0.6,1.2,1.8c-0.4,1.4-0.6,3-0.9,4.4c0,0.2,0,0.5-0.1,0.7c-3.7,4.2-3.3,10-5.8,14.7
	c-1.2,2.3-1.7,5.1-2.4,7.7c-0.4,1.5-1.2,2.3-2.8,2.2C398.8,152.6,397.9,152.6,396.9,152.6C396.9,152.6,396.9,152.6,396.9,152.6z"/>
<path d="M333,152.6c0-4.1,0-7.9,0-11.6c0-10,0-19.9,0-29.9c0-1.9,0.6-2.4,2.4-2.4c5.6,0,5.6,0,5.6,5.6c-0.1,9.3-0.2,18.7-0.3,28
	c0,2.8,0.1,5.6,0.3,8.5c0.1,1.3-0.3,1.9-1.6,1.9C337.4,152.6,335.4,152.6,333,152.6z"/>
<path d="M451.7,143.4c0,2.4-0.1,4.9,0,7.3c0,1.4-0.3,2-1.8,2c-6.1,0.3-6.1,0.4-6.1-5.6c-0.1-7.7,0-15.4-0.1-23
	c0-1.9,0.6-2.8,2.5-2.7c1.2,0,2.4-0.4,3.5-0.1c0.8,0.2,1.6,1,1.9,1.8c0.9,2.1,1.4,2.1,3,0.6c2-2,4.3-3.6,7.4-3
	c0.5,0.1,1.3,0.8,1.4,1.4c0.2,1.3,0.2,2.7,0,4c-0.1,0.6-1,1.4-1.5,1.4c-6.8,0.4-10.1,3.8-10.2,10.6
	C451.7,139.8,451.7,141.6,451.7,143.4z"/>
<path d="M135.8,137c0-4.2,0.1-8.5,0-12.7c-0.1-2.3,0.8-3.1,3-3c0.9,0.1,1.8-0.1,2.6,0.1c0.6,0.2,1.1,0.8,1.5,1.4
	c0.5,0.6,0.9,2,1.2,1.9c0.9-0.1,1.9-0.6,2.6-1.2c2.1-1.8,4.2-3.4,7.2-3.1c1.3,0.1,1.9,0.5,1.8,1.8c0,0.1,0,0.2,0,0.2
	c0,4.3,0,4.3-4.1,4.9c-4.2,0.6-7.7,4.6-7.7,9c0,4.6-0.1,9.3,0,13.9c0,1.7-0.4,2.4-2.2,2.4c-5.8,0-5.8,0.1-5.8-5.6
	C135.8,143.8,135.8,140.4,135.8,137C135.8,137,135.8,137,135.8,137z"/>
<path d="M158.4,137.2c0-4.4,0-8.8,0-13.2c0-1.9,0.6-3,2.7-2.7c0.6,0.1,1.3,0.1,1.9-0.1c1.5-0.4,2.1,0.4,2.5,1.7
	c0.6,2.2,1.3,2.2,3,0.8c2.1-1.8,4.3-3.6,7.4-3.3c1.2,0.1,1.9,0.5,1.9,1.8c0,1.1,0.1,2.3-0.2,3.3c-0.2,0.7-1.1,1.6-1.7,1.6
	c-6.4,0.4-10.3,5.4-10,11.5c0.2,4,0,8,0.1,12c0,1.6-0.6,2-2.1,2.1c-5.5,0.2-5.5,0.3-5.5-5.1C158.4,144.1,158.4,140.6,158.4,137.2z"
	/>
<path d="M466.3,137.1c0-4.2,0-8.5,0-12.7c0-2.9,0.2-3.1,3-3c0.5,0,1,0.1,1.4-0.1c1.6-0.5,2.3,0.3,2.6,1.8c0.5,2.1,1.4,2.3,3,0.8
	c2.1-1.9,4.3-3.6,7.4-3.4c1.3,0.1,1.9,0.5,1.8,1.8c-0.1,1.2-0.1,2.5-0.4,3.7c-0.1,0.5-1,1.1-1.6,1.2c-6.3,0.2-10,5.5-9.9,11.3
	c0.1,4,0,8,0.1,12c0,1.5-0.3,2.1-1.9,2.2c-5.6,0.3-5.6,0.4-5.6-5.2C466.3,144,466.3,140.5,466.3,137.1z"/>
</svg>
