<?xml version="1.0" encoding="utf-8"?>
<!-- Generator: Adobe Illustrator 28.3.0, SVG Export Plug-In . SVG Version: 6.00 Build 0)  -->
<svg version="1.1" id="Calque_1" xmlns="http://www.w3.org/2000/svg" xmlns:xlink="http://www.w3.org/1999/xlink" x="0px" y="0px"
	 viewBox="0 0 45 56.7" style="enable-background:new 0 0 45 56.7;" xml:space="preserve">
<style type="text/css">
	.st0{fill:#1B1B1A;}
</style>
<g>
	<path class="st0" d="M45,27.3c0-0.2,0-0.4,0-0.6s-0.1-0.4-0.1-0.5c0-0.5-0.1-1-0.1-1.5c-0.2-2.1-0.6-4.1-1.2-6.1
		c-0.4-1.5-1-3-1.6-4.5c-0.5-1.2-1.1-2.4-1.8-3.5c-1-1.7-2.2-3.3-3.6-4.7c-1.1-1.2-2.4-2.2-3.8-3c-1-0.6-2.1-1.2-3.2-1.6
		C28.7,1,27.9,0.7,27,0.5c-1-0.3-2.1-0.4-3.2-0.5c-0.4,0-0.8,0-1.4,0s-1.3,0-2.1,0.1c-1.3,0.2-2.6,0.4-3.8,0.8
		c-1.6,0.5-3.2,1.3-4.6,2.2C9.4,4.7,7.4,6.9,5.7,9.4c-1.1,1.6-2,3.2-2.7,5c-0.6,1.5-1.2,3-1.6,4.5c-0.3,1.2-0.6,2.5-0.8,3.8
		C0.3,24,0.2,25.5,0,26.9c-0.1,0.9,0,1.8,0,2.8v0.1c0,0.1,0.1,0.2,0.1,0.4c0.1,2.1,0.4,4.1,0.9,6.1c0.3,1.2,0.6,2.4,1,3.6
		c0.4,1,0.7,2.1,1.2,3.1c0.6,1.2,1.2,2.3,1.8,3.4c0.9,1.6,2,3,3.3,4.3c1.2,1.2,2.4,2.2,3.9,3.1c1.5,1,3.2,1.7,4.9,2.2
		c1.4,0.4,2.7,0.6,4.2,0.7c0.4,0,0.8,0.1,1.2,0.1h0.1c0.2,0,0.3-0.1,0.5-0.1c0.7,0,1.4,0,2.1-0.1c1.4-0.2,2.9-0.5,4.2-1
		c1.5-0.6,2.9-1.3,4.2-2.2c1.1-0.7,2-1.6,2.9-2.5c1.1-1.1,2-2.3,2.9-3.5c0.8-1.2,1.6-2.5,2.2-3.9c0.4-0.8,0.7-1.6,1-2.5
		c0.4-1,0.8-2.1,1-3.1c0.3-1.3,0.6-2.7,0.9-4c0.2-1.3,0.4-2.7,0.5-4C45.1,28.9,45,28.1,45,27.3z M38.3,13.3c0.1-0.1,0.2-0.1,0.3-0.2
		c0.2-0.1,0.3-0.1,0.4,0.1c0.1,0.2,0.2,0.4,0.3,0.5s0.1,0.2-0.1,0.3c-1.4,0.8-2.9,1.6-4.3,2.4c-0.3,0.1-0.5,0.3-0.8,0.5
		C34,17,33.9,17,33.8,17c-0.1-0.1-0.1-0.1-0.2-0.2c-0.1-0.2-0.2-0.4-0.3-0.6c-0.1-0.2-0.1-0.3,0.1-0.3c0.6-0.3,1.3-0.7,1.9-1.1
		C36.4,14.4,37.3,13.9,38.3,13.3z M33.4,6.7c0.2-0.2,0.2-0.2,0.4,0C34,7,34.3,7.2,34.5,7.4c0.8,0.8,1.5,1.6,1.7,2.7
		c0.1,0.4,0,0.7-0.2,1.1c-0.5,1.3-1.4,2.1-2.8,2.4h-0.1c-0.1,0-0.1,0-0.2,0c-0.8,0-1.5-0.3-2.1-0.8s-1.1-1.1-1.7-1.7
		c-0.1-0.1-0.1-0.2,0-0.3c0.9-0.9,1.7-1.7,2.6-2.6C32.4,7.7,32.9,7.2,33.4,6.7z M24.5,8.5c0.2-0.4,0.3-0.8,0.4-1.2
		c0.4-1.1,0.7-2.1,1.1-3.2c0.1-0.3,0.2-0.7,0.3-1c0-0.1,0.1-0.1,0.2-0.2c0.3,0.1,0.6,0.2,0.9,0.3C28.2,3.5,29,3.7,29.8,4
		C30,4.1,30,4.1,30,4.3C29.8,5,29.8,5,29.2,4.7c-0.6-0.2-1.2-0.4-1.7-0.6c-0.2-0.1-0.3,0-0.3,0.1c-0.1,0.4-0.3,0.7-0.4,1.1
		c-0.1,0.2,0,0.2,0.1,0.3c0.7,0.2,1.3,0.5,2,0.7C29,6.5,29,6.6,29,6.8v0.1c-0.1,0.2-0.1,0.4-0.3,0.5c-0.1,0.1-0.3-0.1-0.5-0.1
		c-0.6-0.2-1.1-0.4-1.7-0.6c-0.2-0.1-0.2,0-0.3,0.1c-0.1,0.3-0.2,0.6-0.3,0.9c0,0.1-0.1,0.2-0.1,0.3c-0.1,0.3-0.1,0.3,0.2,0.4
		c0.7,0.2,1.4,0.5,2,0.7c0.3,0.1,0.3,0.2,0.2,0.4c-0.2,0.6-0.2,0.6-0.8,0.4c-0.9-0.3-1.8-0.6-2.7-0.9C24.4,8.9,24.3,8.8,24.5,8.5z
		 M18.6,3c0.3,0,0.6-0.1,0.9-0.1s0.6-0.1,0.7-0.1c0.8,0,1.4,0.1,1.8,0.7c0.6,0.8,0.6,2.1-0.4,2.6c-0.2,0.1-0.2,0.2,0,0.3
		c0.7,0.6,1.3,1.3,2,1.9c0.1,0.1,0.2,0.2,0.3,0.2c0,0,0.1,0.1,0.1,0.2l-0.1,0.1c-0.3,0-0.6,0.1-0.9,0.1c-0.2,0-0.3,0-0.4-0.2
		c-0.6-0.7-1.3-1.3-2-2c-0.2-0.2-0.6-0.3-0.8-0.1c0,0-0.1,0.1-0.1,0.2c0.1,0.5,0.1,0.9,0.2,1.4c0,0.2,0.1,0.4,0.1,0.6
		c0.1,0.3,0,0.3-0.2,0.4c-0.2,0-0.4,0.1-0.6,0.1S19,9.2,18.9,9.1c-0.1-1-0.2-2-0.4-3c-0.1-0.8-0.2-1.6-0.3-2.4C18,3.1,18,3.1,18.6,3
		z M12.1,6.4c0.6-0.7,1.4-1,2.2-1.3c0.1,0,0.2,0,0.2,0.1c0.2,0.2,0.3,0.3,0.4,0.5c0,0.1,0.1,0.2,0,0.2C15,6,14.9,6,14.8,6
		c-1,0.1-1.7,0.6-2.2,1.4c-0.4,0.6-0.4,1.3-0.1,2c0.4,0.7,0.9,1.3,1.7,1.5c0.6,0.1,1.2,0,1.7-0.3c0.4-0.3,0.8-0.6,1.1-1.1
		c0-0.1,0.1-0.2,0.1-0.3s0.1-0.1,0.2-0.1c0,0,0.1,0,0.2,0.1c0.1,0.2,0.2,0.3,0.4,0.5c0.1,0.1,0.1,0.2,0,0.4
		c-0.5,0.7-1.1,1.3-1.9,1.7c-0.5,0.2-0.9,0.4-1.2,0.3c-1.2,0-1.9-0.5-2.5-1.2c-0.4-0.4-0.6-0.9-0.8-1.4C11.1,8.3,11.4,7.3,12.1,6.4z
		 M7,11.7c0.3-0.6,0.8-1,1.2-1.4c0.1-0.1,0.2-0.1,0.4,0s0.3,0.2,0.5,0.3c0.1,0,0.1,0.1,0.1,0.2c0,0-0.1,0.1-0.1,0.2
		c-1,0.4-1.8,1.8-1.5,3c0.1,0.3,0.3,0.7,0.6,0.9c0.5,0.5,1,0.8,1.7,0.8c0.8,0.1,1.4-0.3,1.9-0.9c0.5-0.6,0.7-1.2,0.7-2
		c0.1,0,0.1,0,0.2,0c0.2,0.2,0.5,0.3,0.7,0.5c0,0,0,0.2,0,0.3c-0.2,0.8-0.5,1.5-1.1,2.1c-0.7,0.8-1.5,1.2-2.5,1.1
		c-0.7,0-1.3-0.3-1.8-0.7c-0.9-0.6-1.4-1.4-1.4-2.5C6.5,12.9,6.7,12.3,7,11.7z M3.8,18.9c0.1-0.2,0.1-0.3,0.2-0.5
		c0-0.2,0.2-0.3,0.3-0.3c0.7,0,1.3-0.1,2-0.1s1.4,0,2.2-0.1c0.3,0,0.7,0,1,0l0,0c0.3,0,0.7,0,1,0c0.2,0,0.3,0.1,0.2,0.3
		c-0.1,0.2-0.1,0.4-0.2,0.6c-0.1,0.2-0.1,0.3-0.4,0.3c-0.4,0-0.8,0-1.2,0c-0.2,0-0.3,0-0.5,0S8.1,19.2,8,19.3
		c-0.2,0.5-0.4,1.1-0.5,1.6c-0.1,0.2,0,0.3,0.1,0.4c0.5,0.4,1,0.7,1.4,1.1c0.1,0.1,0.2,0.2,0.1,0.4c0.1,0.2,0,0.4-0.1,0.5
		c-0.1,0.2-0.2,0.2-0.3,0.1c-1.1-0.9-2.2-1.8-3.3-2.7c-0.5-0.4-1-0.9-1.5-1.3C3.7,19.3,3.7,19.1,3.8,18.9z M6.8,31.2
		c0,0.1-0.2,0.2-0.3,0.3c-0.1,0-0.2-0.1-0.3-0.1c-0.2-0.1-0.4-0.2-0.6-0.3c-0.1-0.1-0.1-0.2-0.2-0.3c0.1,0,0.2-0.1,0.3-0.1
		c0.3,0,0.5,0.1,0.8,0.2C6.8,31,6.9,31,6.8,31.2z M6,25.9c0,0.4-0.4,0.8-0.7,0.8c-0.4,0-0.7-0.4-0.7-0.8c0-0.3,0.4-0.7,0.7-0.7
		C5.6,25.2,6,25.6,6,25.9z M3.8,30.5c0-0.1,0-0.1,0-0.2c0-0.2,0-0.6-0.1-0.9c0-0.2,0.1-0.3,0.2-0.3C4.8,29,5.5,29,6.3,29
		c0.1,0,0.2,0,0.3,0.2c0.1,0.2,0,0.4-0.3,0.4c-0.6,0-1.2,0.1-1.8,0.1c-0.1,0-0.2,0.1-0.2,0.2c0,0.2,0,0.4,0.1,0.5
		c0,0.2,0,0.3-0.2,0.3C3.9,30.8,3.8,30.6,3.8,30.5z M4.3,34c-0.1-0.4-0.2-0.8-0.2-1.2c0-0.2,0-0.2,0.2-0.2c0.7-0.1,1.4-0.2,2.1-0.3
		c0.4-0.1,0.4-0.1,0.5,0.3c0,0.2,0.1,0.5,0.1,0.8c0,0.2-0.1,0.2-0.3,0.3c-0.2,0-0.2-0.1-0.2-0.2c0-0.2,0-0.3-0.1-0.5
		c0-0.1-0.1-0.2-0.2-0.2c-0.4,0-0.5,0.1-0.4,0.4c0,0.1,0,0.2,0.1,0.3c0,0.1,0,0.2-0.2,0.3c-0.1,0-0.3,0-0.3-0.2c0-0.1,0-0.2,0-0.3
		C5.4,33,5.3,32.9,5,33H4.9c-0.2,0-0.3,0.1-0.2,0.3c0,0.2,0.1,0.3,0.1,0.5s-0.1,0.4-0.2,0.3C4.4,34.2,4.3,34.1,4.3,34z M5.5,37.5
		c-0.1,0-0.2,0-0.3-0.1c-0.1-0.1-0.1-0.2,0-0.4c0.4-0.5,0.8-1.1,1.1-1.6c0,0,0-0.1,0.1-0.1v-0.1c-0.1,0-0.1,0-0.2,0
		c-0.4,0.1-0.8,0.3-1.2,0.4c-0.3,0.1-0.4,0-0.4-0.2c0-0.1,0.1-0.2,0.1-0.2C5.3,35,6,34.8,6.6,34.6c0.1,0,0.2-0.1,0.3-0.1
		c0.1-0.1,0.2-0.1,0.3,0c0.1,0.1,0.1,0.3,0,0.4C7.2,35,7,35.2,7,35.3c-0.3,0.4-0.6,0.8-0.9,1.2c0,0.1-0.1,0.1-0.1,0.2
		c0.1,0,0.2,0,0.2,0c0.4-0.1,0.9-0.3,1.3-0.4c0.2-0.1,0.3,0,0.3,0.1c0.1,0.2,0,0.3-0.2,0.4C7,37,6.3,37.2,5.7,37.3
		C5.6,37.5,5.6,37.5,5.5,37.5z M5.9,39.5c-0.1-0.2-0.1-0.3,0.1-0.4c0.6-0.2,1.1-0.4,1.7-0.7C7.9,38.3,8,38.3,7.8,38
		c-0.1-0.1-0.1-0.2-0.2-0.3s0-0.2,0.1-0.3S8,37.3,8,37.5c0.2,0.6,0.5,1.2,0.7,1.7c0,0,0,0.1,0,0.2c0,0-0.1,0.2-0.2,0.1
		c-0.1,0-0.2-0.1-0.3-0.1C8.1,39.3,8.1,39.1,8,39c-0.1-0.1-0.1-0.2-0.3-0.1c-0.6,0.2-1.1,0.5-1.7,0.7C6,39.7,5.9,39.6,5.9,39.5z
		 M8.8,40.7c-0.1,0-0.1,0.1-0.2,0.1c-0.1,0.1-0.2,0.2-0.1,0.3c0.1,0.1,0.2,0.3,0.2,0.4c0,0.1,0,0.2-0.1,0.2s-0.3,0-0.3-0.1
		c-0.1-0.1-0.1-0.3-0.2-0.4c0,0,0-0.1-0.1-0.1c-0.3-0.2-0.4,0.1-0.6,0.2c0,0-0.1,0.2,0,0.2c0.1,0.2,0.2,0.3,0.3,0.5
		c0.1,0.1,0.1,0.3-0.1,0.4c-0.1,0.1-0.3,0.1-0.4-0.1c-0.2-0.4-0.4-0.7-0.6-1.1c-0.1-0.2,0-0.2,0.1-0.3c0.7-0.3,1.3-0.7,2-1
		C8.9,39.8,9,39.8,9.1,40c0.1,0.3,0.3,0.6,0.4,0.8c0,0,0,0.1,0.1,0.2c-0.1,0.1-0.1,0.2-0.2,0.2c-0.1,0-0.2,0-0.3-0.1
		S8.9,40.8,8.8,40.7C9,40.7,8.9,40.6,8.8,40.7z M9.7,45.9c-0.1-0.1-0.2-0.3-0.4-0.4c-0.1-0.1-0.1-0.2,0-0.4c0.6-0.5,1.2-1,1.8-1.5
		c0.1-0.1,0.2-0.1,0.3,0c0.3,0.4,0.6,0.7,0.8,1.1c0.2,0.3,0.2,0.6,0,1c-0.2,0.5-0.8,0.8-1.3,0.9C10.4,46.6,10,46.2,9.7,45.9z
		 M13.6,46.3c-0.5,0.5-1,1.1-1.5,1.6C12,48,11.9,48.1,11.8,48c-0.1-0.1-0.2-0.2-0.3-0.3l0.1-0.2c0.4-0.4,0.8-0.8,1.1-1.2
		c0.1-0.1,0.2-0.3,0.3-0.4c0.1-0.1,0.2-0.1,0.2-0.1c0.1,0.1,0.2,0.2,0.4,0.3C13.7,46.2,13.6,46.2,13.6,46.3z M16.9,48.5
		c-0.1,0.5-0.1,1.1-0.2,1.6c0,0.3-0.1,0.6-0.1,0.9c-0.4,0-0.6-0.2-0.6-0.5c0-0.5,0-0.5-0.4-0.7c-0.2-0.1-0.4-0.1-0.5,0.1
		c0,0-0.1,0.1-0.1,0.2c-0.2,0.2-0.3,0.1-0.5,0c-0.1-0.1-0.1-0.2,0-0.3c0.6-0.5,1.3-1.1,1.9-1.6c0.1-0.1,0.2-0.2,0.4-0.1
		C16.9,48.2,16.9,48.3,16.9,48.5z M20.1,49.7c-0.1,0.1-0.3,0.1-0.4,0c-0.5-0.5-1-0.4-1.4,0.1C18.1,50,18,50.6,18.2,51
		c0.2,0.3,0.6,0.5,1,0.4c0.2,0,0.3-0.1,0.4,0.2c0,0.1,0,0.3-0.2,0.3c-0.1,0-0.2,0-0.3,0.1c-0.8,0-1.5-0.5-1.6-1.3
		c-0.1-0.4,0.3-1.1,0.7-1.4c0.6-0.3,1.3-0.3,1.8,0.2C20.2,49.5,20.2,49.6,20.1,49.7z M22.8,50c-0.1,0.1-0.2,0.1-0.3,0
		c-0.5-0.3-0.9-0.3-1.3,0.1c-0.3,0.4-0.3,1,0.1,1.4c0.2,0.2,0.7,0.3,1,0.2c0.1,0,0.1-0.1,0.1-0.1c0.1,0,0.3,0.1,0.3,0.2
		c0,0-0.1,0.2-0.1,0.3c-0.2,0.1-0.4,0.1-0.7,0.2c-0.7,0-1.3-0.4-1.4-1c-0.2-0.8,0.1-1.5,0.8-1.8c0.5-0.2,0.9-0.1,1.4,0
		C22.9,49.7,22.9,49.8,22.8,50z M18,43.7c-1.1-0.7-2-1.5-2.8-2.4c-1-1.2-1.8-2.5-2.4-3.9c-0.7-1.5-1.1-3-1.4-4.6
		c-0.2-0.8-0.3-1.7-0.3-2.6c-0.1-0.6-0.1-1.3-0.1-2c0-1,0-1.9,0.2-2.9c0.1-0.5,0.1-1,0.2-1.6c0.2-1,0.5-2.1,0.8-3.1
		c0.5-1.4,1.2-2.8,2-4c0.6-0.9,1.3-1.7,2.1-2.5c1.3-1.2,2.7-2,4.5-2.4c0.6-0.1,1.1-0.1,1.7-0.2c1.6,0,3,0.5,4.4,1.3
		c1.2,0.7,2.1,1.6,3,2.6c1.4,1.7,2.4,3.6,3.1,5.6c0.3,1,0.6,2,0.8,3c0.2,0.8,0.2,1.5,0.3,2.3c0.1,1,0.1,2,0.1,3c0,0.7-0.1,1.3-0.2,2
		c-0.1,0.7-0.2,1.4-0.4,2.1c-0.2,0.9-0.5,1.9-0.8,2.8c-0.5,1.4-1.1,2.7-2,3.8c-0.5,0.7-1.1,1.4-1.7,2c-0.9,0.9-1.9,1.6-3,2.1
		c-0.7,0.4-1.5,0.6-2.3,0.7C21.7,45.2,19.8,44.8,18,43.7z M25.2,52c-0.2,0.1-0.4,0.1-0.5-0.1c-0.1-0.2-0.3-0.4-0.4-0.7
		c-0.1-0.1-0.2-0.1-0.3-0.2c0,0.1,0,0.2,0,0.3c0,0.2,0.1,0.4,0.1,0.6c0,0.2-0.1,0.2-0.2,0.2s-0.3,0-0.4-0.2
		c-0.1-0.7-0.2-1.5-0.3-2.3c0,0,0,0,0-0.1c-0.1-0.2,0.1-0.3,0.3-0.3c0.2,0,0.4-0.1,0.6-0.1c0.3,0,0.6,0.1,0.8,0.4
		c0.2,0.3,0.2,0.6-0.1,0.9c-0.1,0.2-0.2,0.3,0,0.5s0.3,0.4,0.5,0.6C25.4,51.8,25.4,51.9,25.2,52z M27.8,51.3
		c-0.4,0.1-0.8,0.2-1.1,0.4c-0.2,0-0.3,0-0.3-0.2c-0.2-0.7-0.4-1.4-0.6-2.1c-0.1-0.3-0.1-0.3,0.2-0.4c0.3-0.1,0.6-0.2,0.9-0.3
		c0.1,0,0.3-0.1,0.3,0.1c0,0.1,0,0.3-0.2,0.4c-0.2,0-0.3,0.1-0.5,0.1s-0.2,0.1-0.1,0.3c0,0,0,0.1,0.1,0.2c0,0.2,0.2,0.2,0.3,0.2
		c0.1,0,0.2-0.1,0.4-0.1c0.2-0.1,0.4,0,0.4,0.3c0,0-0.1,0.1-0.2,0.2c-0.1,0.1-0.3,0.1-0.5,0.1c-0.1,0-0.2,0.1-0.1,0.2
		c0.2,0.5,0.1,0.6,0.7,0.4c0.1,0,0.2-0.1,0.3-0.1c0.2-0.1,0.3,0.1,0.3,0.2C28,51.2,27.9,51.3,27.8,51.3z M30.2,50.2
		c-0.3,0.2-0.5,0.3-0.8,0.5c-0.2,0.1-0.2,0-0.3-0.1c-0.4-0.7-0.7-1.3-1.1-2c-0.1-0.2-0.1-0.3,0.1-0.4c0.3-0.1,0.6-0.3,0.9-0.4
		c0.2-0.1,0.4-0.1,0.6-0.2c0.5-0.1,1.1,0.6,1.2,0.9C30.9,49.2,30.7,49.8,30.2,50.2z M32.7,48.4c-0.1,0.1-0.2,0.2-0.3,0.3
		c-0.1-0.1-0.2-0.1-0.2-0.2c-0.5-0.6-0.9-1.2-1.4-1.7c-0.2-0.2-0.2-0.3,0-0.4c0.2-0.2,0.3-0.1,0.4,0.1c0.5,0.6,0.9,1.1,1.4,1.7
		C32.7,48.2,32.8,48.4,32.7,48.4z M34.4,47c-0.1,0.1-0.2,0.2-0.3,0.3l-0.2-0.1c-0.4-0.4-0.9-0.9-1.3-1.3c-0.1-0.1-0.2-0.1-0.3,0
		s-0.2,0.2-0.3,0.3c-0.1,0.1-0.3,0.1-0.4,0s-0.1-0.2,0.1-0.4c0.4-0.4,0.8-0.8,1.2-1.2c0.1-0.1,0.2-0.1,0.2-0.1
		c0.1,0,0.1,0.1,0.2,0.2c-0.1,0.1-0.1,0.2-0.2,0.2c-0.5,0.4-0.5,0.3-0.1,0.8c0.4,0.4,0.7,0.7,1.1,1.1C34.3,46.8,34.4,46.9,34.4,47z
		 M36.6,44.3c-0.2,0.3-0.3,0.3-0.6,0.1c-0.2-0.1-0.4-0.1-0.5,0.1c-0.1,0.1-0.1,0.2-0.2,0.3c0,0.1-0.1,0.1-0.1,0.2
		c0.1,0.1,0.2,0.3,0.3,0.4c0.2,0.2,0.2,0.4,0,0.6c-0.3,0-0.4,0-0.5-0.1c-0.4-0.7-0.9-1.4-1.3-2.2c-0.1-0.1-0.1-0.3,0-0.4
		c0.1-0.1,0.2-0.1,0.4-0.1c0.8,0.2,1.6,0.5,2.3,0.7c0.1,0,0.2,0.1,0.2,0.1C36.7,44.1,36.6,44.2,36.6,44.3z M38.5,41
		c-0.1,0.2-0.2,0.3-0.4,0.2c-0.3-0.2-0.6-0.3-0.8-0.5c-0.1-0.1-0.2-0.1-0.3-0.2c0,0,0,0-0.1,0.1c0.1,0.1,0.1,0.2,0.2,0.3
		c0.2,0.3,0.5,0.7,0.7,1c0.1,0.2,0.1,0.4-0.2,0.4c-0.4,0-0.7-0.1-1.1-0.1c-0.1,0-0.3,0-0.4,0c0,0,0,0,0,0.1c0.1,0.1,0.1,0.1,0.2,0.1
		c0.3,0.2,0.6,0.3,0.9,0.4c0.2,0.1,0.2,0.2,0.1,0.4c-0.1,0.2-0.2,0.1-0.4,0.1c-0.6-0.4-1.3-0.7-1.9-1.1c-0.1-0.1-0.3-0.1-0.2-0.3
		s0.1-0.3,0.3-0.3c0.6,0,1.1,0.1,1.7,0.1c0.1,0,0.2,0,0.3,0c0-0.1-0.1-0.2-0.1-0.2c-0.3-0.5-0.7-1-1-1.5c-0.1-0.2,0-0.3,0.1-0.4
		c0-0.1,0.2,0,0.3,0c0.7,0.4,1.4,0.7,2,1.1C38.6,40.7,38.6,40.9,38.5,41z M39.6,38.4c-0.2,0.4-0.3,0.8-0.4,1.2
		c-0.1,0.2-0.2,0.2-0.3,0.1c-0.7-0.3-1.4-0.5-2.1-0.8c-0.3-0.1-0.3-0.2-0.2-0.5c0.1-0.2,0.2-0.5,0.3-0.8c0.1-0.2,0.2-0.3,0.4-0.2
		s0.2,0.2,0.1,0.3c-0.1,0.1-0.1,0.2-0.2,0.4c-0.1,0.2,0,0.3,0.2,0.4c0.2,0.1,0.3,0.1,0.4-0.1c0.1-0.1,0.1-0.3,0.2-0.4
		c0-0.1,0.2-0.1,0.3-0.1s0.1,0.1,0.2,0.2c-0.1,0.2-0.2,0.4-0.2,0.5c-0.1,0.1-0.1,0.2,0.1,0.3c0,0,0,0,0.1,0c0.5,0.2,0.5,0.2,0.6-0.3
		c0-0.1,0.1-0.2,0.1-0.3s0.1-0.2,0.3-0.1C39.5,38.1,39.6,38.2,39.6,38.4z M40.4,35.6c-0.2,0.1-0.5,0.2-0.7,0.4
		c-0.4,0.2-0.8,0.3-1.2,0.5c0,0-0.1,0.1-0.2,0.1c0.1,0,0.2,0.1,0.3,0.1c0.4,0.1,0.9,0.2,1.3,0.4c0.1,0,0.2,0.2,0.1,0.3
		c0,0.2-0.2,0.2-0.3,0.2c-0.2-0.1-0.5-0.2-0.7-0.2c-0.5-0.1-1-0.3-1.5-0.4c-0.2-0.1-0.3-0.3-0.1-0.4c0.1-0.1,0.3-0.2,0.5-0.3
		c0.5-0.2,1-0.5,1.5-0.7c0,0,0,0,0.1-0.1c-0.1,0-0.2-0.1-0.3-0.1c-0.4-0.1-0.8-0.2-1.2-0.3c-0.2-0.1-0.3-0.2-0.2-0.4
		c0-0.1,0.2-0.1,0.2-0.1c0.8,0.2,1.5,0.4,2.3,0.7c0.1,0,0.2,0.1,0.2,0.1C40.5,35.4,40.4,35.5,40.4,35.6z M40.8,33.4
		c0,0.2-0.2,0.3-0.4,0.3c-0.6-0.1-1.2-0.2-1.8-0.3c-0.2,0-0.2,0-0.2,0.2c0,0.1,0,0.3,0,0.4c0,0.2-0.2,0.2-0.3,0.2
		c-0.2,0-0.2-0.2-0.2-0.3c0.1-0.6,0.2-1.1,0.3-1.7c0-0.2,0.1-0.3,0.2-0.2c0.1,0,0.2,0.1,0.3,0.2c-0.1,0.2-0.1,0.3-0.1,0.4
		c0,0.2,0,0.2,0.2,0.3c0.6,0.1,1.2,0.2,1.8,0.3C40.8,33.1,40.9,33.2,40.8,33.4z M39.8,31.8c-0.8,0-1.4-0.6-1.4-1.4
		c0-0.7,0.7-1.4,1.4-1.4c0.8-0.1,1.5,0.7,1.5,1.4C41.2,31.1,40.6,31.8,39.8,31.8z M39,25.9c0-0.3,0.4-0.7,0.8-0.7
		c0.4,0,0.7,0.4,0.7,0.7c0,0.4-0.4,0.8-0.8,0.8C39.4,26.7,39,26.3,39,25.9z M41.2,19.4c-0.9,0.7-1.7,1.4-2.6,2.1
		c-0.7,0.5-1.3,1-2,1.5c-0.1,0.1-0.2,0.2-0.3,0.3c-0.2,0.1-0.3,0.1-0.3-0.1c-0.1-0.2-0.1-0.4-0.2-0.7c-0.1-0.2,0-0.2,0.1-0.3
		c0.5-0.3,0.9-0.7,1.4-1c0.2-0.1,0.3-0.3,0.2-0.5c-0.2-0.5-0.3-0.9-0.5-1.4c-0.1-0.4-0.1-0.4-0.5-0.4h-0.1l0,0c-0.5,0-0.9,0-1.4,0
		c-0.2,0-0.4-0.1-0.5-0.3c0-0.2-0.1-0.3-0.2-0.5c0-0.1,0-0.2,0-0.3c0,0,0.1,0,0.2,0c0.3,0,0.7,0,1,0c0.9,0,1.7,0.1,2.6,0.2
		c0.8,0.1,1.6,0.1,2.5,0.2c0.4,0,0.5,0.1,0.6,0.5c0,0.1,0.1,0.2,0.1,0.4C41.4,19.2,41.3,19.3,41.2,19.4z"/>
	<path class="st0" d="M24.2,30.5c0.1,0,0.3,0.1,0.4,0.1c0.3,0.2,0.5,0.5,0.7,0.8c0.6,0.7,1.2,1.3,1.7,2c0.1,0.1,0.1,0.2,0.2,0.3
		c0.1,0.5,0.3,1.1,0.4,1.6c0,0.2,0.1,0.4,0,0.5c-0.3,0.4-0.4,1-0.9,1.3c-0.1,0.1-0.1,0.3-0.1,0.5c0,0.1,0.3,0.2,0.5,0.1
		c0.2-0.1,0.3-0.2,0.5-0.3c0.4-0.3,0.9-0.5,0.9-1.1l0,0c0.1-0.3,0.4-0.4,0.6-0.3c0.1,0,0.3,0,0.3,0c0.1-0.3,0.1-0.6,0.1-1
		c0,0-0.1-0.1-0.1-0.2c-0.2-0.2-0.4-0.4-0.6-0.6c-0.1-0.1-0.1-0.2,0-0.3c0.2-0.3,0.4-0.5,0.6-0.8c0.1-0.1,0.2-0.1,0.3,0
		c0.2,0.1,0.3,0.2,0.5,0.3c0.3,0.2,0.6,0.4,0.8,0.8c0.2,0.3,0.4,0.4,0.7,0.1c0-0.1,0.1-0.1,0.1-0.2c0-0.1,0.1-0.2,0.1-0.2
		c-0.1-0.2-0.2-0.5-0.3-0.6c-0.4-0.4-0.8-0.8-1.3-1.2c-0.6-0.5-1.3-1-1.9-1.4c-0.1-0.1-0.1-0.2,0-0.3c0,0,0.1-0.1,0.2-0.1
		c0.2-0.1,0.2-0.3,0.1-0.5c0-0.1-0.2-0.1-0.3-0.1c-0.4,0-0.7,0-1-0.3c-0.4-0.3-0.9-0.7-1.3-1c-0.1-0.1-0.2-0.2-0.2-0.4
		c-0.2-0.6-0.3-1.3-0.4-1.9c0-0.1-0.1-0.3-0.2-0.4c-0.5-0.4-0.9-0.8-1.4-1.2c-0.2-0.1-0.3-0.3-0.3-0.5c0-0.5,0-1.1,0-1.6
		s0.3-0.7,0.6-1.1c0,0,0.1,0,0.1-0.1c0.6-0.1,1.1-0.3,1.7-0.4c0.1,0,0.2-0.1,0.2-0.2c0-0.2,0-0.5,0-0.7c0-0.1,0-0.2,0-0.3
		c0-0.1,0-0.2,0-0.3c0-0.4,0-0.4-0.4-0.4c-0.2,0-0.3-0.1-0.5-0.1c-0.3,0-0.5-0.1-0.6-0.4c-0.1-0.2-0.3-0.4-0.5-0.6
		c-0.1-0.1-0.2-0.1-0.3-0.1c-0.3,0-0.6,0-0.9,0.1c-0.4,0-0.7,0-1.1,0c-0.1,0-0.2,0.1-0.3,0.1c-0.2,0.3-0.4,0.4-0.7,0.5
		c-0.3,0.1-0.6,0.2-0.9,0.3c-0.3,0.1-0.5,0.2-0.8,0.2c-0.5,0-1-0.2-1.4-0.2c-0.1,0-0.3,0-0.4,0.1c-0.3,0.2-0.7,0.3-1.1,0.2
		c-0.5-0.1-0.9,0.3-0.7,0.7c0.1,0.5,0,0.8-0.5,1c-0.2,0-0.2,0.2-0.1,0.3c0.1,0.5,0.2,0.9,0.1,1.4c0,0.2,0,0.4,0.3,0.4
		c0.1,0,0.2,0.1,0.4,0.1c0.3,0.1,0.4,0.2,0.2,0.5c-0.1,0.1-0.1,0.3,0,0.4s0.3,0.1,0.4,0c0.5-0.3,0.9-0.6,1.4-1
		c0.1-0.1,0.2-0.1,0.4,0c0.3,0.2,0.6,0.3,0.8,0.5c0.4,0.2,0.7,0.4,0.8,0.8c0.2,0.5,0.3,1,0.4,1.5c0.1,0.3,0.1,0.7,0.3,1
		c0.9,1.2,1.9,2.4,2.8,3.6C23.6,30.4,23.9,30.5,24.2,30.5z"/>
	<path class="st0" d="M18.2,29.6c0-0.2-0.1-0.3-0.3-0.2c-0.2,0.1-0.5,0.2-0.7,0.3c-0.3,0.2-0.6,0.5-1.1,0.2
		c-0.1,0.1-0.2,0.2-0.3,0.4c0,0.1,0,0.2,0.1,0.2c0.2,0.2,0.4,0.3,0.3,0.6v0.1c0.1,0.3,0,0.5,0,0.8c-0.1,0.3-0.1,0.6-0.3,0.9
		c-0.2,0.4-0.1,0.7,0.2,1l0,0c0.1,0,0.2,0.1,0.3,0.1c0.2-0.1,0.4-0.2,0.6-0.3c0.1-0.1,0.2-0.1,0.3,0c0.2,0.1,0.3,0.1,0.4-0.1
		c0.1-0.5,0.3-0.9,0.4-1.4c0.1-0.4-0.1-0.8,0.2-1.1l0,0C18.2,30.5,18.2,30,18.2,29.6z"/>
	<path class="st0" d="M24.6,39.6l0.1,0.1c0.3,0,0.6,0,0.8-0.2c0.4-0.2,0.4-0.6,0.4-1c-0.1-0.4,0-0.6,0.2-0.9c0.1-0.1,0.1-0.3,0-0.4
		c0-0.1-0.2-0.1-0.3-0.1c-0.5,0-1,0-1.5-0.1c-0.3,0-0.6,0-0.9-0.3c-0.2-0.3-0.5-0.4-0.7-0.3c-0.1,0-0.1,0-0.2,0
		c-0.2,0-0.4,0.1-0.5,0.3c-0.1,0.3-0.1,0.5,0.1,0.7c0.5,0.4,1,0.8,1.5,1.2C24,38.8,24.5,39,24.6,39.6z"/>
	<path class="st0" d="M31.3,11.9c0.4,0.4,0.9,0.7,1.6,0.7c0.3-0.1,0.6-0.1,0.8-0.2c0.4-0.2,0.7-0.5,1-0.8c0.6-0.7,0.7-1.5,0.2-2.3
		c-0.3-0.5-0.7-0.8-1-1.2c-0.1-0.1-0.2-0.1-0.3,0c-1,1-1.9,1.9-2.9,2.9c-0.1,0.1-0.1,0.2,0,0.3C30.9,11.5,31.1,11.7,31.3,11.9z"/>
	<path class="st0" d="M19.4,5.5c0,0.2,0.1,0.2,0.3,0.2c0.1,0,0.3,0,0.4,0c0.3-0.1,0.5-0.1,0.8-0.2c0.5-0.3,0.6-1,0.2-1.5
		c-0.2-0.3-0.5-0.3-0.9-0.3c-0.2,0-0.5,0-0.7,0.1c-0.1,0-0.2,0.1-0.2,0.2C19.3,4.5,19.4,5,19.4,5.5z"/>
	<path class="st0" d="M37.8,18.9c0.2,0.5,0.3,0.9,0.4,1.3c0.1,0.2,0.1,0.2,0.3,0.1c0.4-0.3,0.7-0.6,1.1-0.8c0.1-0.1,0.3-0.2,0.4-0.3
		c0,0,0,0,0-0.1C39.3,19,38.6,19,37.8,18.9z"/>
	<path class="st0" d="M6.6,20.4c0.1,0.1,0.2,0.1,0.2-0.1c0.1-0.3,0.2-0.6,0.4-1c0-0.1,0-0.2-0.1-0.2c-0.3,0-0.7,0-1,0
		c-0.2,0-0.5,0-0.7,0c0,0,0,0,0-0.1c0,0-0.1,0-0.1,0.1c0,0,0,0.1,0.1,0.1C5.6,19.7,6.1,20,6.6,20.4z"/>
	<path class="st0" d="M29.3,48.2c-0.2,0-0.4,0.1-0.6,0.2c-0.1,0.1-0.1,0.2,0,0.3c0.2,0.4,0.5,0.9,0.7,1.3c0,0.1,0.1,0.1,0.2,0.1
		c0.3,0,0.7-0.5,0.7-0.8C30.2,48.6,29.8,48.1,29.3,48.2z"/>
	<path class="st0" d="M11.1,44.3c-0.4,0.3-0.8,0.6-1.1,1l-0.1,0.2c0.3,0.5,0.7,0.6,1.2,0.5c0.3-0.1,0.7-0.5,0.7-0.9
		c0-0.3-0.2-0.6-0.4-0.8C11.3,44.3,11.2,44.3,11.1,44.3z"/>
	<path class="st0" d="M40.4,29.7c-0.2-0.1-0.5-0.2-0.8-0.2c-0.4,0-0.8,0.3-0.8,0.7c0,0.5,0.4,0.9,1,0.9c0.2-0.1,0.4-0.1,0.5-0.2
		c0.3-0.1,0.4-0.3,0.4-0.6C40.8,30.1,40.7,29.9,40.4,29.7z"/>
	<path class="st0" d="M24.1,49.8c-0.2-0.1-0.3,0.1-0.3,0.2c0,0.1,0,0.3,0,0.4c0,0.2,0.1,0.2,0.2,0.2c0.1-0.1,0.2-0.2,0.3-0.4
		S24.2,49.9,24.1,49.8z"/>
	<path class="st0" d="M15.8,49.3c0.1,0.1,0.2,0.2,0.3,0.2c0,0,0.2,0,0.2-0.1c0-0.2,0.1-0.3,0.1-0.5c0,0,0,0-0.1,0
		C16.1,49,15.9,49.1,15.8,49.3z"/>
	<path class="st0" d="M34.5,43.9C34.5,44,34.5,44,34.5,43.9c0,0.2,0.1,0.4,0.2,0.5h0.2c0.1-0.1,0.1-0.3,0.1-0.3
		C34.9,44,34.7,44,34.5,43.9z"/>
</g>
</svg>
