<?xml version="1.0" encoding="UTF-8"?>
<svg id="Calque_1" data-name="Calque 1" xmlns="http://www.w3.org/2000/svg" version="1.1" viewBox="0 0 56.7 56.7">
  <defs>
    <style>
      .cls-1 {
        fill: #7b7b7b;
        stroke-width: 0px;
      }
    </style>
  </defs>
  <path class="cls-1" d="M21.4,5c-6.4,8.6-8.6,18.7-5.5,27.6,3.1,8.9,11.2,15.5,21.7,18.3-.4.2-.8.3-1.2.5-2.6.9-5.3,1.4-8,1.4-10.3,0-19.6-6.6-23-16.4C.9,23.7,7.7,9.8,20.4,5.4c.4,0,.7-.2,1.1-.3M28.4,0C25.3,0,22.1.5,19,1.6,4.3,6.7-3.6,22.9,1.6,37.7c4.1,11.7,15,19,26.8,19s6.2-.5,9.3-1.6c4.2-1.5,7.9-3.9,10.8-6.8-13.6,0-25.1-6.4-28.8-17-3.7-10.6,1.4-22.6,11.9-31.1C30.5,0,29.5,0,28.4,0h0Z"/>
</svg>