<?xml version="1.0" encoding="UTF-8"?>
<svg id="Calque_1" data-name="Calque 1" xmlns="http://www.w3.org/2000/svg" version="1.1" viewBox="0 0 56.7 56.7">
  <defs>
    <style>
      .cls-1 {
        fill: #7b7b7b;
        stroke-width: 0px;
      }
    </style>
  </defs>
  <path class="cls-1" d="M39.1,12.6L38.2,0l-8.7,9.1c3.6.2,6.9,1.5,9.6,3.4h0Z"/>
  <path class="cls-1" d="M27.2,9.1L18.5,0l-.9,12.5c2.7-2,6.1-3.2,9.6-3.4Z"/>
  <path class="cls-1" d="M56.7,32.6l-10-6.9v1.9c0,2.9-.7,5.7-1.9,8.1l11.8-3h.1Z"/>
  <path class="cls-1" d="M28.4,42.9c8.5,0,15.4-6.9,15.4-15.4s-6.9-15.4-15.4-15.4-15.4,6.9-15.4,15.4,6.9,15.4,15.4,15.4Z"/>
  <path class="cls-1" d="M46.2,22.9l7.1-10-12.3,1.3c2.5,2.3,4.3,5.4,5.2,8.8h0Z"/>
  <path class="cls-1" d="M28.4,45.9c-1.8,0-3.5-.3-5.1-.7l5.1,11.5,5.1-11.5c-1.6.5-3.3.7-5.1.7Z"/>
  <path class="cls-1" d="M35.7,44.4l11.2,5.5-3.3-12c-2,2.8-4.7,5.1-7.9,6.5Z"/>
  <path class="cls-1" d="M13.2,37.9l-3.3,12,11.2-5.5c-3.2-1.4-5.9-3.6-7.9-6.5Z"/>
  <path class="cls-1" d="M9.9,27.5v-1.9L0,32.6l11.8,3c-1.2-2.5-1.9-5.2-1.9-8.1Z"/>
  <path class="cls-1" d="M15.7,14.1l-12.3-1.3,7.1,10c.9-3.4,2.7-6.4,5.2-8.8h0Z"/>
</svg>