<?xml version="1.0" encoding="utf-8"?>
<!-- Generator: Adobe Illustrator 28.2.0, SVG Export Plug-In . SVG Version: 6.00 Build 0)  -->
<svg version="1.1" id="Calque_1" xmlns="http://www.w3.org/2000/svg" xmlns:xlink="http://www.w3.org/1999/xlink" x="0px" y="0px"
	 viewBox="0 0 56.7 56.7" style="enable-background:new 0 0 56.7 56.7;" xml:space="preserve">
<style type="text/css">
	.st0{fill:#1B1B1A;}
</style>
<path class="st0" d="M56.7,28.3c0.1,15.6-12.6,28.3-28.3,28.4C12.8,56.7,0,44.1,0,28.5C0,12.8,12.5,0.1,28.2,0
	C43.8-0.1,56.6,12.6,56.7,28.3z M23,31.9c0,6,0,11.9,0,17.7c2.6,0,5.1,0,7.8,0c0-5.9,0-11.8,0-17.8c2,0,3.8,0,5.7,0
	c0.4-2.4,0.8-4.8,1.1-7.2c-2.3,0-4.5,0-6.8,0c0-2.1-0.1-4.1,0-6c0.1-1.1,0.9-1.8,2-2.2c0.7-0.2,1.5-0.3,2.3-0.3c0.9-0.1,1.8,0,2.7,0
	c0-1.9,0-3.7,0-5.5c0-0.6-0.4-0.6-0.7-0.6c-1.9-0.1-3.7-0.2-5.6-0.2c-3.4-0.1-6,1.5-7.5,4.6c-0.8,1.5-1.1,3.2-1,4.9
	c0,1.8,0,3.5,0,5.4c-2.2,0-4.3,0-6.4,0c0,2.5,0,4.8,0,7.2C18.7,31.9,20.8,31.9,23,31.9z"/>
</svg>
