<?xml version="1.0" encoding="utf-8"?>
<!-- Generator: Adobe Illustrator 28.2.0, SVG Export Plug-In . SVG Version: 6.00 Build 0)  -->
<svg version="1.1" id="Calque_1" xmlns="http://www.w3.org/2000/svg" xmlns:xlink="http://www.w3.org/1999/xlink" x="0px" y="0px"
	 viewBox="0 0 56.7 56.7" style="enable-background:new 0 0 56.7 56.7;" xml:space="preserve">
<style type="text/css">
	.st0{fill:#1B1B1A;}
</style>
<path class="st0" d="M0,28.2C0.3,12.3,13-0.2,28.7,0c15.8,0.2,28.2,13,28,28.8c-0.2,15.5-13.2,28.1-28.6,27.8
	C12.6,56.4,0.1,44.1,0,28.2z M22.8,44c2.1,0,4.2,0,6.3,0c0-0.5,0-0.8,0-1.2c0-3.4,0-6.8,0-10.2c0-2.2,1.6-4,3.7-4.4
	c2.7-0.5,4.9,1.4,4.9,4.4c0,3.5,0,6.9,0,10.4c0,0.3,0,0.7,0,1c2.1,0,4.2,0,6.2,0c0-0.3,0.1-0.5,0.1-0.7c0-4.6,0-9.3,0-13.9
	c0-0.9-0.2-1.7-0.5-2.5c-2.2-5.8-10.8-5.6-13.7-2.4c-0.2,0.2-0.3,0.5-0.5,0.7c-0.1-0.1-0.2-0.1-0.3-0.2c0-0.8,0-1.6,0-2.5
	c-2.2,0-4.2,0-6.3,0C22.8,29.8,22.8,36.9,22.8,44z M12.6,44c2.1,0,4.2,0,6.3,0c0-7.1,0-14.2,0-21.4c-2.1,0-4.2,0-6.3,0
	C12.6,29.8,12.6,36.9,12.6,44z M15.8,11.8c-2.2,0-3.9,1.6-3.9,3.8s1.6,3.9,3.7,4s3.9-1.6,4-3.8C19.7,13.5,18,11.8,15.8,11.8z"/>
</svg>
