<?xml version="1.0" encoding="utf-8"?>
<!-- Generator: Adobe Illustrator 28.3.0, SVG Export Plug-In . SVG Version: 6.00 Build 0)  -->
<svg version="1.1" id="Calque_1" xmlns="http://www.w3.org/2000/svg" xmlns:xlink="http://www.w3.org/1999/xlink" x="0px" y="0px"
	 viewBox="0 0 1760 265" style="enable-background:new 0 0 1760 265;" xml:space="preserve">
<style type="text/css">
	.st0{fill:#1B1B1A;}
</style>
<path class="st0" d="M1.7,0.3h129C185.2,0.3,213,33.5,213,81c0,49.4-31.7,82.7-82.3,82.7H38.4v101.6H1.7V0.3z M128.8,131.7
	c28.6,0,47.1-18.9,47.1-50.2c0-30.9-15.8-49.1-47.1-49.1H38.4v99.3H128.8z"/>
<path class="st0" d="M295,0.3h46.8l102.8,265h-39l-26.8-70.7H256l-25.9,70.7h-37.9L295,0.3z M366.9,162.6L336,79.9L318.2,32h-1.9
	l-17.4,47.1L268,162.5L366.9,162.6L366.9,162.6z"/>
<path class="st0" d="M633.3,0.3h32.8L805.9,185l9.3,12.4l1.5-0.4v-17.8V0.3h34.4v265h-31.3l-140.5-187l-10-13.5l-1.5,0.4V81v184.3
	h-34.4L633.3,0.3L633.3,0.3z"/>
<rect x="305.7" y="162.6" class="st0" width="352.5" height="32.1"/>
<rect x="517.8" y="90.1" class="st0" width="32.1" height="175.2"/>
<g>
	<path class="st0" d="M952.8,2.3h19.9l43.8,112.9h-16.6l-11.4-30.1h-52.4l-11,30.1H909L952.8,2.3z M983.4,71.4l-13.2-35.2l-7.6-20.4
		h-0.8l-7.4,20.1l-13.2,35.6H983.4z"/>
	<path class="st0" d="M1025.7,83.3c0-1.2,0.2-2.8,0.2-3.3h15.5c-0.2,1.2-0.3,2.5-0.3,3.5c0,13.8,12.7,20.4,30.5,20.4
		c20.6,0,31.9-6.6,31.9-18.8c0-29-74.9-13.7-74.9-54.5c0-20.7,19.8-30.3,44-30.3c24,0,43.3,9.2,43.3,31.8v2h-15.3v-2.5
		c0-11.5-11.7-17.9-27.5-17.9c-16.6,0-28.6,4.9-28.6,15.8c0,27,74.7,13,74.7,53.2c0,25.4-19.9,34.6-46.8,34.6
		C1047.1,117.2,1025.7,108.2,1025.7,83.3z"/>
	<path class="st0" d="M1135.5,83.3c0-1.2,0.2-2.8,0.2-3.3h15.5c-0.2,1.2-0.3,2.5-0.3,3.5c0,13.8,12.7,20.4,30.5,20.4
		c20.6,0,31.9-6.6,31.9-18.8c0-29-74.9-13.7-74.9-54.5c0-20.7,19.8-30.3,44-30.3c24,0,43.3,9.2,43.3,31.8v2h-15.3v-2.5
		c0-11.5-11.7-17.9-27.5-17.9c-16.6,0-28.6,4.9-28.6,15.8c0,27,74.7,13,74.7,53.2c0,25.4-19.9,34.6-46.8,34.6
		C1156.9,117.2,1135.5,108.2,1135.5,83.3z"/>
	<path class="st0" d="M1245,58.8c0-39.2,21.1-58.4,56.3-58.4c35.2,0,56.5,19.3,56.5,58.4c0,39.2-21.2,58.4-56.5,58.4
		C1266,117.2,1245,97.9,1245,58.8z M1341.6,59.4v-0.7c-0.2-32.6-15.5-45.1-40.3-45.1c-24.7,0-40,12.5-40.2,45.1v0.7
		c0,32.1,15.3,44.4,40.2,44.4C1326.3,103.9,1341.6,91.5,1341.6,59.4z"/>
	<path class="st0" d="M1373,58.8c0-39.2,18.8-58.4,55-58.4c28.3,0,48.6,14,48.6,42.8h-16c0-19.8-12.7-29.5-32.6-29.5
		c-26.2,0-38.7,12.7-38.9,44.8v0.3c0,32.3,12.5,45.1,38.9,45.1c20.2,0,33.3-9.5,33.3-29.1h15.3c0,29.1-20.2,42.5-48.6,42.5
		C1391.8,117.2,1373,97.9,1373,58.8z"/>
	<path class="st0" d="M1499.3,2.3h15.6v112.9h-15.6V2.3z"/>
	<path class="st0" d="M1574.8,2.3h19.9l43.8,112.9h-16.6l-11.4-30.1h-52.4l-11,30.1H1531L1574.8,2.3z M1605.5,71.4l-13.2-35.2
		l-7.6-20.4h-0.8l-7.4,20.1l-13.2,35.6H1605.5z"/>
	<path class="st0" d="M1670,16h-38.9V2.3h93.3V16h-38.9v99.3H1670V16z"/>
	<path class="st0" d="M1743.2,2.3h15.6v112.9h-15.6V2.3z"/>
</g>
</svg>
