<?xml version="1.0" encoding="utf-8"?>
<!-- Generator: Adobe Illustrator 28.3.0, SVG Export Plug-In . SVG Version: 6.00 Build 0)  -->
<svg version="1.1" id="Calque_1" xmlns="http://www.w3.org/2000/svg" xmlns:xlink="http://www.w3.org/1999/xlink" x="0px" y="0px"
	 viewBox="0 0 850.4 265" style="enable-background:new 0 0 850.4 265;" xml:space="preserve">
<style type="text/css">
	.st0{fill:#1B1B1A;}
</style>
<path class="st0" d="M0.9,0h129c54.5,0,82.3,33.2,82.3,80.7c0,49.4-31.7,82.7-82.3,82.7H37.6V265H0.9V0z M128,131.4
	c28.6,0,47.1-18.9,47.1-50.2c0-30.9-15.8-49.1-47.1-49.1H37.6v99.3H128z"/>
<path class="st0" d="M294.2,0H341l102.8,265h-39L378,194.3H255.2L229.3,265h-37.9L294.2,0z M366.1,162.3l-30.9-82.7l-17.8-47.9h-1.9
	l-17.4,47.1l-30.9,83.4L366.1,162.3L366.1,162.3z"/>
<path class="st0" d="M632.5,0h32.8l139.8,184.7l9.3,12.4l1.5-0.4v-17.8V0h34.4v265H819L678.5,78l-10-13.5l-1.5,0.4v15.8V265h-34.4
	L632.5,0L632.5,0z"/>
<rect x="304.9" y="162.3" class="st0" width="352.5" height="32.1"/>
<rect x="517" y="89.8" class="st0" width="32.1" height="175.2"/>
</svg>
