<?xml version="1.0" encoding="UTF-8"?>
<svg id="Calque_1" data-name="Calque 1" xmlns="http://www.w3.org/2000/svg" version="1.1" viewBox="0 0 848.3 265">
  <defs>
    <style>
      .cls-1 {
        fill: #1d1d1b;
        stroke-width: 0px;
      }

      .cls-2 {
        fill: none;
        stroke: #1d1d1b;
        stroke-miterlimit: 10;
        stroke-width: 12px;
      }
    </style>
  </defs>
  <path class="cls-1" d="M0,0h128.3c56.4,0,84.6,33.2,84.6,82.7s-31.3,83.8-85.8,83.8H42.9v98.5H0V0ZM125.5,129.8c27,0,44-17.8,44-47.1s-15.1-46-44-46H42.9v93.1h82.7Z"/>
  <line class="cls-2" x1="527.6" y1="97.1" x2="527.6" y2="265"/>
  <line class="cls-2" x1="652.2" y1="181.4" x2="392.6" y2="181.4"/>
  <path class="cls-1" d="M305.7,0h54.1l102.8,265h-45.6l-24.3-64.5h-122.1l-24,64.5h-44L305.7,0ZM378.7,163.8l-29-77.6-17.4-49.4h-1.9c-3.9,11.2-11.2,33.6-17,48.7l-29.4,78.4h94.6Z"/>
  <path class="cls-1" d="M627.3,0h39.4l128.2,172.3c3.9,5,9.3,13.5,11.2,16.6l1.9-.8-.4-19.3V0h40.6v265h-38.6l-128.6-174.2c-5-6.6-9.3-13.9-11.6-17l-1.9.4c0,4.2.4,13.5.4,19.7v171.1h-40.6V0Z"/>
</svg>