<?xml version="1.0" encoding="utf-8"?>
<!-- Generator: Adobe Illustrator 28.3.0, SVG Export Plug-In . SVG Version: 6.00 Build 0)  -->
<svg version="1.1" id="Calque_1" xmlns="http://www.w3.org/2000/svg" xmlns:xlink="http://www.w3.org/1999/xlink" x="0px" y="0px"
	 viewBox="0 0 58.1 56.7" style="enable-background:new 0 0 58.1 56.7;" xml:space="preserve">
<style type="text/css">
	.st0{fill:#1B1B1A;}
</style>
<g>
	<path class="st0" d="M31,41.7c0.6-0.2,1.3-0.4,1.9-0.6c0.4-0.2,0.9-0.3,1.3-0.6c0.5-0.3,1-0.6,1.5-0.9c0.8-0.5,1.5-1.1,2.2-1.8
		c0.4-0.4,0.7-0.8,1-1.2c0.4-0.5,0.8-1,1.1-1.6c0.3-0.4,0.5-0.8,0.7-1.2c0.3-0.5,0.5-1.1,0.7-1.6c0.2-0.7,0.5-1.4,0.5-2.1
		c0.1-0.6,0.2-1.1,0.2-1.7c0-0.7,0-1.4,0-2.1c0-0.3-0.1-0.7-0.1-1s-0.1-0.5-0.1-0.8c-0.1-0.4-0.2-0.9-0.3-1.3
		c-0.2-0.6-0.4-1.2-0.6-1.9c-0.1-0.2-0.2-0.3-0.2-0.5c-0.1,0-0.1,0-0.1,0.1c-0.3,0.4-0.7,0.7-1,1.1c-0.3,0.3-0.6,0.5-0.8,0.8
		c-0.3,0.2-0.5,0.5-0.7,0.7c-0.3,0.3-0.5,0.6-0.8,0.9c-0.2,0.2-0.4,0.4-0.6,0.6c-0.1,0.1-0.3,0.3-0.4,0.4c-0.2,0.2-0.4,0.4-0.6,0.6
		c-0.3,0.3-0.6,0.6-0.8,0.8c-0.2,0.2-0.4,0.4-0.6,0.6c-0.2,0.2-0.4,0.4-0.6,0.6c-0.1,0.1-0.3,0.3-0.4,0.5c-0.2,0.2-0.5,0.4-0.7,0.7
		c-0.2,0.2-0.5,0.5-0.7,0.7c-0.4,0.4-0.7,0.7-1.1,1.1c-0.1,0.1-0.3,0.3-0.4,0.4c-0.2,0.2-0.5,0.5-0.7,0.7c-0.2,0.2-0.5,0.5-0.7,0.7
		s-0.4,0.3-0.5,0.5c-0.3,0.3-0.7,0.7-1,1h-0.2c-0.3-0.3-0.6-0.7-1-1c-0.1-0.1-0.3-0.3-0.5-0.4c-0.3-0.3-0.7-0.7-1-1
		c-0.1-0.1-0.3-0.3-0.4-0.4c-0.4-0.4-0.7-0.7-1.1-1.1c-0.3-0.3-0.6-0.6-0.6-1.1c0.1-1.5,0-2.9,0-4.4c0-0.4,0-0.8,0-1.2
		c0-0.2,0-0.4,0-0.6c0-0.1,0-0.2,0.1-0.3c0,0,0,0,0.1,0c0,0.1,0.1,0.1,0.1,0.2c0.2,0.2,0.5,0.5,0.7,0.7c0.3,0.3,0.5,0.5,0.8,0.8
		c0.2,0.2,0.4,0.5,0.7,0.7c0.2,0.2,0.5,0.4,0.7,0.7c0.3,0.3,0.5,0.6,0.8,0.8c0.2,0.2,0.4,0.4,0.6,0.6s0.2,0.2,0.4,0
		c0.5-0.5,1-1,1.5-1.5c0.4-0.4,0.9-0.9,1.3-1.3c0.6-0.6,1.2-1.2,1.8-1.8c0.4-0.4,0.9-0.9,1.3-1.3c0.5-0.5,1-1,1.5-1.5s1-1,1.5-1.5
		s1-1,1.6-1.6c-0.1-0.1-0.1-0.2-0.2-0.2c-0.4-0.4-0.8-0.7-1.2-1.1c-0.6-0.4-1.2-0.9-1.9-1.2c-0.6-0.3-1.2-0.7-1.9-0.9
		c-0.5-0.1-0.9-0.4-1.4-0.5c-0.6-0.2-1.2-0.3-1.8-0.4c-0.4-0.1-0.8-0.1-1.2-0.2c-0.9,0-1.8-0.1-2.7,0.1c-0.6,0.1-1.2,0.2-1.9,0.3
		c-0.2,0-0.4,0.1-0.6,0.2c-0.6,0.1-1.3,0.4-1.8,0.7c-0.3,0.1-0.6,0.3-0.9,0.4c-0.5,0.3-0.9,0.5-1.4,0.8c-0.9,0.6-1.7,1.3-2.4,2
		c-0.5,0.5-1,1.1-1.4,1.7c-0.5,0.7-1,1.5-1.4,2.3c-0.4,0.9-0.7,1.8-1,2.7c-0.2,0.8-0.3,1.6-0.4,2.4c-0.1,0.8,0,1.7,0,2.5
		c0,0.4,0.1,0.8,0.2,1.2c0,0.2,0.1,0.5,0.1,0.7c0.1,0.4,0.2,0.8,0.3,1.2c0.1,0.4,0.3,0.8,0.5,1.2c0.2,0.6,0.5,1.1,0.8,1.7
		c0.3,0.5,0.7,1.1,1,1.6c0.6,0.8,1.2,1.5,2,2.2c0.6,0.5,1.2,1.1,1.9,1.5c0.6,0.3,1.2,0.7,1.8,1c0.7,0.4,1.4,0.6,2.2,0.8
		c0.5,0.1,1,0.2,1.5,0.3c0.8,0.2,1.6,0.2,2.3,0.2c0.5,0,1,0,1.4,0c0.2,0,0.5,0,0.7,0C29.9,42,30.5,41.9,31,41.7z"/>
	<path class="st0" d="M5.3,27.4c0.1,0,0.2-0.1,0.2-0.2c0-0.5,0.1-1,0.1-1.5c0-0.8,0.2-1.6,0.3-2.3c0.2-0.9,0.4-1.7,0.6-2.6
		C6.8,20,7,19.3,7.4,18.6c0.4-0.8,0.8-1.6,1.2-2.4c0.4-0.7,0.9-1.4,1.4-2s1-1.2,1.5-1.8c0.4-0.4,0.8-0.8,1.2-1.1
		c0.7-0.6,1.4-1.1,2.1-1.7c0.9-0.6,1.8-1.2,2.8-1.7c0.5-0.2,1-0.5,1.4-0.7c0.5-0.2,1-0.4,1.5-0.6c0.3-0.1,0.6-0.2,0.8-0.3
		c0.6-0.2,1.2-0.3,1.9-0.4c0.3-0.1,0.7-0.1,1-0.2c0.5-0.1,1-0.1,1.5-0.1c0.6,0,1.2-0.1,1.8-0.1c0.7,0,1.4,0.1,2.1,0.2
		c0.3,0,0.7,0,1,0.1c0.8,0.1,1.4,0.2,2,0.4c0.9,0.2,1.8,0.5,2.6,0.8s1.6,0.7,2.3,1.1c0.7,0.4,1.4,0.8,2,1.2s1.1,0.8,1.6,1.2
		s1,0.8,1.4,1.3c0.3,0.3,0.5,0.6,0.8,0.8c0.8,0.8,1.4,1.7,2.1,2.6c0.5,0.7,0.9,1.5,1.4,2.3c0.3,0.6,0.6,1.2,0.8,1.8
		c0.3,0.9,0.6,1.7,0.9,2.6c0.2,0.7,0.3,1.3,0.4,2c0.1,0.5,0.2,1.1,0.2,1.6c0,0.3,0.1,0.6,0.1,0.9s0,0.6,0,0.9c0,0.2,0,0.4,0,0.6
		s0,0.4,0,0.6c0,0.4,0,0.8,0,1.2c0,0.9,0,1.8,0,2.7s0,1.7,0,2.6c0,0.5,0,0.9,0,1.4c0,0.7,0,1.5,0,2.2c0,0.6,0,1.2,0,1.8
		c0,0.1,0,0.1,0,0.2c-0.1,0.3,0,0.4,0.3,0.4c1.6,0,3.2,0,4.8,0c0.3,0,0.3,0,0.3-0.3c0-2.4,0-4.9,0-7.3c0-2,0-3.9,0-5.9
		c0-0.8,0-1.6-0.1-2.4c0-0.6-0.1-1.2-0.2-1.8c-0.1-0.6-0.2-1.3-0.3-1.9c-0.1-0.5-0.2-0.9-0.4-1.4c-0.1-0.5-0.3-1-0.5-1.5
		c-0.3-0.9-0.6-1.8-1-2.7c-0.5-1.1-1-2.1-1.6-3.1c-0.5-0.7-1-1.4-1.5-2.1c-0.5-0.6-1-1.3-1.5-1.9c-1-1.1-2.1-2.1-3.2-3
		c-0.7-0.5-1.4-1-2.1-1.5c-0.9-0.6-1.8-1.1-2.7-1.6c-0.8-0.4-1.7-0.7-2.6-1.1c-0.3-0.1-0.6-0.2-0.9-0.3c-0.3-0.1-0.6-0.2-0.8-0.3
		c-0.6-0.2-1.2-0.3-1.8-0.4c-0.5-0.1-1-0.2-1.5-0.3s-1-0.1-1.5-0.2c-0.5,0.1-0.9,0-1.4,0c-1.3,0-2.5,0-3.8,0c-0.4,0-0.9,0.1-1.3,0.1
		c-0.6,0.1-1.2,0.2-1.8,0.3c-0.9,0.2-1.8,0.4-2.7,0.6c-0.8,0.2-1.6,0.5-2.4,0.9c-1.1,0.5-2.3,1-3.4,1.6c-1.4,0.8-2.7,1.7-3.9,2.7
		C9,6.8,8.3,7.5,7.6,8.2c-0.6,0.6-1.2,1.3-1.7,2C5.3,11.1,4.6,12,4,13c-0.3,0.5-0.6,1-0.8,1.5c-0.8,1.5-1.5,3.1-1.9,4.7
		c-0.2,0.6-0.3,1.2-0.5,1.9c-0.1,0.6-0.2,1.2-0.3,1.8c-0.1,0.8-0.3,1.6-0.3,2.4C0,25.9,0,26.5,0,27.2c0,0.1,0,0.2,0.2,0.2
		C1.9,27.4,3.6,27.4,5.3,27.4z M44.5,8.4c0.1-0.1,0.2-0.2,0.3-0.1c0.1,0.1,0.3,0.2,0.2,0.4c-0.2,0.5-0.4,1-0.6,1.4
		c-0.1,0.2-0.2,0.3-0.2,0.5c0,0.1,0,0.1,0,0.2c0.3-0.3,0.5-0.6,0.7-0.8s0.4-0.4,0.6-0.6c0.1-0.1,0.2-0.1,0.3,0s0.1,0.2,0,0.3
		c-0.6,0.6-1.2,1.2-1.8,1.7c-0.2,0.2-0.3,0-0.4-0.1c-0.2-0.2-0.1-0.3,0-0.5c0.1-0.3,0.2-0.6,0.4-0.9c0.1-0.2,0.2-0.4,0.3-0.6
		c0-0.1,0.1-0.2,0.1-0.3c0,0,0,0-0.1-0.1C44.2,9,44.1,9,44,9.1c-0.3,0.3-0.6,0.6-0.8,0.8c-0.1,0.1-0.2,0.2-0.3,0.3
		c-0.1,0-0.2,0.1-0.2,0.1c-0.1-0.1-0.1-0.1-0.2-0.2l0.1-0.1l0.1-0.1C43.4,9.4,43.9,8.9,44.5,8.4z M43.1,6.8c0.5,0.3,0.7,0.6,0.5,1.1
		c-0.1,0.2-0.2,0.3-0.3,0.5C43,8.7,42.8,9,42.5,9.3s-0.7,0.3-1,0c-0.2-0.2-0.5-0.4-0.4-0.7C41,8.3,41.2,8.2,41.3,8
		c0.3-0.4,0.5-0.7,0.8-1C42.3,6.7,42.8,6.7,43.1,6.8z M41.6,5.7c0.1,0,0.2,0.1,0.2,0.2s0,0.1-0.1,0.2c-0.5,0.7-0.9,1.4-1.4,2
		c0,0.1-0.2,0.1-0.2,0.1C40,8.1,39.9,8.1,40,7.9c0.5-0.7,0.9-1.4,1.4-2C41.5,5.8,41.6,5.7,41.6,5.7z M38.7,7.1
		c0.4-0.6,0.7-1.2,1.1-1.8c0.1-0.2,0-0.2-0.1-0.3c-0.1-0.1-0.2-0.1-0.3-0.2s-0.1-0.2-0.1-0.3c0.1-0.1,0.2-0.1,0.3,0
		C40,4.8,40.4,5,40.8,5.3c0.1,0,0.2,0.1,0.2,0.2s-0.1,0.1-0.1,0.2c-0.2-0.1-0.3-0.2-0.4-0.3c-0.2-0.2-0.3-0.1-0.4,0.1
		c-0.3,0.5-0.6,1-0.8,1.5c-0.1,0.1-0.1,0.2-0.2,0.3c-0.1,0.1-0.2,0.1-0.3,0C38.8,7.3,38.6,7.3,38.7,7.1z M37.4,4.7
		C37.6,4.5,37.8,4.2,38,4c0.1-0.1,0.2-0.1,0.4-0.1c0.1,0,0.2,0.1,0.2,0.3c0,0.2-0.1,0.5-0.1,0.7c0,0.3-0.1,0.6-0.1,0.9
		s-0.1,0.7-0.1,1c0,0.1-0.1,0.2-0.1,0.2C38.1,7,38,7,38,6.9c-0.1-0.1,0-0.2-0.1-0.3l0,0c0,0,0,0,0-0.1C38,6.2,37.8,6,37.5,5.9
		c-0.1,0-0.1-0.1-0.2-0.1C37,5.7,36.9,5.7,36.7,6c-0.2,0.2-0.3,0.3-0.5,0.1c0-0.1,0-0.2,0-0.2C36.6,5.5,37,5.1,37.4,4.7z M34.7,4.3
		C34.8,4,34.9,3.8,35,3.6c0.1-0.4,0.4-0.6,0.8-0.7c0.2,0,0.7,0.3,0.8,0.5s0.2,0.4,0,0.6c0,0.1-0.2,0.1-0.2,0.1
		c-0.1,0-0.2-0.1-0.2-0.3c0.1-0.2-0.1-0.3-0.2-0.4c-0.2-0.1-0.3-0.1-0.4,0.1c-0.2,0.3-0.3,0.6-0.4,0.9C35.1,4.6,35,4.8,34.9,5
		c0,0.3,0.2,0.4,0.4,0.5s0.3-0.1,0.4-0.3c0-0.1,0.1-0.2,0.2-0.2c0.1,0,0.2,0.1,0.2,0.2s0,0.2-0.1,0.3C35.7,6,35,6,34.7,5.4
		c0-0.1-0.1-0.2-0.1-0.3C34.6,4.8,34.7,4.6,34.7,4.3z M34,2.7c0-0.1,0.1-0.2,0.2-0.2c0.1,0,0.3,0.1,0.2,0.3c0,0.1,0,0.2-0.1,0.2
		c-0.2,0.7-0.3,1.4-0.5,2c0,0.1-0.1,0.2-0.2,0.2c-0.2,0.1-0.3-0.1-0.3-0.3c0.1-0.4,0.2-0.9,0.3-1.3C33.8,3.3,33.9,3,34,2.7z
		 M31.7,4.6c0.1-0.5,0.2-0.9,0.3-1.4c0.1-0.3,0.1-0.7,0.2-1c0-0.1,0.2-0.1,0.2-0.1c0.3,0.1,0.7,0.1,1,0.2c0.1,0,0.2,0.1,0.2,0.3
		s-0.2,0.2-0.3,0.1c-0.2-0.1-0.4-0.1-0.7-0.2c0,0-0.1,0.1-0.2,0.1c0,0.2,0,0.3,0,0.5s0.1,0.3,0.2,0.3c0.1,0,0.3,0,0.4,0
		c0.1,0,0.3,0.1,0.2,0.2c0,0.2-0.2,0.2-0.3,0.1c-0.2,0-0.4-0.1-0.6-0.1c-0.1,0-0.2,0.1-0.2,0.2C32,4.1,32,4.4,32,4.7
		c0,0.1-0.1,0.3-0.3,0.2C31.7,4.8,31.6,4.8,31.7,4.6z M30.8,3.6c0.1-0.5,0.2-1,0.2-1.5c0-0.1,0-0.2,0.1-0.2s0.2,0,0.3,0
		c0.1,0,0.1,0.1,0.1,0.2c-0.1,0.6-0.2,1.1-0.2,1.7c0,0.2,0,0.5-0.1,0.7c0,0.1-0.2,0.2-0.3,0.2c-0.1,0-0.1-0.1-0.2-0.2
		C30.7,4.2,30.8,3.9,30.8,3.6z M28.6,1.8c0-0.2,0.1-0.2,0.2-0.1c0.4,0.1,0.9,0.1,1.3,0.1c0.1,0,0.2,0,0.2,0c0.1,0,0.1,0.1,0.1,0.2
		c0,0.1-0.1,0.1-0.2,0.1s-0.3,0-0.4,0c-0.2,0-0.3,0.1-0.3,0.3c0,0.1,0,0.2,0,0.3l0,0c-0.1,0.6-0.1,1.2-0.2,1.7
		c0,0.1-0.1,0.2-0.2,0.2s-0.2-0.2-0.2-0.3c0-0.5,0.1-1.1,0.1-1.6c0-0.1,0-0.2,0.1-0.3c0.1-0.2,0-0.4-0.3-0.4c-0.1,0-0.1,0-0.2,0
		C28.7,2,28.6,1.9,28.6,1.8z M26.8,1.6c0.3,0,0.5,0,0.8,0c0.2,0,0.6,0.2,0.6,0.4c0.1,0.3,0,0.6-0.2,0.8c-0.1,0.1-0.1,0.1,0,0.2
		c0.2,0.2,0.1,0.4,0.2,0.7c0,0.2,0,0.4,0.1,0.6c0,0.2-0.1,0.2-0.2,0.2c-0.2,0.1-0.3,0-0.3-0.2s0-0.5,0-0.7s-0.5-0.5-0.7-0.3
		c0,0-0.1,0.1-0.1,0.2c0,0.3,0,0.6,0,0.9c0,0.2-0.1,0.2-0.2,0.2s-0.2-0.1-0.2-0.2c0-0.2,0-0.4,0-0.6l0,0c0-0.5,0-0.9,0-1.4
		c0-0.1,0-0.3,0-0.4C26.5,1.7,26.6,1.6,26.8,1.6z M24.6,1.7c0.3,0,0.6-0.1,0.9-0.1c0.1,0,0.2,0,0.3,0c0.1,0,0.2,0,0.2,0.1v0.2
		C25.9,2,25.8,2,25.7,2c-0.2,0-0.5,0-0.7,0c-0.1,0-0.1,0.1-0.2,0.2c0,0.1,0,0.3,0,0.4c0,0.2,0.1,0.2,0.2,0.2s0.2,0,0.3,0l0,0
		c0.1,0,0.2,0,0.3,0C25.9,2.8,26,2.9,26,3s-0.1,0.2-0.2,0.2c-0.2,0-0.4,0-0.7,0c-0.1,0-0.2,0.1-0.2,0.2c0,0.1,0,0.3,0,0.4
		C24.9,4,25,4.1,25.2,4c0.2,0,0.5,0,0.7,0s0.2,0,0.2,0.2S26,4.4,25.9,4.4c-0.3,0-0.6,0-0.9,0s-0.4,0-0.4-0.3c0-0.5,0-1.1,0-1.6
		c0-0.2-0.1-0.4-0.1-0.6C24.4,1.9,24.5,1.7,24.6,1.7z M22.2,2.5c0.1-0.4,0.4-0.7,0.8-0.7h0.1c0.4,0,0.7,0.2,0.7,0.6
		c0,0.1-0.1,0.2-0.1,0.2c-0.1,0-0.3,0-0.4-0.1c-0.1-0.2-0.2-0.4-0.4-0.3c-0.3,0.1-0.4,0.3-0.4,0.6c0.1,0.5,0.2,0.9,0.3,1.4
		c0,0.2,0.2,0.3,0.4,0.3c0.2,0,0.3-0.2,0.3-0.4c0-0.3,0.2-0.4,0.4-0.3L24,3.9c0,0.5-0.3,0.8-0.8,0.9S22.3,4.6,22.3,4
		c0-0.2-0.1-0.5-0.1-0.7C22.2,3,22.1,2.8,22.2,2.5z M18.2,3.1c0,0,0.1,0,0.2,0.1c0.4,0.5,0.7,1,1.1,1.6c0,0.1,0.1,0.1,0.2,0.1
		c0-0.1,0.1-0.1,0.1-0.2c0-0.3,0-0.6,0-0.9s0-0.6,0-0.9c0-0.2,0.4-0.5,0.6-0.4c0.1,0,0.1,0.1,0.1,0.2c0.1,0.4,0.2,0.8,0.4,1.2
		c0.1,0.3,0.2,0.5,0.2,0.8c0,0.1,0.1,0.2,0.1,0.3c0.1,0.2,0.1,0.3-0.1,0.4s-0.3-0.1-0.3-0.2c-0.1-0.5-0.3-0.9-0.4-1.4
		c0-0.1-0.1-0.1-0.1-0.2h-0.1c0,0.4,0,0.8,0.1,1.3c0,0.2,0,0.5,0,0.7c0,0.1-0.1,0.2-0.2,0.2s-0.2-0.1-0.3-0.1
		c-0.3-0.4-0.6-0.9-0.9-1.4l-0.1-0.1c0,0,0,0-0.1,0c0,0.1,0,0.2,0.1,0.4C19,5,19.1,5.5,19.3,5.9c0,0.1,0,0.2-0.1,0.3
		C19,6.3,19,6.2,18.9,6c-0.1-0.3-0.2-0.7-0.3-1C18.1,4.5,18,4.3,18,4c0-0.1-0.1-0.2-0.1-0.3s-0.1-0.2-0.2-0.4
		C17.9,3.2,18,3.2,18.2,3.1z M15.9,4.1c0.3-0.1,0.5-0.3,0.8-0.4c0.1-0.1,0.3-0.2,0.4,0c0.1,0.1,0,0.3-0.3,0.4
		c-0.2,0.1-0.3,0.1-0.5,0.2s-0.2,0.2-0.1,0.3c0.1,0.1,0.1,0.2,0.2,0.3C16.5,5,16.5,5.1,16.7,5c0.3,0,0.5-0.2,0.7-0.3
		c0,0.1,0.1,0.2,0.1,0.3c0,0.1-0.1,0.1-0.2,0.2c-0.2,0.1-0.3,0.1-0.5,0.2c-0.1,0-0.1,0.2-0.1,0.3c0,0.2,0.1,0.3,0.2,0.4
		c0.1,0.2,0.2,0.2,0.3,0.1c0.2-0.1,0.4-0.2,0.5-0.3C18,5.8,18.2,5.8,18.2,6c0,0.1-0.1,0.2-0.1,0.2c-0.3,0.2-0.6,0.3-1,0.4
		c-0.2,0.1-0.3,0.1-0.4-0.1c-0.3-0.6-0.6-1.3-0.9-1.9c0,0,0-0.1-0.1-0.1C15.6,4.3,15.6,4.2,15.9,4.1z M13.7,5.3
		C14.1,5,14.6,4.8,15,4.5h0.1c0.2,0,0.3,0.1,0.2,0.3C15.2,4.9,15.1,5,15,5c-0.3,0.1-0.3,0.2-0.1,0.5s0.4,0.7,0.6,1
		c0.1,0.2,0.3,0.5,0.4,0.7c0,0.1,0.1,0.2,0,0.2c-0.1,0.1-0.2,0.1-0.3,0.2c0,0-0.1-0.1-0.1-0.2c-0.2-0.4-0.3-0.7-0.5-1
		s-0.3-0.5-0.5-0.8c-0.1-0.2-0.2-0.3-0.5-0.1c-0.1,0.1-0.2,0.1-0.3,0.1s-0.1-0.1-0.2-0.2C13.5,5.5,13.6,5.4,13.7,5.3z M12.1,6.8
		c0-0.4,0.3-0.8,0.8-0.9c0.3,0,0.5,0.1,0.7,0.3c0,0,0,0.2,0,0.3c-0.1,0.1-0.2,0.2-0.3,0.1c-0.1-0.2-0.3-0.3-0.5-0.1
		c-0.1,0.1-0.3,0.2-0.2,0.4c0,0.2,0.2,0.4,0.4,0.3c0.2,0,0.5,0,0.7-0.1c0.3,0,0.6,0.1,0.8,0.3c0.1,0.1,0.1,0.3,0.2,0.4v0.1
		c-0.2,0.4-0.5,0.8-0.9,0.9c-0.2,0-0.7-0.2-0.7-0.4c0-0.1,0-0.2,0.1-0.2s0.2-0.1,0.3-0.1c0,0,0,0,0.1,0.1c0.3,0.2,0.4,0.2,0.7,0
		c0.2-0.1,0.1-0.3,0.1-0.5c-0.1-0.2-0.2-0.2-0.4-0.2c-0.3,0-0.6,0-0.9,0C12.4,7.6,12,7.2,12.1,6.8z M10,8.2C10,8.1,10.2,8,10.2,8
		c0.1,0,0.2,0.1,0.3,0.1c0.2,0.1,0.5,0.2,0.7,0.4c0.1,0,0.1,0,0.2,0c0-0.1,0-0.1,0-0.2c-0.1-0.3-0.2-0.6-0.3-0.9
		c-0.1-0.2,0-0.2,0.1-0.3c0.1-0.1,0.2-0.1,0.2,0s0.1,0.1,0.1,0.2c0.1,0.5,0.3,1,0.4,1.5C12,9,12.2,9.1,12.3,9.3
		c0.1,0.1,0.1,0.1,0.2,0.2c0.2,0.1,0.1,0.2,0,0.4c-0.1,0.1-0.2,0-0.3-0.1S12,9.5,11.9,9.4c-0.2-0.1-0.3-0.3-0.5-0.4
		c-0.3-0.2-0.6-0.3-0.9-0.5c-0.1,0-0.1-0.1-0.2-0.1C10.1,8.4,9.9,8.4,10,8.2z M8.7,9.6c0-0.4,0.6-0.9,1-0.7c0.1,0,0.2,0,0.3,0.1
		s0.1,0.1,0.1,0.3C10,9.4,9.9,9.5,9.7,9.4c-0.1-0.1-0.3-0.2-0.4,0C9.2,9.5,9,9.5,9.1,9.7S9.3,10,9.6,10c0.1,0,0.4-0.1,0.6-0.2
		c0.6-0.2,1,0.1,1.1,0.7c0.1,0.3-0.1,0.5-0.3,0.7c-0.3,0.4-0.8,0.4-1.2,0.1c-0.1-0.1-0.1-0.2,0-0.3c0.1,0,0.2-0.1,0.2,0
		c0.3,0.2,0.7,0.1,0.8-0.2c0.1-0.2,0-0.3-0.1-0.4c-0.1-0.2-0.3-0.1-0.5-0.1c-0.2,0.1-0.4,0.1-0.6,0.2C9.1,10.6,8.6,10.2,8.7,9.6z"/>
	<path class="st0" d="M58,54.5c0,0-0.1,0-0.2,0c-1,0-1.9,0-2.9,0c-0.3,0-0.3,0-0.3-0.3c0-1.1,0-2.3,0-3.4c0-1.1,0-2.1,0-3.2
		c0-1.3,0-2.7,0-4v-0.1c0-0.1,0-0.2-0.2-0.2c-0.1,0-0.2,0.1-0.2,0.3c0,0.1,0,0.1,0,0.2c0,0.6,0,1.2,0,1.8c0,0.2,0,0.5,0,0.7
		c0,0.1,0,0.3,0,0.4h-0.1c0-0.1-0.1-0.3-0.1-0.4c-0.3-0.5-0.7-0.8-1.2-1c-0.6-0.2-1.2-0.3-1.8-0.2c-0.5,0.1-1,0.1-1.4,0.3
		c-0.3,0.2-0.6,0.3-0.8,0.6c-0.4,0.6-0.6,1.2-0.5,1.9c0,0.5,0.2,0.9,0.5,1.3c0.3,0.4,0.7,0.7,1.1,1c0.6,0.4,1.3,0.8,1.9,1.2
		c0.4,0.3,0.6,0.7,0.6,1.3c-0.1,0.5-0.7,0.9-1.3,0.7c-0.4-0.1-0.7-0.4-0.7-0.8c0-0.2,0-0.4,0-0.6c0-0.1-0.1-0.2-0.2-0.2
		c-0.5,0-1.1,0-1.6,0c-0.2,0-0.2,0.1-0.2,0.2c0,0.3,0.1,0.6,0.1,0.8c0.1,0.7,0.3,1.3,1,1.6c0.1,0,0.1,0.1,0.2,0.2
		c-0.6,0-1.2,0-1.7,0c0-0.3,0-0.6,0-0.9c0-0.8,0-1.5,0-2.3c0-0.5,0-0.9,0-1.4c0-0.2-0.1-0.3-0.3-0.3c-0.4,0-0.7,0-1.1,0
		c-0.5,0-1,0-1.5,0c-0.2,0-0.2,0.1-0.2,0.2c0,0.1,0,0.1,0,0.2c0,0.3,0,0.6,0,0.9c0,0.1,0.1,0.2,0.2,0.2c0.2,0,0.4,0,0.6,0
		c0.3,0,0.3,0,0.3,0.3c0,0.5,0,1.1,0,1.6c0,0.1,0,0.2-0.2,0.3c-0.3,0.1-0.7,0.2-1.1,0.1c-0.3-0.1-0.6-0.2-0.7-0.5
		c-0.1-0.2-0.2-0.5-0.3-0.7c-0.1-0.3-0.1-0.6-0.1-1c0-0.2,0-0.5,0-0.7s0-0.5,0-0.7c0-0.4,0-0.8,0-1.2c0-0.5,0-1,0.2-1.4
		c0.2-0.6,0.7-0.9,1.3-0.7c0.4,0.1,0.6,0.3,0.7,0.7c0.1,0.2,0.1,0.5,0.1,0.7c0,0.1,0.1,0.2,0.2,0.2c0.5,0,1.1,0,1.6,0
		c0.1,0,0.2-0.1,0.2-0.2c0-0.5-0.1-0.9-0.2-1.3c-0.2-0.6-0.7-0.9-1.2-1.2c-0.1-0.1-0.3-0.2-0.4-0.2c-0.5,0-1.1-0.2-1.6-0.1
		c-0.4,0.1-0.8,0.1-1.2,0.3c-0.9,0.3-1.3,1-1.5,1.9c-0.1,0.6-0.2,1.2-0.2,1.7c0,0.6,0,1.3,0,1.9c0,0.7,0,1.3,0.2,1.9
		c0.2,0.7,0.5,1.3,1.3,1.6c0.1,0,0.1,0.1,0.2,0.1l-0.1,0.1c-1.1,0-2.2,0-3.4,0c0.1-0.1,0.1-0.2,0.2-0.2c0.4-0.2,0.7-0.6,0.9-1
		c0.2-0.5,0.3-0.9,0.3-1.5c0-0.5-0.2-1-0.4-1.4c-0.3-0.5-0.8-0.8-1.3-1.1c-0.6-0.3-1.1-0.6-1.7-1c-0.3-0.2-0.6-0.6-0.6-0.9
		c0-0.6,0.2-0.9,0.8-1.1c0.4-0.1,0.9,0.1,1,0.5c0.1,0.2,0.1,0.5,0.1,0.7s0.1,0.2,0.2,0.2c0.5,0,1,0,1.5,0c0.2,0,0.3-0.1,0.2-0.2
		c-0.1-0.4-0.1-0.8-0.2-1.1c-0.1-0.4-0.3-0.7-0.6-1c-0.6-0.5-1.4-0.5-2.2-0.5c-0.3,0-0.7,0.1-1,0.1c-0.6,0.1-1.2,0.4-1.5,1
		c-0.3,0.5-0.5,1.1-0.4,1.8c0,0.4,0.2,0.8,0.4,1.2c0.3,0.4,0.7,0.7,1.1,1c0.7,0.4,1.4,0.9,2,1.3c0.4,0.2,0.6,0.8,0.5,1.2
		c-0.1,0.5-0.6,0.8-1.1,0.7c-0.5,0-0.8-0.4-0.9-0.9c0-0.2,0-0.4,0-0.5c0-0.2-0.1-0.3-0.3-0.3c-0.5,0-1,0-1.5,0c-0.1,0-0.2,0-0.2,0.2
		c0,0.3,0,0.6,0,0.9c0.1,0.6,0.3,1.2,0.9,1.5c0.1,0,0.2,0.1,0.2,0.2c0,0,0,0,0,0.1c-0.1,0-0.3,0-0.4,0c-2.1,0-4.2,0-6.4,0
		c-0.1,0-0.1,0-0.1,0c-0.1,0-0.1,0.1-0.2,0.2c0.1,0.1,0.1,0.2,0.2,0.2s0.2,0,0.4,0c0.1,0,0.1,0,0.2,0c2.1,0,4.2,0,6.3,0
		c0.6,0,1.1,0,1.7,0c2,0,4,0,6,0c2.2,0,4.4,0,6.6,0c0.9,0,1.8,0,2.7,0c0.3,0,0.6,0,0.8,0c0.1,0,0.2,0,0.2,0.2s0,0.4,0,0.6
		c0,0.4,0,0.7,0,1.1c0,0.1,0.1,0.3,0.2,0.3c0.1,0,0.2-0.2,0.2-0.3c0-0.5,0-1,0-1.5c0-0.1,0.1-0.2,0.2-0.2c0.4,0,0.8,0,1.2,0
		c0.2,0,0.4,0,0.5,0c0.4,0,0.8,0,1.2,0c0.1,0,0.2,0,0.2,0c0.1,0,0.1-0.1,0.1-0.2C58.1,54.6,58,54.5,58,54.5z M51.4,48.6
		c-0.3-0.2-0.6-0.4-0.8-0.6c-0.3-0.4-0.4-1.2,0.3-1.5c0.7-0.4,1.4,0.1,1.5,0.9c0,0.1,0,0.1,0,0.2c0,0.2,0.1,0.2,0.2,0.2
		c0.5,0,1,0,1.5,0c0.2,0,0.3,0.1,0.3,0.3c0,0.6,0,1.2,0,1.8c0,0.3,0,0.6,0,0.8c0,0.1,0,0.1,0,0.2c0,0,0,0-0.1,0l-0.1-0.1
		c-0.3-0.7-0.8-1.1-1.4-1.4C52.3,49.1,51.8,48.9,51.4,48.6z M54.3,53.5c0,0.3,0,0.5,0,0.8c0,0.1-0.1,0.2-0.1,0.2c-0.4,0-0.7,0-1.1,0
		c0,0,0,0,0-0.1c0.5-0.3,1-0.7,1.2-1.3C54.4,53.2,54.3,53.3,54.3,53.5z"/>
	<path class="st0" d="M5,35.7c0.3-0.1,0.5-0.4,0.7-0.6c0.2-0.3,0.2-0.6,0.1-0.9c-0.1-0.3-0.2-0.7-0.5-1c-0.2-0.3-0.7-0.4-1.1-0.4
		c-0.5,0.1-1,0.2-1.5,0.4c-0.3,0.1-0.5,0.2-0.8,0.3c-0.3,0.2-0.6,0.4-0.8,0.8c-0.2,0.4-0.1,0.7,0,1c0.2,0.6,0.7,1.1,1.4,1.1
		c0.1,0,0.3,0,0.4,0C3.6,36.1,4.3,35.9,5,35.7z M2.6,35.5c-0.3,0-0.6-0.2-0.6-0.4c-0.1-0.3,0.1-0.5,0.3-0.6c0.4-0.2,0.8-0.2,1.2-0.4
		C3.7,34,4,33.9,4.2,33.9C4.6,33.8,5,34,4.9,34.4C5,34.7,4.7,34.9,4.3,35c-0.3,0.1-0.6,0.2-0.9,0.2C3.1,35.3,2.9,35.4,2.6,35.5z"/>
	<path class="st0" d="M1.8,33.1c0.5,0,0.8-0.2,1-0.6c0.2-0.3,0.3-0.7,0.5-1.1c0.1-0.2,0.1-0.4,0.4-0.5c0.3,0,0.4,0,0.5,0.4
		c0.1,0.2-0.1,0.4-0.3,0.5c-0.1,0-0.3,0.1-0.3,0.1c0,0.2,0,0.5,0.1,0.7c0.1,0.2,0.3,0,0.5,0l0,0c0.2-0.1,0.5-0.2,0.6-0.3
		c0.2-0.2,0.4-0.5,0.3-0.8c0.1-0.3,0-0.6-0.2-0.8C4.7,30.2,4.3,30,3.8,30c-0.6,0-1.1,0.3-1.3,0.9c-0.1,0.3-0.2,0.6-0.4,0.9
		c0,0.1-0.1,0.2-0.2,0.3c-0.2,0.1-0.4,0.1-0.5-0.1c-0.1-0.1-0.1-0.4-0.1-0.5c0-0.3,0.2-0.4,0.5-0.4c0.2,0,0.3-0.1,0.3-0.3
		c0-0.1-0.1-0.3-0.1-0.4c0-0.2-0.2-0.3-0.4-0.2c-0.1,0-0.2,0.1-0.3,0.1c-0.2,0.1-0.4,0.1-0.5,0.2c-0.5,0.5-0.5,1.5,0,2
		C0.9,32.9,1.3,33.1,1.8,33.1z"/>
	<path class="st0" d="M9.6,43.9c0.5-0.4,0.8-1,0.5-1.6c-0.2-0.4-0.5-0.7-1-0.8c-0.5,0-0.8,0.2-1.1,0.5c-0.5,0.3-0.9,0.7-1.3,1.1
		c-0.3,0.3-0.5,0.7-0.5,1.1c0,0.5,0.7,1.3,1.2,1.2c0.2-0.1,0.5-0.1,0.6-0.2c0.3-0.2,0.7-0.5,1-0.8C9.2,44.3,9.4,44.1,9.6,43.9z
		 M7.6,44.3c-0.1,0.1-0.3,0.1-0.4,0.1S7.1,44.3,7,44.2c0-0.1,0.1-0.2,0.1-0.3c0.3-0.3,0.7-0.6,1-0.9c0.2-0.2,0.4-0.3,0.6-0.5
		c0.1-0.1,0.2-0.1,0.3-0.1s0.3,0,0.3,0c0.1,0.1,0.1,0.3,0,0.4c-0.1,0.1-0.3,0.3-0.4,0.4C8.5,43.7,8.1,44,7.6,44.3z"/>
	<path class="st0" d="M7.9,41.6c0.4-0.3,0.8-0.9,0.5-1.5c-0.2-0.4-0.7-0.8-1.2-0.9c-0.2,0.1-0.4,0.1-0.6,0.2
		c-0.6,0.4-1.2,0.7-1.8,1.1c-0.4,0.3-0.7,0.7-0.6,1.2c0,0.4,0.4,0.9,0.8,1c0.5,0.1,0.9,0,1.3-0.2C7,42.3,7.5,42,7.9,41.6z M5.4,42.1
		C5.3,42,5.2,42,5.2,41.9s0-0.2,0-0.3C5.6,41.2,6,41,6.5,40.7c0.2-0.2,0.5-0.3,0.8-0.4c0.2-0.1,0.3-0.1,0.4,0.1
		c0.1,0.2,0,0.3-0.1,0.4c-0.4,0.3-0.9,0.7-1.4,1C5.9,41.9,5.7,42,5.4,42.1z"/>
	<path class="st0" d="M6.6,39.1C6.8,39,6.9,38.7,7,38.5c0.2-0.3,0.1-0.5,0-0.8c-0.1-0.4-0.5-0.9-1.1-0.8c-0.6,0-1.1,0.3-1.5,0.7
		s-0.4,1,0,1.4c0,0,0.1,0.1,0.1,0.2c0,0.1-0.1,0.1-0.2,0.1s-0.2,0-0.3,0.1c-0.1,0.1-0.3,0-0.4-0.1c-0.1-0.2,0-0.3,0.2-0.3
		c0,0,0.1,0,0.1-0.1C4,38.7,4.1,38.6,4,38.5c-0.1-0.2-0.2-0.3-0.3-0.5c0,0-0.1-0.1-0.2-0.1C3.2,38,3,38.2,2.8,38.5
		c-0.1,0.3-0.1,0.5,0,0.8c0.1,0.4,0.6,1,1.1,0.9c0.2-0.1,0.5-0.1,0.7-0.2C5.3,39.8,6,39.5,6.6,39.1z M5.3,38.1
		c0.2-0.1,0.4-0.2,0.6-0.3c0.1,0,0.3,0,0.4,0.1c0.2,0.1,0.1,0.2,0,0.4c-0.2,0.2-0.4,0.3-0.6,0.4c-0.1,0-0.1,0-0.2,0.1
		c-0.1-0.1-0.2-0.2-0.3-0.3C5.1,38.3,5.2,38.1,5.3,38.1z"/>
	<path class="st0" d="M11.8,44.1c-0.1-0.1-0.2-0.2-0.3-0.2c-0.3-0.2-0.7-0.1-1-0.2l0,0c-0.2,0.1-0.3,0.3-0.5,0.4
		c0,0-0.1,0.1-0.1,0.2c0,0,0.1,0.1,0.2,0.1c0.1,0,0.2,0,0.4,0.1c-0.1,0.1-0.1,0.2-0.2,0.3c-0.2,0.2-0.5,0.5-0.7,0.7
		c-0.4,0.4-0.7,0.8-1.1,1.2c-0.2,0.2-0.2,0.3,0,0.5c0.1,0.1,0.2,0.1,0.2,0.2c0.1,0.1,0.2,0.1,0.3,0c0.2-0.2,0.5-0.4,0.7-0.7
		c0.3-0.3,0.6-0.6,0.9-0.9c0.4-0.4,0.8-0.8,1.2-1.2C12,44.4,12,44.2,11.8,44.1z"/>
	<path class="st0" d="M0.4,29.7c0.2,0,0.5,0,0.7,0c0.1,0,0.3,0,0.4,0c0.4-0.1,0.8-0.1,1.2-0.2l0,0c0.2,0,0.3,0,0.5,0
		c0.4,0,0.9-0.1,1.3-0.1l0.1-0.1c0-0.2,0-0.3,0-0.5c0-0.1,0-0.3-0.2-0.2c-0.5,0-1,0.1-1.5,0.1c-0.2,0-0.5,0-0.7,0
		c-0.7,0.1-1.3,0.1-2,0.1C0.1,28.8,0,28.9,0,29c0,0.2,0.1,0.4,0.1,0.6C0.2,29.7,0.3,29.8,0.4,29.7z"/>
	<path class="st0" d="M27,2.4c-0.1,0.4-0.1,0.4,0.3,0.4c0.1,0,0.2,0,0.3-0.1c0.2-0.1,0.2-0.3,0.2-0.5s-0.1-0.3-0.3-0.3
		c-0.1,0-0.3,0-0.4,0C26.8,2,27,2.2,27,2.4L27,2.4z"/>
	<path class="st0" d="M42,9.1c0.1,0,0.1,0,0.2-0.1c0.2-0.2,0.4-0.3,0.5-0.5c0.2-0.2,0.4-0.5,0.5-0.7s0.1-0.5-0.1-0.6
		c-0.2-0.1-0.5-0.1-0.6,0.1c-0.3,0.4-0.6,0.7-0.9,1.1c-0.1,0.1-0.2,0.3-0.1,0.4C41.6,9,41.7,9.1,42,9.1z"/>
	<path class="st0" d="M37.4,5.5c0.1,0.1,0.2,0.1,0.3,0.2c0.3,0,0.3,0,0.3-0.2s0.1-0.5,0.1-0.7c0-0.1,0-0.2,0-0.3H38
		c-0.1,0.1-0.2,0.2-0.2,0.3c-0.1,0.2-0.3,0.3-0.4,0.5C37.4,5.3,37.3,5.4,37.4,5.5z"/>
</g>
</svg>
