<?xml version="1.0" encoding="utf-8"?>
<!-- Generator: Adobe Illustrator 28.2.0, SVG Export Plug-In . SVG Version: 6.00 Build 0)  -->
<svg version="1.1" id="Calque_1" xmlns="http://www.w3.org/2000/svg" xmlns:xlink="http://www.w3.org/1999/xlink" x="0px" y="0px"
	 viewBox="0 0 56.7 56.7" style="enable-background:new 0 0 56.7 56.7;" xml:space="preserve">
<style type="text/css">
	.st0{fill:#1B1B1A;}
</style>
<g>
	<path class="st0" d="M56.7,28.2C56.6,44.1,44,56.4,28.6,56.6C13.2,56.8,0.3,44.3,0,28.8C-0.2,13,12.2,0.2,28,0
		C43.7-0.2,56.4,12.3,56.7,28.2z M28.4,40.8c0-0.1,0-0.1,0-0.2c1.2,0,2.3,0.1,3.5,0c3.2-0.2,6.3-0.3,9.5-0.7c2.5-0.3,3.7-1.6,4-4.1
		c0.7-5,0.7-10,0-15c-0.4-2.5-1.6-3.8-4.1-4.1c-2.7-0.4-5.5-0.5-8.3-0.7c-5.5-0.2-11.1-0.1-16.6,0.5c-3.4,0.4-4.8,1.9-5.1,5.2
		c-0.4,4.4-0.4,8.8,0,13.1c0.4,3.4,1.6,4.8,5,5.2C20.3,40.4,24.3,40.6,28.4,40.8z"/>
	<path class="st0" d="M24.9,33.5c0-3.5,0-6.9,0-10.4c3,1.7,6,3.4,9,5.2C30.9,30,28,31.7,24.9,33.5z"/>
</g>
</svg>
