<?xml version="1.0" encoding="utf-8"?>
<!-- Generator: Adobe Illustrator 27.9.0, SVG Export Plug-In . SVG Version: 6.00 Build 0)  -->
<svg version="1.1" id="Calque_1" xmlns="http://www.w3.org/2000/svg" xmlns:xlink="http://www.w3.org/1999/xlink" x="0px" y="0px"
	 viewBox="0 0 850.4 416.7" style="enable-background:new 0 0 850.4 416.7;" xml:space="preserve">
<style type="text/css">
	.st0{fill:#424242;}
</style>
<g>
	<path class="st0" d="M37.9,316.5h17.3l37.9,97.8H78.7l-9.8-26.1H23.5L14,414.4H0L37.9,316.5z M64.5,376.4l-11.4-30.5l-6.6-17.7
		h-0.7l-6.4,17.4L28,376.4H64.5z"/>
	<path class="st0" d="M115.4,386.7c0-1,0.1-2.4,0.1-2.9h13.4c-0.1,1-0.3,2.1-0.3,3c0,12,11,17.7,26.4,17.7
		c17.8,0,27.7-5.7,27.7-16.3c0-25.1-64.9-11.8-64.9-47.2c0-18,17.1-26.2,38.1-26.2c20.8,0,37.5,8,37.5,27.5v1.7h-13.3v-2.1
		c0-10-10.1-15.5-23.8-15.5c-14.4,0-24.8,4.3-24.8,13.7c0,23.4,64.8,11.3,64.8,46.1c0,22-17.3,30-40.5,30
		C133.9,416.1,115.4,408.2,115.4,386.7z"/>
	<path class="st0" d="M224.8,386.7c0-1,0.1-2.4,0.1-2.9h13.4c-0.1,1-0.3,2.1-0.3,3c0,12,11,17.7,26.4,17.7
		c17.8,0,27.7-5.7,27.7-16.3c0-25.1-64.9-11.8-64.9-47.2c0-18,17.1-26.2,38.1-26.2c20.8,0,37.5,8,37.5,27.5v1.7h-13.3v-2.1
		c0-10-10.1-15.5-23.8-15.5c-14.4,0-24.8,4.3-24.8,13.7c0,23.4,64.8,11.3,64.8,46.1c0,22-17.3,30-40.5,30
		C243.3,416.1,224.8,408.2,224.8,386.7z"/>
	<path class="st0" d="M333.9,365.5c0-33.9,18.3-50.6,48.8-50.6s48.9,16.7,48.9,50.6s-18.4,50.6-48.9,50.6
		C352.1,416.1,333.9,399.4,333.9,365.5z M417.6,366v-0.6c-0.1-28.2-13.4-39.1-34.9-39.1c-21.4,0-34.7,10.8-34.8,39.1v0.6
		c0,27.8,13.3,38.5,34.8,38.5C404.3,404.5,417.6,393.8,417.6,366z"/>
	<path class="st0" d="M459.1,365.5c0-33.9,16.3-50.6,47.6-50.6c24.5,0,42.1,12.1,42.1,37.1H535c0-17.1-11-25.5-28.2-25.5
		c-22.7,0-33.5,11-33.7,38.8v0.3c0,28,10.8,39.1,33.7,39.1c17.5,0,28.8-8.3,28.8-25.2h13.3c0,25.2-17.5,36.8-42.1,36.8
		C475.3,416.1,459.1,399.4,459.1,365.5z"/>
	<path class="st0" d="M582.7,316.5h13.5v97.8h-13.5V316.5z"/>
	<path class="st0" d="M662.4,316.5h17.3l37.9,97.8h-14.4l-9.8-26.1H648l-9.6,26.1h-14L662.4,316.5z M689,376.4l-11.4-30.5l-6.6-17.7
		h-0.7l-6.4,17.4l-11.4,30.8L689,376.4L689,376.4z"/>
	<path class="st0" d="M759.1,328.4h-33.7v-11.8h80.9v11.8h-33.7v86h-13.5V328.4z"/>
	<path class="st0" d="M836.8,316.5h13.5v97.8h-13.5V316.5z"/>
</g>
<path class="st0" d="M0,0.6h130c59.1,0,88.2,33.5,88.2,86.3c0,53.2-31.1,87.4-91,87.4H50.4v96.5H0V0.6z M125.6,131.4
	c26.4,0,41.7-16.9,41.7-44.5c0-27.2-14.2-43.3-41.7-43.3H50.4v87.8H125.6z"/>
<path class="st0" d="M297,0.6h63.4l105.2,270.2h-54.4l-22.1-58.7H265.5l-21.7,58.7h-52L297,0.6z M373,169.6l-27.6-74
	C339.9,81.4,330,49.5,328.1,44h-2c-2,5.5-11.8,37-17.3,51.6l-27.6,74H373z"/>
<path class="st0" d="M622,0.6h48l117.4,161.1c4.3,6.3,12.2,20.1,13.4,21.7l2-0.8c0-2.4-0.8-16.1-0.8-21.3V0.6h48.4v270.2h-47.3
	L685,108.1c-6.3-9.1-12.2-20.5-13.4-22.1l-2,1.2c0,2,0.8,15,0.8,21.7v161.9H622V0.6z"/>
<rect x="328.7" y="184" class="st0" width="324.5" height="13.7"/>
<rect x="529.2" y="111.2" class="st0" width="13.7" height="159.5"/>
</svg>
