<?xml version="1.0" encoding="utf-8"?>
<!-- Generator: Adobe Illustrator 27.9.0, SVG Export Plug-In . SVG Version: 6.00 Build 0)  -->
<svg version="1.1" id="Calque_1" xmlns="http://www.w3.org/2000/svg" xmlns:xlink="http://www.w3.org/1999/xlink" x="0px" y="0px"
	 viewBox="0 0 283.5 283.5" style="enable-background:new 0 0 283.5 283.5;" xml:space="preserve">
<style type="text/css">
	.st0{fill:#C70000;}
</style>
<rect x="85" y="149.4" width="51.9" height="12.5"/>
<polygon points="81.4,233.3 111.8,31.3 142.2,233.3 154.8,233.3 119.8,0 119.6,0.1 119.6,0 103.8,0 103.8,0 68.8,233.3 "/>
<polygon points="214.4,153.1 178.8,153.1 178.8,117.5 173.8,117.5 173.8,153.1 138.2,153.1 138.2,158.1 173.8,158.1 173.8,193.7 
	178.8,193.7 178.8,158.1 214.4,158.1 "/>
<path class="st0" d="M270.9,0v185.7C254.5,123.8,238,61.9,221.6,0h-12.5v233.3h12.5V50.2c16.4,61,32.9,122,49.3,183.1v0.1h12.5V0
	H270.9z"/>
<path d="M31.3,0.1H12.5l0,0H0l0,0v12.4v118.9v12.4v0.2v13.8v75.6h12.5v-81.3v-8.2v-0.2h18.8c22.5,0,40.7-18.3,40.7-40.7V40.8
	C72,18.3,53.8,0.1,31.3,0.1z M59.7,103c0,15.6-12.7,28.3-28.3,28.3H12.5V12.4h18.8c15.6,0,28.3,12.7,28.3,28.3V103H59.7z"/>
</svg>
