<?xml version="1.0" encoding="utf-8"?>
<!-- Generator: Adobe Illustrator 28.1.0, SVG Export Plug-In . SVG Version: 6.00 Build 0)  -->
<svg version="1.1" id="Calque_2_00000049917274762993938090000016965997283335626915_"
	 xmlns="http://www.w3.org/2000/svg" xmlns:xlink="http://www.w3.org/1999/xlink" x="0px" y="0px" viewBox="0 0 283.5 283.5"
	 style="enable-background:new 0 0 283.5 283.5;" xml:space="preserve">
<style type="text/css">
	.st0{fill:#F2F2F2;}
	.st1{fill:#1B1B1A;}
</style>
<path class="st0" d="M0.5,0H47c19.6,0,29.7,28.4,29.7,69.1c0,42.3-11.4,70.7-29.7,70.7H13.8v86.9H0.5V0z M46.4,112.4
	c10.3,0,17-16.2,17-43c0-26.4-5.7-42-17-42H13.8v85H46.4z"/>
<path class="st0" d="M114.6,0h16.9l37.1,226.8h-14.1l-9.6-60.5h-44.3l-9.3,60.5H77.6L114.6,0z M140.6,138.9l-11.1-70.7l-6.4-41h-0.7
	L116,67.4l-11.1,71.4L140.6,138.9L140.6,138.9z"/>
<polygon class="st0" points="216.1,153.1 186.2,153.1 186.2,124.1 180.2,124.1 180.2,153.1 150.2,153.1 150.2,159 180.2,159 
	180.2,188 186.2,188 186.2,159 216.1,159 "/>
<g>
	<path class="st0" d="M15.1,236.9h6.6l14.6,45.9h-5.5L27,270.6H9.6l-3.7,12.2H0.5L15.1,236.9z M25.3,265l-4.4-14.3l-2.5-8.3h-0.3
		l-2.5,8.2L11.3,265H25.3z"/>
	<path class="st0" d="M39.4,269.8c0-0.5,0.1-1.1,0.1-1.3h5.2c-0.1,0.5-0.1,1-0.1,1.4c0,5.6,4.2,8.3,10.1,8.3
		c6.9,0,10.6-2.7,10.6-7.6c0-11.8-24.9-5.5-24.9-22.1c0-8.4,6.6-12.3,14.6-12.3s14.4,3.7,14.4,12.9v0.8h-5.1v-1
		c0-4.7-3.9-7.3-9.2-7.3c-5.5,0-9.5,2-9.5,6.4c0,11,24.9,5.3,24.9,21.6c0,10.3-6.6,14-15.6,14C46.5,283.6,39.4,279.9,39.4,269.8z"/>
	<path class="st0" d="M75.9,269.8c0-0.5,0.1-1.1,0.1-1.3h5.2c-0.1,0.5-0.1,1-0.1,1.4c0,5.6,4.2,8.3,10.1,8.3
		c6.9,0,10.6-2.7,10.6-7.6c0-11.8-24.9-5.5-24.9-22.1c0-8.4,6.6-12.3,14.6-12.3s14.4,3.7,14.4,12.9v0.8h-5.1v-1
		c0-4.7-3.9-7.3-9.2-7.3c-5.5,0-9.5,2-9.5,6.4c0,11,24.9,5.3,24.9,21.6c0,10.3-6.6,14-15.6,14C83.1,283.6,75.9,279.9,75.9,269.8z"/>
	<path class="st0" d="M112.4,259.9c0-15.9,7-23.7,18.7-23.7s18.8,7.8,18.8,23.7s-7.1,23.7-18.8,23.7S112.4,275.8,112.4,259.9z
		 M144.6,260.1v-0.3c-0.1-13.2-5.2-18.3-13.4-18.3s-13.3,5.1-13.4,18.3v0.3c0,13,5.1,18.1,13.4,18.1
		C139.5,278.2,144.6,273.2,144.6,260.1z"/>
	<path class="st0" d="M155,259.9c0-15.9,6.2-23.7,18.3-23.7c9.4,0,16.2,5.7,16.2,17.4h-5.3c0-8-4.2-12-10.9-12
		c-8.7,0-12.9,5.2-12.9,18.2v0.1c0,13.1,4.2,18.3,12.9,18.3c6.7,0,11.1-3.9,11.1-11.8h5.1c0,11.8-6.7,17.3-16.2,17.3
		C161.3,283.6,155,275.8,155,259.9z"/>
	<path class="st0" d="M197,236.9h5.2v45.9H197V236.9z"/>
	<path class="st0" d="M222.2,236.9h6.6l14.6,45.9h-5.5l-3.8-12.2h-17.4l-3.7,12.2h-5.4L222.2,236.9z M232.4,265l-4.4-14.3l-2.5-8.3
		h-0.3l-2.5,8.2l-4.4,14.4H232.4z"/>
	<path class="st0" d="M253.9,242.5H241V237h31v5.5h-12.9v40.3h-5.2L253.9,242.5L253.9,242.5z"/>
	<path class="st0" d="M278.3,236.9h5.2v45.9h-5.2V236.9z"/>
</g>
<path class="st1" d="M210.1,0h11.1l47.1,158l3.1,10.6l0.5-0.3v-15.2V0h11.6v226.8H273l-47.4-160l-3.4-11.6l-0.5,0.3v13.6v157.7
	h-11.6L210.1,0L210.1,0z"/>
</svg>
