<?xml version="1.0" encoding="utf-8"?>
<!-- Generator: Adobe Illustrator 28.1.0, SVG Export Plug-In . SVG Version: 6.00 Build 0)  -->
<svg version="1.1" id="Calque_1" xmlns="http://www.w3.org/2000/svg" xmlns:xlink="http://www.w3.org/1999/xlink" x="0px" y="0px"
	 viewBox="0 0 566.9 226.7" style="enable-background:new 0 0 566.9 226.7;" xml:space="preserve">
<style type="text/css">
	.st0{fill:#1B1B1A;}
	.st1{fill:#E52213;}
</style>
<path class="st0" d="M0.6-0.1h46.5c19.6,0,29.7,28.4,29.7,69.1c0,42.3-11.4,70.7-29.7,70.7H13.9v86.9H0.6V-0.1z M46.5,112.3
	c10.3,0,17-16.2,17-43c0-26.4-5.7-42-17-42H13.9v85H46.5z"/>
<path class="st0" d="M114.7-0.1h16.9l37.1,226.8h-14.1l-9.6-60.5h-44.3l-9.3,60.5H77.7L114.7-0.1z M140.7,138.8l-11.1-70.7l-6.4-41
	h-0.7l-6.4,40.2L105,138.7L140.7,138.8L140.7,138.8z"/>
<polygon class="st0" points="216.2,153 186.3,153 186.3,124 180.3,124 180.3,153 150.3,153 150.3,158.9 180.3,158.9 180.3,187.9 
	186.3,187.9 186.3,158.9 216.2,158.9 "/>
<path class="st1" d="M210.2-0.1h11.1l47.1,158l3.1,10.6l0.5-0.3V153V-0.1h11.6v226.8h-10.5l-47.4-160l-3.4-11.6l-0.5,0.3V69v157.7
	h-11.6L210.2-0.1L210.2-0.1z"/>
<path class="st0" d="M304.3,2h14c6.2,0,9.3,3.6,9.3,9c0,5.5-3.4,9.2-9.4,9.2H309V31h-4.7V2z M318,16.2c3,0,4.8-1.9,4.8-5.2
	c0-3.2-1.6-5-4.8-5h-9v10.2H318z"/>
<path class="st0" d="M332.2,8.8h3.5l0.4,3.4h0.3c0.8-2,2.2-3.9,5.1-3.9c1.2,0,2.1,0.3,2.1,0.3v4.1H342c-3.2,0-5.5,1.7-5.5,5.8V31
	h-4.4V8.8z"/>
<path class="st0" d="M345.7,19.9c0-8,3.6-11.6,10.6-11.6c7,0,10.6,3.6,10.6,11.6s-3.6,11.6-10.6,11.6
	C349.3,31.5,345.7,27.9,345.7,19.9z M362.4,20.1v-0.4c0-5.4-1.8-7.8-6.1-7.8c-4.3,0-6.1,2.4-6.1,7.8v0.4c0,5.4,1.8,7.8,6.1,7.8
	C360.5,27.9,362.4,25.5,362.4,20.1z"/>
<path class="st0" d="M369.2,33.4c0-2.9,2-4.1,3.6-4.7c-1.3-0.7-2.3-1.8-2.3-3.4c0-2.3,2.3-3.4,3.8-3.8c-1.9-1.3-3-3.3-3-5.8
	c0-4.7,3.4-7.5,9.3-7.5c1.6,0,3,0.3,4.3,0.7c2.1-1.1,2.8-2.6,3-3.8h4.2c0,2.8-1.7,4.8-4.4,5.5c1.4,1.3,2.3,3,2.3,5.2
	c0,4.7-3.5,7.5-9.2,7.5h-3.5c-1.4,0-2.1,0.7-2.1,1.6c0,0.9,0.7,1.6,2,1.6h9.3c3.5,0,5.7,2.5,5.7,5.6c0,3.3-2.5,6.6-7.4,6.6h-9.4
	C372.3,38.7,369.2,37.3,369.2,33.4z M384.6,35.4c1.7,0,3-1,3-2.6s-1.1-2.5-2.6-2.5h-8.9c-1.5,0-2.5,1-2.5,2.5c0,1.6,1,2.6,2.5,2.6
	H384.6z M385.5,15.8c0-2.8-1.6-4.3-5-4.3c-3.3,0-4.9,1.6-4.9,4.3c0,2.7,1.6,4.3,4.9,4.3C383.8,20.1,385.5,18.5,385.5,15.8z"/>
<path class="st0" d="M394.2,19.9c0-8,3.5-11.6,10.6-11.6c6.3,0,9.7,3.2,9.7,11V21h-15.8c0.2,4.7,2,7,6.2,7c3,0,5.4-1.4,5.4-4.7h4.3
	c0,5.5-4.2,8.2-9.7,8.2C397.7,31.5,394.2,27.9,394.2,19.9z M410,17.7c0-4.3-2.1-5.9-5.2-5.9c-3.8,0-5.6,1.8-6,5.9H410z"/>
<path class="st0" d="M419.5,26.4v-14h-2.7V8.8h2.7l0.8-6.2h3.5v6.2h3.8v3.6h-3.8V26c0,1.3,0.6,1.9,1.8,1.9h1.9v3
	c-0.8,0.3-2.2,0.6-3.3,0.6C420.7,31.5,419.5,28.9,419.5,26.4z"/>
<path class="st0" d="M432,26.4v-14h-2.7V8.8h2.8l0.8-6.2h3.5v6.2h3.8v3.6h-3.8V26c0,1.3,0.6,1.9,1.8,1.9h1.9v3
	c-0.8,0.3-2.2,0.6-3.3,0.6C433.2,31.5,432,28.9,432,26.4z"/>
<path class="st0" d="M442.6,25.3c0-6.1,6-7.6,14.4-7.6v-2.2c0-2.2-0.8-3.7-4.5-3.7c-3.6,0-4.6,1.6-4.6,3v0.6h-4.2c0-0.3,0-0.6,0-0.9
	c0-4,3.7-6.2,9-6.2c5.8,0,8.7,2.5,8.7,6.8v11.4c0,1.1,0.7,1.5,1.5,1.5h1.5v2.9c-0.5,0.3-1.5,0.6-3,0.6c-2,0-3.5-1.2-3.9-3.1h-0.3
	c-1.5,2-4,3.2-7.3,3.2C447.1,31.5,442.6,30.6,442.6,25.3z M456.9,22.3V21c-5.7,0-9.9,0.7-9.9,3.9c0,2.2,1.4,3,4,3
	C454.2,28,456.9,25.9,456.9,22.3z"/>
<path class="st0" d="M465.6,28.8l12.2-16.5h-11.4V8.8h17.7v2.1L472,27.4h12.8V31h-19.2V28.8z"/>
<path class="st0" d="M488.7,0.4h4.3v4.4h-4.3V0.4z M488.7,8.8h4.4V31h-4.4V8.8z"/>
<path class="st0" d="M497.4,19.9c0-8,3.6-11.6,10.6-11.6c7,0,10.6,3.6,10.6,11.6S515,31.5,508,31.5C501,31.5,497.4,27.9,497.4,19.9z
	 M514.1,20.1v-0.4c0-5.4-1.8-7.8-6.1-7.8c-4.3,0-6.1,2.4-6.1,7.8v0.4c0,5.4,1.8,7.8,6.1,7.8C512.3,27.9,514.1,25.5,514.1,20.1z"/>
<path class="st0" d="M523,8.8h3.5l0.4,3h0.3c1.6-2.3,4.2-3.5,7.3-3.5c4.2,0,7.1,2,7.1,7.7V31h-4.4V16.5c0-3.5-1.7-4.5-4.4-4.5
	c-3,0-5.5,2.3-5.5,6V31H523V8.8z"/>
<path class="st0" d="M546,19.9c0-8,3.5-11.6,10.6-11.6c6.3,0,9.7,3.2,9.7,11V21h-15.8c0.2,4.7,2,7,6.2,7c3,0,5.4-1.4,5.4-4.7h4.3
	c0,5.5-4.2,8.2-9.7,8.2C549.5,31.5,546,27.9,546,19.9z M561.8,17.7c0-4.3-2.1-5.9-5.2-5.9c-3.8,0-5.6,1.8-6,5.9H561.8z"/>
<path class="st0" d="M312.7,52.8h5.9l11.2,29h-5l-2.7-7.1h-13.4l-2.6,7.1h-4.8L312.7,52.8z M320.6,70.7l-3.2-8.5l-1.9-5.4h-0.2
	c-0.4,1.2-1.2,3.7-1.9,5.3l-3.2,8.6H320.6z"/>
<path class="st0" d="M332.9,59.5h3.5l0.4,3.4h0.3c0.8-2,2.2-3.9,5.1-3.9c1.2,0,2.1,0.3,2.1,0.3v4.1h-1.6c-3.2,0-5.5,1.7-5.5,5.8
	v12.4h-4.4V59.5z"/>
<path class="st0" d="M346.4,70.7c0-8,3.3-11.6,10.1-11.6c6,0,9,3,9,8.8h-4.4c0-3.5-1.2-5.2-4.7-5.2c-3.8,0-5.5,2.4-5.5,8v0.3
	c0,5.5,1.6,7.9,5.6,7.9c3.4,0,4.8-1.9,4.8-5.2h4.2c0,5.1-2.9,8.8-9,8.8C349.6,82.3,346.4,78.7,346.4,70.7z"/>
<path class="st0" d="M369.6,51.2h4.4v10.9h0.3c1.5-1.9,3.8-3,6.9-3c4.2,0,7.1,2,7.1,7.7v15.1h-4.4V67.2c0-3.5-1.7-4.5-4.4-4.5
	c-3,0-5.5,2.3-5.5,6v13.1h-4.4V51.2z"/>
<path class="st0" d="M393.9,51.2h4.3v4.4h-4.3V51.2z M393.9,59.5h4.4v22.2h-4.4V59.5z"/>
<path class="st0" d="M404.5,77.2v-14h-2.7v-3.6h2.7l0.8-6.2h3.5v6.2h3.8v3.6h-3.8v13.6c0,1.3,0.6,1.9,1.8,1.9h1.9v3
	c-0.8,0.3-2.2,0.6-3.3,0.6C405.6,82.2,404.5,79.7,404.5,77.2z"/>
<path class="st0" d="M415.2,70.7c0-8,3.5-11.6,10.6-11.6c6.3,0,9.7,3.2,9.7,11v1.7h-15.8c0.2,4.7,2,7,6.2,7c3,0,5.4-1.4,5.4-4.7h4.3
	c0,5.5-4.2,8.2-9.7,8.2C418.7,82.3,415.2,78.7,415.2,70.7z M431,68.5c0-4.3-2.1-5.9-5.2-5.9c-3.8,0-5.6,1.8-6,5.9H431z"/>
<path class="st0" d="M440.5,77.2v-14h-2.7v-3.6h2.8l0.8-6.2h3.5v6.2h3.8v3.6h-3.8v13.6c0,1.3,0.6,1.9,1.8,1.9h1.9v3
	c-0.8,0.3-2.2,0.6-3.3,0.6C441.6,82.2,440.5,79.7,440.5,77.2z"/>
<path class="st0" d="M453,77.2v-14h-2.7v-3.6h2.7l0.8-6.2h3.5v6.2h3.8v3.6h-3.8v13.6c0,1.3,0.6,1.9,1.8,1.9h1.9v3
	c-0.8,0.3-2.2,0.6-3.3,0.6C454.1,82.2,453,79.7,453,77.2z"/>
<path class="st0" d="M464.8,74.6V59.5h4.4v14.5c0,3.5,1.7,4.5,4.4,4.5c3,0,5.5-2.3,5.5-6V59.5h4.4v22.2h-3.5l-0.4-3h-0.3
	c-1.6,2.3-4.2,3.5-7.3,3.5C467.6,82.3,464.8,80.3,464.8,74.6z"/>
<path class="st0" d="M489.2,59.5h3.5l0.4,3.4h0.3c0.8-2,2.2-3.9,5.1-3.9c1.2,0,2.1,0.3,2.1,0.3v4.1H499c-3.2,0-5.5,1.7-5.5,5.8v12.4
	h-4.4V59.5z"/>
<path class="st0" d="M502.6,76c0-6.1,6-7.6,14.4-7.6v-2.2c0-2.2-0.8-3.7-4.5-3.7c-3.6,0-4.6,1.6-4.6,3v0.6h-4.2c0-0.3,0-0.6,0-0.9
	c0-4,3.7-6.2,9-6.2c5.8,0,8.7,2.5,8.7,6.8v11.4c0,1.1,0.7,1.5,1.5,1.5h1.5v2.9c-0.5,0.3-1.5,0.6-3,0.6c-2,0-3.5-1.2-3.9-3.1h-0.3
	c-1.5,2-4,3.2-7.3,3.2C507.1,82.3,502.6,81.4,502.6,76z M516.9,73.1v-1.4c-5.7,0-9.9,0.7-9.9,3.9c0,2.2,1.4,3,4,3
	C514.2,78.7,516.9,76.7,516.9,73.1z"/>
<path class="st1" d="M304.3,103.5h4.3l14,18.9c0.4,0.5,1,1.5,1.2,1.8l0.2-0.1l0-2.1v-18.5h4.4v29h-4.2l-14.1-19.1
	c-0.5-0.7-1-1.5-1.3-1.9l-0.2,0c0,0.5,0,1.5,0,2.2v18.7h-4.4V103.5z"/>
<path class="st1" d="M333.1,126.8c0-6.1,6-7.6,14.4-7.6V117c0-2.2-0.8-3.7-4.5-3.7c-3.6,0-4.6,1.6-4.6,3v0.6h-4.2c0-0.3,0-0.6,0-0.9
	c0-4,3.7-6.2,9-6.2c5.8,0,8.7,2.5,8.7,6.8V128c0,1.1,0.7,1.5,1.5,1.5h1.5v2.9c-0.5,0.3-1.5,0.6-3,0.6c-2,0-3.5-1.2-3.9-3.1h-0.3
	c-1.5,2-4,3.2-7.3,3.2C337.6,133.1,333.1,132.2,333.1,126.8z M347.5,123.9v-1.4c-5.7,0-9.9,0.7-9.9,3.9c0,2.2,1.4,3,4,3
	C344.8,129.5,347.5,127.5,347.5,123.9z"/>
<path class="st1" d="M358.6,127.9v-14h-2.7v-3.6h2.8l0.8-6.2h3.5v6.2h3.8v3.6h-3.8v13.6c0,1.3,0.6,1.9,1.8,1.9h1.9v3
	c-0.8,0.3-2.2,0.6-3.3,0.6C359.7,133,358.6,130.5,358.6,127.9z"/>
<path class="st1" d="M370.4,125.4v-15.1h4.4v14.5c0,3.5,1.7,4.5,4.4,4.5c3,0,5.5-2.3,5.5-6v-13.1h4.4v22.2h-3.5l-0.4-3h-0.3
	c-1.6,2.3-4.2,3.5-7.3,3.5C373.2,133.1,370.4,131,370.4,125.4z"/>
<path class="st1" d="M394.8,110.3h3.5l0.4,3.4h0.3c0.8-2,2.2-3.9,5.1-3.9c1.2,0,2.1,0.3,2.1,0.3v4.1h-1.6c-3.2,0-5.5,1.7-5.5,5.8
	v12.4h-4.4V110.3z"/>
<path class="st1" d="M408.2,126.8c0-6.1,6-7.6,14.4-7.6V117c0-2.2-0.8-3.7-4.5-3.7c-3.6,0-4.6,1.6-4.6,3v0.6h-4.2c0-0.3,0-0.6,0-0.9
	c0-4,3.7-6.2,9-6.2c5.8,0,8.7,2.5,8.7,6.8V128c0,1.1,0.7,1.5,1.5,1.5h1.5v2.9c-0.5,0.3-1.5,0.6-3,0.6c-2,0-3.5-1.2-3.9-3.1h-0.3
	c-1.5,2-4,3.2-7.3,3.2C412.7,133.1,408.2,132.2,408.2,126.8z M422.5,123.9v-1.4c-5.7,0-9.9,0.7-9.9,3.9c0,2.2,1.4,3,4,3
	C419.8,129.5,422.5,127.5,422.5,123.9z"/>
</svg>
